<svg xmlns="http://www.w3.org/2000/svg" xmlns:xlink="http://www.w3.org/1999/xlink" viewBox="0 0 729.46 1276.55"><defs><style>.a{fill:#121212;}.b{clip-path:url(#a);}.c{fill:#00efca;}</style><clipPath id="a"><rect class="a" width="729.46" height="1276.55"/></clipPath></defs><title>colour-subdued-2</title><rect class="a" x="-0.1" width="729.39" height="1276.55"/><rect class="a" width="729.46" height="1276.55"/><g class="b"><path class="c" d="M0-3.12q363.35,0,726.69,0c2.26,0,2.77.5,2.77,2.74q-.09,466.46-.06,932.9c-2.19-.12-1.78-1.76-1.79-3.08,0-6.47,0-12.93,0-19.39,0-1.09,0-2.42-1.61-2.34-1.31.07-1.33,1.27-1.38,2.28,0,.79,0,1.59,0,2.38,0,10.64,0,21.27,0,31.91,0,1.93-.23,3.24-2.72,3.2-7.32-.12-14.65.1-22-.17-2.28-.09-2.5.67-2.48,2.44.06,4-.08,7.95.06,11.93.07,2.31-.73,3.17-3.12,3.12-6.42-.12-12.84-.06-19.26,0-3.58,0-4.15.61-4.18,4.22s-.12,7,0,10.44c.11,2.44-.72,3.35-3.26,3.29-5.81-.15-11.64,0-17.46-.09-2.65-.05-3.61,1-3.47,3.53.14,2.38,0,4.77,0,7.16-6.42.5-12.85,0-19.27.26-2.51.09-3.35-.82-3.29-3.28.14-5.47,0-11,0-16.42,0-1.89-.47-3.08-2.68-3-2,.07-4.26-.4-4.24,2.71q0,3,.07,5.94c0,2.31-.92,3.44-3.43,3.4q-9-.15-18.08,0c-2.22,0-3-.82-3-3,.1-5.87.06-11.74,0-17.61,0-1.27.5-3.2-1.67-3.14-1.91,0-1.49,1.82-1.5,3-.06,4.17,0,8.35,0,12.53,0,1.56-.27,2.78-2.25,2.77-7.33,0-14.67,0-22,0-1.35,0-2-.56-1.81-2,.92-6.76-.67-13.49-.29-20.25.05-.9.25-2.39-1.12-2.29s-.91,1.57-.92,2.5c0,5.57,0,11.14,0,16.72,0,3.74-.38,4.15-4.1,4.17-6.63,0-13.26,0-19.89,0-4.06,0-4.07,0-4.08-3.93,0-6.47,0-12.94,0-19.4,0-.86.22-1.9-1-2.21a1.43,1.43,0,0,0-1.82.65,6.72,6.72,0,0,0-.34,2.33c0,5.77,0,11.54,0,17.31,0,3.7-.23,3.94-3.88,4-7.24,0-14.47-.1-21.7.07-2.89.07-4.13-.85-3.74-3.73a15.2,15.2,0,0,0,0-1.79c1.91-1.75,1.91-3.63,0-5.38-.29-4.81.36-9.68-.43-14.86-1.47,1.25-1,2.41-1.05,3.43-.05,5-.13,9.91,0,14.86.07,2.49-.84,3.3-3.3,3.27-7.8-.1-15.61,0-23.42,0-2,0-4,.35-5.06-2.06-.49-1.08-1.91-.89-3-.77-1.29.15-2.57.34-3.85.51a.84.84,0,0,0-1.46,0H437.16a.81.81,0,0,0-1.42,0c-1.26,0-2.64-.36-3.46,1.06-1.74.59-1.25,2.07-1.25,3.27,0,7.91,0,15.82,0,23.74a24.86,24.86,0,0,1-6.26.59c-5.92,0-11.84,0-17.75,0-1,0-2.2-.28-2.9.47-1.52,1.64-3.43,1.35-5.31,1.4-6.91.17-13.83-.39-20.73.45-1.5.18-3,.37-2.94,2.22,0,2.39-1.31,2.73-3.28,2.71-6.92-.05-13.84,0-20.76,0a11.4,11.4,0,0,0-5.56,1c-2.22.83-1,2.74-1.34,4.16-1.5,0-3,.11-4.49.11-7.71,0-15.42,0-23.12,0-1.33,0-3.25-.38-3.38,1.54-.19,2.66-1.79,2.61-3.7,2.6-8.21,0-16.41,0-24.62,0-1.41,0-2.9-.14-3.33,1.73a18,18,0,0,1-5.32.62c-4.69-.05-9.38,0-14.07,0-1.14,0-2.5-.31-3,1.29l-7.83,0a14.91,14.91,0,0,1-.49-2.62c-.07-7.63-.08-15.26-.11-22.9a17.65,17.65,0,0,0-.07-1.78c-.07-.63-.36-1.16-1.09-1.2a1.08,1.08,0,0,0-1.16,1.11,20.87,20.87,0,0,0-.09,2.38q0,12.51,0,25a10.85,10.85,0,0,1-2.33.48c-8.73-.1-17.46-.24-26.18-.37-.81,0-1.69,0-2.17-.78-.77-1.25-2-1.08-3.18-1.2-8-.82-16-.31-24.07-.37-2.35,0-3.19-.8-3.15-3.13.1-7.26,0-14.52,0-21.78,0-4.51,0-4.51-4.44-4.49l-29.46,0-3.33-.05a2.26,2.26,0,0,0-.74-1.92q0-10.69,0-21.38c0-1.26.28-2.62-1-3.55-2.3-.65-1.82,1.14-1.83,2.2-.06,6.35,0,12.7,0,19.05,0,3.06.38,6.15-.59,9.16H117c-.19-1-.94-1.24-1.84-1.24.81-7.65.11-15.33.52-23v-3.58c.18-1.44-.23-2.61-1.71-3.09-1-.34-2-.27-2.4,1L111,960l-15.37,0c-4.92,0-9.85,0-14.77,0-2,0-3.84-.39-3.72-3.13.29-7.16-.23-14.3-.63-21.44-.08-1.44.88-4-.9-4.07s-1.45,2.63-1.46,4.26c0,7.56-.07,15.12,0,22.68,0,2.19-.75,3-3,3q-12.66-.12-25.32,0c-2.36,0-3.16-.78-3.13-3.11.11-7.26,0-14.53.06-21.79a17.31,17.31,0,0,0-.71-4.7,1.89,1.89,0,0,0-2-1.43,1.87,1.87,0,0,0-2,1.44,16.57,16.57,0,0,0-.71,4.7c0,8.06,0,16.12,0,24.17,0,2.35-.78,3.14-3.14,3.11q-11.9-.16-23.8,0c-2.52,0-3.32-.82-3.28-3.28.12-7.85,0-15.71,0-23.57,0-1.38.24-2.91-1.35-3.67s-1.67-2-1.67-3.5q0-10.59,0-21.19a14.76,14.76,0,0,0-.2-2.66,1.24,1.24,0,0,0-1.28-1.06,1.23,1.23,0,0,0-1.3,1,15.91,15.91,0,0,0-.22,2.66c0,7.47,0,14.93,0,22.39,0,1,.31,2.1-1.19,2.87Zm667.55,953.2h0c0,2.28-.07,4.56,0,6.83a2.15,2.15,0,0,0,2.38,2.16c1.4,0,2.41-.68,2.44-2.07.07-4.46.07-8.92,0-13.37,0-1.33-.69-2.57-2.38-2.53s-2.45,1.14-2.46,2.74C667.53,945.92,667.55,948,667.55,950.08Zm-20.28,15.3h0c0-.89-.06-1.78,0-2.66.17-2.18-.55-3.31-3-3.27s-2.85,1.24-2.76,3.21c.08,1.77.08,3.56,0,5.33-.09,2,.52,3.12,2.84,3.12s3-1,2.9-3.06C647.22,967.16,647.27,966.27,647.27,965.38Zm48.54-33.11h0c0,2.07,0,4.14,0,6.21,0,1.11.65,1.58,1.74,1.54a1.35,1.35,0,0,0,1.43-1.53c0-3.94,0-7.89,0-11.84a1.56,1.56,0,0,0-1.64-1.72c-1.43,0-1.55,1-1.56,2Z"/><path class="c" d="M608.49,1155.77h0c1.38-1.92,1.46-5.83.14-7-.95-.83-5.59-.88-6.44-.07-1.08,1-.83,5.38.41,7l2.18.09C606.05,1157,607.29,1157.3,608.49,1155.77Zm-225.68,13.8c1.58.62,1.67-.6,1.7-1.56.07-2.77,0-5.55,0-8.32a1.48,1.48,0,0,0-1.09-1.57,22.14,22.14,0,0,0-10.61,0c-.49.16-1,.46-1,1-.05,3.16-.09,6.32,0,9.48,0,.83.55,1.54,1.61,1ZM93,1132.24c-1-.15-1.5.48-1.5,1.36,0,3.56-.08,7.12.06,10.68.07,1.59,1.15,2.41,2.8,2.39,3.12,0,6.25,0,9.38,0,1.83,0,2.7-.73,2.67-2.64,0-3.26,0-6.53,0-9.8,0-1.09.07-2.34-1.66-2A53.58,53.58,0,0,0,93,1132.24Zm277.49-44c-1.06.36-1.14,1.25-1.14,2.17v13.72c0,.92.06,1.82,1.14,2.16l16.48.09c2.05.48,1.68-1.12,1.7-2.16.06-4.62,0-9.23,0-13.85,0-1.2,0-2.47-1.71-2.5C381.45,1087.73,375.94,1087.25,370.46,1088.22Zm-58.3-8.87c-.44,2.2,1.3,1.58,2.22,1.59,6.08.07,12.17,0,18.25.07,2.09,0,3.22-.83,3.3-2.85.25-6.45.32-12.91-.05-19.36-.12-2.09-1.3-3.18-3.49-3.16-6.09,0-12.17,0-18.25,0-1.05,0-2.31-.1-2.19,1.62Zm-.62-32.27c1.5-.35,1.21-1.61,1.21-2.63q.06-11.12,0-22.21c0-1,.22-2.27-1.22-2.67a149.69,149.69,0,0,0-25.93.06c-1.19.5-1,1.58-1,2.55q0,11.18,0,22.35c0,1-.23,2.06,1,2.51C294.26,1047.35,302.9,1047.26,311.54,1047.08Zm-268-80C43,965.9,42,966,41,966H18.81c-1,0-2-.13-2.5,1-1.47.65-1,2-1,3.12,0,7.16,0,14.32,0,21.47,0,1.73-.15,3.44,2,4.1.67.2.68.8.55,1.47-1.47,7.48-.36,15-.64,22.55-.09,2.3,1.06,3.39,3.45,3.36q9.57-.14,19.13,0c2.29,0,3.2-.86,3.11-3.16-.28-7.54.5-15.09-.41-22.62a1.44,1.44,0,0,1,.79-1.71c1.33-.64,1.3-1.85,1.3-3.06,0-7.66,0-15.31,0-23C44.51,968.64,44.67,967.57,43.51,967.05Zm7.05,12.29c0,4.27,0,8.55,0,12.82,0,2,.65,2.94,2.72,2.93,8.14-.05,16.28,0,24.43,0,2.22,0,3.43-.93,3.41-3.42q-.1-12.23,0-24.45c0-2.12-.73-3.08-2.9-3.07q-12.36.09-24.72,0c-2.15,0-3,.83-3,3C50.62,971.19,50.56,975.26,50.56,979.34Zm184.77,69.5c3.82,0,7.64,0,11.46,0,1.76,0,2.77-.57,2.76-2.56,0-7.34,0-14.69,0-22,0-2.24-1-3.45-3.42-3.43q-10.86.12-21.74,0c-2.19,0-2.91,1-2.9,3.07.06,7.34.08,14.69,0,22,0,2.22.91,3,3,2.93C228.08,1048.78,231.71,1048.84,235.33,1048.84Zm32.61-28c-3.82,0-7.65.06-11.47,0-2.05,0-2.76.82-2.74,2.84q.11,11.33,0,22.65c0,2,.77,2.62,2.62,2.61q11.19-.07,22.36,0c2,0,2.79-.84,2.77-2.86-.05-7.45-.08-14.9,0-22.35,0-2.25-.86-3-3-2.9C275,1020.88,271.47,1020.79,267.94,1020.8Zm-116.56-15.68c0-3.78,0-7.56,0-11.34,0-2-.84-2.85-2.82-2.84q-11.21.07-22.39,0c-2.08,0-2.73,1-2.72,2.95q.07,11.19,0,22.38c0,2.18.93,3,3,3q11-.09,22.09,0c2,0,2.85-.73,2.8-2.8C151.32,1012.69,151.38,1008.91,151.38,1005.12Zm-35.49,3.48h0c0-3.68,0-7.36,0-11,0-2-.63-2.95-2.71-2.94q-11.06.09-22.09,0c-2,0-2.87.74-2.85,2.81q.07,11.19,0,22.38c0,2.05.91,2.84,2.87,2.83q11-.06,22.09,0c1.87,0,2.68-.83,2.66-2.7C115.86,1016.16,115.89,1012.38,115.89,1008.6ZM205.46,1022c-3.63,0-7.26,0-10.89,0-1.83,0-2.67.62-2.69,2.58,0,2.68-.25,5.35-.46,8-.34,4.36,1,8.67.23,13.08-.33,2,.75,3.29,3.13,3.26,7.07-.1,14.13-.07,21.2,0,2.1,0,3-.77,3-3q-.1-10.44,0-20.89c0-2.38-1-3.13-3.2-3.07C212.33,1022,208.9,1022,205.46,1022Zm-126.07-11.9c0-3.48-.06-7,0-10.44.06-2.26-.77-3.25-3.09-3.22q-10.15.14-20.31,0c-2.26,0-3.19.79-3.16,3.12.08,7.06.07,14.12,0,21.18,0,2.12.73,3.08,2.92,3.06q10.29-.1,20.6,0c2.36,0,3.09-1,3-3.26C79.33,1017,79.4,1013.55,79.39,1010.07ZM493.19,986c0-3.68-.05-7.35,0-11,0-1.89-.69-2.68-2.59-2.66-7.16.05-14.31.06-21.47,0-2,0-2.78.79-2.76,2.82.07,7,.06,13.91,0,20.86,0,2.36,1,3.47,3.36,3.46,6.86,0,13.72-.06,20.59,0,2.2,0,2.92-.9,2.86-3C493.11,993,493.19,989.48,493.19,986Zm-164.85,57.14c3.63,0,7.25,0,10.87,0,1.7,0,2.52-.68,2.52-2.46,0-7.14,0-14.29,0-21.43,0-1.84-.81-2.76-2.65-2.76-7.25,0-14.5,0-21.74,0-1.76,0-2.45.79-2.44,2.53,0,7.14,0,14.29,0,21.43,0,2.14,1,2.75,2.88,2.71C321.29,1043.09,324.82,1043.14,328.34,1043.14Zm-156.23,7c3.43,0,6.87-.1,10.3,0,2.27.09,3.15-.7,3.11-3.08-.12-6.56-.14-13.13,0-19.69.06-2.8-1.06-3.64-3.67-3.58-6.18.12-12.37,0-18.55.05-3.69,0-4.12.29-4.19,4-.11,6.46,0,12.93-.07,19.4,0,2.26,1,3,3.05,2.9C165.43,1050,168.77,1050.1,172.11,1050.11ZM357,1039c3.34,0,6.67-.1,10,0,2.33.1,3.08-.85,3-3.15q-.13-10,0-20c0-2.28-.84-3.4-3-3.41q-10.29-.06-20.58,0a2.4,2.4,0,0,0-2.7,2.75c0,7,0,14.1,0,21.15,0,1.93.79,2.66,2.65,2.63C349.91,1038.9,353.44,1039,357,1039Zm-231.63-.75c0,3.28.09,6.56,0,9.83-.08,2.49,1,3.32,3.34,3.29q9.27-.15,18.54,0c2.38,0,3.43-.85,3.42-3.27q-.06-9.83,0-19.67c0-1.87-.73-2.73-2.62-2.72q-10,.06-20,0c-1.86,0-2.68.8-2.65,2.7C125.39,1031.64,125.35,1034.92,125.34,1038.2Zm307.59-17.85c0,3.38,0,6.76,0,10.14,0,1.71.75,2.71,2.41,2.72,6.57,0,13.15,0,19.72,0,2,0,3.17-1,3.13-3.37-.1-6.27-.05-12.53,0-18.8,0-2.22-.94-3.29-3.19-3.27-6.37,0-12.75,0-19.13,0-2.17,0-3,1-2.92,3.09C433,1014,432.92,1017.17,432.93,1020.35ZM385,1009.85h0c-3.44,0-6.87,0-10.31,0-1.83,0-2.7.69-2.69,2.62q.06,10,0,20c0,2,.91,2.86,2.87,2.85q10-.06,20,0c2,0,2.83-.85,2.81-2.87,0-6.56-.07-13.13,0-19.69,0-2.25-.91-3-3-2.92C391.49,1009.92,388.25,1009.85,385,1009.85Zm115.48-19.76c0,3.47,0,6.95,0,10.42,0,1.72.63,2.57,2.41,2.56q10-.06,20,0c1.81,0,2.74-.76,2.73-2.66q0-10.12,0-20.25c0-1.77-.75-2.5-2.48-2.49-6.67,0-13.33.06-20,0-2.11,0-2.72,1-2.67,2.91C500.54,983.73,500.49,986.91,500.49,990.09ZM545,1004.72c3.33,0,6.66,0,10,0,1.6,0,2.31-.68,2.3-2.32,0-6.65,0-13.3,0-19.95,0-2.09-1-2.79-2.88-2.78q-9.55.08-19.11,0c-2,0-2.78.92-2.77,2.9q.07,9.82,0,19.66c0,1.78.72,2.51,2.46,2.48C538.29,1004.68,541.62,1004.72,545,1004.72Zm-144,16c0,3.28.08,6.56,0,9.84-.07,2.16.73,3,2.91,3,6.28-.08,12.56-.09,18.83,0,2.23,0,2.89-.94,2.86-3q-.11-9.69,0-19.38c0-2.17-.76-3-2.92-3-6.28.07-12.56.08-18.83,0-2.22,0-2.93.92-2.86,3C401,1014.35,400.93,1017.54,400.92,1020.72Zm-105.28,36c-3.24,0-6.47,0-9.7,0-1.87,0-2.66.82-2.64,2.69q0,9.52,0,19.06c0,1.91.84,2.66,2.68,2.65q9.56-.06,19.1,0c2,0,2.81-.82,2.79-2.85q-.09-9.39,0-18.77c0-2.08-.9-2.83-2.85-2.79C301.91,1056.75,298.77,1056.71,295.64,1056.71Zm-192.73-30.47c-3,0-6.08.07-9.12,0-2.21-.07-3.24.73-3.21,3.1.08,6.16.06,12.33,0,18.49,0,2.42,1.1,3.41,3.42,3.39,5.79,0,11.58,0,17.37,0,2.15,0,3.32-.86,3.31-3.17q0-9.54,0-19.09c0-1.87-.78-2.73-2.65-2.71C109,1026.28,106,1026.25,102.91,1026.24Zm364.23-5.1c0,3.08.07,6.16,0,9.23-.05,2,.73,3,2.65,3.15a136.73,136.73,0,0,0,18.77.11c1.84-.08,2.71-1.17,2.69-3.16-.08-6.26-.05-12.51,0-18.77,0-1.81-.66-2.78-2.57-2.77q-9.4,0-18.81,0c-2.08,0-2.74,1.05-2.7,3C467.18,1015,467.13,1018.06,467.14,1021.14ZM276.2,1068.62c0-3.08-.05-6.17,0-9.25,0-1.85-.55-2.73-2.52-2.71-6.09.07-12.17.06-18.26,0-2,0-2.85.79-2.83,2.83q.07,9.4,0,18.8c0,2.1,1,2.79,2.9,2.77,6,0,12-.06,18,0,2.06,0,2.79-.94,2.75-2.91C276.16,1075,276.21,1071.81,276.2,1068.62Zm-32.44,1.56h0c0-3.07-.05-6.15,0-9.22,0-2-.8-3-2.77-3H222.49c-1.59,0-2.29.8-2.29,2.39q0,9.83,0,19.65c0,1.65.73,2.29,2.32,2.28,6.17,0,12.34,0,18.51,0,2.05,0,2.78-1,2.74-2.92C243.72,1076.34,243.76,1073.26,243.76,1070.18Zm120.16-4.6c0-3,0-6,0-8.95,0-2-.63-3-2.71-3q-9,.07-18,0c-2,0-2.8.87-2.79,2.87q.07,8.81,0,17.61c0,2.19.81,3.36,3.1,3.34,5.89,0,11.78,0,17.66,0,2.1,0,2.73-1,2.69-3C363.87,1071.54,363.92,1068.56,363.92,1065.58ZM77.57,1037.83h0c0-3.08,0-6.16,0-9.24,0-1.52-.43-2.82-2.28-2.81-6,0-12,0-17.95.06a2.41,2.41,0,0,0-2.68,2.77c.07,6.16,0,12.32,0,18.49,0,1.92.86,2.9,2.88,2.89q8.39-.08,16.77,0c2.42,0,3.31-1.18,3.26-3.5C77.52,1043.59,77.57,1040.71,77.57,1037.83Zm135,35.85c0-3-.06-6,0-9,.05-1.85-.59-2.59-2.49-2.82-6.07-.71-12.15-.2-18.22-.33-1.83,0-2.28,1.14-2.28,2.75,0,6.06,0,12.13,0,18.19,0,1.88.72,2.72,2.61,2.7,5.88,0,11.77,0,17.66,0,2.07,0,2.77-.92,2.72-2.9C212.48,1079.44,212.54,1076.56,212.53,1073.68Zm169.7-23.6c-2.94,0-5.88.05-8.82,0-1.92,0-2.94.65-2.92,2.75q.08,8.81,0,17.6c0,1.59.61,2.37,2.19,2.5a121.66,121.66,0,0,0,19.09,0c1.58-.12,2.2-.88,2.19-2.49q-.07-8.79,0-17.59c0-2.1-1-2.81-2.89-2.77C388.12,1050.12,385.18,1050.08,382.23,1050.08Zm119.13-27.45h0c0,3,0,5.95,0,8.93-.05,2,.64,3,2.7,3,5.87,0,11.75,0,17.62,0,1.67,0,2.57-.67,2.57-2.46q0-9.22,0-18.45c0-1.63-.71-2.31-2.32-2.3q-9,.06-17.91,0c-1.87,0-2.68.82-2.65,2.7C501.39,1016.87,501.36,1019.75,501.36,1022.63Zm-332.2,40.6c-2.85,0-5.7,0-8.54,0-2,0-2.86.76-2.84,2.81q.09,8.51,0,17c0,2,.82,2.87,2.82,2.85,5.59-.05,11.19,0,16.78,0,2.19,0,3.26-1,3.25-3.23q-.06-8.36,0-16.71c0-1.9-.79-2.73-2.64-2.71C175.05,1063.26,172.1,1063.24,169.16,1063.23Zm254.26-4.48c0-3,0-6,0-9,0-1.89-.79-2.71-2.65-2.7-5.69,0-11.39,0-17.08,0-1.9,0-2.61.94-2.59,2.77q0,8.36,0,16.71c0,2.13,1.05,3.1,3.08,3.1,5.5,0,11,0,16.49,0,2,0,2.82-.91,2.77-2.9C423.37,1064.12,423.43,1061.44,423.42,1058.75ZM19.93,1036.67c0,2.78.07,5.57,0,8.35-.07,2.21.65,3.31,3,3.26,5.29-.09,10.58-.06,15.88,0,2,0,2.89-.72,2.87-2.79-.05-5.66-.06-11.32,0-17,0-2.08-.9-2.79-2.86-2.76q-8.09.09-16.17,0c-2.07,0-2.78.92-2.73,2.9C20,1031.31,19.93,1034,19.93,1036.67Zm584.38-46.91c-2.84,0-5.69,0-8.53,0-1.65,0-2.58.52-2.56,2.38,0,5.57,0,11.13,0,16.7,0,1.76.79,2.9,2.6,2.92,5.59,0,11.18.06,16.77,0,1.8,0,2.86-1,2.85-3-.05-5.37,0-10.73,0-16.1,0-1.94-.87-2.91-2.88-2.86C609.8,989.81,607.06,989.76,604.31,989.76Zm-29.5-6.69c-2.85,0-5.7.06-8.54,0-1.83,0-2.71.61-2.7,2.57q.09,8.65,0,17.31c0,1.94.83,2.62,2.67,2.6,5.59-.06,11.19,0,16.78,0,1.82,0,2.72-.62,2.7-2.59q-.08-8.64,0-17.3c0-2-.87-2.63-2.69-2.58C580.3,983.12,577.56,983.07,574.81,983.07Zm-29.51,51.44v0h8.23c1.33,0,2.35-.44,2.35-2,0-5.76,0-11.51,0-17.27a2.39,2.39,0,0,0-2.75-2.68c-5.38.07-10.77.05-16.15,0-1.89,0-2.62.88-2.61,2.73,0,5.45,0,10.91,0,16.37,0,2,.75,2.92,2.77,2.87C539.82,1034.45,542.56,1034.51,545.3,1034.51Zm-99.73,10.21c-2.84,0-5.69,0-8.53,0-1.61,0-2.32.66-2.31,2.31q.06,8.34,0,16.69c0,1.75.77,2.52,2.5,2.51q8.24,0,16.47,0c1.85,0,2.67-.78,2.66-2.67,0-5.37-.05-10.73,0-16.1,0-2.1-.95-2.8-2.88-2.75C450.86,1044.76,448.22,1044.71,445.57,1044.72Zm-310.16,38.87c2.74,0,5.48,0,8.22,0,2,.05,2.87-.74,2.85-2.79q-.07-8,0-16.07c0-1.9-.79-2.69-2.65-2.68q-8.22.06-16.44,0c-1.85,0-2.66.77-2.65,2.66q.07,8.19,0,16.37c0,1.76.67,2.53,2.43,2.49C129.92,1083.54,132.66,1083.58,135.41,1083.59Zm-34.25-22.78c-2.64,0-5.29.06-7.93,0-1.82,0-2.7.58-2.68,2.56.08,5.16.06,10.32,0,15.48,0,2,.8,2.9,2.8,2.88,5.09,0,10.19-.06,15.28,0,2.13,0,3-.91,3-3,0-5.06,0-10.12,0-15.19,0-2.1-1-2.79-2.9-2.74C106.26,1060.86,103.71,1060.82,101.16,1060.81ZM469,1053.08h0c0,2.48.08,5,0,7.44-.1,2.22.61,3.29,3,3.23,4.89-.11,9.79-.08,14.68,0,1.95,0,2.87-.67,2.84-2.77-.08-5.06-.07-10.12,0-15.17,0-2.06-.87-2.83-2.84-2.8-5,.06-10,0-15,0-1.83,0-2.71.74-2.67,2.65C469,1048.12,469,1050.6,469,1053.08Zm241.07-52.62c2.55,0,5.1,0,7.65,0,1.8,0,2.74-.65,2.72-2.6q-.06-7.74,0-15.49c0-1.87-.77-2.72-2.64-2.71q-7.63,0-15.29,0c-1.67,0-2.56.67-2.55,2.46q0,7.89,0,15.79c0,1.74.74,2.55,2.47,2.53C705,1000.44,707.51,1000.46,710.05,1000.46ZM301.5,1104.22c0-2.49-.07-5,0-7.46.08-2.15-.79-3.06-2.95-3-4.71.08-9.42.11-14.13,0-2.37-.06-3.19,1.17-3.18,3.26,0,5.07.18,10.13.2,15.2,0,1.87.92,2.38,2.57,2.36,4.91,0,9.82-.06,14.72,0,2.05,0,2.82-.89,2.77-2.88C301.45,1109.2,301.5,1106.71,301.5,1104.22Zm-40.86,10.36c2.55,0,5.1,0,7.65,0,1.72,0,2.5-.77,2.49-2.52,0-5.07,0-10.14,0-15.21,0-1.76-.76-2.54-2.48-2.54-5.1,0-10.2,0-15.3,0-1.87,0-2.68.79-2.66,2.68q.06,7.45,0,14.91c0,1.87.74,2.75,2.63,2.71C255.53,1114.54,258.08,1114.58,260.64,1114.58Zm-23.34-7c0-2.59,0-5.17,0-7.76,0-1.72-.61-2.56-2.41-2.54-5,0-10,0-15,0-1.69,0-2.55.71-2.55,2.48,0,5.18,0,10.35,0,15.52,0,1.76.82,2.64,2.46,2.66q7.5.06,15,0c1.82,0,2.59-1.06,2.53-2.91C237.25,1112.6,237.3,1110.11,237.3,1107.62Zm387.21-97.07c0,2.48,0,5,0,7.45,0,1.86.65,2.76,2.57,2.74q7.35-.09,14.71,0c1.82,0,2.69-.72,2.88-2.56a120.14,120.14,0,0,0,.16-15.18c0-1.79-1-2.58-2.87-2.55-4.91.09-9.82.08-14.72,0-2.07,0-2.78.95-2.73,2.92C624.56,1005.77,624.51,1008.16,624.51,1010.55Zm-265.9,91.55c0-2.58,0-5.16,0-7.74,0-1.49-.37-2.44-2.06-2.6a82,82,0,0,0-15.82,0,2,2,0,0,0-2,2.32c0,5.06,0,10.12,0,15.18a2.46,2.46,0,0,0,2.72,2.77c4.9,0,9.8,0,14.69,0,1.74,0,2.51-.78,2.48-2.52C358.59,1107.06,358.61,1104.58,358.61,1102.1Zm-29.37,2.28c0-2.49-.06-5,0-7.45.06-1.88-.62-2.71-2.55-2.68-4.9.07-9.8,0-14.7,0-2,0-2.78.9-2.76,2.9q.09,7.29,0,14.59c0,2,.87,2.85,2.84,2.83q7.33-.07,14.69,0c1.75,0,2.51-.68,2.46-2.46C329.19,1109.54,329.24,1107,329.24,1104.38Zm236.3-78.24c0,2.39.06,4.77,0,7.16-.07,2.15.82,3,3,3,4.61-.08,9.22-.09,13.83,0,2.37.05,3.11-1.12,3.1-3.28,0-4.67,0-9.34,0-14,0-1.95-.63-3-2.71-2.95q-7.22.09-14.42,0c-2,0-2.84.89-2.79,2.89C565.6,1021.37,565.55,1023.75,565.54,1026.14Zm-360.1,85.57q0-3.57,0-7.14c0-1.93-.91-3-2.84-3-4.7,0-9.4,0-14.09,0-2,0-3,1.05-3,3.2.07,4.57.06,9.13,0,13.69,0,2,.88,3,2.77,3q7.2.08,14.39,0c1.84,0,2.88-.87,2.77-3C205.36,1116.28,205.45,1114,205.44,1111.71ZM688.38,997.6c-2.45,0-4.91,0-7.36,0-1.57,0-2.37.55-2.35,2.25q0,7.6,0,15.22c0,1.89.83,2.69,2.68,2.67,4.52,0,9,0,13.55,0,2.06,0,3.1-.93,3.1-3.06,0-4.77,0-9.55,0-14.32,0-2.1-.92-2.83-2.87-2.77C692.9,997.66,690.64,997.6,688.38,997.6Zm-166,55.18c0-2.38,0-4.76,0-7.14,0-1.9-.86-2.67-2.69-2.65-4.79,0-9.59,0-14.38,0-2,0-2.83.79-2.79,2.84q.1,6.69,0,13.38c0,2.12.9,3.21,2.92,3.23,4.79.06,9.58,0,14.38,0,1.83,0,2.62-1,2.56-2.83C522.38,1057.35,522.43,1055.06,522.42,1052.78Zm-447.72,17c0-2.39-.11-4.78,0-7.16s-.87-3.11-3.11-3c-4.12.13-8.25.21-12.36,0-2.7-.15-3.83,1-3.86,3.49,0,4.57-.07,9.14,0,13.72,0,2,.91,3.11,3.09,3.07q6.76-.11,13.53,0c2.07,0,2.79-.92,2.72-2.9C74.64,1074.57,74.7,1072.18,74.7,1069.8Zm89.56,32.35v0c-2.25,0-4.5,0-6.75,0s-3.22,1-3.2,3.24c0,4.36.09,8.73,0,13.09-.06,2.24,1,3.08,3,3.1,4.6,0,9.2,0,13.8,0,1.57,0,2.62-.63,2.61-2.47,0-4.85,0-9.71,0-14.57a2.05,2.05,0,0,0-2.32-2.37Zm246.54-.72h7.06c1.67,0,2.57-.71,2.56-2.49,0-4.37,0-8.74,0-13.11,0-2.26-1-3.48-3.43-3.43-4.11.09-8.23.1-12.35,0-2.45-.06-3.39,1.2-3.42,3.43,0,4.27,0,8.55,0,12.82,0,2,.9,2.86,2.86,2.81C406.29,1101.38,408.55,1101.43,410.8,1101.43Zm254.59-88.24c-2.16,0-4.32,0-6.48,0-1.89,0-2.63.87-2.6,2.73,0,4.28.05,8.56,0,12.84,0,2.23.9,3.33,3.14,3.32,4.32,0,8.64,0,13,0,1.88,0,2.64-.87,2.62-2.74,0-4.28-.07-8.56,0-12.83,0-2.47-1.15-3.4-3.44-3.34C669.52,1013.22,667.46,1013.18,665.39,1013.19ZM21.1,1068.05h0c0,2.18.05,4.37,0,6.55-.06,2,.67,3,2.73,2.93,4.31-.06,8.62,0,12.93,0,2.06,0,3.07-1,3.07-3.1q0-6.4,0-12.81c0-1.9-.84-3-2.8-3-4.5,0-9,0-13.52,0-1.78,0-2.4,1-2.38,2.65C21.12,1063.48,21.1,1065.77,21.1,1068.05Zm576.82-35.45c0,2.28.05,4.56,0,6.84-.07,2.07.87,2.82,2.84,2.79,4.11-.07,8.23-.12,12.34,0,2.25.07,3.38-.93,3.43-3q.15-6.56,0-13.1a2.64,2.64,0,0,0-3-2.86c-4.41,0-8.82.06-13.22,0-1.79,0-2.45.77-2.4,2.51C598,1028,597.92,1030.31,597.92,1032.6Zm-475.46,76c0,2.28,0,4.57,0,6.86,0,1.88.84,2.71,2.68,2.69q6.48,0,13,0c1.91,0,2.6-1,2.58-2.79,0-4.37-.07-8.75,0-13.12,0-2-.9-2.6-2.7-2.54-2.25.07-4.51,0-6.76,0C122.44,1099.69,122.44,1099.69,122.46,1108.57Zm331.05-22c0-2.29,0-4.57,0-6.86,0-1.71-.73-2.58-2.48-2.57-4.12,0-8.24,0-12.36,0a2.48,2.48,0,0,0-2.73,2.79c0,4.57,0,9.15,0,13.72,0,1.62.84,2.31,2.4,2.3q6.33,0,12.66,0c1.73,0,2.51-.81,2.49-2.54C453.48,1091.09,453.5,1088.81,453.51,1086.52Zm100.76-32.85c0-2.28,0-4.57,0-6.85,0-1.68-.65-2.63-2.4-2.63-4.31,0-8.62,0-12.93,0a2.48,2.48,0,0,0-2.77,2.74q0,6.39,0,12.8a2.44,2.44,0,0,0,2.75,2.73c4.3,0,8.61,0,12.92,0,1.74,0,2.47-.83,2.44-2.56C554.23,1057.84,554.27,1055.75,554.27,1053.67ZM97.74,1097.3c-2,0-3.92.06-5.88,0s-2.88.88-2.88,2.84c0,4,0,7.93,0,11.9,0,2.13,1,3.07,3,3.06q6,0,12,0c1.72,0,2.48-.83,2.47-2.56,0-4.16-.05-8.33,0-12.49,0-2.1-1-2.8-2.91-2.74S99.69,1097.31,97.74,1097.3Zm380.39-24.43c-2,0-3.92,0-5.88,0s-2.7.72-2.68,2.64c.06,3.88,0,7.75,0,11.62,0,2.34,1.16,3.45,3.46,3.43,3.53,0,7.06-.08,10.59,0,2.47.07,3.33-1.21,3.33-3.46,0-3.57,0-7.15,0-10.72,0-2.42-1-3.73-3.54-3.56C481.67,1073,479.9,1072.87,478.13,1072.87Zm168-31.59v-6.54c0-1.37-.48-2.36-2-2.36-4,0-8,0-12,.08-1.61,0-2.45.92-2.4,2.68.08,2.28,0,4.56,0,6.84.11,9.28-1.21,7.9,8,8C646.19,1050,646.19,1050,646.17,1041.28ZM287,1149.68h6.16c1.55,0,2.39-.66,2.39-2.3,0-4,0-7.93,0-11.9,0-1.79-.88-2.82-2.66-2.84-3.82-.05-7.64,0-11.45,0-1.93,0-2.83,1-2.82,3,0,3.86,0,7.73,0,11.6,0,1.78.82,2.5,2.52,2.47C283.09,1149.66,285.05,1149.69,287,1149.68Zm-63.46,5.37v0c2,0,3.92,0,5.88,0a2.26,2.26,0,0,0,2.52-2.57c0-3.87,0-7.74,0-11.61a2.5,2.5,0,0,0-2.7-2.83c-3.72,0-7.44,0-11.16,0-1.92,0-3.1,1-3.06,3.14.06,3.58,0,7.15,0,10.72,0,2.28,1,3.26,3.24,3.18C220,1155,221.79,1155.05,223.55,1155.05Zm470.36-111.58c2.06,0,4.12,0,6.18,0,1.66,0,2.59-.64,2.58-2.44,0-3.88,0-7.75,0-11.63,0-1.76-.8-2.53-2.51-2.51-2.06,0-4.12,0-6.18,0-8.25,0-8.25,0-8.26,8.31S685.73,1043.49,693.91,1043.47ZM307.47,1138c0,2,0,4,0,5.94,0,1.8.64,2.8,2.56,2.78,3.62,0,7.24,0,10.85,0,2.12,0,3-1.12,2.94-3.18,0-1.88,0-3.76,0-5.64,0-9.1.9-8.26-8.19-8.27C307.46,1129.59,307.46,1129.59,307.47,1138ZM71.71,1104.54c0-1.68-.09-3.38,0-5.06.15-2.37-.73-3.48-3.2-3.39-3.43.13-6.86.08-10.28,0-1.92,0-3,.66-2.92,2.75.06,3.77,0,7.54,0,11.31,0,2.11,1,3.08,3.09,3.06,2.94,0,5.87,0,8.81,0,4-.09,4.46-.68,4.46-4.79C71.72,1107.12,71.71,1105.83,71.71,1104.54Zm183.92,47.64h.58c8,0,8.07,0,8-8.16,0-9.46,1.1-8.5-8.58-8.51-9.06,0-8.24-.86-8.25,8.29C247.42,1152.18,247.42,1152.18,255.63,1152.18Zm321.3-87.2c8.5,0,8.5,0,8.5-8.62,0-8,0-8-8-8-8.45,0-8.45,0-8.45,8.68C569,1065,569,1065,576.93,1065Zm-231.07,61.57c-8.3,0-8.32,0-8.29,8.25,0,9.24-1,8.3,8.14,8.28,9.79,0,8.14.93,8.24-8.37C354,1126.56,354,1126.56,345.86,1126.55Zm-153.27,14.9h-5.88c-1.59,0-2.32.79-2.31,2.37q0,5.67,0,11.32c0,1.81.93,2.45,2.58,2.42,2,0,3.92,0,5.88,0,7.85,0,7.85,0,7.85-7.81C200.7,1141.43,200.7,1141.43,192.59,1141.45ZM162,1155.74c1.56,0,3.13-.09,4.69,0,2.4.16,3.4-.91,3.35-3.3q-.1-4.76,0-9.51c0-2-.89-3-2.76-3.07-3.51-.06-7,0-10.55,0-1.55,0-2.37.82-2.62,2.55a77.13,77.13,0,0,0-.26,10.08c0,2.34,1.07,3.43,3.47,3.21C158.85,1155.62,160.42,1155.74,162,1155.74Zm356.92-76.07c0-1.89,0-3.77,0-5.65s-.74-2.47-2.47-2.44q-5.28.09-10.56,0c-2,0-2.86.81-2.83,2.84q.09,5.2,0,10.41c0,2,.75,3,2.77,2.87,1.76-.06,3.52,0,5.28,0C518.92,1087.69,518.92,1087.69,518.91,1079.67Zm-142,42.78h-.3c-7.87,0-7.92,0-7.86,8.08.07,9-1.21,7.85,7.85,7.84s7.89,1.26,8-8C384.63,1122.45,384.59,1122.45,376.93,1122.45ZM36.36,1103.28c0-2.49-.06-4.17,0-5.85.09-2.1-.7-3.13-2.89-3.06-3.13.1-6.26,0-9.39,0-1.92,0-2.91.93-2.91,2.89s0,3.77,0,5.65c0,7.89-.52,7.42,7.33,7.35C37.49,1110.22,36.25,1111.48,36.36,1103.28Zm631.57-59.76c-7.54,0-7.58,0-7.53,7.76.06,8.86-1.13,7.71,7.67,7.71,8,0,7.55,1.29,7.5-7.7S676.59,1043.65,667.93,1043.52ZM416.41,1125v-1.49c0-7.07.66-6.41-6.27-6.43-8.45,0-8.47,0-8.44,8.68,0,8.11-.86,7.21,7,7.19C417.55,1132.94,416.3,1134.15,416.41,1125ZM131.3,1150.91c8.57-.1,7.43,1.15,7.47-7.61,0-8.41.72-7.74-7.59-7.69-8.71.05-7.51-1.11-7.51,7.55C123.66,1152.11,122.52,1150.8,131.3,1150.91Zm413.52-62.11c7.19-.11,7.67,1.48,7.61-7.82,0-8.2.44-7.49-7.55-7.51-8.26,0-7.55-.53-7.56,7.78C537.31,1089.32,536.73,1088.83,544.82,1088.8Zm63.52-17.2c7.26,0,7.26,0,7.26-7.38,0-.29,0-.59,0-.89-.06-8.07.88-7.14-7-7.17-9.16,0-7.67-.44-7.74,7.73C600.77,1071.61,600.82,1071.61,608.34,1071.6Zm-163.66,40.08c-8.08,0-8.08,0-8.08,7.07,0,7.67,0,7.67,7.57,7.67,7.95,0,7.54.71,7.48-7.54S452.64,1111.77,444.68,1111.68Zm201.38-39.4c-.09-8.16,1-7.15-7.24-7.23h-.59c-7.34,0-6.6-.62-6.64,6.7-.05,8.14-.45,7.58,7.49,7.53C646.38,1079.24,646.09,1080.32,646.06,1072.28ZM58.32,1137.07c0,1.29.08,2.59,0,3.87-.18,2.42.76,3.48,3.22,3.33a61.41,61.41,0,0,1,7,0c2.7.14,3.71-1.12,3.59-3.76a57.81,57.81,0,0,1,0-6.84c.2-2.87-1.11-4-3.78-4-.88,0-1.77,0-2.65,0C56.67,1129.51,58.47,1130.45,58.32,1137.07Zm426.35-24.79c0-1,0-2,0-3,0-3.69-.45-4.13-4-4.16-2.05,0-4.12.11-6.17,0-2.73-.17-3.7,1.22-3.67,3.75,0,2.28.1,4.57,0,6.85-.14,2.53,1.12,3.66,3.39,3.94a24.71,24.71,0,0,0,3.22.14C484.05,1119.71,484.84,1121.24,484.67,1112.28Zm-145.33,55.9c.11,8.1-1,7.06,7,7.14h.3c6.54,0,6.52,0,6.54-6.67,0-7.73.52-7.38-7.1-7.31C338.64,1161.4,339.38,1160.39,339.34,1168.18ZM578,1092.41c7.46,0,7.46,0,7.45-7.69,0-6.47,0-6.52-6.28-6.46-8.78.09-7.61-1.26-7.66,7.66C571.41,1093.17,570.81,1092.36,578,1092.41Zm119-35.72h-.88c-7.16.09-6.19-.87-6.24,6.36s0,7.33,7.37,7.3,6.68.8,6.66-6.66C703.86,1055.89,704.83,1056.73,697,1056.69ZM287.91,1178.31c0-1.18-.09-2.38,0-3.56.24-2.61-.91-3.58-3.42-3.42a47.73,47.73,0,0,1-6.44,0c-2.61-.18-3.84.74-3.62,3.54.16,2.06,0,4.15,0,6.23,0,3.55.54,4.13,4,4.36.77,0,1.56,0,2.34,0C287.93,1185.46,287.93,1185.46,287.91,1178.31Zm-45.23,4.45c.07,7.85-.91,7,6.89,7,7.5,0,6.47,1,6.52-6.63,0-7,0-7-6.76-7C241.82,1176.18,242.75,1175.36,242.68,1182.76Zm-16.63,2.76c-.1-7.38,1-6.39-6.38-6.48h-1.18c-5.86,0-5.86,0-5.86,6,0,7.12,0,7.13,7,7.12S226,1192.81,226.05,1185.52Zm435.54-104.81c.06,7.14-.8,6.91,5.57,6.85s7.35,1.47,7.23-7.27c-.09-6.18,0-6.21-6.13-6.18C660.84,1074.15,661.65,1073.24,661.59,1080.71Zm-152,21.42c-1.08,0-2.15.08-3.22,0-2.83-.23-3.95,1.13-3.71,3.89.06.69,0,1.38,0,2.08,0,6.91,0,6.91,7,6.9,6.3,0,6.32,0,6.29-6.3C515.9,1101.46,516.71,1102.17,509.54,1102.13Zm-319.07,78.14h-2.94c-3.61,0-3.75.18-3.77,3.92,0,1.69,0,3.38,0,5.06,0,3.51.52,4,3.86,4.08h2.06c7.83,0,7,.78,6.95-7C196.62,1179.44,197.49,1180.35,190.47,1180.27Zm-28.67,8.3h1.76c4.77,0,4.77,0,4.77-4.88v-.3c-.1-8.12,1-7.16-7-7.19-6.39,0-5.87-.52-5.84,6C155.52,1189.11,154.73,1188.55,161.8,1188.57ZM602,1092.29v1.78c0,4.91,0,4.94,4.87,4.91,8.64,0,7.36,1,7.44-7.65,0-5.23,0-5.25-5.23-5.27h-.88C601.39,1086.1,602.07,1085.45,602,1092.29Zm-185.07,66c0-6.76.76-6.09-5.62-6.07-7.67,0-6.54-.88-6.6,6.59-.05,5.77,0,5.8,5.82,5.78C417.63,1164.56,416.91,1165.31,417,1158.27Zm-283.1,24.27h2c3.61,0,4-.48,4.08-4.13,0-1.58-.05-3.17,0-4.75.11-2.57-1.12-3.45-3.56-3.51-9.13-.2-9.08-.25-8.67,9.06.1,2.4,1.14,3.43,3.44,3.33C132.1,1182.5,133,1182.53,133.86,1182.54Zm408.5-79.2c-6.23,0-6.23,0-6.23,6.11s.1,6.21,6.35,6.21c5.81,0,5.81,0,5.81-5.94v-.3C548.29,1103.36,548.29,1103.36,542.36,1103.34Zm-439.12,62.15c-5.51,0-6.37.59-5.89,5.94.51,5.76,0,6.37,5.54,6.3,6.36-.08,6.37,0,6.37-6.11S109.18,1165.48,103.24,1165.49Zm539.94-63.33v-3.86a2.43,2.43,0,0,0-2.09-2.48c-6.94-2-9.48-.08-9.47,7.09,0,.7,0,1.39,0,2.08,0,1.93,1,2.94,2.9,2.92,1,0,2,0,2.94,0C643.2,1107.93,643.2,1107.93,643.18,1102.16ZM446,1146.85c-5.91,0-5.91,0-5.91,4.44,0,7.36,0,7.36,5.32,7.37,6.21,0,6.21,0,6.22-6.77C451.66,1146.85,451.66,1146.85,446,1146.85Zm256.73-55c0-5.79,0-5.79-5.7-5.78-5.36,0-5.36,0-5.37,6.33,0,5.28.07,5.37,5.17,5.38C702.75,1097.79,702.75,1097.79,702.76,1091.85Zm-35.69,24.35c5.5,0,5.5,0,5.5-5.67a15.08,15.08,0,0,1,0-1.78c.31-2.7-.8-3.69-3.5-3.63-8.48.22-7.22-1-7.45,7.38-.09,2.85.87,4.07,3.68,3.71A14.76,14.76,0,0,1,667.07,1116.2Zm-85.73-2.91c0-6.2.46-5.72-5.81-5.71-5.18,0-5.19,0-5.18,7,0,4.19,0,4.19,7.07,4.16C581.36,1118.7,581.36,1118.7,581.34,1113.29Zm-97.21,33.21c0-5.55,0-5.55-4.78-5.56-6.2,0-6.2,0-6.2,4.6,0,6.4.08,6.53,5,6.53C484.12,1152.08,484.12,1152.08,484.13,1146.5ZM69.34,1173.69c5.75,0,5.8,0,5.79-4.62,0-5.55-.4-6-5-6-6,0-6,0-6,6.08C64.16,1173.69,64.16,1173.69,69.34,1173.69Zm86.77,40.11c0,5.56.08,5.65,5,5.65s5.32-.49,5.31-5.82c0-5-.22-5.15-5.52-5.15C156.11,1208.48,156.11,1208.48,156.11,1213.8Zm127.05.32c0-5.65,0-5.65-5.5-5.65-4.46,0-4.87.5-4.86,5.86,0,5,.28,5.21,6.05,5.21C283.17,1219.53,283.17,1219.53,283.16,1214.12Zm-32.37,4.43c.07-6.39.1-5-5.86-5.7-4-.45-4.59.58-4.59,5.18,0,5.67,0,5.67,4.68,5.66C250.79,1223.69,250.79,1223.69,250.79,1218.55ZM31,1129.3c-6.43,0-5.36-.41-5.45,6.94-.05,4.13,0,4.13,5.28,4.13,5.65,0,5.65,0,5.65-5.69C36.49,1129.3,36.49,1129.3,31,1129.3ZM312.61,1213c5.75,0,5.85-.12,5.91-5,.06-6.26-.32-4.68-6.14-5.28-3.93-.41-4.37.34-4.37,4.25C308,1212.94,308,1212.94,312.61,1213Zm-91.86,7.11c0-5.06,0-5.06-4.94-5.06s-5,0-5,5.89c0,4.66,0,4.66,4.5,4.67C220.75,1225.56,220.75,1225.56,220.75,1220.06Zm-28.28-1.26c0-5,0-5-4-5-6.43,0-6.43,0-6.43,4.49,0,5.44,0,5.44,5.59,5.44C192.47,1223.7,192.47,1223.7,192.47,1218.8Zm415.16-93.49c5,0,5,0,5-5.25,0-4.79,0-4.79-5.25-4.79-5.06,0-5.15.09-5.15,5.43C602.17,1125.31,602.17,1125.31,607.63,1125.31Zm-99,12c-5,0-5,0-5,4,0,6.07.36,6.56,4.79,6.52,4.59,0,5.13-.6,5.13-5.32C513.6,1137.3,513.6,1137.3,508.64,1137.3Zm-166.42,65.24c0,5.3.36,5.65,5.9,5.6,3.34,0,4-.81,4-4.93,0-5.54,0-5.54-4.46-5.54C342.23,1197.66,342.23,1197.66,342.22,1202.54Zm37.87.89c5,0,5,0,5.05-4.37,0-5.51,0-5.51-4.21-5.52-5.63,0-5.63,0-5.63,4.37C375.29,1203.42,375.29,1203.42,380.09,1203.43Zm-340.2-37.6c0-5.75,0-5.75-5.47-5.71l-1.77,0a1.87,1.87,0,0,0-2.07,2c0,2.18,0,4.36,0,6.55,0,.72.27,1.5,1,1.64,2.42.46,5,.81,7.24-.12C40.74,1169.44,39.58,1167.19,39.89,1165.83Zm94.88,48.32v0c1.08,0,2.15,0,3.23,0s1.67-.43,1.59-1.63c-.11-1.78-.14-3.56-.21-5.35a2,2,0,0,0-1.56-2.19c-6-1.73-8.48.21-8.17,6.43,0,.2,0,.4,0,.6a1.92,1.92,0,0,0,2.17,2.18Zm-25.37-7c-.38-1.73.76-4-1.51-5-4.55-2-7.73.29-7.26,5.2.14,1.39-.65,3.37,1,4a9.66,9.66,0,0,0,6.6,0C110.15,1210.71,109.05,1208.59,109.4,1207.14Zm337.46-13.23c4.77,0,4.77,0,4.77-4.38,0-4.69-.26-5-4.4-5-4.52,0-4.78.26-4.78,4.93C442.45,1193.91,442.45,1193.91,446.86,1193.91ZM543,1142.17c0-4.83,0-4.83-4-4.84-4.84,0-5.2.34-5.18,5.09,0,4,.39,4.37,4.66,4.38C543,1146.8,543,1146.8,543,1142.17Zm95-15.6c-4.66,0-4.66,0-4.67,4.13,0,4.89.27,5.23,4.44,5.24,3.87,0,4.55-.52,4.54-3.59C642.29,1126.57,642.29,1126.57,638,1126.57Zm59.82-10.76c-4.43,0-4.43,0-4.43,4.31,0,5.07,0,5.07,4.12,5.08,4.29,0,4.59-.3,4.59-4.81S702.1,1115.81,697.81,1115.81ZM576,1145.36c0-4.27-.07-4.35-3.87-4.36-4.31,0-4.74.4-4.76,4.35,0,4.33,0,4.33,4.16,4.34C576,1149.7,576,1149.7,576,1145.36ZM478.86,1181c-3.95,0-4.05.1-4.05,4.25,0,4.38.05,4.43,4.18,4.43,3.88,0,4.43-.56,4.45-4.46S483.07,1181,478.86,1181Zm-161.58,60.76c0-3.93-.07-4-4-4-4.11,0-4.51.34-4.52,3.94,0,4,.52,4.63,4.25,4.63C316.94,1246.33,317.28,1246,317.28,1241.76Zm-10.89-69.56c.11,8.24-1.13,7.18,7.15,7.27h.29c7.18,0,6.43.78,6.41-6.52,0-8.6,1-7.39-7.28-7.42C305.67,1165.5,306.44,1164.66,306.39,1172.2Zm-63.62,79.55c0,3.6.55,4.15,4.36,4.17s4.15-.38,4.17-4c0-3.9-.76-4.69-4.62-4.66C243.51,1247.33,242.79,1248.15,242.77,1251.75Zm103.66-10.7c4.3,0,4.44-.1,4.46-3.49,0-4.26-.3-4.64-4.08-4.64s-4.41.62-4.43,4.5C342.37,1240.88,342.55,1241,346.43,1241.05ZM664,1140.92c0,4.4.11,4.54,3.71,4.55s4.26-.62,4.25-4.61c0-3.56-.49-4-4.12-4S664,1137,664,1140.92Zm-476.68,103.9c-4.12,0-4.12,0-4.14,3.72,0,4.26.1,4.39,3.91,4.4,4,0,4.14-.09,4.14-4.16S191.23,1244.83,187.32,1244.82Zm-115-47.15c-3.94,0-4,.08-4,3.94,0,4.15.11,4.29,4,4.29s4-.11,4-4C76.36,1197.74,76.3,1197.67,72.36,1197.67Zm206.87,54.12c3.77,0,3.92-.14,3.93-3.7,0-4.08-.32-4.44-4-4.42-3.43,0-4,.71-4,4.56C275.16,1251.63,275.35,1251.8,279.23,1251.79ZM41.6,1196.62c0-4-.14-4.21-3.38-4.25-3.8,0-4.55.59-4.58,3.94s.77,4.08,3.84,4.12C41.36,1200.48,41.57,1200.29,41.6,1196.62Zm376.11-2.74c0-4-.16-4.21-4.09-4.22s-4.41.35-4.38,3.36c0,4,.64,4.71,4.15,4.73C417.68,1197.77,417.7,1197.74,417.71,1193.88Zm-34.34,40.93c0-3.67-.06-3.68-3.49-3.77-2.43-.07-4.2.18-4,3.42.13,2.5.42,4.27,3.49,4.15C382.77,1238.48,383.35,1238.06,383.37,1234.81Zm33.52-3.35c.38-2.61-.27-4.18-3.37-4-3.37.18-3.94.56-4,3.93,0,3.06.65,3.57,3.9,3.74C416.15,1235.26,417.34,1234.23,416.89,1231.46Zm122.48-54.1c-2.46-.35-3.9.25-3.85,3.25s1.29,3.7,4,3.77,3.56-1,3.57-3.63S542,1176.92,539.37,1177.36ZM702,1149c.26-2.37-.43-4-3.14-3.79-2.24.14-4.35.26-4.22,3.52.13,3.1.57,3.67,3.89,3.67C700.77,1152.41,702.5,1151.84,702,1149Zm-64.61,16.76c2.41.43,3.62-.31,3.52-3.1-.08-2.46-.43-3.88-3.38-3.86s-3.67,1.09-3.7,3.86S635,1166.16,637.4,1165.76Zm-505.08,73.7c-2.86-.59-3.43.86-3.46,3.48,0,2.83,1.07,3.49,3.65,3.55,2.84.06,3.39-1.17,3.46-3.73C136.06,1239.88,135,1239,132.32,1239.46Zm443.05-56c.48-2.52-.73-3.27-3.09-3.21-2.17,0-3.83.15-3.73,3.1.08,2.6,1.22,3.41,3.63,3.43S575.73,1186,575.37,1183.44Zm-95.15,38.74c-3-.42-3,1.5-3.09,3.7s.69,3.23,3,3.21c2.63,0,3.32-1.3,3.34-3.71S482.68,1221.8,480.22,1222.18Zm-197.65,58.47c.14-2.13-.61-3.44-2.94-3.51s-3.4,1-3.36,3.42c0,2,.57,3.36,2.78,3.36S282.74,1283.23,282.57,1280.65Zm226.5-95c2.42.34,3.63-.5,3.61-3.21,0-2.5-.81-3.61-3.39-3.56-2.25,0-3.47.63-3.44,3.19C505.88,1184.4,506.26,1186.07,509.07,1185.65Zm162.4-13.41c.13-2.12,0-3.82-2.76-3.82-2.34,0-3.07,1-3,3.23,0,2,0,3.73,2.81,3.71C670.83,1175.34,671.74,1174.41,671.47,1172.24Zm-451.76,79.69c.32-2.51-1-3.14-3.33-3.19-2.53,0-3.49.92-3.46,3.51,0,2.43.88,3.38,3.29,3.34S219.9,1254.55,219.71,1251.93Zm127.65,19.19c.37-2.22-.76-3-3-3s-3.23.93-3.22,3.18,1.12,3.1,3.26,3.16C346.72,1274.53,347.64,1273.52,347.36,1271.12Zm165.86-45c2.19.31,3.27-.47,3.25-2.89,0-2.24-1-2.94-3-2.9-1.86,0-3.24.24-3.23,2.67C510.22,1225.19,510.83,1226.47,513.22,1226.12ZM314.4,1274.8c.23-2.11-.57-3.08-2.78-3.12-2.43,0-3,1.16-2.95,3.31s.6,3.11,2.84,3.11S314.66,1277,314.4,1274.8ZM189.67,1284c2.06.24,3.36-.26,3.34-2.78,0-2.13-.77-3-2.91-3s-3.39.3-3.33,2.85C186.81,1283.2,187.49,1284.28,189.67,1284Zm-26.5-39.83c.36-2.29-.56-3.18-2.9-3.19s-3.32.67-3.33,3.21,1,3.21,3.33,3.2S163.53,1246.46,163.17,1244.16Zm.29,34c.39-2.34-1-3.24-3-3.27s-2.66,1.18-2.64,3.1.47,3,2.6,3C162.39,1281.05,163.73,1280.61,163.46,1278.21Zm213.75-4.93c1.44-.07,3.22.18,2.94-2.17-.22-1.73-.29-3.69-2.95-3.55-2.09.11-3,1-3,3.14S375.36,1273.42,377.21,1273.28ZM30.6,1230.78c-.22,2,.47,3.15,2.72,3.13,1.87,0,2.93-.53,2.94-2.68s-.5-3.2-2.77-3.15C31.64,1228.12,30.4,1228.58,30.6,1230.78Zm515.22-7.14c2,.3,2.46-1,2.49-2.86s-.76-2.87-2.78-2.85-2.87.65-2.9,2.74S543.58,1223.75,545.82,1223.64ZM130,1274.11c-2-.2-2.79.77-2.71,2.78s1.18,2.89,3.16,2.9c2.21,0,2.46-1.32,2.49-3.09C133,1274.56,131.87,1273.93,130,1274.11Zm565.29-94.4c0,2,.67,3.26,2.66,3.32s2.94-1.07,3-3.1-.85-2.63-2.67-2.61S695.11,1177.71,695.27,1179.71ZM99.86,1276.62c.18-1.69-.66-2.54-2.56-2.48-1.7,0-3,.59-2.92,2.51a2.84,2.84,0,0,0,2.92,3.06C99.17,1279.79,99.87,1278.58,99.86,1276.62Zm348-8.73c1.8.09,3.22-.1,3.21-2.4,0-1.86-.71-2.71-2.58-2.71s-3,.31-3.05,2.54C445.38,1267.19,446,1268.16,447.82,1267.89Zm190-68.6c1.56,0,3,.14,3-2.12,0-1.78-.29-3.12-2.48-3.07-1.8,0-3,.61-3.13,2.63S636.1,1199.38,637.82,1199.29Zm-188.29,28.22c.33-2-.65-2.68-2.64-2.68s-2.91.5-2.89,2.65.81,3,2.94,3S449.8,1229.65,449.53,1227.51Zm35.73,34.68c-2.49.1-3.29,1.13-3.26,2.91s.8,2.67,2.48,2.66c1.9,0,2.46-1.24,2.49-3S486.44,1262.09,485.26,1262.19Zm-420.1,11.52c.15-1.59-.5-2.58-2.31-2.54-1.64,0-2.64.81-2.64,2.52s1,2.44,2.66,2.47S65.25,1275.46,65.16,1273.71ZM669.89,1207c1.33-.08,2.62-.6,2.53-2.37a2.64,2.64,0,0,0-5.28.11C667.12,1206.33,668.26,1206.92,669.89,1207ZM101.78,1239.8c-1.65-.07-3,0-3,2.21,0,2,.75,2.93,2.75,2.91,1.73,0,2.75-.63,2.82-2.55S103.57,1239.62,101.78,1239.8Zm477.41-14.92c1.61.14,2.61-.42,2.6-2.27s-1.12-2.24-2.67-2.26-2.34.46-2.36,2.17S577.42,1225.1,579.19,1224.88ZM68.65,1240c1.51.08,2.55-.5,2.6-2.31,0-1.62-.15-3-2.2-3.12-1.62-.08-2.65.48-2.69,2.3C66.33,1238.47,66.46,1239.92,68.65,1240Zm539.84-50.84c.07-2-1.18-2.43-2.83-2.42s-2.45.81-2.44,2.52.91,2.4,2.55,2.4S608.6,1191.1,608.49,1189.15Zm-87.14,76.23a2.23,2.23,0,0,0,2.06-2.63c-.09-1.39-.83-2.29-2.25-2.2s-2.68.76-2.56,2.58C518.7,1264.8,519.9,1265.17,521.35,1265.38Zm-495,4.87A2.25,2.25,0,0,0,28.9,1268c.16-1.48-.85-2.09-2.16-2.12a2.19,2.19,0,0,0-2.51,2.22C24.15,1269.6,25,1270.22,26.37,1270.25Zm529.72-12.71a2.14,2.14,0,0,0-2.16,2.26c0,1.33.52,2.44,2,2.43a2.24,2.24,0,0,0,2.39-2.42C558.31,1258.32,557.5,1257.68,556.09,1257.54ZM612.16,1229c1.43,0,2.13-.64,2.14-2.12s-.7-2.32-2.3-2.3-2.18.92-2.13,2.45S610.78,1229.09,612.16,1229ZM701.27,1214c-.26-1.41-.85-2.44-2.41-2.48-1.32,0-2.31.38-2.35,1.93a2.08,2.08,0,0,0,2.15,2.27A2.18,2.18,0,0,0,701.27,1214Zm-58.21,20.46c1.34,0,2.36-.34,2.25-1.79a1.9,1.9,0,0,0-2.15-1.93,2.34,2.34,0,0,0-2.36,2.21C640.76,1234.37,642.16,1234.27,643.06,1234.41Zm-230.62,36.11c1.34,0,2.27-.35,2.27-1.94,0-1.37-.75-1.89-2-1.91s-2.26.36-2.25,1.94C410.45,1270,411.18,1270.53,412.44,1270.52Zm263.06-30.84c0-.92-.32-1.71-1.44-1.79a1.46,1.46,0,0,0-1.71,1.56c-.07,1.12.26,2,1.55,2C675,1241.5,675.42,1240.77,675.5,1239.68Zm-83.82,21.38a1.7,1.7,0,0,0-1.67-1.65,1.64,1.64,0,0,0-1.8,1.53c-.13,1.17.69,1.5,1.65,1.53S591.59,1262.25,591.68,1261.06Z"/><path class="c" d="M9,936.75H8.39v26.68H9Z"/><path class="c" d="M721,933.67c-2.65-.63-3.77.28-3.65,3.19.15,3.65-.73,7.8.34,10.88,2.57,7.37.72,14.7,1.31,22,.3,3.7,0,3.83-3.77,3.84-5.79,0-11.58-.08-17.37,0-2.45,0-3.28-.9-3.24-3.34.11-6.06.05-12.13,0-18.19,0-1.25.29-2.82-1.62-2.92s-2.12,1.35-2.12,2.84q0,4.77,0,9.55c0,4.19,0,4.21-4,4.21-6.09,0-12.17.09-18.25,0-2.47-.06-3.24.88-3.23,3.31,0,4.16.41,8.35-.25,12.5-.26,1.67.23,2.5,1.93,2.46,1.52,0,3.38.41,3.41-2.08,0-3.38.1-6.76,0-10.14-.08-2.37.69-3.44,3.2-3.39,5.69.13,11.38.11,17.07,0,2.33,0,3.1.93,3.06,3.21-.09,5.76-.08,11.53,0,17.3,0,2-.58,3.06-2.75,3.31-5.78.66-11.56.29-17.34.25-2.79,0-3.8.78-3.21,3.66s-.39,5.92-.32,8.89c0,1.55-1.08,2-2.41,2-5.49,0-11,0-16.48,0-2.13,0-2.67-1.13-2.66-3,0-5.57-.08-11.14.05-16.71.06-2.39-.86-3.2-3.11-3.06-2.07.12-4.21-.31-4.32,3-.08,2,1,4.35-1,6.11,0-2.39.11-4.78,0-7.16-.14-2.54.8-3.58,3.39-3.53,5.69.13,11.38-.06,17.07.09,2.48.06,3.29-.85,3.18-3.29-.16-3.48-.06-7,0-10.44s.59-4.21,4.08-4.22c6.28,0,12.56-.09,18.84,0,2.33,0,3.11-.81,3-3.12-.13-4,0-8-.06-11.93,0-1.77.2-2.53,2.43-2.44,7.15.27,14.32,0,21.48.17,2.42,0,2.65-1.27,2.65-3.2-.05-10.64,0-21.27,0-31.91,0-.79,0-1.59,0-2.38,0-1,.06-2.21,1.35-2.28,1.53-.08,1.56,1.25,1.57,2.34,0,6.46,0,12.92,0,19.39,0,1.32-.39,3,1.75,3.08Zm-24.73,27.5c0,2.87,0,5.75,0,8.63,0,1.66.62,2.66,2.39,2.66,5.58,0,11.16,0,16.75,0,1.54,0,2.68-.71,2.63-2.5-.19-5.83.46-11.68-.49-17.51-.33-2.08-1.25-2.65-3.09-2.63-5.09.05-10.19.06-15.28,0-2.16,0-3,.93-2.93,3.05C696.36,955.61,696.3,958.39,696.31,961.17ZM682.23,991c2.55,0,5.1,0,7.65,0,2,0,2.91-.74,2.89-2.8,0-5.08,0-10.15,0-15.22,0-1.77-.58-2.65-2.48-2.94-5.68-.86-11.32.53-17,.12-1.66-.12-1.74,1.26-1.74,2.52,0,5.07.05,10.15,0,15.22,0,2.2,1,3.07,3,3.07Zm-23.1,14.54v-.2c2.45,0,4.9-.08,7.34,0,2,.09,2.72-.74,2.76-2.78.09-4.84-.48-9.7.44-14.53.31-1.6-.69-2.38-2.24-2.38H652.17a2.1,2.1,0,0,0-2.39,2.34q0,7.88,0,15.76c0,1.29.54,1.92,2,1.82C654.24,1005.39,656.69,1005.51,659.13,1005.51Z"/><path class="c" d="M721,1027.41c-3.63,0-7.26-.13-10.89-.05-2.23.05-3.23-.75-3.17-3.11q.16-5.82,0-11.63c-.07-2.38.95-3.16,3.17-3.11,3.63.08,7.26,0,10.89,0Z"/><path class="c" d="M721,1054.27l-.88,0c-6.72-.08-6.72-.08-6.72-6.75,0-7.86,0-7.86,7.6-8.14Z"/><path class="c" d="M721,1084.13c-2.62-.06-3.59-1.48-3.4-4.05a31.41,31.41,0,0,0,0-5c-.2-2.58.79-4,3.4-4Z"/><path class="c" d="M253.8,1017.32l-2.94,0q0-12.51,0-25a23.46,23.46,0,0,1,.08-2.38c.07-.64.41-1.14,1.14-1.11s1,.57,1.06,1.2a17.65,17.65,0,0,1,.07,1.78c0,7.64,0,15.27.11,22.9A14.89,14.89,0,0,0,253.8,1017.32Z"/><path class="c" d="M158.27,987.4c-.06-.56-.13-1.12-.2-1.68l28.8,0c0,.57-.07,1.13-.1,1.69Z"/><path class="c" d="M153.09,958.82a7.84,7.84,0,0,0-.54,3.8c0,7.86,0,15.72-.06,23.58,0,1.29.4,3-1.8,3,.95-3,.55-6.1.57-9.16.05-6.35,0-12.7.05-19.05C151.32,960,150.85,958.17,153.09,958.82Z"/><path class="c" d="M430.63,969.49q0,12,0,24c0,1.13.32,2.48-1.24,3,0-7.91,0-15.82,0-23.73C429.41,971.56,428.92,970.08,430.63,969.49Z"/><path class="c" d="M283.31,1015.46c-.18,2-1.64,1.95-3,1.95l-18.81,0c.45-1.6,1.78-1.28,2.9-1.29,4.58,0,9.16,0,13.75,0A17.2,17.2,0,0,0,283.31,1015.46Z"/><path class="c" d="M497.6,969.49v-5.38C499.47,965.86,499.47,967.74,497.6,969.49Z"/><path class="c" d="M121.12,961.43c-1.23-.91-2.11-2.51-4-2.06.37-1.3,1.35-1.37,2.35-1C120.89,958.82,121.3,960,121.12,961.43Z"/><path class="c" d="M345.84,1005.31c-.35,1.41.87,3.33-1.3,4.16C344.86,1008.05,343.68,1006.14,345.84,1005.31Z"/><path class="c" d="M435.4,968.46c0,.28,0,.55,0,.83a1.93,1.93,0,0,1-1.44.8l.06-1.66C434.48,967.87,435,967.91,435.4,968.46Z"/><path class="c" d="M457,969.29c0-.28,0-.56,0-.83a.8.8,0,0,1,1.42,0c0,.28,0,.55,0,.83C457.9,969.89,457.43,969.89,457,969.29Z"/><path class="c" d="M121.12,965c-1.25-.79-1.25-1.59,0-2.38Z"/><path class="c" d="M122.41,989.24c-.92.07-1.68-.11-1.8-1.24C121.49,988,122.22,988.21,122.41,989.24Z"/><path class="c" d="M154.81,985.67c-.87-.4-1.29-1-.72-1.92A2.27,2.27,0,0,1,154.81,985.67Z"/><path class="c" d="M50.56,979.34c0-4.08.06-8.15,0-12.23,0-2.17.81-3,3-3q12.36.1,24.72,0c2.17,0,2.92,1,2.9,3.07q-.09,12.22,0,24.45c0,2.49-1.19,3.41-3.41,3.42-8.15,0-16.29,0-24.43,0-2.07,0-2.75-1-2.72-2.93C50.61,987.89,50.56,983.61,50.56,979.34Z"/><path class="c" d="M87.06,992.09c0-8.93.08-17.87,0-26.8,0-2.67.68-3.67,3.46-3.62,8.72.16,17.44.05,26.16.05.87,3.23.43,6.53.47,9.8.06,5.66,0,11.33,0,17,0,2-.15,3.79-2.94,3.75C105.11,992.14,96.09,992.14,87.06,992.09Z"/><path class="c" d="M158.27,987.4h28.5c.8,2.73.46,5.53.48,8.3,0,5.87,0,11.73,0,17.6,0,1.89-.41,3-2.6,3q-11.91-.12-23.84,0c-2.12,0-2.67-1-2.66-2.91C158.26,1004.69,158.25,996,158.27,987.4Z"/><path class="c" d="M43.51,967.05c1.16.52,1,1.59,1,2.57,0,7.65,0,15.3,0,23,0,1.21,0,2.42-1.3,3.06a1.44,1.44,0,0,0-.79,1.71c.91,7.53.13,15.08.41,22.62.09,2.3-.82,3.2-3.11,3.16q-9.55-.14-19.13,0c-2.39,0-3.54-1.06-3.45-3.36.28-7.51-.83-15.07.64-22.55.13-.67.12-1.27-.55-1.47-2.15-.66-2-2.37-2-4.1,0-7.15,0-14.31,0-21.47,0-1.12-.42-2.47,1-3.12l.09.09c0,8.05,0,16.1-.08,24.14,0,2.39.64,3.37,3.14,3.32q10.44-.21,20.88,0c2.51,0,3.18-.94,3.15-3.32-.12-8-.07-16.1-.08-24.14Z"/><path class="c" d="M235.33,1048.84c-3.62,0-7.25-.06-10.87,0-2.09.05-3-.71-3-2.93.08-7.34.06-14.69,0-22,0-2.11.71-3.09,2.9-3.07q10.88.1,21.74,0c2.43,0,3.41,1.19,3.42,3.43,0,7.34,0,14.69,0,22,0,2-1,2.58-2.76,2.56C243,1048.82,239.15,1048.84,235.33,1048.84Z"/><path class="c" d="M267.94,1020.8c3.53,0,7.06.08,10.59,0,2.11-.07,3,.65,3,2.9-.09,7.45-.06,14.9,0,22.35,0,2-.75,2.87-2.77,2.86q-11.18-.07-22.36,0c-1.85,0-2.64-.65-2.62-2.61q.09-11.33,0-22.65c0-2,.69-2.89,2.74-2.84C260.29,1020.86,264.12,1020.8,267.94,1020.8Z"/><path class="c" d="M151.38,1005.12c0,3.79-.06,7.57,0,11.35.05,2.07-.8,2.81-2.8,2.8q-11-.1-22.09,0c-2.11,0-3.06-.8-3-3q.06-11.19,0-22.38c0-1.95.64-3,2.72-2.95q11.19.06,22.39,0c2,0,2.86.8,2.82,2.84C151.33,997.56,151.38,1001.34,151.38,1005.12Z"/><path class="c" d="M115.89,1008.6c0,3.78,0,7.56,0,11.34,0,1.87-.79,2.7-2.66,2.7q-11-.06-22.09,0c-2,0-2.88-.78-2.87-2.83q.06-11.19,0-22.38c0-2.07.88-2.82,2.85-2.81q11,.07,22.09,0c2.08,0,2.74,1,2.71,2.94-.07,3.68,0,7.36,0,11Z"/><path class="c" d="M457,969.29c.46.6.93.6,1.4,0,2.28-.23,3.05.83,3,3.12-.11,7.78-.07,15.57-.09,23.35-1,.15-1.26.82-1.27,1.7-7.72,0-15.44,0-23.16.15-3,0-3.34-1.93-3.37-4.09-.09-5.55,0-11.09-.06-16.64a33.51,33.51,0,0,1,.52-6.79,1.93,1.93,0,0,0,1.44-.8Z"/><path class="c" d="M205.46,1022c3.44,0,6.87.07,10.31,0,2.19-.06,3.23.69,3.2,3.07q-.12,10.44,0,20.89c0,2.2-.89,3-3,3-7.07-.06-14.13-.09-21.2,0-2.38,0-3.46-1.29-3.13-3.26.73-4.41-.57-8.72-.23-13.08.21-2.67.44-5.34.46-8,0-2,.86-2.61,2.69-2.58C198.2,1022,201.83,1022,205.46,1022Z"/><path class="c" d="M79.4,1010.07c0,3.48-.07,7,0,10.44.06,2.22-.67,3.29-3,3.26q-10.31-.12-20.6,0c-2.19,0-2.94-.94-2.92-3.06.06-7.06.07-14.12,0-21.18,0-2.33.9-3.15,3.16-3.12q10.15.12,20.31,0c2.32,0,3.15,1,3.09,3.22C79.33,1003.1,79.39,1006.59,79.4,1010.07Z"/><path class="c" d="M285.62,1019.63a149.69,149.69,0,0,1,25.93-.06q0,13.75,0,27.51c-8.64.18-17.28.27-25.92,0Z"/><path class="c" d="M493.19,986c0,3.48-.08,7,0,10.43.06,2.14-.66,3.06-2.86,3-6.87-.09-13.73-.06-20.59,0-2.36,0-3.37-1.1-3.36-3.46,0-7,0-13.91,0-20.86,0-2,.73-2.84,2.76-2.82,7.16.07,14.31.06,21.47,0,1.9,0,2.63.77,2.59,2.66C493.14,978.65,493.19,982.32,493.19,986Z"/><path class="c" d="M328.34,1043.14c-3.52,0-7-.05-10.57,0-1.92,0-2.9-.57-2.88-2.71.07-7.14.05-14.29,0-21.43,0-1.74.68-2.54,2.44-2.53,7.24,0,14.49,0,21.74,0,1.84,0,2.66.92,2.65,2.76,0,7.14,0,14.29,0,21.43,0,1.78-.82,2.48-2.52,2.46C335.59,1043.11,332,1043.14,328.34,1043.14Z"/><path class="c" d="M172.11,1050.11c-3.34,0-6.68-.07-10,0-2.06,0-3.08-.64-3.05-2.9.08-6.47,0-12.94.07-19.4.07-3.7.5-4,4.19-4,6.18,0,12.37.07,18.55-.05,2.61-.06,3.73.78,3.67,3.58-.14,6.56-.12,13.13,0,19.69,0,2.38-.84,3.17-3.11,3.08C179,1050,175.54,1050.11,172.11,1050.11Z"/><path class="c" d="M357,1039c-3.53,0-7.06,0-10.58,0-1.86,0-2.67-.7-2.65-2.63.05-7,0-14.1,0-21.15a2.4,2.4,0,0,1,2.7-2.75q10.29,0,20.58,0c2.17,0,3.05,1.13,3,3.41q-.17,10,0,20c0,2.3-.72,3.25-3,3.15C363.64,1038.85,360.31,1039,357,1039Z"/><path class="c" d="M125.35,1038.2c0-3.28,0-6.56,0-9.84,0-1.9.79-2.7,2.65-2.7q10,.06,20,0c1.89,0,2.63.85,2.62,2.72q-.06,9.84,0,19.67c0,2.42-1,3.32-3.42,3.27q-9.27-.16-18.54,0c-2.37,0-3.42-.8-3.34-3.29C125.43,1044.76,125.34,1041.48,125.35,1038.2Z"/><path class="c" d="M432.92,1020.35c0-3.18.06-6.37,0-9.55,0-2.11.75-3.1,2.92-3.09,6.38.06,12.76,0,19.13,0,2.25,0,3.2,1,3.19,3.27,0,6.27-.07,12.53,0,18.8,0,2.35-1.09,3.34-3.13,3.37-6.57.08-13.15.08-19.72,0-1.66,0-2.43-1-2.41-2.72C433,1027.11,432.93,1023.73,432.92,1020.35Z"/><path class="c" d="M385,1009.85c3.24,0,6.48.07,9.71,0,2.1-.06,3,.67,3,2.92-.09,6.56-.06,13.13,0,19.69,0,2-.82,2.88-2.81,2.87q-10,0-20,0c-2,0-2.88-.83-2.87-2.85q0-10,0-20c0-1.93.86-2.65,2.69-2.62,3.44.06,6.87,0,10.31,0Z"/><path class="c" d="M500.49,990.09c0-3.18.05-6.36,0-9.54-.05-1.94.56-2.93,2.67-2.91,6.66.07,13.32,0,20,0,1.73,0,2.49.72,2.48,2.49q0,10.13,0,20.25c0,1.9-.92,2.67-2.73,2.66q-10,0-20,0c-1.78,0-2.44-.84-2.41-2.56C500.53,997,500.49,993.56,500.49,990.09Z"/><path class="c" d="M545,1004.72c-3.33,0-6.66,0-10,0-1.74,0-2.48-.7-2.46-2.48q.06-9.82,0-19.66c0-2,.74-2.91,2.77-2.9q9.56.06,19.11,0c1.93,0,2.9.69,2.88,2.78,0,6.65,0,13.3,0,19.95,0,1.64-.7,2.34-2.3,2.32C551.61,1004.69,548.28,1004.72,545,1004.72Z"/><path class="c" d="M400.93,1020.72c0-3.18.08-6.37,0-9.54-.07-2.13.64-3.08,2.86-3,6.27.09,12.55.08,18.83,0,2.16,0,3,.82,2.92,3q-.12,9.69,0,19.38c0,2.11-.63,3.08-2.86,3-6.27-.1-12.55-.09-18.83,0-2.18,0-3-.83-2.91-3C401,1027.28,400.92,1024,400.93,1020.72Z"/><path class="c" d="M295.64,1056.71c3.13,0,6.27,0,9.4,0,1.95,0,2.87.71,2.85,2.79q-.09,9.39,0,18.77c0,2-.79,2.87-2.79,2.85q-9.54-.06-19.1,0c-1.84,0-2.69-.74-2.68-2.65q0-9.53,0-19.06c0-1.87.77-2.72,2.64-2.69C289.17,1056.75,292.4,1056.71,295.64,1056.71Z"/><path class="c" d="M102.91,1026.24c3,0,6.09,0,9.13,0,1.87,0,2.66.84,2.65,2.71q0,9.54,0,19.09c0,2.31-1.16,3.18-3.31,3.17-5.79,0-11.58,0-17.37,0-2.32,0-3.44-1-3.42-3.39,0-6.16.07-12.33,0-18.49,0-2.37,1-3.17,3.21-3.1C96.83,1026.31,99.87,1026.24,102.91,1026.24Z"/><path class="c" d="M467.14,1021.14c0-3.08,0-6.16,0-9.23,0-1.93.62-3,2.7-3q9.4.06,18.81,0c1.91,0,2.58,1,2.57,2.77,0,6.26-.06,12.51,0,18.77,0,2-.85,3.08-2.69,3.16a136.73,136.73,0,0,1-18.77-.11c-1.92-.18-2.7-1.19-2.65-3.15C467.21,1027.3,467.14,1024.22,467.14,1021.14Z"/><path class="c" d="M276.2,1068.62c0,3.19,0,6.37,0,9.55,0,2-.69,2.93-2.75,2.91-6-.07-12-.06-18,0-1.94,0-2.92-.67-2.9-2.77q.07-9.39,0-18.8c0-2,.85-2.85,2.83-2.83,6.09,0,12.17.06,18.26,0,2,0,2.57.86,2.52,2.71C276.15,1062.45,276.2,1065.54,276.2,1068.62Z"/><path class="c" d="M243.76,1070.18c0,3.08,0,6.16,0,9.23,0,2-.69,2.94-2.74,2.92-6.17,0-12.34,0-18.51,0-1.59,0-2.33-.63-2.32-2.28q0-9.82,0-19.65c0-1.59.7-2.4,2.29-2.39H241c2,0,2.81,1,2.77,3-.07,3.07,0,6.15,0,9.22Z"/><path class="c" d="M363.92,1065.58c0,3-.05,6,0,9,0,1.93-.59,3-2.69,3-5.88,0-11.77,0-17.66,0-2.29,0-3.12-1.15-3.1-3.34q.06-8.81,0-17.61c0-2,.77-2.89,2.79-2.87q9,.07,18,0c2.08,0,2.75,1,2.71,3C363.88,1059.61,363.92,1062.59,363.92,1065.58Z"/><path class="c" d="M77.57,1037.83c0,2.88,0,5.76,0,8.65,0,2.32-.84,3.52-3.26,3.5q-8.38-.07-16.77,0c-2,0-2.88-1-2.88-2.89,0-6.17,0-12.33,0-18.49a2.41,2.41,0,0,1,2.68-2.77c6-.07,12-.06,17.95-.06,1.85,0,2.26,1.29,2.28,2.81,0,3.08,0,6.16,0,9.24Z"/><path class="c" d="M212.53,1073.68c0,2.88-.05,5.76,0,8.65.05,2-.65,2.92-2.72,2.9-5.89-.06-11.78,0-17.66,0-1.89,0-2.62-.82-2.61-2.7,0-6.06,0-12.13,0-18.19,0-1.61.45-2.79,2.28-2.75,6.07.13,12.15-.38,18.22.33,1.9.23,2.54,1,2.49,2.82C212.47,1067.71,212.53,1070.69,212.53,1073.68Z"/><path class="c" d="M382.23,1050.08c2.95,0,5.89,0,8.83,0,1.93,0,2.91.67,2.89,2.77q-.07,8.81,0,17.59c0,1.61-.61,2.37-2.19,2.49a121.66,121.66,0,0,1-19.09,0c-1.58-.13-2.2-.91-2.19-2.5q.08-8.81,0-17.6c0-2.1,1-2.79,2.92-2.75C376.35,1050.13,379.29,1050.08,382.23,1050.08Z"/><path class="c" d="M501.36,1022.63c0-2.88,0-5.76,0-8.63,0-1.88.78-2.71,2.65-2.7q9,0,17.91,0c1.61,0,2.33.67,2.32,2.3q0,9.23,0,18.45c0,1.79-.9,2.47-2.57,2.46-5.87,0-11.75,0-17.62,0-2.06,0-2.75-1-2.7-3,.07-3,0-6,0-8.93Z"/><path class="c" d="M169.16,1063.24c2.94,0,5.89,0,8.83,0,1.85,0,2.66.81,2.64,2.71q-.06,8.36,0,16.71c0,2.26-1.06,3.24-3.25,3.23-5.59,0-11.19,0-16.78,0-2,0-2.84-.82-2.82-2.85q.09-8.51,0-17c0-2,.86-2.86,2.84-2.81C163.46,1063.28,166.31,1063.23,169.16,1063.24Z"/><path class="c" d="M423.42,1058.75c0,2.69-.05,5.37,0,8.06.05,2-.73,2.92-2.77,2.9-5.49-.06-11,0-16.49,0-2,0-3.08-1-3.08-3.1q0-8.36,0-16.71c0-1.83.69-2.78,2.59-2.77,5.69,0,11.39,0,17.08,0,1.86,0,2.68.81,2.65,2.7C423.38,1052.78,423.42,1055.77,423.42,1058.75Z"/><path class="c" d="M312.16,1079.35l-.21-22.06c6.56,0,13.12,0,19.68-.06,2.15,0,3,.72,2.92,2.93-.1,5.35-.14,10.72,0,16.07.08,2.58-1,3.19-3.3,3.15C324.89,1079.27,318.53,1079.35,312.16,1079.35Z"/><path class="c" d="M19.93,1036.67c0-2.68.06-5.36,0-8-.05-2,.66-2.93,2.73-2.9q8.09.09,16.17,0c2,0,2.88.68,2.86,2.76-.06,5.67-.05,11.33,0,17,0,2.07-.92,2.81-2.87,2.79-5.3,0-10.59-.08-15.88,0-2.37,0-3.09-1-3-3.26C20,1042.24,19.93,1039.45,19.93,1036.67Z"/><path class="c" d="M604.31,989.76c2.75,0,5.49,0,8.24,0,2,0,2.88.92,2.88,2.86,0,5.37,0,10.73,0,16.1,0,2-1.05,3-2.85,3-5.59.08-11.18.06-16.77,0-1.81,0-2.6-1.16-2.6-2.92,0-5.57,0-11.13,0-16.7,0-1.86.91-2.41,2.56-2.38C598.62,989.79,601.47,989.76,604.31,989.76Z"/><path class="c" d="M574.81,983.07c2.75,0,5.49,0,8.24,0,1.82,0,2.71.61,2.69,2.58q-.09,8.65,0,17.3c0,2-.88,2.6-2.7,2.59-5.59,0-11.19-.06-16.78,0-1.84,0-2.69-.66-2.67-2.6q.07-8.65,0-17.31c0-2,.87-2.62,2.7-2.57C569.11,983.13,572,983.07,574.81,983.07Z"/><path class="c" d="M545.3,1034.51c-2.74,0-5.48-.06-8.22,0-2,0-2.79-.87-2.77-2.87.06-5.46,0-10.92,0-16.37,0-1.85.72-2.74,2.61-2.73,5.38,0,10.77.06,16.15,0a2.39,2.39,0,0,1,2.75,2.68c.07,5.76.06,11.51,0,17.27,0,1.56-1,2-2.35,2H545.3Z"/><path class="c" d="M445.57,1044.71c2.65,0,5.29,0,7.94,0,1.93,0,2.91.65,2.88,2.75-.06,5.37-.05,10.73,0,16.1,0,1.89-.81,2.68-2.66,2.67q-8.24-.06-16.47,0c-1.73,0-2.51-.76-2.5-2.51q0-8.35,0-16.69c0-1.65.7-2.33,2.31-2.31C439.88,1044.75,442.73,1044.72,445.57,1044.71Z"/><path class="c" d="M135.41,1083.59c-2.75,0-5.49,0-8.23,0-1.76,0-2.45-.73-2.43-2.49q.07-8.17,0-16.37c0-1.89.8-2.68,2.65-2.66q8.22.06,16.44,0c1.86,0,2.66.78,2.65,2.68q-.08,8,0,16.07c0,2-.89,2.84-2.85,2.79C140.89,1083.54,138.15,1083.59,135.41,1083.59Z"/><path class="c" d="M101.16,1060.81c2.55,0,5.1,0,7.64,0,1.92,0,2.93.64,2.9,2.74-.06,5.07,0,10.13,0,15.19,0,2.1-.91,3-3,3-5.09-.08-10.19-.06-15.28,0-2,0-2.82-.88-2.8-2.88,0-5.16.07-10.32,0-15.48,0-2,.86-2.61,2.68-2.56C95.87,1060.87,98.52,1060.81,101.16,1060.81Z"/><path class="c" d="M469,1053.08c0-2.48,0-5,0-7.44,0-1.91.84-2.66,2.67-2.65,5,0,10,.06,15,0,2,0,2.86.74,2.84,2.8-.07,5-.08,10.11,0,15.17,0,2.1-.89,2.79-2.84,2.77-4.89-.06-9.79-.09-14.68,0-2.38.06-3.09-1-3-3.23.11-2.48,0-5,0-7.44Z"/><path class="c" d="M710.05,1000.46c-2.54,0-5.09,0-7.64,0-1.73,0-2.49-.79-2.47-2.53q0-7.91,0-15.79c0-1.79.88-2.47,2.55-2.46q7.65,0,15.29,0c1.87,0,2.65.84,2.64,2.71q-.06,7.75,0,15.49c0,2-.92,2.64-2.72,2.6C715.15,1000.42,712.6,1000.46,710.05,1000.46Z"/><path class="c" d="M301.5,1104.22c0,2.49-.05,5,0,7.46.05,2-.72,2.91-2.77,2.88-4.9-.07-9.81,0-14.72,0-1.65,0-2.57-.49-2.57-2.36,0-5.07-.16-10.13-.2-15.2,0-2.09.81-3.32,3.18-3.26,4.71.12,9.42.09,14.13,0,2.16,0,3,.87,2.95,3C301.43,1099.25,301.5,1101.73,301.5,1104.22Z"/><path class="c" d="M260.64,1114.58c-2.56,0-5.11,0-7.66,0-1.89,0-2.64-.84-2.63-2.71q.06-7.46,0-14.91c0-1.89.79-2.69,2.66-2.68,5.1,0,10.2,0,15.3,0,1.72,0,2.49.78,2.48,2.54,0,5.07,0,10.14,0,15.21,0,1.75-.77,2.54-2.49,2.52C265.74,1114.55,263.19,1114.58,260.64,1114.58Z"/><path class="c" d="M237.3,1107.62c0,2.49-.05,5,0,7.46.06,1.85-.71,2.89-2.53,2.91q-7.51.06-15,0c-1.64,0-2.48-.9-2.46-2.66,0-5.17,0-10.34,0-15.52,0-1.77.86-2.49,2.55-2.48,5,0,10,0,15,0,1.8,0,2.44.82,2.41,2.54C237.27,1102.45,237.3,1105,237.3,1107.62Z"/><path class="c" d="M624.51,1010.55c0-2.39,0-4.78,0-7.16,0-2,.66-2.94,2.73-2.92,4.9.07,9.81.08,14.72,0,1.85,0,2.83.76,2.87,2.55a120.14,120.14,0,0,1-.16,15.18c-.19,1.84-1.06,2.58-2.88,2.56q-7.35-.11-14.71,0c-1.92,0-2.62-.88-2.57-2.74C624.56,1015.52,624.51,1013,624.51,1010.55Z"/><path class="c" d="M358.61,1102.1c0,2.48,0,5,0,7.44,0,1.74-.74,2.53-2.48,2.52-4.89,0-9.79,0-14.69,0a2.46,2.46,0,0,1-2.72-2.77c0-5.06,0-10.12,0-15.18a2,2,0,0,1,2-2.32,82,82,0,0,1,15.82,0c1.69.16,2.08,1.11,2.06,2.6C358.58,1096.94,358.61,1099.52,358.61,1102.1Z"/><path class="c" d="M329.24,1104.38c0,2.58-.05,5.16,0,7.74.05,1.78-.71,2.48-2.46,2.46q-7.35-.07-14.69,0c-2,0-2.87-.78-2.84-2.83q.08-7.29,0-14.59c0-2,.74-2.92,2.76-2.9,4.9,0,9.8.06,14.7,0,1.93,0,2.61.8,2.55,2.68C329.18,1099.41,329.24,1101.89,329.24,1104.38Z"/><path class="c" d="M565.55,1026.14c0-2.39.05-4.77,0-7.16,0-2,.77-2.91,2.79-2.89q7.21.09,14.42,0c2.08,0,2.73,1,2.71,2.95-.06,4.67-.05,9.34,0,14,0,2.16-.73,3.33-3.1,3.28-4.61-.1-9.22-.09-13.83,0-2.15,0-3-.87-3-3C565.6,1030.91,565.54,1028.53,565.55,1026.14Z"/><path class="c" d="M205.45,1111.71c0,2.29-.09,4.57,0,6.85.11,2.09-.93,2.94-2.77,3q-7.2.09-14.39,0c-1.89,0-2.79-1-2.77-3,0-4.56.06-9.12,0-13.69,0-2.15,1-3.17,3-3.2,4.69-.07,9.39,0,14.09,0,1.93,0,2.84,1.07,2.84,3Q205.44,1108.14,205.45,1111.71Z"/><path class="c" d="M688.38,997.6c2.26,0,4.52.06,6.78,0,2-.06,2.9.67,2.87,2.77-.08,4.77,0,9.55,0,14.32,0,2.13-1,3.07-3.1,3.06-4.52,0-9,0-13.55,0-1.85,0-2.7-.78-2.68-2.67q0-7.6,0-15.22c0-1.7.78-2.28,2.35-2.25C683.47,997.64,685.93,997.6,688.38,997.6Z"/><path class="c" d="M522.43,1052.78c0,2.28,0,4.57,0,6.84.06,1.86-.73,2.82-2.56,2.83-4.8,0-9.59,0-14.38,0-2,0-3-1.11-2.92-3.23q.1-6.69,0-13.38c0-2,.81-2.86,2.79-2.84,4.79,0,9.59,0,14.38,0,1.83,0,2.72.75,2.69,2.65C522.39,1048,522.42,1050.4,522.43,1052.78Z"/><path class="c" d="M74.7,1069.8c0,2.38-.06,4.77,0,7.15.07,2-.65,2.94-2.72,2.9q-6.76-.11-13.53,0c-2.18,0-3.07-1.1-3.09-3.07,0-4.58,0-9.15,0-13.72,0-2.53,1.16-3.64,3.86-3.49,4.11.24,8.24.16,12.36,0,2.24-.07,3.26.64,3.11,3S74.7,1067.41,74.7,1069.8Z"/><path class="c" d="M164.26,1102.15h7.05a2.05,2.05,0,0,1,2.32,2.37c0,4.86,0,9.72,0,14.57,0,1.84-1,2.46-2.61,2.47-4.6,0-9.2,0-13.8,0-1.95,0-3-.86-3-3.1.13-4.36.07-8.73,0-13.09,0-2.23,1-3.29,3.2-3.24s4.5,0,6.75,0Z"/><path class="c" d="M410.8,1101.43c-2.25,0-4.51,0-6.76,0-2,0-2.89-.76-2.86-2.81.06-4.27,0-8.55,0-12.82,0-2.23,1-3.49,3.42-3.43,4.12.11,8.24.1,12.35,0,2.43-.05,3.41,1.17,3.43,3.43,0,4.37,0,8.74,0,13.11,0,1.78-.89,2.5-2.56,2.49Z"/><path class="c" d="M665.39,1013.18c2.07,0,4.13,0,6.19,0,2.29-.06,3.48.87,3.44,3.34-.07,4.27,0,8.55,0,12.83,0,1.87-.74,2.75-2.62,2.74-4.32,0-8.64,0-13,0-2.24,0-3.17-1.09-3.14-3.32.06-4.28.05-8.56,0-12.84,0-1.86.71-2.77,2.6-2.73C661.07,1013.22,663.23,1013.19,665.39,1013.18Z"/><path class="c" d="M21.1,1068.05c0-2.28,0-4.57,0-6.85,0-1.67.6-2.66,2.38-2.65,4.51,0,9,0,13.52,0,2,0,2.8,1.15,2.8,3q0,6.41,0,12.81c0,2.09-1,3.1-3.07,3.1-4.31,0-8.62,0-12.93,0-2.06,0-2.79-1-2.73-2.93.06-2.18,0-4.37,0-6.55Z"/><path class="c" d="M597.92,1032.6c0-2.29.05-4.57,0-6.85,0-1.74.61-2.54,2.4-2.51,4.4.06,8.81,0,13.22,0a2.64,2.64,0,0,1,3,2.86q.12,6.56,0,13.1c0,2.12-1.18,3.12-3.43,3-4.11-.14-8.23-.09-12.34,0-2,0-2.91-.72-2.84-2.79C598,1037.16,597.92,1034.88,597.92,1032.6Z"/><path class="c" d="M122.46,1108.57c0-8.88,0-8.88,8.76-8.88,2.25,0,4.51,0,6.76,0,1.8-.06,2.73.52,2.7,2.54-.09,4.37-.06,8.75,0,13.12,0,1.82-.67,2.8-2.58,2.79q-6.47,0-13,0c-1.84,0-2.71-.81-2.68-2.69C122.49,1113.14,122.46,1110.85,122.46,1108.57Z"/><path class="c" d="M453.51,1086.52c0,2.29,0,4.57,0,6.86,0,1.73-.76,2.55-2.49,2.54q-6.33,0-12.66,0c-1.56,0-2.4-.68-2.4-2.3,0-4.57,0-9.15,0-13.72a2.48,2.48,0,0,1,2.73-2.79c4.12,0,8.24,0,12.36,0,1.75,0,2.49.86,2.48,2.57C453.5,1082,453.51,1084.23,453.51,1086.52Z"/><path class="c" d="M554.27,1053.67c0,2.08,0,4.17,0,6.25,0,1.73-.7,2.57-2.44,2.56-4.31,0-8.62,0-12.92,0a2.44,2.44,0,0,1-2.75-2.73q0-6.4,0-12.8a2.48,2.48,0,0,1,2.77-2.74c4.31,0,8.62,0,12.93,0,1.75,0,2.42,1,2.4,2.63C554.25,1049.1,554.27,1051.39,554.27,1053.67Z"/><path class="c" d="M97.74,1097.3c2,0,3.91,0,5.87,0s2.94.64,2.91,2.74c-.06,4.16,0,8.33,0,12.49,0,1.73-.75,2.56-2.47,2.56q-6,0-12,0c-2.06,0-3.06-.93-3-3.06,0-4,0-7.94,0-11.9,0-2,.89-2.91,2.88-2.84S95.78,1097.3,97.74,1097.3Z"/><path class="c" d="M478.13,1072.87c1.77,0,3.54.09,5.3,0,2.58-.17,3.55,1.14,3.54,3.56,0,3.57,0,7.15,0,10.72,0,2.25-.86,3.53-3.33,3.46-3.53-.11-7.06,0-10.59,0-2.3,0-3.46-1.09-3.46-3.43,0-3.87,0-7.74,0-11.62,0-1.92.85-2.69,2.68-2.64S476.17,1072.87,478.13,1072.87Z"/><path class="c" d="M386.94,1106.36l-16.48-.09v-18c5.48-1,11-.49,16.49-.38C387.16,1094,388.24,1100.19,386.94,1106.36Z"/><path class="c" d="M646.17,1041.28c0,8.68,0,8.74-8.44,8.67-9.18-.07-7.86,1.31-8-8,0-2.28.06-4.56,0-6.84,0-1.76.79-2.64,2.4-2.68,4-.08,8-.08,12-.08,1.52,0,2,1,2,2.36Z"/><path class="c" d="M287,1149.68c-2,0-3.92,0-5.87,0-1.7,0-2.53-.69-2.52-2.47,0-3.87,0-7.74,0-11.6,0-2,.89-3,2.82-3,3.81,0,7.63,0,11.45,0,1.78,0,2.66,1,2.66,2.84,0,4,0,7.94,0,11.9,0,1.64-.84,2.32-2.39,2.3Z"/><path class="c" d="M223.55,1155.05c-1.76,0-3.52,0-5.28,0-2.21.08-3.27-.9-3.24-3.18,0-3.57.05-7.14,0-10.72,0-2.18,1.14-3.1,3.06-3.14,3.72-.07,7.44,0,11.16,0a2.5,2.5,0,0,1,2.7,2.83c0,3.87,0,7.74,0,11.61a2.26,2.26,0,0,1-2.52,2.57c-2,0-3.92,0-5.88,0Z"/><path class="c" d="M693.91,1043.47c-8.18,0-8.18,0-8.18-8.26s0-8.3,8.26-8.31c2.06,0,4.12,0,6.18,0,1.71,0,2.52.75,2.51,2.51,0,3.88,0,7.75,0,11.63,0,1.8-.92,2.46-2.58,2.44C698,1043.45,696,1043.47,693.91,1043.47Z"/><path class="c" d="M307.46,1138c0-8.39,0-8.39,8.16-8.39,9.09,0,8.18-.83,8.19,8.27,0,1.88,0,3.76,0,5.64,0,2.06-.82,3.19-2.94,3.18-3.61,0-7.23,0-10.85,0-1.92,0-2.59-1-2.56-2.78C307.49,1141.94,307.47,1140,307.46,1138Z"/><path class="c" d="M71.71,1104.54c0,1.29,0,2.58,0,3.87,0,4.11-.51,4.7-4.46,4.79-2.94.07-5.87,0-8.81,0-2.06,0-3.1-1-3.09-3.06,0-3.77,0-7.54,0-11.31,0-2.09,1-2.78,2.92-2.75,3.42.06,6.85.11,10.28,0,2.47-.09,3.35,1,3.2,3.39C71.62,1101.16,71.71,1102.86,71.71,1104.54Z"/><path class="c" d="M255.63,1152.18c-8.21,0-8.21,0-8.21-8.38,0-9.15-.81-8.3,8.25-8.29,9.68,0,8.54-1,8.58,8.51,0,8.16,0,8.16-8,8.16Z"/><path class="c" d="M576.93,1065c-7.92,0-7.92,0-7.92-7.91,0-8.68,0-8.68,8.45-8.68,8,0,8,0,8,8C585.43,1065,585.43,1065,576.93,1065Z"/><path class="c" d="M345.86,1126.55c8.1,0,8.17,0,8.09,8.16-.1,9.3,1.55,8.36-8.24,8.37-9.12,0-8.1,1-8.14-8.28C337.54,1126.55,337.56,1126.55,345.86,1126.55Z"/><path class="c" d="M192.59,1141.45c8.11,0,8.11,0,8.11,8.3,0,7.81,0,7.81-7.85,7.81-2,0-3.92,0-5.88,0-1.65,0-2.6-.61-2.58-2.42q0-5.66,0-11.32c0-1.58.72-2.39,2.31-2.37Z"/><path class="c" d="M162,1155.74c-1.57,0-3.14-.12-4.69,0-2.4.22-3.5-.87-3.47-3.21a77.13,77.13,0,0,1,.26-10.08c.25-1.73,1.07-2.52,2.62-2.55,3.52-.08,7-.1,10.55,0,1.87,0,2.8,1.09,2.76,3.07q-.09,4.75,0,9.51c.05,2.39-.95,3.46-3.35,3.3C165.12,1155.65,163.55,1155.74,162,1155.74Z"/><path class="c" d="M518.91,1079.67c0,8,0,8-7.78,8-1.76,0-3.52,0-5.28,0-2,.08-2.81-.89-2.77-2.87q.07-5.2,0-10.41c0-2,.84-2.87,2.83-2.84q5.28.09,10.56,0c1.73,0,2.54.63,2.47,2.44S518.91,1077.78,518.91,1079.67Z"/><path class="c" d="M376.93,1122.45c7.66,0,7.7,0,7.65,7.88-.07,9.3,1.18,8-8,8s-7.78,1.16-7.85-7.84c-.06-8.08,0-8.08,7.86-8.08Z"/><path class="c" d="M36.36,1103.28c-.11,8.2,1.13,6.94-7.86,7-7.85.07-7.37.54-7.33-7.35,0-1.88,0-3.77,0-5.65s1-2.89,2.91-2.89c3.13,0,6.26.07,9.39,0,2.19-.07,3,1,2.89,3.06C36.3,1099.11,36.36,1100.79,36.36,1103.28Z"/><path class="c" d="M667.93,1043.52c8.66.13,7.58-1.24,7.64,7.77s.46,7.7-7.5,7.7c-8.8,0-7.61,1.15-7.67-7.71C660.35,1043.52,660.39,1043.52,667.93,1043.52Z"/><path class="c" d="M416.41,1125c-.11,9.13,1.14,7.92-7.73,8-7.84,0-6.95.92-7-7.19,0-8.68,0-8.69,8.44-8.68,6.93,0,6.23-.64,6.27,6.43Z"/><path class="c" d="M131.3,1150.91c-8.78-.11-7.64,1.2-7.63-7.75,0-8.66-1.2-7.5,7.51-7.55,8.31,0,7.64-.72,7.59,7.69C138.73,1152.06,139.87,1150.81,131.3,1150.91Z"/><path class="c" d="M544.82,1088.8c-8.09,0-7.51.52-7.5-7.55,0-8.31-.7-7.79,7.56-7.78,8,0,7.5-.69,7.55,7.51C552.49,1090.28,552,1088.69,544.82,1088.8Z"/><path class="c" d="M608.34,1071.6c-7.52,0-7.57,0-7.5-7.71.07-8.17-1.42-7.77,7.74-7.73,7.9,0,7-.9,7,7.17,0,.3,0,.6,0,.89C615.6,1071.6,615.6,1071.6,608.34,1071.6Z"/><path class="c" d="M444.68,1111.68c8,.09,6.91-1,7,7.2s.47,7.54-7.48,7.54c-7.57,0-7.57,0-7.57-7.67C436.6,1111.68,436.6,1111.68,444.68,1111.68Z"/><path class="c" d="M646.06,1072.28c0,8,.32,7-7,7-7.94,0-7.54.61-7.49-7.53,0-7.32-.7-6.68,6.64-6.7h.59C647.08,1065.13,646,1064.12,646.06,1072.28Z"/><path class="c" d="M58.32,1137.07c.15-6.62-1.65-7.56,7.42-7.38.88,0,1.77,0,2.65,0,2.67-.06,4,1.09,3.78,4a57.81,57.81,0,0,0,0,6.84c.12,2.64-.89,3.9-3.59,3.76a61.41,61.41,0,0,0-7,0c-2.46.15-3.4-.91-3.22-3.33C58.4,1139.66,58.32,1138.36,58.32,1137.07Z"/><path class="c" d="M484.67,1112.28c.17,9-.62,7.43-7.3,7.52a24.71,24.71,0,0,1-3.22-.14c-2.27-.28-3.53-1.41-3.39-3.94.13-2.28.05-4.57,0-6.85,0-2.53.94-3.92,3.67-3.75,2.05.13,4.12,0,6.17,0,3.59,0,4,.47,4,4.16C484.68,1110.3,484.67,1111.29,484.67,1112.28Z"/><path class="c" d="M339.34,1168.18c0-7.79-.7-6.78,6.74-6.84,7.62-.07,7.11-.42,7.1,7.31,0,6.66,0,6.66-6.54,6.67h-.3C338.29,1175.24,339.45,1176.28,339.34,1168.18Z"/><path class="c" d="M578,1092.41c-7.14-.05-6.54.76-6.49-6.49,0-8.92-1.12-7.57,7.66-7.66,6.27-.06,6.27,0,6.28,6.46C585.41,1092.42,585.41,1092.42,578,1092.41Z"/><path class="c" d="M697,1056.68c7.86,0,6.89-.79,6.91,7,0,7.46.71,6.62-6.66,6.66s-7.42,0-7.37-7.3-.92-6.27,6.24-6.36Z"/><path class="c" d="M287.91,1178.31c0,7.15,0,7.15-7.12,7.16-.78,0-1.57,0-2.34,0-3.43-.23-3.95-.81-4-4.36,0-2.08.13-4.17,0-6.23-.22-2.8,1-3.72,3.62-3.54a47.73,47.73,0,0,0,6.44,0c2.51-.16,3.66.81,3.42,3.42C287.82,1175.93,287.91,1177.13,287.91,1178.31Z"/><path class="c" d="M242.68,1182.76c.07-7.4-.86-6.58,6.65-6.61,6.76,0,6.8,0,6.76,7,0,7.63,1,6.62-6.52,6.63C241.77,1189.75,242.75,1190.61,242.68,1182.76Z"/><path class="c" d="M226.05,1185.52c0,7.29.64,6.59-6.39,6.61s-7,0-7-7.12c0-6,0-6,5.86-6h1.18C227,1179.13,226,1178.14,226.05,1185.52Z"/><path class="c" d="M661.59,1080.71c.06-7.47-.75-6.56,6.67-6.6,6.12,0,6,0,6.13,6.18.12,8.74-.77,7.21-7.23,7.27S661.65,1087.85,661.59,1080.71Z"/><path class="c" d="M509.54,1102.13c7.17,0,6.36-.67,6.39,6.56,0,6.29,0,6.29-6.29,6.3-7,0-7,0-7-6.9,0-.7.05-1.39,0-2.08-.24-2.76.88-4.12,3.71-3.89C507.39,1102.21,508.46,1102.13,509.54,1102.13Z"/><path class="c" d="M190.47,1180.27c7,.08,6.15-.83,6.16,6.11,0,7.74.88,6.91-6.95,7h-2.06c-3.34-.07-3.82-.57-3.86-4.08,0-1.68,0-3.37,0-5.06,0-3.74.16-3.89,3.77-3.92Z"/><path class="c" d="M161.8,1188.57c-7.07,0-6.28.54-6.3-6.42,0-6.47-.55-6,5.84-6,8,0,6.89-.93,7,7.19v.3c0,4.88,0,4.88-4.77,4.88Z"/><path class="c" d="M602,1092.29c0-6.84-.64-6.19,6.2-6.23h.88c5.22,0,5.28,0,5.23,5.27-.08,8.62,1.2,7.6-7.44,7.65-4.86,0-4.86,0-4.87-4.91Z"/><path class="c" d="M93,1132.24a54.21,54.21,0,0,1,11.74,0c0,3.28-.07,6.55.05,9.82.07,2.11-.57,3.16-2.82,3a48.86,48.86,0,0,0-6.17,0c-2.22.14-2.92-.85-2.85-3C93,1138.79,93,1135.51,93,1132.24Z"/><path class="c" d="M417,1158.27c0,7,.67,6.29-6.4,6.3-5.83,0-5.87,0-5.82-5.78.06-7.47-1.07-6.57,6.6-6.59C417.72,1152.18,416.91,1151.51,417,1158.27Z"/><path class="c" d="M133.86,1182.53c-.88,0-1.76,0-2.64,0-2.3.1-3.34-.93-3.44-3.33-.41-9.31-.46-9.26,8.67-9.06,2.44.06,3.67.94,3.56,3.51-.07,1.58,0,3.17,0,4.75,0,3.65-.47,4.09-4.08,4.13Z"/><path class="c" d="M542.36,1103.34c5.93,0,5.93,0,5.93,6.08v.3c0,5.94,0,5.94-5.81,5.94-6.25,0-6.35-.09-6.35-6.21S536.13,1103.33,542.36,1103.34Z"/><path class="c" d="M103.24,1165.49c5.94,0,6,.08,6,6.13s0,6-6.37,6.11c-5.59.07-5-.54-5.54-6.3C96.87,1166.08,97.73,1165.49,103.24,1165.49Z"/><path class="c" d="M643.18,1102.16c0,5.77,0,5.77-5.71,5.76-1,0-2,0-2.94,0-1.94,0-2.87-1-2.9-2.92,0-.69,0-1.38,0-2.08,0-7.17,2.53-9.07,9.47-7.09a2.43,2.43,0,0,1,2.09,2.48Z"/><path class="c" d="M446,1146.85c5.63,0,5.63,0,5.63,5,0,6.77,0,6.77-6.22,6.77-5.33,0-5.33,0-5.32-7.37C440.12,1146.85,440.12,1146.85,446,1146.85Z"/><path class="c" d="M702.76,1091.85c0,5.94,0,5.94-5.9,5.93-5.1,0-5.19-.1-5.17-5.38,0-6.33,0-6.33,5.37-6.33C702.77,1086.06,702.77,1086.06,702.76,1091.85Z"/><path class="c" d="M667.07,1116.2a14.76,14.76,0,0,0-1.76,0c-2.81.36-3.77-.86-3.68-3.71.23-8.37-1-7.16,7.45-7.38,2.7-.06,3.81.93,3.5,3.63a15.08,15.08,0,0,0,0,1.78C672.57,1116.2,672.57,1116.2,667.07,1116.2Z"/><path class="c" d="M372.82,1158.12a22.14,22.14,0,0,1,10.61,0c-.3,3.81.62,7.69-.62,11.45h-9.38C372.2,1165.8,373.11,1161.93,372.82,1158.12Z"/><path class="c" d="M581.34,1113.29c0,5.41,0,5.41-3.92,5.42-7.06,0-7.06,0-7.07-4.16,0-7,0-7,5.18-7C581.8,1107.57,581.33,1107.09,581.34,1113.29Z"/><path class="c" d="M484.13,1146.5c0,5.58,0,5.58-6,5.57-4.93,0-5-.13-5-6.53,0-4.61,0-4.61,6.2-4.6C484.13,1141,484.13,1141,484.13,1146.5Z"/><path class="c" d="M312.16,1079.35c6.37,0,12.73-.08,19.1,0,2.31,0,3.38-.57,3.3-3.15-.15-5.35-.11-10.72,0-16.07,0-2.21-.77-3-2.92-2.93-6.56.1-13.12,0-19.68.06-.12-1.72,1.14-1.61,2.19-1.62,6.08,0,12.16,0,18.25,0,2.19,0,3.37,1.07,3.49,3.16.37,6.45.3,12.91.05,19.36-.08,2-1.21,2.89-3.3,2.85-6.08-.09-12.17,0-18.25-.07C313.46,1080.93,311.72,1081.55,312.16,1079.35Z"/><path class="c" d="M69.34,1173.69c-5.18,0-5.18,0-5.18-4.56,0-6.08,0-6.08,6-6.08,4.61,0,5,.47,5,6C75.14,1173.66,75.09,1173.7,69.34,1173.69Z"/><path class="c" d="M156.11,1213.8c0-5.32,0-5.32,4.75-5.32,5.3,0,5.52.2,5.52,5.15,0,5.33-.45,5.82-5.31,5.82S156.11,1219.36,156.11,1213.8Z"/><path class="c" d="M283.16,1214.12c0,5.41,0,5.41-4.31,5.42-5.77,0-6.05-.24-6.05-5.21,0-5.36.4-5.86,4.86-5.86C283.16,1208.47,283.16,1208.47,283.16,1214.12Z"/><path class="c" d="M250.79,1218.55c0,5.14,0,5.14-5.77,5.14-4.68,0-4.68,0-4.68-5.66,0-4.6.61-5.63,4.59-5.18C250.89,1213.54,250.86,1212.16,250.79,1218.55Z"/><path class="c" d="M31,1129.3c5.47,0,5.47,0,5.48,5.38,0,5.69,0,5.69-5.65,5.69-5.29,0-5.33,0-5.28-4.13C25.66,1128.89,24.59,1129.32,31,1129.3Z"/><path class="c" d="M312.61,1213c-4.61,0-4.61,0-4.6-6,0-3.91.44-4.66,4.37-4.25,5.82.6,6.2-1,6.14,5.28C318.46,1212.83,318.36,1213,312.61,1213Z"/><path class="c" d="M220.75,1220.06c0,5.5,0,5.5-5.43,5.5-4.49,0-4.49,0-4.5-4.67,0-5.89,0-5.89,5-5.89S220.75,1215,220.75,1220.06Z"/><path class="c" d="M192.47,1218.8c0,4.9,0,4.9-4.84,4.89-5.6,0-5.6,0-5.59-5.44,0-4.5,0-4.5,6.43-4.49C192.47,1213.76,192.47,1213.76,192.47,1218.8Z"/><path class="c" d="M607.63,1125.31c-5.46,0-5.46,0-5.45-4.61,0-5.34.09-5.43,5.15-5.43,5.26,0,5.26,0,5.25,4.79C612.58,1125.3,612.58,1125.3,607.63,1125.31Z"/><path class="c" d="M508.64,1137.3c5,0,5,0,5,5.23,0,4.72-.54,5.27-5.13,5.32-4.43,0-4.79-.45-4.79-6.52C503.68,1137.3,503.68,1137.3,508.64,1137.3Z"/><path class="c" d="M342.22,1202.54c0-4.88,0-4.88,5.42-4.87,4.47,0,4.47,0,4.46,5.54,0,4.12-.64,4.9-4,4.93C342.58,1208.19,342.22,1207.84,342.22,1202.54Z"/><path class="c" d="M380.09,1203.43c-4.8,0-4.8,0-4.79-5.52,0-4.38,0-4.38,5.63-4.37,4.22,0,4.22,0,4.21,5.52C385.13,1203.43,385.13,1203.43,380.09,1203.43Z"/><path class="c" d="M39.89,1165.83c-.31,1.36.85,3.61-1,4.39-2.26.93-4.82.58-7.24.12-.75-.14-1-.92-1-1.64,0-2.19-.05-4.37,0-6.55a1.87,1.87,0,0,1,2.07-2l1.77,0C39.9,1160.08,39.9,1160.08,39.89,1165.83Z"/><path class="c" d="M134.77,1214.15h-2.94a1.92,1.92,0,0,1-2.17-2.18c0-.2,0-.4,0-.6-.31-6.22,2.18-8.16,8.17-6.43a2,2,0,0,1,1.56,2.19c.07,1.79.1,3.57.21,5.35.08,1.2-.61,1.59-1.59,1.63s-2.15,0-3.23,0Z"/><path class="c" d="M109.4,1207.14c-.35,1.45.75,3.57-1.14,4.24a9.66,9.66,0,0,1-6.6,0c-1.68-.65-.89-2.63-1-4-.47-4.91,2.71-7.2,7.26-5.2C110.16,1203.13,109,1205.41,109.4,1207.14Z"/><path class="c" d="M446.86,1193.91c-4.41,0-4.41,0-4.41-4.45,0-4.67.26-4.94,4.78-4.93,4.14,0,4.4.31,4.4,5C451.63,1193.91,451.63,1193.91,446.86,1193.91Z"/><path class="c" d="M543,1142.17c0,4.63,0,4.63-4.52,4.63-4.27,0-4.64-.36-4.66-4.38,0-4.75.34-5.1,5.18-5.09C543,1137.34,543,1137.34,543,1142.17Z"/><path class="c" d="M638,1126.57c4.3,0,4.3,0,4.31,5.78,0,3.07-.67,3.61-4.54,3.59-4.17,0-4.46-.35-4.44-5.24C633.33,1126.56,633.33,1126.56,638,1126.57Z"/><path class="c" d="M697.81,1115.81c4.29,0,4.29,0,4.28,4.58s-.3,4.82-4.59,4.81c-4.12,0-4.12,0-4.12-5.08C693.38,1115.81,693.38,1115.81,697.81,1115.81Z"/><path class="c" d="M576,1145.36c0,4.34,0,4.34-4.47,4.33-4.17,0-4.17,0-4.16-4.34,0-3.95.45-4.35,4.76-4.35C576,1141,576.05,1141.09,576,1145.36Z"/><path class="c" d="M478.86,1181c4.21,0,4.61.36,4.58,4.22s-.57,4.45-4.45,4.46c-4.13,0-4.18,0-4.18-4.43C474.81,1181.1,474.91,1181,478.86,1181Z"/><path class="c" d="M317.28,1241.76c0,4.2-.34,4.57-4.23,4.57-3.73,0-4.27-.59-4.25-4.63,0-3.6.41-4,4.52-3.94C317.21,1237.77,317.27,1237.83,317.28,1241.76Z"/><path class="c" d="M306.39,1172.2c.05-7.54-.72-6.7,6.57-6.67,8.28,0,7.25-1.18,7.28,7.42,0,7.3.77,6.47-6.41,6.52h-.29C305.26,1179.38,306.5,1180.44,306.39,1172.2Zm7.15,6.26c6.32,0,5.64.65,5.65-5.75,0-6.18.61-5.59-5.52-5.58-6.31,0-5.64-.67-5.65,5.74C308,1179.05,307.42,1178.42,313.54,1178.46Z"/><path class="c" d="M242.77,1251.75c0-3.6.74-4.42,3.91-4.45,3.86,0,4.64.76,4.62,4.66,0,3.58-.45,4-4.17,4S242.75,1255.35,242.77,1251.75Z"/><path class="c" d="M93,1132.24c0,3.27.07,6.55,0,9.82-.07,2.14.63,3.13,2.85,3a48.86,48.86,0,0,1,6.17,0c2.25.14,2.89-.91,2.82-3-.12-3.27-.05-6.54-.05-9.82,1.73-.31,1.65.94,1.66,2,0,3.27,0,6.54,0,9.8,0,1.91-.84,2.67-2.67,2.64-3.13,0-6.26,0-9.38,0-1.65,0-2.73-.8-2.8-2.39-.14-3.56-.1-7.12-.06-10.68C91.47,1132.72,92,1132.09,93,1132.24Z"/><path class="c" d="M346.43,1241.05c-3.88,0-4.06-.17-4.05-3.63,0-3.88.64-4.5,4.43-4.5s4.11.38,4.08,4.64C350.87,1241,350.73,1241.06,346.43,1241.05Z"/><path class="c" d="M664,1140.92c0-4,.12-4.09,3.84-4.09s4.12.47,4.12,4c0,4-.57,4.61-4.25,4.61S664,1145.32,664,1140.92Z"/><path class="c" d="M187.32,1244.82c3.91,0,3.91,0,3.91,4s-.1,4.17-4.14,4.16c-3.81,0-3.93-.14-3.91-4.4C183.2,1244.81,183.2,1244.81,187.32,1244.82Z"/><path class="c" d="M72.36,1197.67c3.94,0,4,.07,4,4.26,0,3.86-.13,4-4,4s-4-.14-4-4.29C68.35,1197.75,68.42,1197.68,72.36,1197.67Z"/><path class="c" d="M279.23,1251.79c-3.88,0-4.07-.16-4.07-3.56,0-3.85.6-4.54,4-4.56,3.65,0,4,.34,4,4.42C283.15,1251.65,283,1251.79,279.23,1251.79Z"/><path class="c" d="M41.6,1196.62c0,3.67-.24,3.86-4.12,3.81-3.07,0-3.87-.89-3.84-4.12s.78-4,4.58-3.94C41.46,1192.41,41.63,1192.63,41.6,1196.62Z"/><path class="c" d="M417.71,1193.88c0,3.86,0,3.89-4.32,3.87-3.51,0-4.12-.72-4.15-4.73,0-3,.45-3.37,4.38-3.36S417.72,1189.85,417.71,1193.88Z"/><path class="c" d="M383.37,1234.81c0,3.25-.6,3.67-4,3.8-3.07.12-3.36-1.65-3.49-4.15-.16-3.24,1.61-3.49,4-3.42C383.31,1231.13,383.38,1231.14,383.37,1234.81Z"/><path class="c" d="M416.89,1231.46c.45,2.77-.74,3.8-3.45,3.66-3.25-.17-3.93-.68-3.9-3.74,0-3.37.61-3.75,4-3.93C416.62,1227.28,417.27,1228.85,416.89,1231.46Z"/><path class="c" d="M539.37,1177.36c2.6-.44,3.69.56,3.67,3.39s-.86,3.69-3.57,3.63-3.9-.86-4-3.77S536.91,1177,539.37,1177.36Z"/><path class="c" d="M702,1149c.49,2.84-1.24,3.41-3.47,3.4-3.32,0-3.76-.57-3.89-3.67-.13-3.26,2-3.38,4.22-3.52C701.58,1145.05,702.27,1146.63,702,1149Z"/><path class="c" d="M637.4,1165.76c-2.4.4-3.59-.29-3.56-3.1s.83-3.85,3.7-3.86,3.3,1.4,3.38,3.86C641,1165.45,639.81,1166.19,637.4,1165.76Z"/><path class="c" d="M132.32,1239.46c2.63-.5,3.74.42,3.65,3.3-.07,2.56-.62,3.79-3.46,3.73-2.58-.06-3.69-.72-3.65-3.55C128.89,1240.32,129.46,1238.87,132.32,1239.46Z"/><path class="c" d="M575.37,1183.44c.36,2.55-.84,3.34-3.19,3.32s-3.55-.83-3.63-3.43c-.1-2.95,1.56-3,3.73-3.1C574.64,1180.17,575.85,1180.92,575.37,1183.44Z"/><path class="c" d="M480.22,1222.18c2.46-.38,3.32.78,3.29,3.2s-.71,3.69-3.34,3.71c-2.35,0-3.09-1-3-3.21S477.26,1221.76,480.22,1222.18Z"/><path class="c" d="M509.07,1185.65c-2.81.42-3.19-1.25-3.22-3.58,0-2.56,1.19-3.14,3.44-3.19,2.58-.05,3.38,1.06,3.39,3.56C512.7,1185.15,511.49,1186,509.07,1185.65Z"/><path class="c" d="M671.47,1172.24c.27,2.17-.64,3.1-3,3.12-2.8,0-2.76-1.7-2.81-3.71-.06-2.2.67-3.23,3-3.23C671.49,1168.42,671.6,1170.12,671.47,1172.24Z"/><path class="c" d="M219.71,1251.93c.19,2.62-1,3.61-3.5,3.66s-3.27-.91-3.29-3.34c0-2.59.93-3.56,3.46-3.51C218.67,1248.79,220,1249.42,219.71,1251.93Z"/><path class="c" d="M347.36,1271.12c.28,2.4-.64,3.41-2.94,3.34-2.14-.06-3.25-.91-3.26-3.16s1.07-3.14,3.22-3.18S347.73,1268.9,347.36,1271.12Z"/><path class="c" d="M513.22,1226.12c-2.39.35-3-.93-3-3.12,0-2.43,1.37-2.63,3.23-2.67,2.06,0,3,.66,3,2.9C516.49,1225.65,515.41,1226.43,513.22,1226.12Z"/><path class="c" d="M314.4,1274.8c.26,2.18-.5,3.31-2.89,3.3s-2.83-1.07-2.84-3.11.52-3.35,2.95-3.31C313.83,1271.72,314.63,1272.69,314.4,1274.8Z"/><path class="c" d="M604.79,1155.85l-2.18-.09a24.52,24.52,0,0,0,0-3c-.25-2.42.88-3.08,3.1-3,1.95,0,3,.59,2.81,2.73-.09,1.08,0,2.18,0,3.27h0Z"/><path class="c" d="M163.17,1244.16c.36,2.3-.55,3.21-2.9,3.22s-3.33-.65-3.33-3.2,1-3.21,3.33-3.21S163.53,1241.87,163.17,1244.16Z"/><path class="c" d="M163.46,1278.21c.27,2.4-1.07,2.84-3,2.84-2.13,0-2.59-1.16-2.6-3s.72-3.12,2.64-3.1S163.85,1275.87,163.46,1278.21Z"/><path class="c" d="M377.21,1273.28c-1.85.14-3.09-.35-3-2.58s.94-3,3-3.14c2.66-.14,2.73,1.82,2.95,3.55C380.43,1273.46,378.65,1273.21,377.21,1273.28Z"/><path class="c" d="M30.6,1230.78c-.2-2.2,1-2.66,2.89-2.7,2.27,0,2.78,1.13,2.77,3.15s-1.07,2.65-2.94,2.68C31.07,1233.93,30.38,1232.8,30.6,1230.78Z"/><path class="c" d="M545.82,1223.64c-2.24.11-3.22-.76-3.19-3s1-2.73,2.9-2.74,2.8.84,2.78,2.85S547.83,1223.94,545.82,1223.64Z"/><path class="c" d="M130,1274.11c1.89-.18,3,.45,2.94,2.59,0,1.77-.28,3.11-2.49,3.09-2,0-3.08-.75-3.16-2.9S128,1273.91,130,1274.11Z"/><path class="c" d="M285.62,1019.63V1047c-1.26-.45-1-1.56-1-2.51q0-11.17,0-22.35C284.59,1021.21,284.43,1020.13,285.62,1019.63Z"/><path class="c" d="M311.54,1047.08q0-13.75,0-27.51c1.44.4,1.22,1.62,1.22,2.67q0,11.1,0,22.21C312.75,1045.47,313,1046.73,311.54,1047.08Z"/><path class="c" d="M16.31,967.06c.5-1.17,1.54-1,2.5-1H41c1,0,2-.11,2.52,1l-.1.1h-27Z"/><path class="c" d="M695.27,1179.71c-.16-2,1.17-2.38,3-2.39s2.7.71,2.67,2.61-.86,3.17-3,3.1S695.24,1181.76,695.27,1179.71Z"/><path class="c" d="M99.86,1276.62c0,2-.69,3.17-2.56,3.09a2.84,2.84,0,0,1-2.92-3.06c0-1.92,1.22-2.46,2.92-2.51C99.2,1274.08,100,1274.93,99.86,1276.62Z"/><path class="c" d="M447.82,1267.89c-1.86.27-2.44-.7-2.42-2.57,0-2.23,1.28-2.54,3.05-2.54s2.58.85,2.58,2.71C451,1267.79,449.62,1268,447.82,1267.89Z"/><path class="c" d="M637.82,1199.29c-1.72.09-2.72-.61-2.6-2.56s1.33-2.6,3.13-2.63c2.19,0,2.47,1.29,2.48,3.07C640.85,1199.43,639.38,1199.34,637.82,1199.29Z"/><path class="c" d="M449.53,1227.51c.27,2.14-.54,3-2.59,3s-2.92-.93-2.94-3,1-2.66,2.89-2.65S449.86,1225.55,449.53,1227.51Z"/><path class="c" d="M485.26,1262.19c1.18-.1,1.74.92,1.71,2.61s-.59,3-2.49,3c-1.68,0-2.45-1-2.48-2.66S482.77,1262.29,485.26,1262.19Z"/><path class="c" d="M608.5,1155.76c0-1.09-.08-2.19,0-3.27.17-2.14-.86-2.69-2.81-2.73-2.22,0-3.35.61-3.1,3a24.52,24.52,0,0,1,0,3c-1.24-1.67-1.49-6-.41-7,.85-.81,5.49-.76,6.44.07C610,1149.93,609.88,1153.84,608.5,1155.76Z"/><path class="c" d="M386.94,1106.36c1.3-6.17.22-12.34,0-18.52,1.71,0,1.7,1.31,1.71,2.51,0,4.62,0,9.23,0,13.85C388.62,1105.24,389,1106.84,386.94,1106.36Z"/><path class="c" d="M65.16,1273.71c.09,1.75-.7,2.48-2.29,2.45s-2.67-.74-2.66-2.47,1-2.48,2.64-2.52C64.66,1271.13,65.31,1272.12,65.16,1273.71Z"/><path class="c" d="M669.89,1207c-1.63-.09-2.77-.68-2.75-2.26a2.64,2.64,0,0,1,5.28-.11C672.51,1206.41,671.22,1206.93,669.89,1207Z"/><path class="c" d="M101.78,1239.8c1.79-.18,2.6.66,2.53,2.57s-1.09,2.53-2.82,2.55c-2,0-2.76-.94-2.75-2.91C98.76,1239.84,100.13,1239.73,101.78,1239.8Z"/><path class="c" d="M579.19,1224.88c-1.77.22-2.45-.58-2.43-2.36s.83-2.19,2.36-2.17,2.66.37,2.67,2.26S580.8,1225,579.19,1224.88Z"/><path class="c" d="M68.65,1240c-2.19-.07-2.32-1.52-2.29-3.13,0-1.82,1.07-2.38,2.69-2.3,2,.09,2.25,1.5,2.2,3.12C71.2,1239.49,70.16,1240.07,68.65,1240Z"/><path class="c" d="M608.49,1189.15c.11,1.95-1,2.5-2.72,2.5s-2.54-.62-2.55-2.4.74-2.51,2.44-2.52S608.56,1187.11,608.49,1189.15Z"/><path class="c" d="M521.35,1265.38c-1.45-.21-2.65-.58-2.75-2.25-.12-1.82,1-2.48,2.56-2.58s2.16.81,2.25,2.2A2.23,2.23,0,0,1,521.35,1265.38Z"/><path class="c" d="M26.37,1270.25c-1.38,0-2.22-.65-2.14-2.14a2.19,2.19,0,0,1,2.51-2.22c1.31,0,2.32.64,2.16,2.12A2.25,2.25,0,0,1,26.37,1270.25Z"/><path class="c" d="M556.09,1257.54c1.41.14,2.22.78,2.18,2.27a2.24,2.24,0,0,1-2.39,2.42c-1.43,0-2-1.1-2-2.43A2.14,2.14,0,0,1,556.09,1257.54Z"/><path class="c" d="M370.46,1088.22v18c-1.08-.34-1.14-1.24-1.14-2.16v-13.72C369.32,1089.47,369.4,1088.58,370.46,1088.22Z"/><path class="c" d="M612.16,1229c-1.38.07-2.24-.43-2.29-2s.46-2.44,2.13-2.45,2.32.7,2.3,2.3S613.59,1229.07,612.16,1229Z"/><path class="c" d="M701.27,1214a2.18,2.18,0,0,1-2.61,1.72,2.08,2.08,0,0,1-2.15-2.27c0-1.55,1-2,2.35-1.93C700.42,1211.51,701,1212.54,701.27,1214Z"/><path class="c" d="M643.06,1234.41c-.9-.14-2.3,0-2.26-1.51a2.34,2.34,0,0,1,2.36-2.21,1.9,1.9,0,0,1,2.15,1.93C645.42,1234.07,644.4,1234.41,643.06,1234.41Z"/><path class="c" d="M412.45,1270.52c-1.27,0-2-.54-2-1.91,0-1.58.92-2,2.25-1.94s2,.54,2,1.91C414.71,1270.17,413.78,1270.57,412.45,1270.52Z"/><path class="c" d="M372.82,1158.12c.29,3.81-.62,7.68.61,11.44-1.06.56-1.59-.15-1.61-1-.08-3.16,0-6.32,0-9.48C371.84,1158.58,372.33,1158.28,372.82,1158.12Z"/><path class="c" d="M382.81,1169.57c1.24-3.76.32-7.64.62-11.45a1.48,1.48,0,0,1,1.09,1.57c0,2.77.06,5.55,0,8.32C384.48,1169,384.39,1170.19,382.81,1169.57Z"/><path class="c" d="M675.5,1239.68c-.08,1.09-.51,1.82-1.6,1.8-1.29,0-1.62-.91-1.55-2a1.46,1.46,0,0,1,1.71-1.56C675.18,1238,675.48,1238.76,675.5,1239.68Z"/><path class="c" d="M591.68,1261.06c-.09,1.19-.89,1.43-1.82,1.41s-1.78-.36-1.65-1.53a1.64,1.64,0,0,1,1.8-1.53A1.7,1.7,0,0,1,591.68,1261.06Z"/><path class="c" d="M604.79,1155.85l3.7-.08C607.29,1157.3,606.05,1157,604.79,1155.85Z"/><path class="c" d="M460,997.46c0-.88.3-1.55,1.27-1.7C461.33,996.68,461.17,997.46,460,997.46Z"/><path class="c" d="M9,936.75v26.68H8.39V936.75Z"/><path class="c" d="M696.31,961.17c0-2.78.05-5.56,0-8.34-.06-2.12.77-3.08,2.93-3.05,5.09.06,10.19.05,15.28,0,1.84,0,2.76.55,3.09,2.63.95,5.83.3,11.68.49,17.51,0,1.79-1.09,2.49-2.63,2.5-5.59.05-11.17,0-16.75,0-1.77,0-2.4-1-2.39-2.66C696.33,966.92,696.31,964,696.31,961.17Z"/><path class="c" d="M682.23,991h-7.66c-2,0-3.07-.87-3-3.07.07-5.07,0-10.15,0-15.22,0-1.26.08-2.64,1.74-2.52,5.66.41,11.3-1,17-.12,1.9.29,2.49,1.17,2.48,2.94,0,5.07,0,10.14,0,15.22,0,2.06-.94,2.84-2.89,2.8C687.33,990.93,684.78,991,682.23,991Z"/><path class="c" d="M659.13,1005.51c-2.44,0-4.89-.12-7.32,0-1.48.1-2-.53-2-1.82q0-7.89,0-15.76a2.1,2.1,0,0,1,2.39-2.34h15.26c1.55,0,2.55.78,2.24,2.38-.92,4.83-.35,9.69-.44,14.53,0,2-.73,2.87-2.76,2.78-2.44-.1-4.89,0-7.34,0Z"/><path class="c" d="M16.4,967.15h27c0,8,0,16.09.08,24.14,0,2.38-.64,3.37-3.15,3.32q-10.43-.21-20.88,0c-2.5,0-3.18-.93-3.14-3.32C16.43,983.25,16.38,975.2,16.4,967.15Z"/><path class="c" d="M313.54,1178.46c-6.12,0-5.53.59-5.52-5.59,0-6.41-.66-5.73,5.65-5.74,6.13,0,5.53-.6,5.52,5.58C319.18,1179.11,319.86,1178.41,313.54,1178.46Z"/></g></svg>