<svg xmlns="http://www.w3.org/2000/svg" viewBox="0 0 729.39 1276.55"><defs><style>.a{fill:#00efca;}.b{fill:#b849ff;}</style></defs><title>colour-subdued-3</title><rect class="a" width="729.39" height="1276.55"/><path class="b" d="M178.79,518.42l-1.83-.1c0-8.23.07-16.47,0-24.69,0-2.49.9-3.41,3.35-3.3,5.26.23,10.53-.2,15.81.24,1.51.12,3.5.49,4.27-1.69,1-2.06.06-3-1.92-3.22a15,15,0,0,0-3.79-.08c-6.86,1.05-13.7-.42-20.56-.06-2.16.11-3-.87-3-3q.09-12,0-24.09c0-2.39,1-3.11,3.27-3.09,8.45.06,16.9,0,25.35,0,.42.39.9.61,1.36.15s.25-.94-.15-1.36a1.71,1.71,0,0,0-1.74-1.53c-1.82,0-3.14-.43-4-2.31-.59-1.23-2.26-.89-3.5-.89-7.08,0-14.15-.12-21.22,0-3,.06-4.35-1.32-4.37-4.09-.08-7.6,0-15.2,0-22.8,0-2.47,1.61-2.87,3.62-2.87,6.65,0,13.3,0,20,0a20.78,20.78,0,0,0,3.16-.16c.89-.15,2.11-.19,2.17-1.42s-1.13-1-1.9-1.16c-1.35-.23-1.59-1.17-1.67-2.3-.58-8.17-1.15-16.32-.28-24.5.05-.42.11-.84.13-1.26.2-6,.2-6,6.32-6h17.41c.74,0,1.48,0,2.22,0,1.59-.11,2.62-.86,2.61-2.55s-1.32-1.94-2.66-2H195.57c-4.95,0-5,0-5-4.86,0-7.49,0-15,0-22.48,0-2,.29-3.54,2.85-3.52,8.44,0,17.06-1,25.29.29,10.23,1.66,20.36.43,30.51,1,1.26.07,2.93.48,3.15-1.64-.63-1.8-2.19-1.35-3.48-1.36-6.95,0-13.91,0-20.86,0-4.79,0-4.79,0-4.79-4.94,0-5.79.09-11.59,0-17.38-.08-3.61-.56-7.26,4.58-7.68h1.67c1.24,1.12,2.77.77,4.21.83,6.48.31,13-.67,19.45.64.4.59.79,1.19,1.18,1.79.57,1.6,1.95,1.37,3.19,1.37q11.4,0,22.8,0c1.24,0,2.63.23,3.19-1.38a.33.33,0,0,1,.33,0c2.22-.69,1.68-1.83.38-2.91-1-.85-2.36-.8-3.64-.8-6.75,0-13.51-.09-20.26,0-2.63.05-3.52-.91-3.48-3.51.11-8.12,0-16.25,0-24.38,8.48-.05,17,0,25.45-.2,2.5-.06,2.64,1.94,3.71,3.2.64,1.74,2.16,1.37,3.46,1.37,9.22,0,18.43,0,27.65,0l0,0c.6,1.6,2,1.3,3.22,1.31,5.58,0,11.16,0,16.74,0,3.87,0,8.08-1.07,10.79,3.06h.93c.66,1.73,2.18,1.34,3.49,1.35,6.07,0,12.14.15,18.21,0,3.34-.11,6.06.13,6.43,4.27,0,.31.57.57.87.84.4,2,2,1.83,3.47,1.83h19.55c4.94,0,4.95,0,5.54,4.72.1.73.13,1.47.19,2.2.35,2.24,2.09,2,3.65,2q10.89,0,21.77,0c0,1.16,0,2.33,0,3.49q-.06,12.9-.11,25.78l-17.52.07a10.28,10.28,0,0,0-4,.49c-2,2.12-1.86,4,.28,5.6a.31.31,0,0,1,.31,0c.58,1.57,1.95,1.34,3.18,1.34,4.81,0,9.63.07,14.44,0,2.94-.05,5.84-.24,7.83,2.53,7.9,0,15.8,0,23.7.08,4.6,0,4.87.31,4.88,4.79,0,7.58.28,15.18-.09,22.75-.25,5,2,6.47,6.86,6.57,7.27.16,14.54,0,21.81.05a8.31,8.31,0,0,1,3.73.41c0,8.55-.15,17.1,0,25.65,0,2-.33,4.31,1.92,5.62h0q0,14-.05,27.94c0,1.21-.28,2.61,1.36,3.14l0,0q0,12.68-.06,25.34a7.74,7.74,0,0,0,.19,2.51c.46,1.31.58,3.45,2.33,3.26s1.25-2.19,1.25-3.5c.05-6.75.11-13.51,0-20.27-.05-2.59.84-3.54,3.47-3.51,8.13.12,16.26.05,24.39.05,0,8.31.06,16.62.15,24.93,0,2.24-1.09,2.92-3.13,2.9-7.47-.06-14.94-.07-22.41-.09-2.5,0-1.75,1.94-1.76,3.17-.08,7.92.05,15.85-.09,23.77-.06,3.22.86,5,4.36,5.1,2.95.07,4.09,1.67,4,4.76-.21,7-.07,13.94-.06,20.92,0,5.1,0,5.23,5,5.16,2.89,0,4,1,3.89,3.91-.14,6.34-.07,12.68,0,19,0,3.61.71,4.29,4.22,4.38a15.06,15.06,0,0,0,1.9,0c2.4-.23,3.46.68,3.41,3.23-.13,5.7-.11,11.41,0,17.11,0,2.34-.87,3.19-3.18,3.15-5.39-.09-10.78,0-16.16-.06-2.62,0-3.58,1-3.54,3.6.09,5.71,0,11.41.06,17.12,0,2.35-.63,3.5-3.22,3.44-5.7-.13-11.41-.1-17.11,0-2.31,0-3.23-.81-3.18-3.15.1-5,0-9.93,0-14.9,0-4.82-.61-5.4-5.51-5.44-.63,0-1.27,0-1.9,0-3.56.12-5.05,1.76-4.51,5.26.31,2,.77,4,.34,6-.8,3.67-.45,7.37-.4,11,0,1.9.38,4,2.48,4.76,1.66.62,1.9,1.73,1.89,3.21,0,5.38-.06,10.77,0,16.16,0,2.12-.71,3.09-2.94,3.06-5.39-.08-10.78-.1-16.17,0-2.36,0-3.16-.93-3.12-3.21.1-5.39,0-10.78,0-16.16,0-4.62-.12-4.72-4.86-4.76-4.5,0-4.64-.17-4.66-4.63,0-5.49,0-11-.06-16.48,0-2.6-1.47-3.73-4.11-3.62s-2.83,1.65-2.82,3.63c0,5.08,0,10.15,0,15.22,0,1.28,0,2.63,1.42,3.25,1.71.74,1.75,2.19,1.75,3.71,0,5.92-.11,11.84,0,17.75.07,2.72-1.06,3.47-3.58,3.41-5.6-.12-11.2,0-16.8,0-4.37,0-4.29,0-4.4-4.43-.14-5.06.4-10.12-.4-15.18-.59-3.73-3.35-2.38-5.42-2.54-2.29-.18-2.43,1.47-2.42,3.18,0,4-.08,8,0,12,.06,2.34-.88,3.17-3.18,3.14-6.76-.08-13.53-.11-20.29,0-2.59.05-3.25-1.11-3.21-3.45.1-5.07.05-10.14,0-15.22,0-3-2.18-2.94-4.26-2.9-2.23,0-3.06,1-2.88,3.42.3,4.19,1.26,8.73-.68,12.5-1.74,3.38-1.61,6.63-1.66,10-.05,3.9-.12,7.82,0,11.72.1,2.58-.78,3.64-3.45,3.54-4.22-.16-8.45,0-12.67,0s-5-1-4.48-5.14c.61-5.27.15-10.56.26-15.83,0-.93.07-2.19-1.33-2-3.21.39-3.08-1.72-3.08-3.81,0-5,0-9.94,0-14.9,0-1.9-.63-3.3-2.91-3.31s-3.1,1.2-3.29,3.09c-.17,1.68,0,3.38-.13,5.07-.22,4.06.82,8.25-1.26,12.12h0c-1.53.64-1.25,2-1.26,3.23,0,5.74,0,11.48,0,17.22-6.55,1-13.12.46-19.69.42,0-6.11,0-12.23,0-18.34,0-2.61-.7-4.66-3.94-4.41-1.15-6-.4-12.16-.49-18.24-.05-2.77-.82-4.24-3.77-3.93-.45-.37-.93-.51-1.35,0s-.18.94.21,1.34c0,1.21,0,2.42-.05,3.64a2.3,2.3,0,0,0,0,3.3c0,3.57,0,7.15-.05,10.72a1.76,1.76,0,0,0-2,1.34l-1.17.06c-1.07-.92-2.36-.77-3.62-.77-4.11,0-8.22-.1-12.33,0-2.6.09-5-.16-7-1.93v-3.8c.38-.34,1.05-.65,1.09-1a65,65,0,0,0,0-12.55c0-.37-.72-.68-1.1-1-.09-3.11-2.95-2-4.46-2.89,0-6.75.09-13.49.08-20.24,0-1.28.35-3.17-1.66-3.12-1.72,0-1.47,1.79-1.47,3,0,6.11,0,12.22,0,18.34,0,5.88,0,11.76.11,17.64.05,2.46-.91,3.42-3.34,3.29-6.37-.36-12.77.59-19.12-.54,0-4.93.09-9.86.08-14.79,0-1.54.37-3.18-.73-4.55-.51-2-2.27-1.62-3.69-1.89,0-6.6.05-13.19-.06-19.79,0-1.15.61-3.2-1.91-2.86-4.17,0-4.16,0-4.19,4.12,0,3.66-.06,7.32-.09,11l-23.66.1h0c0-6,.12-12,0-18,0-1.18.62-3.2-1.9-2.94s-2.71-1.3-2.71-3.22c0-6.74.2-13.49-.44-20.21-.22-1.11-1-1.38-2-1.27v0q0-12,.11-23.92c0-1.17.06-2.39-1.48-2.75-2.81-.38-3.58,1-3.5,3.63.16,5.85,0,11.71,0,17.58,0,6.44-.15,12.89-.08,19.33,0,2.65-.83,3.89-3.64,3.82-5.07-.13-10.15-.15-15.22,0-2.72.09-3.46-1.08-3.4-3.59.13-5.17.06-10.35,0-15.53,0-1.59,0-3.29-2.17-3.65-2.32.19-2.47-1.33-2.47-3.05,0-6.19,0-12.38,0-18.57,0-1.79,0-3.58-1.06-5.16C179.89,518,179.48,517.76,178.79,518.42Zm327.75,65.23c0-2.53,0-5,0-7.57,0-1.76-.3-3.13-2.53-3.15s-2.72,1.26-2.73,3c0,5.16,0,10.31,0,15.46,0,1.78.67,2.73,2.59,2.75,2.12,0,2.75-1,2.71-2.95C506.49,588.7,506.54,586.17,506.54,583.65Zm-115.85-242c2.74,0,5.48,0,8.23,0,1.47,0,2.51-.71,2.5-2.25s-1.09-2.18-2.55-2.18q-7.92,0-15.84,0a2,2,0,0,0-2.25,2.07,2,2,0,0,0,2.31,2.34C385.62,341.65,388.15,341.64,390.69,341.64ZM204.87,504h0c0,4,0,8,0,12,0,.72,0,1.68.89,1.78s1.13-.86,1.27-1.55a14,14,0,0,0,.33-2.81q0-6.78,0-13.58c0-2.42,0-4.85-.15-7.26-.07-.95-.15-2.48-1.51-2.36-1.16.11-.84,1.52-.85,2.41C204.85,496.43,204.87,500.22,204.87,504Zm266.27,78.62h0c0-2.53,0-5,0-7.58,0-.8.06-1.88-1.15-1.86s-1.29,1-1.29,1.86q-.06,7.89,0,15.78c0,.84.2,1.84,1.35,1.72.89-.1,1.06-1,1.07-1.71C471.16,588.1,471.14,585.37,471.14,582.63Z"/><path class="b" d="M340.56,634.28c2.08-3.87,1-8.06,1.26-12.12.09-1.69,0-3.39.13-5.07.19-1.89,1.16-3.1,3.29-3.09s2.9,1.41,2.91,3.31c0,5,0,9.93,0,14.9,0,2.09-.13,4.2,3.08,3.81,1.4-.17,1.35,1.09,1.33,2-.11,5.27.35,10.56-.26,15.83-.49,4.12.39,5.13,4.48,5.14s8.45-.12,12.67,0c2.67.1,3.55-1,3.45-3.54-.14-3.9-.07-7.82,0-11.72,0-3.42-.08-6.67,1.66-10,1.94-3.77,1-8.31.68-12.5-.18-2.43.65-3.38,2.88-3.42,2.08,0,4.23-.05,4.26,2.9,0,5.08.09,10.15,0,15.22,0,2.34.62,3.5,3.21,3.45,6.76-.12,13.53-.09,20.29,0,2.3,0,3.24-.8,3.18-3.14-.11-4,0-8,0-12,0-1.71.13-3.36,2.42-3.18,2.07.16,4.83-1.19,5.42,2.54.8,5.06.26,10.12.4,15.18.11,4.41,0,4.42,4.4,4.43,5.6,0,11.2-.08,16.8,0,2.52.06,3.65-.69,3.58-3.41-.15-5.91-.05-11.83,0-17.75,0-1.52,0-3-1.75-3.71-1.43-.62-1.42-2-1.42-3.25,0-5.07,0-10.14,0-15.22,0-2,.27-3.54,2.82-3.63s4.07,1,4.11,3.62c.09,5.49,0,11,.06,16.48,0,4.46.16,4.6,4.66,4.63,4.74,0,4.85.14,4.86,4.76,0,5.38.07,10.77,0,16.16,0,2.28.76,3.25,3.12,3.21,5.39-.11,10.78-.09,16.17,0,2.23,0,3-.94,2.94-3.06-.08-5.39,0-10.78,0-16.16,0-1.48-.23-2.59-1.89-3.21-2.1-.79-2.45-2.86-2.48-4.76,0-3.68-.4-7.38.4-11,.43-2,0-4-.34-6-.54-3.5,1-5.14,4.51-5.26.63,0,1.27,0,1.9,0,4.9,0,5.5.62,5.51,5.44,0,5,.08,9.94,0,14.9-.05,2.34.87,3.19,3.18,3.15,5.7-.09,11.41-.12,17.11,0,2.59.06,3.26-1.09,3.22-3.44-.1-5.71,0-11.41-.06-17.12,0-2.55.92-3.64,3.54-3.6,5.38.1,10.77,0,16.16.06,2.31,0,3.22-.81,3.18-3.15-.1-5.7-.12-11.41,0-17.11,0-2.55-1-3.46-3.41-3.23a15.06,15.06,0,0,1-1.9,0c-3.51-.09-4.2-.77-4.22-4.38,0-6.34-.11-12.68,0-19,.06-2.88-1-3.94-3.89-3.91-5,.07-5-.06-5-5.16,0-7-.15-14,.06-20.92.1-3.09-1-4.69-4-4.76-3.5-.09-4.42-1.88-4.36-5.1.14-7.92,0-15.85.09-23.77,0-1.23-.74-3.2,1.76-3.17-1,4.7-.33,9.47-.46,14.2-.12,4.44,0,8.87,0,13.31,0,.8-.15,2,.92,2s.92-1.25.92-2.05c0-7.29,0-14.57,0-21.86,0-4,.23-4.17,4.09-4.19,7.18,0,14.36.06,21.54,0,2.59,0,3.6,1,3.57,3.55-.09,7.39-.08,14.78,0,22.18,0,2.39-.88,3.6-3.34,3.42-4.18-.31-8.42.72-12.55-.61,1-.75,2.2-.62,3.35-.63,2.84,0,5.69,0,8.54,0,1.84,0,2.7-.74,2.69-2.63,0-6.95,0-13.91,0-20.87,0-1.71-.79-2.49-2.5-2.49q-10.44,0-20.87,0c-1.64,0-2.61.59-2.61,2.38,0,7.16,0,14.33,0,21.5,0,2,.92,2.92,3,2.47,1.75-.39,3.53-.76,5.21.29-3.29.55-3.9,2.7-3.83,5.71.17,7.27.05,14.56.05,21.84a18.07,18.07,0,0,0,.1,2.21,1.73,1.73,0,0,0,2.17,1.71c1.3-.2,1.17-1.14,1.15-2.16-.09-7.6,0-15.2-.21-22.79-.06-2.94,1.08-3.88,3.92-3.82q10.13.22,20.26,0c2.77-.06,3.93,1.21,3.95,3.71q.08,10.75,0,21.52c0,2.6-1.41,3.89-4.08,3.49-5-.74-9.88.44-14.82,0-2.32-.19-3.17.89-3.14,3.18.08,6.86,0,13.72,0,20.58,0,1.69.07,3.25,2.42,3.16,2.05-.07,3.12-1,3.1-3.1,0-5.49,0-11,0-16.47,0-5,1.62-6,6.5-4.34-3.77,0-4.53,2.09-4.32,5.51.3,4.83.15,9.71,0,14.56,0,2.31.83,3.22,3.16,3.17,5.06-.1,10.14-.12,15.2,0,2.55.06,3.31-1,3.26-3.4-.11-5.38-.12-10.77,0-16.16,0-2.46-.86-3.34-3.33-3.34-4.1,0-8.22.41-12.31-.27,5.09-1.36,10.29-.57,15.44-.64,1.68,0,2.4,1.17,2.4,2.75,0,6.55,0,13.1,0,19.65,0,2-1.17,2.48-2.88,2.48-4.86,0-9.72,0-14.58,0-5.25,0-4.91.07-4.92,5,0,5.68.12,11.39.17,17.08,0,2.79,1.24,3.66,3.87,3.68,6.15.06,6.3.3,6.3,6.56q0,6,0,12c0,2.55-1.11,3.88-3.87,3.81-4.85-.12-9.71-.11-14.57,0-2.86.06-4-1.18-3.94-4,.09-4.54-.08-9.08.05-13.62.08-2.79-.88-4-3.82-4-6.78,0-6.78-.13-6.78,6.74,0,4.44,0,8.88,0,13.31,0,2.39-1.06,3.45-3.46,3.43-6.76,0-13.52-.06-20.28,0-2.32,0-3.19-.92-3.15-3.21.09-5.28-.13-10.57.08-15.84.13-3.2-1.25-3.94-4.13-3.9-2.71,0-4.11.64-4,3.73.19,5.59.06,11.19,0,16.79,0,1.64,0,3.22,2.18,3.56,1.26.19,1.66,1.2,1.66,2.36,0,6.65,0,13.3,0,20,0,2.31-1.63,2.93-3.36,3q-9.5.19-19,.05a3.05,3.05,0,0,1-3.11-3.34c0-5.81-.1-11.63.24-17.41.15-2.51-.58-3.31-2.87-3.21-.85,0-1.69,0-2.54,0-4.88,0-4.88,0-4.88,5,0,4.33-.15,8.67.05,13,.14,3-1.43,4.46-4,4.6a129.19,129.19,0,0,1-21.81-.49c-2.07-.24-2.33-1.84-2.33-3.54q0-7.61,0-15.2c0-1.64,0-3.28-2.31-3.37s-3.1,1.38-3.13,3.42c0,2.74,0,5.49,0,8.24,0,2.5.31,5-1.51,7.24-.56.68-.39,2-.4,3.07,0,5.28-.11,10.56,0,15.84.06,2.8-.94,4.22-3.85,4-4.07-.36-8.21.75-12.22-.63,3.65-.8,7.34-.31,11-.33,2.39,0,3.45-.74,3.38-3.27-.14-4.63-.11-9.27,0-13.9.05-2.29-.8-3.23-3.13-3.18q-6.79.17-13.59,0c-2.62-.06-3.6,1.19-3.59,3.63,0,4.21.14,8.43-.05,12.64-.12,2.62.55,4.27,3.4,4.45.17,1.46-.45,1.07-1.44.84-1.83-.44-3.57-.69-3.54-3.17.08-5.7,0-11.4.2-17.09.08-1.94.2-3.27-2.25-3.48-1.85-.15-1.83-1.75-1.83-3.15,0-5.17,0-10.34,0-15.51,0-1.37.44-3.34-1.86-3.26-2,.07-1.65,1.87-1.67,3.17-.05,3.17,0,6.33,0,9.5,0,2.25.52,4.63-2,6.2-.89.56-.55,2-.55,3,0,5.17-.05,10.34,0,15.51,0,2.49-.95,3.69-3.55,3.66-5.91-.08-11.82-.07-17.73,0-2.16,0-3-.87-3-3,.06-5.48,0-11,0-16.46,0-1.7-.16-3.12-2.22-3.58-1.59-.36-1.61-1.75-1.61-3,0-4.86.05-9.71,0-14.56,0-1.16.55-3.16-1.07-3.17-1.95,0-1.21,2.09-1.24,3.3-.11,3.59-.13,7.18,0,10.77C344.19,632.85,343.34,634.38,340.56,634.28Zm178.63-106.4h.19c0,3.38,0,6.76,0,10.14,0,2.14,1,3.07,3.07,3.05q9.36,0,18.7,0c2,0,3-.83,3-2.84q0-10,0-20c0-1.71-.74-2.52-2.47-2.52-6.77,0-13.53,0-20.29,0-1.48,0-2.28.54-2.19,2.31C519.31,521.33,519.19,524.6,519.19,527.88Zm22.36,79h0v-7c0-1.34-.52-2.24-2-2.3L525,596.9c-1.74-.07-2.47.82-2.46,2.52,0,4.86,0,9.72,0,14.58,0,1.7.73,2.53,2.47,2.52,4.65,0,9.29,0,13.94,0,1.92,0,2.64-.9,2.6-2.73C541.51,611.48,541.55,609.16,541.55,606.83Zm-97.41.82h-.07c0-2.41,0-4.83,0-7.24a1.6,1.6,0,0,0-1.51-1.71,1.54,1.54,0,0,0-1.89,1.25,55.91,55.91,0,0,0-.49,14.73,2,2,0,0,0,2.4,1.93c1.36-.17,1.55-1.26,1.57-2.35C444.16,612.06,444.14,609.85,444.14,607.65Z"/><path class="b" d="M190,398.73c0,3.58-.05,7.17,0,10.75,0,2.09-.73,3.11-2.94,3.1-7.38-.06-14.76-.05-22.15,0-2,0-2.79-1-2.78-2.92q0-11.07,0-22.15c0-2.26,1-3.25,3.26-3.23,7.06,0,14.13.05,21.19,0,2.4,0,3.48,1,3.44,3.4C189.91,391.35,190,395,190,398.73Z"/><path class="b" d="M204.33,312.91c3.47,0,6.95.07,10.43,0,2.46-.07,3.36,1,3.33,3.4-.08,6.85-.06,13.7,0,20.55,0,2.25-.85,3.27-3.16,3.25q-10.76-.07-21.5,0c-2.2,0-3-1-3-3.09,0-7,0-13.91,0-20.87,0-2.53,1.13-3.31,3.48-3.24C197.37,313,200.85,312.91,204.33,312.91Z"/><path class="b" d="M530.58,401c0,3.37,0,6.75,0,10.12,0,2.12-.83,3.11-3,3.1-7.06,0-14.13-.05-21.2,0-2,0-2.86-.84-3-2.77a182.34,182.34,0,0,1-.07-21.17c.1-2.39,1.43-3.18,3.76-3.15q9.81.15,19.62,0c2.89,0,4,1.24,3.89,4C530.5,394.46,530.58,397.74,530.58,401Z"/><path class="b" d="M530.39,434.69c0,3.58-.06,7.17,0,10.75.05,2.1-.69,3.1-2.92,3.08-7.06-.07-14.12,0-21.19,0-2.16,0-3-1-3-3.08q.07-11.07,0-22.15c0-2.23,1.07-2.91,3.13-2.9,7,.06,13.92.07,20.88,0,2.38,0,3.15,1,3.09,3.25C530.32,427.3,530.39,431,530.39,434.69Z"/><path class="b" d="M495.86,382.67a149.58,149.58,0,0,1-25.92,0,5.38,5.38,0,0,1-.49-1.5c-.06-7.59-.11-15.19-.11-22.79,0-2.2,1.63-2.41,3.33-2.41,6.65,0,13.31.08,19.95,0,2.49,0,3.35.89,3.32,3.34C495.82,367.05,495.87,374.86,495.86,382.67Z"/><path class="b" d="M433.77,317.27c8,0,16-.06,24-.14,2,0,2.83.85,2.82,2.86,0,7.26,0,14.53,0,21.79,0,1.78-.6,2.79-2.53,2.79-7.58,0-15.15.14-22.72-.46a1.69,1.69,0,0,1-1.7-1.15Q433.72,330.11,433.77,317.27Z"/><path class="b" d="M185.78,363.11c0,3.27-.07,6.55,0,9.82.07,2.34-1,3.17-3.23,3.14-6.54-.07-13.09-.05-19.64,0-1.86,0-3.06-.6-3.2-2.63a146.79,146.79,0,0,1,0-21.18c.14-1.84,1.21-2.51,3-2.5,6.76,0,13.51,0,20.27,0,2.05,0,2.82,1,2.79,2.91C185.74,356.14,185.78,359.62,185.78,363.11Z"/><path class="b" d="M518.11,511.29c-1.68-1.05-3.46-.68-5.21-.29-2.09.45-3-.47-3-2.47,0-7.17,0-14.34,0-21.5,0-1.79,1-2.39,2.61-2.38q10.44,0,20.87,0c1.71,0,2.5.78,2.5,2.49,0,7,0,13.92,0,20.87,0,1.89-.85,2.66-2.69,2.63-2.85,0-5.7,0-8.54,0-1.15,0-2.34-.12-3.35.63Z"/><path class="b" d="M370.37,291.3c-6.33,0-12.66.09-19,.09a17.16,17.16,0,0,0-5,.63,8.25,8.25,0,0,1-.74-4.32q0-11.56,0-23.14l24.74,0Z"/><path class="b" d="M342,262.06c1.15,7.33.41,14.72.66,22.07.07,2.32-1.09,3.33-3.21,3.35-6.85,0-13.69,0-20.54,0-1.29,0-2.44-.53-2.43-1.94,0-7.86-.72-15.75.4-23.59Z"/><path class="b" d="M139.65,470.16c0-3.16.06-6.32,0-9.48-.06-2.32,1-3.21,3.23-3.19q9.16.08,18.34,0c2.1,0,3.25.92,3.33,2.92a143.37,143.37,0,0,1-.16,19.88c-.16,1.64-.84,2.47-2.59,2.46-6.53-.05-13.06,0-19.6,0-1.94,0-2.57-1-2.54-2.77.06-3.26,0-6.53,0-9.8Z"/><path class="b" d="M148.55,447.18c-3.17,0-6.33,0-9.5,0-1.88,0-2.66-.77-2.64-2.65q.06-9.49,0-19c0-2.23,1.07-2.93,3.14-2.91,6.12.05,12.24.07,18.36,0,2.33,0,3.17,1,3.14,3.24-.07,6.12-.08,12.25,0,18.37,0,2.21-.87,3-3,3C154.88,447.12,151.72,447.18,148.55,447.18Z"/><path class="b" d="M155.61,514.32c-3.07,0-6.13,0-9.19,0-1.94,0-3-.68-2.94-2.76,0-6.33,0-12.67,0-19,0-1.83.87-2.69,2.72-2.69,6.23,0,12.46,0,18.7,0,2.09,0,3.05,1.17,3.05,3.2,0,6.13,0,12.26,0,18.38,0,2-.9,2.87-2.88,2.85-3.17-.05-6.34,0-9.5,0Z"/><path class="b" d="M480,319.85c3.06,0,6.12,0,9.18,0,2,0,2.88.7,2.86,2.78-.07,6-.05,12,0,18,0,2.07-.75,3.18-2.94,3.17q-9.33,0-18.67,0c-2,0-2.89-.84-2.88-2.85q0-9.18,0-18.36c0-2.07,1.07-2.78,3-2.76C473.67,319.87,476.84,319.85,480,319.85Z"/><path class="b" d="M300.3,283.18c-3.17,0-6.34,0-9.5,0-2,0-2.92-.88-2.91-2.86,0-6.23,0-12.46,0-18.69,0-2,.95-2.83,2.92-2.82q9.49.06,19,0c2.21,0,3,1.09,3,3.14q0,9,0,18.06c0,2.29-1,3.24-3.28,3.19-3.06-.07-6.12,0-9.18,0Z"/><path class="b" d="M376.63,294.55l-2.47-.05c-.94-8.48-.05-17-.63-25.51l24.11,0c0,6.83,0,13.65,0,20.48,0,4.25,0,4.28-4.15,4.29-4.41,0-8.82,0-13.23,0C379,293.8,377.69,293.63,376.63,294.55Z"/><path class="b" d="M281.4,267.18c0,2.85,0,5.7,0,8.54,0,2.11-1,3.19-3.05,3.21-5.8.05-11.6,0-17.4,0-1.9,0-3.06-1-3.1-2.86q-.15-9.18-.09-18.35c0-1.67,1.14-2.44,2.72-2.45q9,0,18,0c1.95,0,2.86,1.11,2.86,3C281.41,261.27,281.4,264.23,281.4,267.18Z"/><path class="b" d="M526.27,366.85c0,2.85,0,5.7,0,8.55,0,2-.69,3.19-2.92,3.17-5.7-.05-11.4,0-17.1,0-2.24,0-3.29-1.1-3.28-3.31q0-8.88,0-17.74c0-1.82.84-2.73,2.69-2.72q8.86,0,17.73,0c2,0,2.9.9,2.87,2.89C526.24,360.73,526.27,363.79,526.27,366.85Z"/><path class="b" d="M425.75,285.26c0,3-.05,5.91,0,8.87.05,2.09-.76,3.11-3,3.09-6-.06-12-.05-18.05,0-2,0-2.89-.82-2.88-2.83q0-9.18,0-18.37c0-2.06,1-2.77,2.94-2.76,5.92.05,11.83.07,17.74,0,2.27,0,3.3.82,3.23,3.15C425.68,279.34,425.75,282.3,425.75,285.26Z"/><path class="b" d="M145.39,388.42h8.54c1.37,0,2.63.31,2.65,2,.09,6.09.12,12.19.17,18.28,0,2.14-1.08,2.94-3.17,2.91q-8.37-.09-16.74,0c-2.21,0-3-1-3-3.09.06-5.68.08-11.37,0-17.06,0-2.39,1.09-3.14,3.29-3.07C139.91,388.48,142.66,388.42,145.39,388.42Z"/><path class="b" d="M552.27,478.76c-2.85,0-5.7,0-8.55,0-2.25,0-3.26-1-3.24-3.3,0-5.28,0-10.56,0-15.85,0-2.18.94-3.4,3.2-3.4,5.7,0,11.41,0,17.11,0,2,0,2.86.92,2.85,2.91,0,5.6,0,11.2,0,16.8,0,2-.8,2.91-2.83,2.87C558,478.72,555.12,478.76,552.27,478.76Z"/><path class="b" d="M444.29,300.46c-2.75,0-5.49,0-8.24,0-1.88,0-2.85-.93-2.82-3,.07-5.49,0-11,0-16.48,0-2.37,1-3.52,3.42-3.51,5.28,0,10.57,0,15.85,0,1.81,0,2.62.82,2.8,2.65.54,5.58.43,11.18.48,16.77,0,2.52-1,3.72-3.58,3.64s-5.28,0-7.92,0Z"/><path class="b" d="M148,530.93c0-2.74.05-5.48,0-8.22-.06-2.1.73-3.11,2.94-3.08,5.58.07,11.17,0,16.76,0,2,0,2.84.91,2.82,2.88,0,5.37,0,10.75,0,16.13,0,2.41-1.11,3.65-3.7,3.61q-7.74-.13-15.49,0c-2.49.05-3.39-1-3.3-3.43C148,536.21,148,533.57,148,530.93Z"/><path class="b" d="M558.39,509.93c-2.85,0-5.7,0-8.55,0-1.74,0-2.48-.78-2.47-2.5,0-5.81,0-11.62,0-17.43,0-1.83.86-2.71,2.7-2.71,5.5,0,11,0,16.49,0a2.52,2.52,0,0,1,2.92,2.55,102,102,0,0,1,.2,17.39c-.1,1.89-1,2.82-3.06,2.74C563.89,509.85,561.14,509.93,558.39,509.93Z"/><path class="b" d="M159.39,327.15c0-2.64.07-5.28,0-7.92-.07-2.32,1-3.21,3.23-3.18,5.18.06,10.35.08,15.53,0,2.62,0,3.67,1.25,3.68,3.64q.06,7.75,0,15.52c0,2.25-1.09,3.48-3.53,3.45q-7.61-.12-15.21,0c-2.76,0-3.79-1.25-3.69-3.89S159.39,329.68,159.39,327.15Z"/><path class="b" d="M551.43,423.26c2.53,0,5.06.07,7.59,0,2-.06,3.09.77,3.12,2.7.08,5.58.08,11.17.05,16.76,0,1.61-.9,2.39-2.58,2.56-5.47.53-11,.49-16.43.49-1.78,0-2.89-.76-3-2.49a145.17,145.17,0,0,1-.13-17.7c0-1.66,1.34-2.27,2.88-2.28,2.85,0,5.7,0,8.55,0Z"/><path class="b" d="M213.65,291c0,2.64-.05,5.27,0,7.91.06,2.24-1,3.42-3.18,3.45-5.27.08-10.54.06-15.82,0a2.65,2.65,0,0,1-3-2.92q0-8.22,0-16.45c0-1.87.94-3,2.9-3,5.48,0,11,0,16.45,0,1.89,0,2.63,1,2.62,2.77,0,2.75,0,5.49,0,8.23Z"/><path class="b" d="M537.37,545.84c4.09.68,8.21.28,12.31.27,2.47,0,3.38.88,3.33,3.34-.12,5.39-.11,10.78,0,16.16,0,2.39-.71,3.46-3.26,3.4-5.06-.13-10.14-.11-15.2,0-2.33,0-3.21-.86-3.16-3.17.1-4.85.25-9.73,0-14.56-.21-3.42.55-5.49,4.32-5.51Z"/><path class="b" d="M543,583.47c0-2.53,0-5.07,0-7.6,0-2.15,1-3,3.08-3,4.74-.07,9.49.2,14.24-.23a3.27,3.27,0,0,1,3.88,3.56c.05,5.17,0,10.35,0,15.52a2.2,2.2,0,0,1-2.52,2.51c-5.39,0-10.77,0-16.16,0-2,0-2.56-1.07-2.54-2.82C543,588.75,543,586.11,543,583.47Z"/><path class="b" d="M577.63,527.85c0,2.64,0,5.29,0,7.93.05,1.83-.66,2.74-2.58,2.72-5.28,0-10.57,0-15.85,0-2,0-2.9-.85-2.89-2.86,0-5.08,0-10.15,0-15.22,0-2.25,1.17-3.25,3.36-3.24,5,0,9.94,0,14.9,0,2.16,0,3.07,1,3,3.08C577.59,522.78,577.63,525.32,577.63,527.85Z"/><path class="b" d="M442.58,657.16c0,2.53,0,5.07,0,7.6,0,1.91-.7,3-2.76,3-5.07,0-10.14,0-15.21,0-2.05,0-2.8-1-2.79-3,0-5.17.05-10.35,0-15.52,0-2.06,1-2.81,2.92-2.8,5,0,9.92.06,14.89,0,2.2,0,3,1,3,3.09C442.52,652.09,442.58,654.62,442.58,657.16Z"/><path class="b" d="M356.76,231.23c2.54,0,5.07,0,7.61,0,1.85,0,2.71.82,2.7,2.68q0,7.6,0,15.21c0,2.22-1,3.33-3.26,3.33-4.86,0-9.72,0-14.58,0-1.95,0-2.95-.8-2.93-2.83,0-5.18,0-10.36,0-15.53,0-2,.84-2.91,2.84-2.87C351.69,231.26,354.23,231.23,356.76,231.23Z"/><path class="b" d="M561.1,399c0,2.43,0,4.85,0,7.27,0,2.2-1,3.36-3.23,3.36q-7.11,0-14.22,0c-2,0-3.13-1-3.13-3.11,0-4.74,0-9.48,0-14.22,0-2.52,1.19-3.88,3.89-3.83,4.43.08,8.85.1,13.27,0,2.41-.06,3.53.82,3.42,3.3S561.09,396.59,561.1,399Z"/><path class="b" d="M494.68,633.63c0-2.43.05-4.86,0-7.29-.07-2.22.78-3.28,3.13-3.32,5.08-.09,10.13.25,15.19.53a2.28,2.28,0,0,1,2.43,2.64c0,5.17,0,10.35,0,15.53a2.21,2.21,0,0,1-2.51,2.53c-5.18,0-10.36,0-15.53,0-1.85,0-2.71-.84-2.69-2.69C494.7,638.92,494.68,636.27,494.68,633.63Z"/><path class="b" d="M383.12,254.46c-2.33,0-4.66-.11-7,0-2.5.15-3.48-1-3.43-3.35.1-4.64.26-9.29.21-13.93,0-2.32,1-3.37,3.15-3.4,4.65-.05,9.3-.07,13.94,0,2.48,0,3.84,1.14,3.72,3.94-.18,4.32-.15,8.66,0,13,.08,2.68-.83,3.93-3.64,3.75C387.77,254.34,385.44,254.46,383.12,254.46Z"/><path class="b" d="M133.36,366.16c0-2.32,0-4.65,0-7-.05-2.06.74-3.16,2.95-3.14,4.75.05,9.5,0,14.25,0,2.39,0,3.46,1.14,3.44,3.5,0,4.54,0,9.08,0,13.62,0,2.37-1,3.55-3.39,3.54q-7,0-13.93,0c-2.23,0-3.32-1.06-3.31-3.28C133.37,371,133.36,368.59,133.36,366.16Z"/><path class="b" d="M339.27,240.43c0,2.32,0,4.65,0,7,.07,2.11-.76,3.13-3,3.11-4.75-.06-9.5,0-14.26,0-1.92,0-3-.65-3-2.74.05-5.07,0-10.14,0-15.21,0-1.89.92-2.64,2.74-2.63q7.29,0,14.58,0c2,0,2.88.9,2.83,2.89C339.23,235.36,339.27,237.89,339.27,240.43Z"/><path class="b" d="M389.57,663.86c-2.85-.18-3.52-1.83-3.4-4.45.19-4.21.08-8.43.05-12.64,0-2.44,1-3.69,3.59-3.63q6.79.17,13.59,0c2.33,0,3.18.89,3.13,3.18-.1,4.63-.13,9.27,0,13.9.07,2.53-1,3.26-3.38,3.27-3.67,0-7.36-.47-11,.33Z"/><path class="b" d="M171.21,556.9c0,2.42-.05,4.85,0,7.27.06,2-.73,2.87-2.78,2.84q-7.11-.12-14.21,0c-2.32,0-3.19-1-3.15-3.24.08-4.63,0-9.26,0-13.89,0-1.92.69-3,2.75-3,4.94,0,9.89,0,14.84,0,2,0,2.57,1,2.54,2.75C171.17,552.06,171.21,554.48,171.21,556.9Z"/><path class="b" d="M236.24,272.14c-2.32,0-4.63,0-7,0-1.76,0-2.87-.67-2.82-2.57.15-4.94-.94-9.85-.06-14.82.31-1.78,1-2.66,2.8-2.65,4.53,0,9.06,0,13.59,0,2.07,0,3.11,1.06,3.12,3.12,0,4.75,0,9.49,0,14.23,0,1.85-.9,2.69-2.72,2.67-2.32,0-4.64,0-7,0Z"/><path class="b" d="M521.12,330.06c0,9.87,0,9.87-9.75,9.87-2.32,0-4.63,0-6.95,0-1.84,0-2.72-.86-2.71-2.69,0-4.84,0-9.69,0-14.53,0-1.8.77-2.74,2.65-2.73,4.74,0,9.48,0,14.22,0a2.22,2.22,0,0,1,2.54,2.5C521.13,325,521.12,327.53,521.12,330.06Z"/><path class="b" d="M262.92,628.11c2.22,0,4.44.06,6.65,0s3.13.77,3.1,3c-.05,4.64,0,9.29,0,13.93,0,2.08-.79,3.14-3,3.11-4.43-.05-8.86,0-13.3,0-2.08,0-3.15-1-3.16-3.09,0-4.75,0-9.49,0-14.24,0-1.87.91-2.68,2.74-2.65C258.28,628.14,260.6,628.11,262.92,628.11Z"/><path class="b" d="M126.81,469.8c0,9.59,0,9.59-9.49,9.59-2.22,0-4.43,0-6.65,0-2,0-3.23-.9-3.25-3,0-4.54,0-9.08,0-13.62,0-2.05,1.07-2.79,3-2.78,4.55,0,9.09.06,13.63,0,2,0,2.87.87,2.81,2.87C126.76,465.15,126.81,467.48,126.81,469.8Z"/><path class="b" d="M567.71,557.17c0-2.12,0-4.23,0-6.34s1-3.19,3-3.21c4.44,0,8.88,0,13.31,0a2.65,2.65,0,0,1,2.94,3c0,4.33,0,8.66,0,13,0,2.09-1,3.34-3.33,3.31-4.12-.06-8.24,0-12.36,0-2.56,0-3.65-1.2-3.58-3.7C567.75,561.18,567.71,559.17,567.71,557.17Z"/><path class="b" d="M285.46,640.63v-3.18c1.65-.78,1.15-2.32,1.2-3.61.08-1.82.94-2.7,2.75-2.7,4.2,0,8.41,0,12.62,0,1.7,0,2.94.94,2.92,2.68-.05,6.08.73,12.19-.53,18.23l-3.8,0c-.69-1.73-2.22-1.27-3.53-1.34-3.88-.21-7.81.5-11.64-.64,0-1.9,0-3.81,0-5.71C287.18,643.16,287.18,641.9,285.46,640.63Z"/><path class="b" d="M420.9,246.8c0,2.22,0,4.44,0,6.66,0,1.82-.72,2.75-2.62,2.74-4.54,0-9.08,0-13.63,0-1.92,0-3-.86-3-2.84,0-4.43,0-8.87,0-13.31,0-1.83.87-2.7,2.72-2.69,4.65,0,9.3,0,13.95,0,1.91,0,2.62,1,2.6,2.78C420.87,242.36,420.89,244.58,420.9,246.8Z"/><path class="b" d="M290.57,236.6c0-2.32,0-4.64,0-7a2,2,0,0,1,2.33-2.3q7.14,0,14.27,0c1.62,0,2.24.87,2.24,2.39,0,4.65,0,9.3,0,14,0,1.77-.84,2.44-2.52,2.43-4.65,0-9.3,0-14,0-1.77,0-2.45-.83-2.42-2.53,0-2.33,0-4.65,0-7Z"/><path class="b" d="M208.11,590.71a72.8,72.8,0,0,1-18.48,0c0-5.16.12-10.32,0-15.48-.07-2.67.73-3.86,3.57-3.72,3.78.19,7.59.16,11.37,0,2.56-.1,3.59.78,3.53,3.44C208,580.18,208.09,585.44,208.11,590.71Z"/><path class="b" d="M106.72,436.41c0-2.21,0-4.42,0-6.63,0-1.8.72-2.76,2.61-2.75q6.78,0,13.57,0c1.89,0,2.61,1,2.6,2.76,0,4.42,0,8.84,0,13.26,0,2.05-1,2.78-2.94,2.76-4.31-.05-8.63-.07-12.94,0-2.22,0-3-1-2.92-3.1s0-4.21,0-6.31Z"/><path class="b" d="M478.08,660.23c0,2.21,0,4.43,0,6.64,0,1.81-.85,2.72-2.69,2.71-4.32,0-8.64,0-12.95,0-2.06,0-3.13-1-3.13-3.11,0-4.32,0-8.64,0-13a2.36,2.36,0,0,1,2.71-2.69c4.53,0,9.06,0,13.59,0,1.71,0,2.52.73,2.49,2.46C478.05,655.6,478.08,657.92,478.08,660.23Z"/><path class="b" d="M477.21,301.85c-10.6-.07-9,1.08-9.11-9.07,0-2.32,0-4.65,0-7,0-1.77.57-2.82,2.52-2.81q6.81,0,13.62,0c1.86,0,2.7.89,2.69,2.71,0,4.32,0,8.65,0,13,0,2.29-1.16,3.22-3.37,3.17S479.32,301.85,477.21,301.85Z"/><path class="b" d="M128.7,501.13c0,8.84,0,8.84-8.77,8.84-2.22,0-4.43,0-6.65,0-1.8,0-2.77-.75-2.76-2.63,0-4.32,0-8.65,0-13,0-1.87,1-2.61,2.81-2.6q6.33,0,12.66,0a2.36,2.36,0,0,1,2.69,2.72C128.68,496.7,128.7,498.91,128.7,501.13Z"/><path class="b" d="M537.84,362.29c0-2.22,0-4.43,0-6.65a2.36,2.36,0,0,1,2.7-2.7c4,0,8,0,12,0,1.8,0,2.8.73,2.81,2.6,0,4.33,0,8.65,0,13a2.68,2.68,0,0,1-2.91,3c-3.91,0-7.81,0-11.72,0-2.12,0-3-1.14-2.94-3.22s0-4,0-6Z"/><path class="b" d="M159.39,289.52c.17-10.22-1.53-8.79,8.86-8.91,2,0,4,0,6,0s3.11,1.08,3.11,3.14c0,3.8,0,7.6,0,11.4,0,2.46-1.21,3.62-3.76,3.54-3.48-.11-7-.1-10.45,0-2.69.06-3.92-1.08-3.79-3.79C159.45,293.11,159.39,291.32,159.39,289.52Z"/><path class="b" d="M209.76,605.37c0,9,0,9.08-9,9-10,0-9,1.14-9-8.93s-1.11-9,8.89-9C212,596.37,209.47,596.72,209.76,605.37Z"/><path class="b" d="M361.64,665c9.32,0,8.51-1,8.53,8.41v1.9c0,7.56,0,7.62-7.77,7.6-10.91,0-9.59,1.28-9.64-9.51-.05-9.24-.68-8.38,8.25-8.4Z"/><path class="b" d="M566.06,617c-1.9,0-3.8-.06-5.69,0s-3-.58-2.9-2.7c.09-4,.07-8,.06-12,0-1.84.84-2.72,2.69-2.71,3.9,0,7.8,0,11.7,0,2.1,0,3,1.14,3,3.19,0,3.8-.05,7.59,0,11.39,0,2-.93,2.85-2.89,2.81S568.07,617,566.06,617Z"/><path class="b" d="M125.48,404.79c-.11,8.62,1.27,7.41-8.35,7.47-9.1.06-9.12,0-9.1-9,0-9.27-1-8.56,8.44-8.56,2,0,4,.05,6,0s3.08.93,3,3.06S125.48,401.8,125.48,404.79Z"/><path class="b" d="M335.29,667.58v6c0,2.07-.94,3.08-3.09,3-3.58-.06-7.17,0-10.75,0-2.32,0-3.57-.93-3.54-3.37,0-3.8,0-7.59,0-11.39,0-1.87.86-2.68,2.69-2.67q6,0,12,0c1.85,0,2.71.83,2.67,2.68S335.29,665.68,335.29,667.58Z"/><path class="b" d="M113.76,530.58c.14-9.59-1.37-8.29,8.4-8.4,2.11,0,4.22,0,6.33,0,1.83,0,2.72.83,2.7,2.69,0,3.9,0,7.81,0,11.71,0,2.08-1,3.1-3.11,3.06-3.59,0-7.18-.06-10.77,0-2.57,0-3.64-1.19-3.55-3.69C113.81,534.17,113.76,532.37,113.76,530.58Z"/><path class="b" d="M148.89,331.43c.06,9.45.57,8.47-8.52,8.5h-2.85c-5.54,0-5.94-.38-6-5.83,0-2.75,0-5.49,0-8.23,0-2.21,1-3.32,3.23-3.31,3.59,0,7.17.05,10.76,0,2.43,0,3.45,1.13,3.37,3.49C148.85,327.84,148.89,329.64,148.89,331.43Z"/><path class="b" d="M231.35,642.38c-9.15,0-8.57.89-8.56-8.48,0-1.37,0-2.74,0-4.11,0-4,.56-4.63,4.47-4.74,3-.09,6.11,0,9.16,0,2.59,0,3.9,1.06,3.8,3.81-.12,3.26-.09,6.53,0,9.79.06,2.68-1.12,3.9-3.81,3.77C234.72,642.31,233,642.38,231.35,642.38Z"/><path class="b" d="M269.88,240.47c-9.08-.06-9.1-.06-9.1-9.2,0-8.65-.87-7.66,7.53-7.71,2.21,0,4.43,0,6.65,0,2,0,3.21.91,3.22,3,0,3.91,0,7.82,0,11.72,0,1.66-.69,2.45-2.58,2.21A45.13,45.13,0,0,0,269.88,240.47Z"/><path class="b" d="M164,572.32c9.79.13,8.31-1.24,8.44,8.31,0,2,0,4,0,6s-.84,3.11-3,3.08c-3.48-.06-7-.05-10.43,0-2.59,0-3.55-1.3-3.51-3.75.06-3.37.12-6.74,0-10.11-.11-2.56.83-3.73,3.46-3.55C160.64,572.42,162.34,572.32,164,572.32Z"/><path class="b" d="M549.68,633.79c0,9.92,1.16,8.55-8.53,8.57-7.88,0-8.42,1.51-8.28-8.19,0-1.37,0-2.74,0-4.11,0-4.46.45-4.95,4.79-5,2.74-.06,5.48,0,8.22,0s4.2,1,3.83,4A41.61,41.61,0,0,0,549.68,633.79Z"/><path class="b" d="M395.54,672.45c9.54.11,8.24-1.12,8.22,8.18,0,10,1.43,8.61-8.68,8.69-8.58.08-8.13.55-8.09-8V681C387.09,671.11,385.83,672.59,395.54,672.45Z"/><path class="b" d="M283,664.79c0-9.35-1-8,8-8.15h2.84c5.81,0,5.91.11,5.92,6.09,0,2.32-.11,4.64,0,6.95.14,2.47-1.13,3.52-3.34,3.6-3.48.11-6.95.1-10.43.09-2.09,0-3-1.17-3-3.21C283,668.37,283,666.58,283,664.79Z"/><path class="b" d="M584.76,497.47a40.7,40.7,0,0,0,0-4.42c-.31-2.71,1.13-3.74,3.48-3.59a57.84,57.84,0,0,0,9.76,0,2.5,2.5,0,0,1,3,2.79c0,3.57,0,7.15,0,10.73,0,1.67-.86,2.45-2.47,2.67a58.08,58.08,0,0,1-11.34.16,2.31,2.31,0,0,1-2.43-2.66c.05-1.89,0-3.79,0-5.68Z"/><path class="b" d="M585.93,474.38c-9.34-.11-8.11,1.11-8.1-8,0-9.34-1.29-8.13,8.27-8.14,9,0,7.85-1.17,7.95,7.84v.32C593.94,475.58,595.21,474.27,585.93,474.38Z"/><path class="b" d="M200.17,264.58c-8.93-.08-7.85.94-7.78-7.7s-2-8.58,8.38-8.52c9,0,7.75-1,7.83,7.67S208.63,264.58,200.17,264.58Z"/><path class="b" d="M587.24,594.22c-9.24-.11-8,1.14-8.06-8.07,0-7.71-1.36-8.22,8.07-8.08,9,.13,8.08-1.27,8.07,8.1S596.43,594.09,587.24,594.22Z"/><path class="b" d="M506.06,669.75c-9.27-.07-8.06,1-8.1-8.08,0-8.52-.8-7.68,7.61-7.63,9.65.06,8.53-1.46,8.56,8.56C514.16,670.8,515,669.65,506.06,669.75Z"/><path class="b" d="M501.81,292.2c.11-8.88-1.17-7.83,8-7.84s8-1,8.07,8.1c0,7.49,0,7.49-7.32,7.49h-1C500.82,299.86,501.87,301,501.81,292.2Z"/><path class="b" d="M592.73,433.6c-.05,8.89.9,7.84-7.71,7.83-8.86,0-7.9,1.14-7.83-8,.07-8.09-1.92-8.19,8.14-8.18C593.64,425.27,592.69,424.94,592.73,433.6Z"/><path class="b" d="M603.13,519.68c8.28.1,7.42-1,7.41,7.42,0,9.12,1.11,8.06-8,8.1-7.51,0-7.49,0-7.53-7.61C595,518.74,594.74,519.72,603.13,519.68Z"/><path class="b" d="M123.88,565.65c-8.54-.08-7.57,1.09-7.61-7.5s-.59-8,8-8c7.47,0,7.51,0,7.46,7.63C131.7,566.81,132.79,565.55,123.88,565.65Z"/><path class="b" d="M431,692.56c-8.8-.1-7.73,1.05-7.78-7.74-.05-8.27-.66-7.9,7.91-7.85,7.55,0,7.55,0,7.54,7.71V685C438.59,693.56,439.49,692.48,431,692.56Z"/><path class="b" d="M355.7,213.07c-7.67,0-8.46-.92-7.57-8.6.79-6.83.79-6.84,7.95-6.83a29.57,29.57,0,0,1,3.77.12c2,.28,3.22,1.11,3,3.54-.19,2.17.28,4.39.3,6.59,0,4.75-.43,5.17-5.24,5.18Z"/><path class="b" d="M116.78,378.69c-8.53-.05-7.53.89-7.53-7.62,0-8.25-.84-7.41,7.46-7.42,8.61,0,7.5-.73,7.51,7.66S125.11,378.6,116.78,378.69Z"/><path class="b" d="M541.89,318.64c8.72.12,7.7-1,7.75,7.79.05,7.19,0,7.21-7.29,7.19-8.69,0-7.57.78-7.64-7.57v-.32C534.77,318,533.88,318.68,541.89,318.64Z"/><path class="b" d="M584.67,404.58c-8.37-.1-7.3.92-7.35-7.48-.05-7.34,0-7.34,7.3-7.33,7.49,0,7.53,0,7.48,7.43C592.05,405.52,593.13,404.5,584.67,404.58Z"/><path class="b" d="M258,671c-8.23-.06-7.34.86-7.34-7.5,0-7.53-.91-7,6.9-7,9.17.05,7.94-1.08,8,8.1C265.62,672,266,670.94,258,671Z"/><path class="b" d="M388,208.35c0,8,.78,7.26-7.29,7.27-7.76,0-7.13.62-7.1-7.16,0-8.58-1-7.7,7.78-7.73C389,200.69,387.92,200.34,388,208.35Z"/><path class="b" d="M244,228.22c-.05,7.69.93,7.13-7.09,7.14s-7.75.59-7.72-7.69c0-6.65,0-6.65,6.53-6.64h.95C244.86,221.07,244,220.23,244,228.22Z"/><path class="b" d="M329.1,198.21c7.5,0,7.5,0,7.49,7.65v1.9c0,4.26-.46,4.68-4.73,4.73-1.59,0-3.17,0-4.75,0-4.68,0-4.8-.07-5.22-4.62-.16-1.79-.12-3.59-.11-5.38,0-3.78.49-4.24,4.15-4.3C327,198.2,328,198.21,329.1,198.21Z"/><path class="b" d="M197.91,639.85c-7.84-.09-6.89,1-6.9-6.9,0-8.18-.87-7.39,7.51-7.42,7.67,0,6.8-.35,6.81,6.86C205.34,640.78,206.22,639.77,197.91,639.85Z"/><path class="b" d="M475.78,257.52c-7.69,0-7,.83-7-6.94,0-7.29-.71-6.82,6.87-6.81,8.27,0,7.46-.76,7.48,7.49C483.16,258.39,483.58,257.46,475.78,257.52Z"/><path class="b" d="M612.76,565.68c-7.79,0-6.86.59-6.9-7,0-6.6,0-6.6,6.56-6.6,7.55,0,7.54,0,7.55,7.52C620,566.66,620.12,565.6,612.76,565.68Z"/><path class="b" d="M88.72,472.14c0,7.24,0,7.24-7.29,7.22l-2.84,0c-2.44,0-3.68-1.16-3.54-3.72.11-1.78,0-3.57,0-5.36,0-4.39.09-4.47,4.54-4.93.62-.06,1.25-.08,1.88-.09C88.71,465.09,88.71,465.09,88.72,472.14Z"/><path class="b" d="M407.4,217.58c-7.77,0-6.93.64-7-6.93,0-1,.06-1.89.1-2.84.08-2.44,1.21-3.58,3.78-3.38a59.51,59.51,0,0,0,6.94,0c2.32-.1,3.27,1,3.26,3.2s-.08,4.42,0,6.63c.13,2.45-.92,3.5-3.36,3.31C409.93,217.5,408.66,217.58,407.4,217.58Z"/><path class="b" d="M459.31,687.65c0-6.89,0-6.89,6.95-6.89,6.63,0,6.63,0,6.65,6.54,0,7,0,7-7.1,7h-1.58c-4.66-.06-4.9-.31-4.91-5.07C459.31,688.7,459.32,688.17,459.31,687.65Z"/><path class="b" d="M301,195.69c7.05,0,7.05,0,7.05,7.08,0,1-.06,2.11,0,3.15a2.65,2.65,0,0,1-2.79,3.09c-2.72.15-5.46.18-8.19.14-1.85,0-2.53-1.25-2.56-2.94,0-2.1-.05-4.2,0-6.31,0-4.06.15-4.18,4.32-4.21Z"/><path class="b" d="M575.22,629.32c7.6,0,6.75-.51,6.79,6.8,0,6.78,0,6.78-6.75,6.79-.63,0-1.26,0-1.89,0-4.63-.22-5-.57-5-5.19v-1.58C568.4,628.64,567.86,629.38,575.22,629.32Z"/><path class="b" d="M90.54,502.88c0,.95,0,1.9,0,2.85.06,2.31-.93,3.58-3.38,3.53s-4.64,0-7,0c-2,0-3.17-1-3.18-3.08,0-2.32-.13-4.65,0-7,.21-3.19,1.22-3.54,8.36-3.56,2.55,0,5-.13,5.12,3.45,0,1.27,0,2.54,0,3.8Z"/><path class="b" d="M83.25,434.06c7.38,0,6.65-.55,6.65,6.59,0,6.83.7,6.55-6.45,6.52-7.82,0-7.1.81-7.13-7.1C76.28,433.14,76.16,434.14,83.25,434.06Z"/><path class="b" d="M136.36,285.67c7.43,0,6.84-.76,6.84,6.75,0,6.36,0,6.38-6.32,6.36-8.24,0-7.21.73-7.3-7.27v-.63c0-5.2,0-5.2,5.2-5.21Z"/><path class="b" d="M223.45,296c0-3.38.06-6.76,0-10.13,0-2.24.79-3.27,3.14-3.25,6.75.08,13.5.07,20.25,0,2.27,0,3.39,1.06,3.4,3.2.06,7.07,0,14.14,0,21.2,0,2.08-1.12,3-3.19,3-6.86,0-13.72,0-20.57,0-2.13,0-3.09-.86-3.06-3C223.49,303.39,223.45,299.7,223.45,296Zm13.23,12.35h9.83c1.37,0,2.69-.21,2.67-1.95-.11-6.43.59-12.87-.51-19.28-.27-1.56-1-2.21-2.5-2.21-6.34,0-12.68,0-19,0-1.9,0-2.63.87-2.62,2.71q.06,9,0,18.07c0,2.13,1.05,2.73,3,2.69C230.56,308.32,233.62,308.36,236.68,308.36Z"/><path class="b" d="M133.08,582.2c0,6.3,0,6.32-6.34,6.29-7.15,0-6.71.8-6.71-6.89a20.17,20.17,0,0,0,0-2.2c-.33-3,1-4.31,4-4a20.34,20.34,0,0,0,2.21,0C133.48,575.51,133.08,574.62,133.08,582.2Z"/><path class="b" d="M208.11,590.71c0-5.27-.16-10.53,0-15.79.06-2.66-1-3.54-3.53-3.44-3.78.15-7.59.18-11.37,0-2.84-.14-3.64,1-3.57,3.72.14,5.16,0,10.32,0,15.48-1.6-.6-1.29-2-1.29-3.22,0-5.26.08-10.52.26-15.78,0-1.17-.13-1.93-1.34-2-2.74-.1-2.82-1.94-2.82-4,0-5.05,0-10.11,0-15.16a16.3,16.3,0,0,0-.8-5c2.16.36,2.16,2.06,2.17,3.65,0,5.18.11,10.36,0,15.53-.06,2.51.68,3.68,3.4,3.59,5.07-.15,10.15-.13,15.22,0,2.81.07,3.67-1.17,3.64-3.82-.07-6.44,0-12.89.08-19.33,1.19.72,1.19,1.91,1.16,3.07-.21,7.05-.13,14.1-.26,21.14-.11,5.85.19,11.76.27,17.65C209.34,588.39,209.73,589.91,208.11,590.71Z"/><path class="b" d="M171.75,253.19c0,6.79,0,6.79-6.81,6.78-.95,0-1.9,0-2.85,0-1.82,0-2.76-.79-2.76-2.65,0-2.74,0-5.49,0-8.24,0-1.89,1-2.65,2.79-2.62,1,0,1.9,0,2.85,0C171.74,246.43,171.74,246.43,171.75,253.19Z"/><path class="b" d="M220.85,661.29c.05-6.49-.84-6,6.16-6,7.66,0,6.81-.41,6.84,6.77a13.37,13.37,0,0,1-.08,3.47c-1.24,4.69-5.15,2.34-7.92,2.7-2.08.28-4.72.49-5-2.81C220.76,664,220.85,662.66,220.85,661.29Z"/><path class="b" d="M543.41,669.75c-6.69,0-6.69,0-6.71-6.28,0-1.16,0-2.32,0-3.48a2.78,2.78,0,0,1,1.77-2.77,22.52,22.52,0,0,1,9.67-.16,1.58,1.58,0,0,1,.75.56c.91,1,1.28,10.56.28,11.39C547.4,670.51,545.13,669.38,543.41,669.75Z"/><path class="b" d="M604.86,614.85c0,6,0,6-6,6-7,0-7,0-7-6.88,0-6,.06-6.09,6.2-6.09C604.84,607.89,604.84,607.89,604.86,614.85Z"/><path class="b" d="M359.17,692.18c6,0,6,0,6,6,0,6.87,0,6.87-6.77,6.87-5.71,0-6.19-.46-6.2-6.06C352.19,692.17,352.19,692.17,359.17,692.18Z"/><path class="b" d="M574.62,359c-.19-6.92-.54-6.2,6.26-6.22,6.14,0,6.14,0,6.14,6.22,0,1,0,1.9,0,2.85,0,2.68-1.06,4.23-4,4-.52,0-1,0-1.58,0C574.67,365.84,574.67,365.84,574.62,359Z"/><path class="b" d="M106.68,335.42c0-6.54,0-6.54,6.6-6.54,5.61,0,5.78.18,5.78,6,0,7,0,7-6.12,7C106.05,341.81,106.71,342.24,106.68,335.42Z"/><path class="b" d="M92.53,532c0,6.36,0,6.36-6.32,6.37-.95,0-1.89,0-2.84,0a2.88,2.88,0,0,1-1.53-.25c-3.46-2.68-1.27-6.42-1.65-9.66-.24-2.13,1.48-2.8,3.34-2.91.84,0,1.68,0,2.52,0C92.46,525.46,92.53,525.53,92.53,532Z"/><path class="b" d="M80.74,408.82c0-6.21.14-6.36,6.25-6.35,5.74,0,6.07.33,6.09,6,0,6.89,0,6.89-6.62,6.88C80.73,415.35,80.73,415.35,80.74,408.82Z"/><path class="b" d="M317.85,691.18c0-6,0-6,5.94-6,6.93,0,6.44-.59,6.43,6.5,0,5.84-.05,5.88-5.74,5.89h-.31C317.85,697.54,317.85,697.54,317.85,691.18Z"/><path class="b" d="M532,453.58c-8.13,0-16.26.07-24.39-.05-2.63,0-3.52.92-3.47,3.51.12,6.76.06,13.52,0,20.27,0,1.31.37,3.32-1.25,3.5s-1.87-1.95-2.33-3.26a7.74,7.74,0,0,1-.19-2.51q0-12.68.06-25.34c2.88,1.14,1.42,3.83,2.27,6-.14-3.32,1.85-4,4.39-4q10.89,0,21.78,0C530.23,451.75,531.72,451.66,532,453.58ZM502.6,478.47a2.62,2.62,0,0,0-.05-2.39A2.91,2.91,0,0,0,502.6,478.47Z"/><path class="b" d="M432,211.08c0-6,0-6,7.07-5.94,5.15,0,5.26.13,5.25,6.08,0,6.26,0,6.26-7.08,6.25C432.06,217.46,432,217.44,432,211.08Z"/><path class="b" d="M287.45,694.3c-.85,0-1.69,0-2.53,0a4.26,4.26,0,0,1-1.57-.12c-4-1.79-1.65-5.33-2.1-8.07-.31-1.83.47-3.4,2.68-3.48,2.42-.08,4.84,0,7.27,0a2.06,2.06,0,0,1,2.24,1.79,21.12,21.12,0,0,1,.44,6.91c-.26,1.94-1.13,3.12-3.27,3C289.56,694.24,288.5,694.3,287.45,694.3Z"/><path class="b" d="M391.47,702.26c5.93,0,5.93,0,5.94,5.46,0,6.3,0,6.3-6.28,6.3-6,0-6,0-6-5.43C385.11,702.25,385.11,702.25,391.47,702.26Z"/><path class="b" d="M199.92,218.41c6,0,6,0,6,6,0,5.48-.26,5.73-5.64,5.73l-3.46,0q-3.1,0-3.1-3.1c0-.84,0-1.67,0-2.51C193.69,218.42,193.69,218.42,199.92,218.41Z"/><path class="b" d="M633.36,495.35c0,6.14,0,6.14-5.82,6.15s-5.91,0-5.78-5.77c0-2-1.16-4.59,1.33-5.68a11.22,11.22,0,0,1,9.2.07C634.46,491.13,632.93,493.76,633.36,495.35Z"/><path class="b" d="M508.43,245.77c.94,0,1.89,0,2.83,0,2-.09,2.9.89,2.82,2.85,0,.32,0,.63,0,.95.15,8,0,8.06-7.93,7.9-2.66,0-3.83-1.27-4.15-3.69,0-.21-.06-.41-.08-.62C501.25,246.84,502.19,245.77,508.43,245.77Z"/><path class="b" d="M533.55,289.85c0-1.15,0-2.31,0-3.46a2,2,0,0,1,1.2-2.05,22.57,22.57,0,0,1,9.33-.18,1.28,1.28,0,0,1,.85.83,28.34,28.34,0,0,1,0,9.37c-.14.79-1,1.06-1.73,1.13a47.05,47.05,0,0,1-5,.44C533.93,295.89,533.49,295.26,533.55,289.85Z"/><path class="b" d="M495.86,382.67c0-7.81,0-15.62.08-23.43,0-2.45-.83-3.38-3.32-3.34-6.64.11-13.3,0-19.95,0-1.7,0-3.32.21-3.33,2.41,0,7.6.05,15.2.11,22.79a5.38,5.38,0,0,0,.49,1.5c-1.87.68-2.29-.49-2.29-1.92,0-8,0-16,0-24,0-1.73.93-2.46,2.59-2.45h24.34c1.75,0,2.42,1,2.44,2.6q.11,12.32.24,24.64C497.25,382.43,496.81,382.84,495.86,382.67Z"/><path class="b" d="M266,196.94c0-5.5.1-5.62,5.32-5.63,6.29,0,6.29,0,6.3,5.61s-.28,6.05-5.38,6.05C266,203,266,203,266,196.94Z"/><path class="b" d="M163,638.54c-6,0-6.07-.06-6.08-5.24,0-5.8,0-5.86,6.15-5.87,5.24,0,5.45.2,5.46,5.25C168.51,638.53,168.51,638.53,163,638.54Z"/><path class="b" d="M620.73,458.15c5.62,0,5.62,0,5.62,5.15,0,5.95,0,6-5.68,6s-6-.22-6-5.81C614.72,458.22,614.8,458.15,620.73,458.15Z"/><path class="b" d="M619,436.94c-4.8,0-5.55-.79-5.51-5.68,0-5.08.55-5.5,6.66-5.48,4.89,0,4.92.05,4.91,6C625,436.83,624.89,437,619,436.94Z"/><path class="b" d="M258.65,689.57c0,5.62-.29,6-4.73,6-5.63,0-6.3-.62-6.31-5.69,0-5.49.39-5.91,5.85-5.9C258.65,684,258.65,684,258.65,689.57Z"/><path class="b" d="M86.62,564.35c-.84,0-1.69-.06-2.53,0-2.5.21-3.32-1-3.28-3.39.11-8-.58-7,6.87-7.07,4.67,0,4.68,0,4.69,4.82v1.58c0,3.87-.2,4-4.17,4.06H86.62Z"/><path class="b" d="M644.05,528.09c0,4.8-.29,5.11-4.58,5.11-6,0-6.38-.31-6.37-5.7,0-4.8.49-5.2,6.28-5.17C643.69,522.34,644.06,522.8,644.05,528.09Z"/><path class="b" d="M574.4,327.3c-5.37,0-5.37,0-5.36-5.7,0-4.75,0-4.77,5.72-4.77,5.15,0,5.27.14,5.26,5.66C580,327.31,580,327.31,574.4,327.3Z"/><path class="b" d="M192.36,655.29c5.32,0,5.32,0,5.31,5.14s-.11,5.34-5.58,5.34-5.42,0-5.41-5.41C186.68,655.29,186.68,655.29,192.36,655.29Z"/><path class="b" d="M431.08,714.43c0,5.3,0,5.3-5.78,5.29-4.76,0-4.76,0-4.76-5.67,0-4.87.56-5.38,5.74-5.3C430.59,708.81,431.09,709.41,431.08,714.43Z"/><path class="b" d="M87.91,371.3c5.22,0,5.22,0,5.23,5.2s0,5.25-5.18,5.25c-5.37,0-5.37,0-5.37-5.36C82.59,371.3,82.59,371.3,87.91,371.3Z"/><path class="b" d="M619.26,400.08c-4.65,0-4.65,0-4.63-5.85,0-4.51,0-4.51,5.32-4.5,4.77,0,5.07.3,5.06,5C625,399.77,624.66,400.1,619.26,400.08Z"/><path class="b" d="M466.2,211c0-5.2,0-5.2,5.29-5.19,4.8,0,5.17.4,5.16,5.59,0,4.58-.29,4.82-5.54,4.81C466.19,216.23,466.19,216.23,466.2,211Z"/><path class="b" d="M582.57,666.17c0,5.13-.17,5.3-5.3,5.29-4.72,0-5.07-.35-5-5,0-5.07.42-5.44,6-5.42C582.54,661.09,582.58,661.14,582.57,666.17Z"/><path class="b" d="M611.85,641.5c0,5.28,0,5.28-5.56,5.27-4.32,0-4.39-.09-4.4-5.15s0-5.2,4.65-5.19C611.85,636.44,611.85,636.44,611.85,641.5Z"/><path class="b" d="M106.08,301.86c-5,0-5,0-5-4.82s.35-5,5.39-5c4.7,0,5,.32,5,5.4C111.44,301.88,111.44,301.88,106.08,301.86Z"/><path class="b" d="M220,596.35l23.66-.1c0,6.12,0,12.24-.06,18.36,0,1.22.33,2.6-1.08,3.39l-.24-.22c0-5.16-.08-10.31.05-15.47.07-2.51-.68-3.68-3.39-3.57-3.88.16-7.79.16-11.67,0-2.71-.11-3.45,1.07-3.39,3.57.13,5.16,0,10.31,0,15.47l-.24.23c-1.4-.8-1.06-2.17-1.07-3.38,0-3.88-.11-7.76,0-11.64C222.71,600.33,222.74,597.82,220,596.35Z"/><path class="b" d="M442.34,257.42c-8.95,0-9,0-8.93-8.83.07-9.88-1.29-8.41,8.59-8.54,2.12,0,4.23.06,6.34,0s3,1,3,3.06q-.09,5.4,0,10.78c0,2.51-1,3.74-3.6,3.56C445.94,257.32,444.14,257.42,442.34,257.42Zm.55-16.25c-8.05.07-7.89-1-7.84,6.48.06,9.1-1,8.07,8.15,8.07,8,0,7,.94,7-7.1C450.21,240.12,451.3,241.27,442.89,241.17Z"/><path class="b" d="M358.74,171c0,4.77-.52,5.28-5.18,5.25-4.17,0-4.53-.44-4.5-5.18,0-4.24.89-5.07,5.25-5C358.29,166,358.76,166.54,358.74,171Z"/><path class="b" d="M132.15,250.07c4.76,0,4.76,0,4.75,4.67s-.11,4.7-4.86,4.69c-4.56,0-5-.45-4.95-5.17C127.11,250.2,127.28,250.06,132.15,250.07Z"/><path class="b" d="M377.21,177.63c-4.63,0-4.74-.11-4.72-4.41s.39-4.75,4.93-4.75,4.82.21,4.81,4.74S382.2,177.64,377.21,177.63Z"/><path class="b" d="M215.2,689.57c0-4.37.08-4.42,5.09-4.39,4.05,0,4.15.15,4.13,5,0,4-.58,4.71-4.07,4.71C215.85,694.94,215.18,694.24,215.2,689.57Z"/><path class="b" d="M456.11,718.19c0-4.42.52-5,4.4-5s4.72.71,4.75,4.47c0,4.79-.26,5.12-4.57,5.13C456.2,722.82,456.13,722.75,456.11,718.19Z"/><path class="b" d="M159.43,605c.11-7.22-1.28-7.24,7.08-7.22s7.68-.51,7.67,7.67c0,7.06,0,7.06-7.08,7.06h-.31C158.55,612.46,159.5,613.34,159.43,605Zm13.09-.11a21.32,21.32,0,0,1,0-2.53c.32-2.81-.94-3.68-3.66-3.61-9,.22-7.62-1.08-7.75,7.71,0,.63,0,1.27,0,1.9,0,1.73.82,2.5,2.52,2.45,1,0,1.9,0,2.84,0C173,610.8,172.51,611.36,172.52,604.89Z"/><path class="b" d="M50.1,442.39c4.23,0,4.29.1,4.27,4.88,0,4.07-.14,4.18-4.68,4.17s-4.47-.1-4.43-5.07C45.29,442.46,45.4,442.37,50.1,442.39Z"/><path class="b" d="M233.53,193.2c0-4.55,0-4.55,4.91-4.54,4.35,0,4.39.05,4.37,4.77,0,4.37,0,4.4-4.76,4.39C233.55,197.82,233.52,197.79,233.53,193.2Z"/><path class="b" d="M93.15,584.13c0,4.31-.11,4.38-5.15,4.34-4,0-4.08-.16-4-5.13,0-4,.17-4.06,5.15-4C93.06,579.34,93.18,579.49,93.15,584.13Z"/><path class="b" d="M648.91,565.68c-4.49,0-4.49,0-4.5-4.19,0-4.86.06-4.93,4.19-5,4.62,0,5,.32,5,4.68S653.54,565.68,648.91,565.68Z"/><path class="b" d="M167.35,221.36c0,4.3-.19,4.46-4.8,4.44-4.31,0-4.44-.17-4.4-4.81,0-4,.53-4.38,5-4.36C167.21,216.64,167.37,216.82,167.35,221.36Z"/><path class="b" d="M539.44,699.45c-4.53,0-4.68-.13-4.68-4.52s.16-4.64,4.22-4.66c4.44,0,4.91.4,4.93,4.45C543.94,699.28,543.79,699.43,539.44,699.45Z"/><path class="b" d="M402.27,170.3c4.46,0,4.61.13,4.61,4.26s-.61,4.77-4.69,4.8c-3.85,0-4.39-.53-4.39-4.64S398,170.31,402.27,170.3Z"/><path class="b" d="M373.53,269c.58,8.5-.31,17,.63,25.51-2.25.1-1.45-3.41-3.79-3.2V264.54c1.2.25,1.38,1.17,1.41,2.16A2.15,2.15,0,0,0,373.53,269Z"/><path class="b" d="M498.42,687l7.65,0a8.45,8.45,0,0,1,.62,3.69c.07,5.89-.87,6.67-6.79,5.75-1.22-.19-2-.65-2-1.93C497.9,692,497.4,689.42,498.42,687Z"/><path class="b" d="M287.09,712.54c0,3.77-.82,4.56-4.62,4.51-2.88,0-4.33-1.53-4.37-4.49,0-3.64,1-4.55,5-4.53C286.94,708.06,287.11,708.25,287.09,712.54Z"/><path class="b" d="M626.61,622.43c0-4.31.19-4.48,4.73-4.45,3.83,0,4,.2,4,4.87,0,4.17-.17,4.31-4.55,4.29C626.72,627.12,626.6,627,626.61,622.43Z"/><path class="b" d="M332.26,170.77c0,4.06-.18,4.22-4.32,4.23s-4.35-.13-4.33-4.51c0-4.08.49-4.55,4.55-4.55C332.06,165.94,332.26,166.19,332.26,170.77Z"/><path class="b" d="M323.9,715.3c0,4.19-.2,4.38-4.2,4.35s-4.4-.57-4.38-4.76c0-3.94.43-4.31,4.73-4.28C323.78,710.64,323.91,710.8,323.9,715.3Z"/><path class="b" d="M82.58,344.32c-4.2,0-4.37-.17-4.37-4.49,0-4.1,0-4.1,4.3-4.11s4.81.41,4.79,4.17S86.61,344.32,82.58,344.32Z"/><path class="b" d="M227.81,315.78c-5.14.42-4.66,4.07-4.58,7.68.12,5.79,0,11.59,0,17.38,0,4.93,0,4.94,4.79,4.94,6.95,0,13.91,0,20.86,0,1.29,0,2.85-.44,3.48,1.36l-26-.08c-3.84,0-4.39-.49-4.42-4.38-.06-7.5,0-15,0-22.5C222,315.17,222.84,314.52,227.81,315.78Z"/><path class="b" d="M356.83,722.19c0,4.41-.26,4.61-4.44,4.59-3.48,0-4.48-.86-4.39-3.74.12-4,1.09-4.72,5.15-4.9C356.77,718,357.11,720,356.83,722.19Z"/><path class="b" d="M537.93,247c4,0,4.12.2,4.1,4.4,0,3.95-.25,4.18-4.37,4.17s-4.29-.27-4.26-4.61C533.43,247.18,533.61,247,537.93,247Z"/><path class="b" d="M345.63,264.56q0,11.58,0,23.14a8.25,8.25,0,0,0,.74,4.32c1.21,1.15,1.12,2.76,1.49,4.21-2.71-4.13-6.92-3-10.79-3.06-5.58,0-11.16,0-16.74,0-1.22,0-2.62.29-3.22-1.31,7.91,0,15.82-.07,23.73,0,2.59,0,3.55-.81,3.49-3.46-.15-6.64-.08-13.29-.07-19.93C344.27,267.05,344,265.46,345.63,264.56Z"/><path class="b" d="M617.83,351c3.93,0,4,.28,4.18,4.45.1,2.86-.65,4.33-3.86,4.16-4.11-.22-4.82-.76-4.78-4.8C613.4,351.21,613.73,350.93,617.83,351Z"/><path class="b" d="M297.69,167.22c0-3.55.84-4.31,4.57-4.24,2.84.05,3.81,1.2,3.83,4.54s-.86,4.3-4.25,4.3C298.19,171.81,297.67,171.23,297.69,167.22Z"/><path class="b" d="M256.87,287.5c0,8.13.07,16.26,0,24.38,0,2.6.85,3.56,3.48,3.51,6.75-.13,13.51,0,20.26,0,1.28,0,2.61-.05,3.64.8,1.3,1.08,1.84,2.22-.38,2.91.34-2.65-1.65-2.24-3.13-2.25-6.94-.06-13.89,0-20.84,0-4,0-4.3-.32-4.31-4.33,0-7.26,0-14.53,0-21.79C255.56,289.47,255.13,288,256.87,287.5Z"/><path class="b" d="M49.24,502.55c3.76,0,4,.24,4,4.22s-.31,4.39-4.23,4.36c-3.4,0-4.31-1-4.29-4.64C44.72,503.27,45.56,502.54,49.24,502.55Z"/><path class="b" d="M54.74,411.22c2.18-.24,4.3,0,4.07,3.66-.22,3.42-.82,4.14-4.69,4.17-3.52,0-4.36-.76-4.35-4.1S50.08,411.23,54.74,411.22Z"/><path class="b" d="M657.62,598.6c-4,0-4.29-.26-4.28-3.94,0-3.51.46-3.78,4.43-3.95,2.88-.12,4.29.69,4.11,3.88C661.67,598.33,661.58,598.6,657.62,598.6Z"/><path class="b" d="M152.36,660.75c0-3.88.25-4,4.08-4.15,3.1-.17,4.07,1.09,3.94,4-.18,3.92-.64,4.57-4.25,4.57S152.35,664.85,152.36,660.75Z"/><path class="b" d="M276.58,604.64c0-6.12-.06-12.23,0-18.34,0-1.21-.25-3,1.47-3,2,0,1.66,1.84,1.66,3.12,0,6.75-.05,13.49-.08,20.24C278.31,606.39,278.3,604.25,276.58,604.64Z"/><path class="b" d="M304.42,652.08c1.26-6,.48-12.15.53-18.23,0-1.74-1.22-2.66-2.92-2.68-4.21,0-8.42,0-12.62,0-1.81,0-2.67.88-2.75,2.7-.05,1.29.45,2.83-1.2,3.61.25-3.27-.78-6.36-1.4-9.5,2,1.77,4.44,2,7,1.93,4.11-.13,8.22,0,12.33,0,1.26,0,2.55-.15,3.62.77-1.21,2.29-.61,4.76-.67,7.15-.09,3.79,0,7.58,0,11.37C306.34,650.51,306.48,652,304.42,652.08Z"/><path class="b" d="M200.37,488.88c-.77,2.18-2.76,1.81-4.27,1.69-5.28-.44-10.55,0-15.81-.24-2.45-.11-3.38.81-3.35,3.3.09,8.22,0,16.46,0,24.69-1.51-.45-1.33-1.72-1.33-2.86,0-7.68,0-15.36,0-23,0-2.62,1.12-3.51,3.63-3.49C186.27,489,193.32,488.9,200.37,488.88Z"/><path class="b" d="M621.8,586.37c5.88,0,5.88,0,5.88,6.45,0,5.7,0,5.7-5.44,5.7-6.29,0-6.29,0-6.28-6.63C616,586.36,616,586.36,621.8,586.37Zm4.72,6c0-5,0-5-4.12-5-4.7,0-4.72,0-4.74,4,0,5.2.13,5.42,4.12,5.45C626.25,596.9,626.5,596.67,626.52,592.35Z"/><path class="b" d="M383.06,736.82c-3.32.59-3.63-1.42-3.71-4.11-.09-3.05,1.37-3.8,4-3.73,3.36.1,3.83.76,4,4.5C387.45,736.73,385.65,737.14,383.06,736.82Z"/><path class="b" d="M435.51,174.43c.38,2.67-.66,4-3.5,3.79-2.44-.15-4.42-.5-4.34-3.66.08-3.31,1-4.14,4.35-4.3C435.22,170.11,435.81,171.82,435.51,174.43Z"/><path class="b" d="M123.92,605.37c0-4.9.67-5.67,4.92-5.67,5.15,0,6.06.91,6.06,6,0,5.33-.19,5.52-5.5,5.51S123.92,611.07,123.92,605.37Zm1.7-.1c0,4.12.12,4.27,3.86,4.28,4,0,4.33-.33,4.36-3.95,0-3.86-.33-4.24-4-4.27C125.79,601.29,125.63,601.44,125.62,605.27Z"/><path class="b" d="M196.11,190.15c-.38-2.48.9-3.47,3.63-3.42,2.58.05,4.36.56,4.28,3.66s-1.2,4.25-4.22,4.25S196.1,193.82,196.11,190.15Z"/><path class="b" d="M188.17,689c.71,3.11-1.11,3.94-3.68,3.94-2.27,0-4.19-.35-4.11-3.41.09-3.5.65-4.19,3.77-4.35C186.94,685,188.81,685.62,188.17,689Z"/><path class="b" d="M495.52,719.44c2.76-.43,4,.51,4.05,3.55,0,3.24-1.42,3.8-4.22,3.86s-3.81-.93-3.8-3.81S492.71,719,495.52,719.44Z"/><path class="b" d="M92.18,611.28c-2.74.41-3.86-.68-3.82-3.49,0-3,1.49-3.75,4.16-3.77,3,0,3.72,1.5,3.77,4.15C96.36,611.35,94.48,611.53,92.18,611.28Z"/><path class="b" d="M51,565.63c-2.55.31-4-.42-3.83-3.23.13-2.64,1-4.08,4-4.08s3.76,1.58,3.87,4.16C55.17,565.64,53.28,565.9,51,565.63Z"/><path class="b" d="M376.63,294.55c1.06-.92,2.36-.75,3.61-.76,4.41,0,8.82,0,13.23,0,4.12,0,4.15,0,4.15-4.29,0-6.83,0-13.65,0-20.48,1.52.43,1.34,1.72,1.34,2.84,0,6.64,0,13.27,0,19.9,0,1.64-.38,3.17-2.25,3.19C390,295,383.31,295.71,376.63,294.55Z"/><path class="b" d="M607.07,314.91c-.24-2.86,1.18-3.81,3.8-3.76,2.43,0,3.51,1.14,3.36,3.5s-.52,4.4-3.73,4.28C607.65,318.82,606.83,317.35,607.07,314.91Z"/><path class="b" d="M102.6,260.67c.4,2.72-.71,3.83-3.5,3.82s-3.72-.87-3.77-3.65c0-3,1.28-3.71,4-3.72S103,258.13,102.6,260.67Z"/><path class="b" d="M51.41,477.79c.46,3-1,4-3.81,3.84-3.44-.15-3.75-.54-3.89-4.17-.13-3.09,1.4-3.67,4.07-3.71C50.78,473.71,51.83,475,51.41,477.79Z"/><path class="b" d="M499.17,418.65c-2.25-1.31-1.89-3.67-1.92-5.62-.12-8.55,0-17.1,0-25.65,2.14,1.12,1.74,3.21,1.76,5C499.14,401.15,499.14,409.9,499.17,418.65Z"/><path class="b" d="M637,645.93c2.65-.23,3.86.84,3.93,3.59.09,3.14-2,3.35-4.11,3.38-1.86,0-3.7-.36-3.59-2.89S633.87,645.54,637,645.93Z"/><path class="b" d="M608.1,674.06c-2.42.36-3.74-.28-3.68-3.14s1-4.26,3.83-4.11c2.3.12,3.57,1.18,3.62,3.75C611.94,673.37,610.81,674.47,608.1,674.06Z"/><path class="b" d="M498.42,687c-1,2.43-.52,5-.54,7.48,0,1.28.8,1.74,2,1.93,5.92.92,6.86.14,6.79-5.75a8.45,8.45,0,0,0-.62-3.69c.83-.47,1.47-.29,1.63.67a18.9,18.9,0,0,1,.12,2.82c0,8-1,8.93-9.07,7.58a4,4,0,0,1-1.2-.32c-1.89-1-2.14-9.88-.29-11C497.52,686.6,498,686.9,498.42,687Z"/><path class="b" d="M273.71,166.17c-2.49.33-3.41-.86-3.3-3.29s.81-4,3.68-3.95,3.37,1.84,3.49,4.17C277.73,166,276,166.42,273.71,166.17Z"/><path class="b" d="M657.53,464.69c-2.6.22-3.56-1.05-3.56-3.57s1.21-3.54,3.69-3.53,3.57,1.15,3.57,3.66S660,464.91,657.53,464.69Z"/><path class="b" d="M128.55,226.31c-2.75.39-3.37-1.07-3.37-3.54,0-3,1.88-2.92,4-3.06,2.76-.2,3.34,1.11,3.34,3.58C132.51,226.28,130.78,226.49,128.55,226.31Z"/><path class="b" d="M75,299.7c2.5-.33,3.53.72,3.53,3.34,0,2.86-1.62,3.15-3.84,3.24-2.53.1-3.53-.84-3.52-3.45C71.18,300,72.64,299.45,75,299.7Z"/><path class="b" d="M460.64,173.64c-.31-2.36.73-3.38,3.21-3.36,2.18,0,3.44.64,3.33,3.05-.1,2.12-.32,4.07-3.14,4.15C461.4,177.55,460.47,176.14,460.64,173.64Z"/><path class="b" d="M209.61,718.42c-2.37.31-3.29-.8-3.25-3.24,0-2.81,1.76-3.21,3.95-3.25s3.13,1.1,3.2,3.29C213.6,718,212,718.59,209.61,718.42Z"/><path class="b" d="M433.77,317.27q-.06,12.84-.13,25.69l-1.76-.26q.06-12.88.11-25.78Z"/><path class="b" d="M377.8,302.65c-.3-.27-.84-.53-.87-.84-.37-4.14-3.09-4.38-6.43-4.27-6.07.19-12.14.07-18.21,0-1.31,0-2.83.38-3.49-1.35l18.35-.08a35.18,35.18,0,0,0,6-.41c3.77-.66,4.75.23,4.85,4.08C378,300.76,377.86,301.71,377.8,302.65Z"/><path class="b" d="M55.32,379.55c2.5-.3,3.62.62,3.62,3.13,0,2.28-.57,3.52-3.16,3.51-2.43,0-3.74-.61-3.65-3.35C52.21,380.5,52.9,379.17,55.32,379.55Z"/><path class="b" d="M124.83,658c2.35-.16,3.63.72,3.69,3.21.06,2.78-1.77,3-3.78,3-2.27,0-3.47-.93-3.4-3.45S122.84,657.79,124.83,658Z"/><path class="b" d="M653.33,428.47c-.44-2.72.93-3.34,3.26-3.33s3.42.89,3.35,3.34-1.18,3.32-3.52,3.34S652.89,430.82,653.33,428.47Z"/><path class="b" d="M663.45,495.83c-2.7.36-3.21-1.13-3.22-3.4,0-2.42,1.21-3.07,3.33-3.12,2.7-.07,3.39,1.4,3.37,3.79S665.47,496.08,663.45,495.83Z"/><path class="b" d="M530.7,723.32c1.83-.16,3.08.42,3,2.73s-.6,3.64-3.12,3.73-3.16-1.6-3.29-3.62C527.2,723.91,528.61,723.29,530.7,723.32Z"/><path class="b" d="M54.43,587.31c.3,2.45-1.12,3-3.26,3-1.87,0-3.15-.71-3.06-2.74.1-2.29,1.13-3.75,3.73-3.7C54.26,583.88,54.51,585.41,54.43,587.31Z"/><path class="b" d="M572.71,285.43c.24,2.28-.72,3.41-3.19,3.41s-3.5-.79-3.46-3.27c0-2.22.25-3.95,3.14-3.9C571.74,281.72,572.83,282.9,572.71,285.43Z"/><path class="b" d="M51.78,538.67c-2.43.28-3.68-.65-3.64-3.33,0-2.25.9-3.24,3.19-3.21s3.86.61,3.94,3.31C55.34,537.94,54.17,538.88,51.78,538.67Z"/><path class="b" d="M90.38,635.33c-.07-2.29.89-3.37,3-3.37,1.75,0,3.4.42,3.22,2.51-.16,1.87-.73,3.85-3.26,3.94C91.09,638.48,90.56,636.94,90.38,635.33Z"/><path class="b" d="M153.19,689.12c-.07,2.06-.92,3.31-3.24,3.32-2,0-3.19-.53-3.23-2.81s.79-3.29,3.12-3.25C151.77,686.41,153.22,686.76,153.19,689.12Z"/><path class="b" d="M530.28,212c-.14-2,.79-3,3-2.93s3.12,1.34,3,3.49c-.07,2.34-1.42,3.06-3.52,3C530.34,215.55,530.22,213.9,530.28,212Z"/><path class="b" d="M656.12,393.11c-2.14.26-3.17-.66-3.13-2.65s.87-3.33,3.25-3.3c2.14,0,3,.83,3.06,3C659.33,392.56,658.24,393.43,656.12,393.11Z"/><path class="b" d="M686.47,560.77c0,2.15-1.23,2.93-3.23,2.93-2.26,0-3.2-1.11-3.21-3.31s1.15-2.68,3-2.68C685.14,557.71,686.52,558.41,686.47,560.77Z"/><path class="b" d="M128.61,629.66c2.38-.3,3.54.56,3.52,3.13s-.92,3.66-3.53,3.65c-2.25,0-3.29-.74-3.28-3.11S125.76,629.29,128.61,629.66Z"/><path class="b" d="M664.37,628.42c-2.19.31-2.88-.77-2.87-2.9,0-2.31,1-3.11,3.23-3.11,2.51,0,2.86,1.38,2.92,3.42C667.71,628.27,666.32,628.6,664.37,628.42Z"/><path class="b" d="M317.14,291.86c-9.22,0-18.43,0-27.65,0-1.3,0-2.82.37-3.46-1.37l27.5,0C314.91,290.47,316.33,290.39,317.14,291.86Z"/><path class="b" d="M500.45,449.72c-1.64-.53-1.36-1.93-1.36-3.14q0-14,.05-27.94c1.6.95,1.23,2.54,1.24,4Q500.44,436.16,500.45,449.72Z"/><path class="b" d="M20.06,453.34c.15,2.12-1.18,2.57-3,2.56s-3.17-.51-3.11-2.63.73-3.47,3.19-3.29C19.27,450.13,20.14,451.23,20.06,453.34Z"/><path class="b" d="M15.38,509.57c1.89,0,3.47.08,3.39,2.39-.07,2.13-1.17,3.43-3.3,3.36-2-.07-3-1.35-3.05-3.32C12.34,509.72,13.88,509.52,15.38,509.57Z"/><path class="b" d="M503.65,214.7c-2.15.2-3.34-.61-3.37-3,0-2.69,1.51-3.09,3.7-3.07s3.42.6,3.43,3C507.42,214.35,505.87,214.86,503.65,214.7Z"/><path class="b" d="M371.86,139.9c-.26-2,.83-2.64,2.77-2.59s3.18.44,3,2.6a3.19,3.19,0,0,1-3.42,3.29C372,143.27,371.8,141.71,371.86,139.9Z"/><path class="b" d="M283.5,319c-.56,1.61-1.95,1.38-3.19,1.38q-11.4,0-22.8,0c-1.24,0-2.62.23-3.19-1.37Z"/><path class="b" d="M313.26,743.78c-2.41,0-3.53-1-3.48-3.1s1.23-2.72,3.09-2.78c2.1-.07,2.76,1,2.76,2.92S315,743.9,313.26,743.78Z"/><path class="b" d="M172.17,714.57A2.37,2.37,0,0,1,175,712c2,.11,3.14,1.1,2.9,3.21-.2,1.76-1.18,3.09-3,2.93S172.12,716.49,172.17,714.57Z"/><path class="b" d="M47.87,346.38c-.11-1.68.93-2.32,2.7-2.31,2,0,3.2.9,3,3-.14,1.76-1,3-3,2.88C48.45,349.89,47.84,348.53,47.87,346.38Z"/><path class="b" d="M273.11,738.83c-.21-2.74.7-3.51,2.54-3.57s3.1.62,3.07,2.64c0,1.71-.57,3.14-2.64,3.24C273.84,741.25,273.2,739.83,273.11,738.83Z"/><path class="b" d="M246.27,716.81c-2.5.2-3.46-.88-3.41-3.16,0-2.54,1.65-2.76,3.63-2.8,2.2-.05,2.91,1,2.93,3.07C249.45,716.37,248.26,717.11,246.27,716.81Z"/><path class="b" d="M237.51,158.37c-.14-2,.91-2.61,2.71-2.59s3.07.8,3,2.79c-.06,1.74-.72,3.08-2.79,3.1C238.16,161.7,237.66,160.19,237.51,158.37Z"/><path class="b" d="M14.79,485.76c-1.92.21-2.6-.79-2.54-2.63s.6-3.2,2.65-3.22A2.84,2.84,0,0,1,18,482.79C18.1,484.81,17,485.93,14.79,485.76Z"/><path class="b" d="M436.39,352.73c-2-2.77-4.89-2.58-7.83-2.53-4.81.08-9.63,0-14.44,0-1.23,0-2.6.23-3.18-1.34,7.05,0,14.11.09,21.16-.06C435,348.74,436.5,349.73,436.39,352.73Z"/><path class="b" d="M432,313.43q-10.89,0-21.77,0c-1.56,0-3.3.21-3.65-2,7.32.87,14.67.49,22,.6C429.84,312,431.42,311.56,432,313.43Z"/><path class="b" d="M351,137.41c2.29-.16,2.8,1.12,2.78,3,0,1.67-.43,2.91-2.42,2.88s-3.18-1.13-3.18-3.07C348.14,138.38,349,137.16,351,137.41Z"/><path class="b" d="M211.63,524c1.54.36,1.48,1.58,1.48,2.75q0,12-.11,23.92c-1.63-.81-1.14-2.34-1.15-3.63C211.74,539.38,211.7,531.7,211.63,524Z"/><path class="b" d="M653.82,347.29c2.1-.12,2.79,1,2.86,2.72s-.86,3.27-2.62,3.32-2.58-1.52-2.63-3.29S652,347.16,653.82,347.29Z"/><path class="b" d="M325.36,142.62a2.61,2.61,0,0,1-2.93-2.76c-.08-1.94,1-2.54,2.76-2.52,1.56,0,3,.13,3,2.22C328.27,141.45,327.43,142.52,325.36,142.62Z"/><path class="b" d="M498.75,173.46c-.48,1.69-1.49,2.8-3.33,2.66s-2.37-1.57-2.24-3.15a2.45,2.45,0,0,1,2.92-2.51C497.86,170.63,498.49,171.88,498.75,173.46Z"/><path class="b" d="M378.87,756.62c-.25,1.45-.82,2.86-2.63,2.8a2.75,2.75,0,0,1-2.89-3,2.5,2.5,0,0,1,2.78-2.69C378,753.73,378.63,754.91,378.87,756.62Z"/><path class="b" d="M19.42,541.92a2.42,2.42,0,0,1-2.85,2.6,2.68,2.68,0,0,1-2.82-3.08c0-2,1.44-2,2.89-2.07C18.4,539.33,19.53,539.92,19.42,541.92Z"/><path class="b" d="M398.94,136.12a2.49,2.49,0,0,1,2.7,2.76c0,1.58-.75,3-2.52,3s-2.82-1.31-2.89-3A2.4,2.4,0,0,1,398.94,136.12Z"/><path class="b" d="M342,262.06,316.85,262c.66-1.26,1.86-1.21,3-1.21,6.4,0,12.79,0,19.19,0C340.19,260.79,341.42,260.67,342,262.06Z"/><path class="b" d="M637.18,673.92a2.57,2.57,0,0,1,2.44,3c0,1.73-.92,2.78-2.73,2.72s-2.49-1.28-2.46-3A2.48,2.48,0,0,1,637.18,673.92Z"/><path class="b" d="M315.69,632.41c3.24-.25,3.93,1.8,3.94,4.41,0,6.11,0,12.23,0,18.34-1.75-.45-1.35-1.91-1.36-3.09,0-4.08-.13-8.17,0-12.25C318.41,636.94,318.27,634.28,315.69,632.41Z"/><path class="b" d="M600.08,702.22c0-1.64.33-2.94,2.38-2.93s2.36,1.34,2.36,3-.4,2.71-2.23,2.77S600,704,600.08,702.22Z"/><path class="b" d="M16.79,420.89c-.06-1.64.63-2.59,2.4-2.56S22,419.22,22,421s-1,2.9-2.71,2.88S16.67,422.66,16.79,420.89Z"/><path class="b" d="M669.43,654.19c0,1.58-.49,2.64-2.3,2.65a2.49,2.49,0,0,1-2.77-2.69,2.61,2.61,0,0,1,2.64-2.9C668.9,651.14,669.37,652.59,669.43,654.19Z"/><path class="b" d="M253.14,317.25c-6.45-1.31-13-.33-19.45-.64-1.44-.06-3,.29-4.21-.83,4.54-1.12,9.15-.27,13.73-.49,2.29-.11,4.6,0,6.9,0C251.51,315.31,252.92,315.38,253.14,317.25Z"/><path class="b" d="M205.08,157.51c-.38,1.6-1.24,2.71-2.77,2.66a2.72,2.72,0,0,1,0-5.44C204.1,154.67,204.56,156.21,205.08,157.51Z"/><path class="b" d="M343.26,747.42c-.12-1.78.76-2.6,2.6-2.58,1.54,0,2.68.4,2.69,2.23s-.63,2.84-2.49,2.9C344.39,750,343.19,749.45,343.26,747.42Z"/><path class="b" d="M247.92,581.15c2.52-.34,1.89,1.71,1.91,2.86.11,6.6.06,13.19.06,19.79-1.74-.48-1.34-1.94-1.35-3.13,0-5.17,0-10.34,0-15.51A7.78,7.78,0,0,0,247.92,581.15Z"/><path class="b" d="M688.84,593.36c-.07-1.69.68-2.57,2.44-2.54s2.8.87,2.75,2.7-1.07,2.43-2.7,2.38S688.71,595.14,688.84,593.36Z"/><path class="b" d="M70.12,268.14a2.27,2.27,0,0,1-2.57,2.47,2.24,2.24,0,0,1-2.53-2.5,2.55,2.55,0,0,1,5.1,0Z"/><path class="b" d="M602.31,279c-1.62.06-2.78-.31-2.86-2.14s.89-2.6,2.67-2.6c1.48,0,2.7.18,2.71,2.12S604.07,279.11,602.31,279Z"/><path class="b" d="M218.13,575.41c2.52-.26,1.89,1.76,1.9,2.94.08,6,0,12,0,18-1.53-.7-1.16-2.11-1.17-3.32,0-4.54,0-9.07,0-13.61A7.16,7.16,0,0,0,218.13,575.41Z"/><path class="b" d="M240.13,738.43c-.07,1.52-.72,2.63-2.41,2.61-1.49,0-2.67-.66-2.73-2.39a2.28,2.28,0,0,1,2.42-2.63A2.37,2.37,0,0,1,240.13,738.43Z"/><path class="b" d="M484,749.21c1.36,0,2.59.21,2.64,1.92s-.93,2.66-2.69,2.72a2.05,2.05,0,0,1-2.42-2.19C481.49,749.93,482.36,749.17,484,749.21Z"/><path class="b" d="M201.6,741.22c-2,0-3.28-.22-3.34-1.92a2.38,2.38,0,0,1,2.46-2.66c1.65-.14,2.59.57,2.57,2.32C203.28,740.54,202.46,741.24,201.6,741.22Z"/><path class="b" d="M430.24,136.86a2.2,2.2,0,0,1-2.24,2.49c-1.42.11-2.58-.48-2.67-2a2.64,2.64,0,0,1,2.61-2.93C429.53,134.31,429.94,135.63,430.24,136.86Z"/><path class="b" d="M301.11,136.87c.06,1.46-.43,2.5-2.09,2.49a2.26,2.26,0,0,1-2.55-2.51,2.31,2.31,0,0,1,2.58-2.51C300.72,134.34,301.13,135.45,301.11,136.87Z"/><path class="b" d="M339.33,654.74c0-5.74,0-11.48,0-17.22,0-1.22-.27-2.59,1.26-3.23,0,5.74,0,11.48,0,17.23C340.59,652.72,340.89,654.11,339.33,654.74Z"/><path class="b" d="M119.1,687.76c1.51,0,2.45.58,2.36,2.24-.09,1.46-.74,2.4-2.35,2.37a2.45,2.45,0,0,1-2.57-2.63C116.43,688,117.74,687.77,119.1,687.76Z"/><path class="b" d="M419.29,740.94c.16,1.88-.76,2.63-2.62,2.62s-2.77-.64-2.76-2.58c0-1.73.46-2.87,2.46-2.87S419.39,738.86,419.29,740.94Z"/><path class="b" d="M15.43,566.62c1.34,0,2.69.18,2.6,1.94-.07,1.49-.8,2.67-2.52,2.65a2.29,2.29,0,0,1-2.44-2.35C13,567.21,14,566.64,15.43,566.62Z"/><path class="b" d="M54.72,611c1.54-.1,2.27.61,2.26,2.21s-.77,2.47-2.48,2.46-2.31-1-2.28-2.64S53.23,610.91,54.72,611Z"/><path class="b" d="M573.6,700.39c-2.12,0-3-.9-3-2.73s1-2.59,2.78-2.62c1.92,0,2.62.89,2.6,2.72S575.22,700.54,573.6,700.39Z"/><path class="b" d="M647.92,309.28c0,1.16-.18,2.53-2,2.45a2.39,2.39,0,0,1-2.6-2.26c-.12-1.76,1-2.45,2.55-2.57S647.91,307.77,647.92,309.28Z"/><path class="b" d="M126.06,194.65c-1.34.09-2.14-.44-2.16-2s.52-2.63,2.32-2.62c1.59,0,2.27.8,2.27,2.35S127.63,194.69,126.06,194.65Z"/><path class="b" d="M96.91,228.11c.09,1.63-.81,2.18-2.33,2.15A2,2,0,0,1,92.27,228c0-1.53.62-2.35,2.22-2.37S97,226.39,96.91,228.11Z"/><path class="b" d="M253.58,605.69c1.1,1.37.73,3,.73,4.55,0,4.93-.05,9.86-.08,14.79-.34-.38-1-.76-1-1.15C253.12,617.81,252.44,611.73,253.58,605.69Z"/><path class="b" d="M563.47,731.15c-1.13-.09-2.47-.11-2.35-1.77.1-1.23.36-2.71,2-2.7a2.64,2.64,0,0,1,2.69,2.58C566,730.81,564.76,731.08,563.47,731.15Z"/><path class="b" d="M693.85,455.81c1.6,0,2.18.86,2.23,2.22,0,1.64-.83,2.27-2.36,2.25s-2.25-.59-2.17-2.08A2.3,2.3,0,0,1,693.85,455.81Z"/><path class="b" d="M242.5,618a34.14,34.14,0,0,1-18.83,0l.24-.23h18.35Z"/><path class="b" d="M562.16,208.13a2.27,2.27,0,0,1-2.41,2.23c-1.47,0-2-.82-2.06-2.19,0-1.58.79-2.28,2.34-2.27A1.9,1.9,0,0,1,562.16,208.13Z"/><path class="b" d="M144.29,714.56c-.08,1.33-.68,2.38-2.25,2.34s-2.19-1.06-2.24-2.5.62-1.91,1.9-1.95S144.21,712.76,144.29,714.56Z"/><path class="b" d="M19.19,386.71c1.57,0,2.21.75,2.2,2.14s-.46,2.27-1.92,2.28A2.2,2.2,0,0,1,17,389C16.88,387.42,17.93,386.81,19.19,386.71Z"/><path class="b" d="M410,764.11c.05,1.65-.57,2.46-2,2.53s-2.48-.48-2.45-2.12a2.13,2.13,0,0,1,2-2.38A2.1,2.1,0,0,1,410,764.11Z"/><path class="b" d="M699.14,624.46c-.07,1.37-.68,2.4-2.21,2.43a1.94,1.94,0,0,1-2.09-1.91,2.15,2.15,0,0,1,2.27-2.42C698.37,622.46,699,623.14,699.14,624.46Z"/><path class="b" d="M694.75,426.16a2,2,0,0,1-2,2.12,2.5,2.5,0,0,1-2.45-2.46c-.11-1.38.93-1.74,2.09-1.8S694.79,424.23,694.75,426.16Z"/><path class="b" d="M699,488.16a2.07,2.07,0,0,1,2,2.38c-.08,1.31-.74,2.21-2.21,2a2.12,2.12,0,0,1-2.05-2.34A2.05,2.05,0,0,1,699,488.16Z"/><path class="b" d="M91.21,662.36c1.38,0,2.29.64,2.18,2.06a2.27,2.27,0,0,1-2.08,2.37c-1.39.06-2-.94-2.13-2.23A1.84,1.84,0,0,1,91.21,662.36Z"/><path class="b" d="M45.45,309.79c0,1.61-.93,2.09-2.24,2.11s-2.28-.4-2.29-1.9.87-2,2.21-2S45.34,308.47,45.45,309.79Z"/><path class="b" d="M674.07,528.53c-1.64,0-2.58-.72-2.56-2.43,0-1.55.93-2.23,2.41-2.26s2.69.51,2.73,2.27S675.68,528.52,674.07,528.53Z"/><path class="b" d="M285.45,650.14c3.83,1.14,7.76.43,11.64.64,1.31.07,2.84-.39,3.53,1.34-4.12,0-8.23.07-12.35.07C286.88,652.18,285.38,652.21,285.45,650.14Z"/><path class="b" d="M708.22,525.7c-1.1-.06-2.17-.19-2.1-1.66s1-1.71,2.13-1.72,2.32.4,2.26,1.91S709.26,525.64,708.22,525.7Z"/><path class="b" d="M284.05,609.55c.38.34,1.06.65,1.1,1a65,65,0,0,1,0,12.55c0,.38-.71.69-1.09,1Q284.06,616.85,284.05,609.55Z"/><path class="b" d="M524.83,170.61a2,2,0,0,1,1.74,2.25,1.9,1.9,0,0,1-2,2c-1.38,0-1.81-.92-1.7-2.12A2.14,2.14,0,0,1,524.83,170.61Z"/><path class="b" d="M58.59,641a1.9,1.9,0,0,1-2.16,1.75c-1.16-.06-2-.71-2-1.93a1.88,1.88,0,0,1,2.14-1.78A1.91,1.91,0,0,1,58.59,641Z"/><path class="b" d="M517.19,757c-1.13,0-2.18-.41-2.32-1.65-.17-1.48,1-1.6,2.12-1.65s2.16.16,2.09,1.64C519,756.5,518.27,756.94,517.19,757Z"/><path class="b" d="M273.78,133.08a1.78,1.78,0,0,1-2.12,1.87c-1.08,0-1.84-.56-1.76-1.72a2,2,0,0,1,2.33-2C273.39,131.33,273.77,132.15,273.78,133.08Z"/><path class="b" d="M450.71,747.9c-1.27,0-2.34-.24-2.44-1.8s.76-2.3,2.3-2.3c1.33,0,2.24.52,2.28,2S452.11,747.9,450.71,747.9Z"/><path class="b" d="M565.54,248.9c-1.48,0-2.36-.67-2.36-2.22s1-1.89,2.27-1.88,2.17.55,2.18,2A1.83,1.83,0,0,1,565.54,248.9Z"/><path class="b" d="M716.41,556.63c1.17.06,2.08.57,2.15,1.82.06,1.07-.85,1.36-1.74,1.41-1.11,0-2.22-.12-2.3-1.53C714.44,557.12,715.4,556.81,716.41,556.63Z"/><path class="b" d="M595.5,237c1.43,0,2.2.5,2.22,1.8,0,1-.59,1.47-1.55,1.49-1.13,0-2.11-.24-2.2-1.59A1.52,1.52,0,0,1,595.5,237Z"/><path class="b" d="M167.21,736.57c1.06.07,1.8.54,1.78,1.69s-.83,1.6-1.88,1.58-1.82-.49-1.79-1.66S166.18,736.64,167.21,736.57Z"/><path class="b" d="M14.42,594.11c-.08,1.1-.64,1.75-1.78,1.7S11,595,11,594a1.56,1.56,0,0,1,1.76-1.72C14,592.28,14.4,593,14.42,594.11Z"/><path class="b" d="M437.42,771a1.83,1.83,0,0,1,1.7-1.86c1.1-.14,1.83.35,1.85,1.53s-.7,1.67-1.78,1.68A1.53,1.53,0,0,1,437.42,771Z"/><path class="b" d="M160.65,191.78c-1.54,0-2.17-.64-2.2-1.9s.6-2.13,2-2.12c1.24,0,2,.56,2,1.85A1.89,1.89,0,0,1,160.65,191.78Z"/><path class="b" d="M304,772.29c-1.05-.11-1.73-.53-1.69-1.58s.78-1.16,1.57-1.16c1,0,1.62.44,1.55,1.52C305.35,772,304.71,772.27,304,772.29Z"/><path class="b" d="M691.83,390c-1,0-1.65-.38-1.6-1.47,0-.92.63-1.29,1.48-1.26s1.64.46,1.63,1.51S692.65,390,691.83,390Z"/><path class="b" d="M410.63,348.86c-2.14-1.6-2.23-3.48-.28-5.6C410.44,345.13,410.53,347,410.63,348.86Z"/><path class="b" d="M285.46,640.63c1.72,1.27,1.72,2.53,0,3.8Z"/><path class="b" d="M310.24,618.5a2.3,2.3,0,0,1,0-3.3A3,3,0,0,1,310.24,618.5Z"/><path class="b" d="M310.29,611.56c-.39-.4-.63-.86-.21-1.34s.9-.35,1.35,0Z"/><path class="b" d="M200.92,454.13c.4.42.62.89.15,1.36s-.94.24-1.36-.15Z"/><path class="b" d="M213,550.71c1-.11,1.76.16,2,1.27C214.11,551.87,213.27,551.73,213,550.71Z"/><path class="b" d="M308.22,630.56a1.76,1.76,0,0,1,2-1.34C310,630.37,309.22,630.61,308.22,630.56Z"/><path class="b" d="M178.79,518.42c.69-.66,1.1-.38,1.35.41Z"/><path class="b" d="M204.87,504c0-3.79,0-7.58,0-11.37,0-.89-.31-2.3.85-2.41,1.36-.12,1.44,1.41,1.51,2.36.17,2.41.14,4.84.15,7.26q0,6.79,0,13.58a14,14,0,0,1-.33,2.81c-.14.69-.35,1.64-1.27,1.55s-.89-1.06-.89-1.78c0-4,0-8,0-12Z"/><path class="b" d="M471.14,582.63c0,2.74,0,5.47,0,8.21,0,.74-.18,1.61-1.07,1.71-1.15.12-1.35-.88-1.35-1.72q-.06-7.89,0-15.78c0-.85.22-1.84,1.29-1.86s1.14,1.06,1.15,1.86c.05,2.53,0,5.05,0,7.58Z"/><path class="b" d="M519.19,527.88c0-3.28.12-6.55-.05-9.82-.09-1.77.71-2.3,2.19-2.31,6.76,0,13.52,0,20.29,0,1.73,0,2.48.81,2.47,2.52q0,10,0,20c0,2-1,2.85-3,2.84q-9.35,0-18.7,0c-2.12,0-3.1-.91-3.07-3.05,0-3.38,0-6.76,0-10.14Z"/><path class="b" d="M541.55,606.83c0,2.33,0,4.65,0,7,0,1.83-.68,2.75-2.6,2.73-4.65,0-9.29,0-13.94,0-1.74,0-2.48-.82-2.47-2.52,0-4.86,0-9.72,0-14.58,0-1.7.72-2.59,2.46-2.52l14.53.66c1.48.06,2,1,2,2.3v7Z"/><path class="b" d="M236.68,308.36c-3.06,0-6.12,0-9.19,0-1.91,0-3-.56-3-2.69q.08-9,0-18.07c0-1.84.72-2.72,2.62-2.71,6.34,0,12.68,0,19,0,1.52,0,2.23.65,2.5,2.21,1.1,6.41.4,12.85.51,19.28,0,1.74-1.3,1.95-2.67,1.95Z"/><path class="b" d="M502.6,478.47a2.91,2.91,0,0,1-.05-2.39A2.62,2.62,0,0,1,502.6,478.47Z"/><path class="b" d="M242.26,617.78H223.91c0-5.16.08-10.31,0-15.47-.06-2.5.68-3.68,3.39-3.57,3.88.16,7.79.16,11.67,0,2.71-.11,3.46,1.06,3.39,3.57C242.18,607.47,242.26,612.62,242.26,617.78Z"/><path class="b" d="M442.89,241.17c8.41.1,7.32-1,7.34,7.45,0,8,1,7.1-7,7.1-9.13,0-8.09,1-8.15-8.07C435,240.18,434.84,241.24,442.89,241.17Z"/><path class="b" d="M172.52,604.89c0,6.47.47,5.91-6,5.93-.94,0-1.89,0-2.84,0-1.7.05-2.57-.72-2.52-2.45,0-.63,0-1.27,0-1.9.13-8.79-1.24-7.49,7.75-7.71,2.72-.07,4,.8,3.66,3.61A21.32,21.32,0,0,0,172.52,604.89Z"/><path class="b" d="M626.52,592.35c0,4.32-.27,4.55-4.74,4.51-4,0-4.16-.25-4.12-5.45,0-4,0-4.06,4.74-4C626.55,587.39,626.55,587.39,626.52,592.35Z"/><path class="b" d="M125.62,605.27c0-3.83.17-4,4.19-3.94,3.7,0,4.06.41,4,4.27,0,3.62-.4,4-4.36,3.95C125.74,609.54,125.6,609.39,125.62,605.27Z"/></svg>