<svg xmlns="http://www.w3.org/2000/svg" viewBox="0 0 1920 1080"><defs><style>.a{fill:#490c6e;}.b{fill:#121212;}.c{fill:#034752;}.d{fill:#404040;}.e{fill:#b849ff;}.f{fill:#606060;}.g{fill:#00efca;}.h{fill:#767676;}.i{fill:#fd4b1f;}.j{fill:#d9d9d9;}.k{fill:#f34b96;}.l{fill:#eaeaea;}.m{fill:#ffd24d;}.n{fill:#efefef;}.o{fill:#fff;stroke:#000;stroke-miterlimit:10;opacity:0.1;}</style></defs><title>colour-palette</title><rect class="a" x="104.53" y="334.75" width="198" height="198"/><rect class="b" x="104.53" y="546.75" width="198" height="198"/><rect class="c" x="320.53" y="334.75" width="198" height="198"/><rect class="d" x="320.53" y="546.75" width="198" height="198"/><rect class="e" x="536.53" y="334.75" width="198" height="198"/><rect class="f" x="536.53" y="546.75" width="198" height="198"/><rect class="g" x="752.53" y="334.75" width="198" height="198"/><rect class="h" x="752.53" y="546.75" width="198" height="198"/><rect class="i" x="968.53" y="334.75" width="198" height="198"/><rect class="j" x="968.53" y="546.75" width="198" height="198"/><rect class="k" x="1184.53" y="334.75" width="198" height="198"/><rect class="l" x="1184.53" y="546.75" width="198" height="198"/><rect class="m" x="1400.53" y="334.75" width="198" height="198"/><rect class="n" x="1400.53" y="546.75" width="198" height="198"/><rect class="o" x="1616.97" y="546.75" width="198" height="198"/></svg>