<svg xmlns="http://www.w3.org/2000/svg" viewBox="0 0 1441.98 1025.72"><defs><style>.a{fill:#034752;}.b{opacity:0.12;}.c,.d{fill:#fff;}.d{font-size:28.6px;font-family:BBCReithSans-Medium, BBC Reith Sans;font-weight:500;}.e{letter-spacing:-0.01em;}.f{letter-spacing:-0.01em;}.g{fill:#121212;opacity:0.3;}</style></defs><title>grid-margins-large</title><rect class="a" x="0.25" y="-1.12" width="1441.3" height="1026.64"/><g class="b"><rect class="c" x="23.13" y="21.76" width="95.32" height="228.06"/><rect class="c" x="141.33" y="21.76" width="95.32" height="228.06"/><rect class="c" x="259.53" y="21.76" width="95.32" height="228.06"/><rect class="c" x="377.74" y="21.76" width="95.32" height="228.06"/><rect class="c" x="495.94" y="21.76" width="95.32" height="228.06"/><rect class="c" x="614.14" y="21.76" width="95.32" height="228.06"/><rect class="c" x="732.34" y="21.76" width="95.32" height="228.06"/><rect class="c" x="850.54" y="21.76" width="95.32" height="228.06"/><rect class="c" x="968.74" y="21.76" width="95.32" height="228.06"/><rect class="c" x="1086.94" y="21.76" width="95.32" height="228.06"/><rect class="c" x="1205.15" y="21.76" width="95.32" height="228.06"/><rect class="c" x="1323.35" y="21.76" width="95.32" height="228.06"/><rect class="c" x="23.13" y="272.7" width="95.32" height="228.06"/><rect class="c" x="141.33" y="272.7" width="95.32" height="228.06"/><rect class="c" x="259.53" y="272.7" width="95.32" height="228.06"/><rect class="c" x="377.74" y="272.7" width="95.32" height="228.06"/><rect class="c" x="495.94" y="272.7" width="95.32" height="228.06"/><rect class="c" x="614.14" y="272.7" width="95.32" height="228.06"/><rect class="c" x="732.34" y="272.7" width="95.32" height="228.06"/><rect class="c" x="850.54" y="272.7" width="95.32" height="228.06"/><rect class="c" x="968.74" y="272.7" width="95.32" height="228.06"/><rect class="c" x="1086.94" y="272.7" width="95.32" height="228.06"/><rect class="c" x="1205.15" y="272.7" width="95.32" height="228.06"/><rect class="c" x="1323.35" y="272.7" width="95.32" height="228.06"/><rect class="c" x="23.13" y="523.64" width="95.32" height="228.06"/><rect class="c" x="141.33" y="523.64" width="95.32" height="228.06"/><rect class="c" x="259.53" y="523.64" width="95.32" height="228.06"/><rect class="c" x="377.74" y="523.64" width="95.32" height="228.06"/><rect class="c" x="495.94" y="523.64" width="95.32" height="228.06"/><rect class="c" x="614.14" y="523.64" width="95.32" height="228.06"/><rect class="c" x="732.34" y="523.64" width="95.32" height="228.06"/><rect class="c" x="850.54" y="523.64" width="95.32" height="228.06"/><rect class="c" x="968.74" y="523.64" width="95.32" height="228.06"/><rect class="c" x="1086.94" y="523.64" width="95.32" height="228.06"/><rect class="c" x="1205.15" y="523.64" width="95.32" height="228.06"/><rect class="c" x="1323.35" y="523.64" width="95.32" height="228.06"/><rect class="c" x="23.13" y="774.58" width="95.32" height="228.06"/><rect class="c" x="141.33" y="774.58" width="95.32" height="228.06"/><rect class="c" x="259.53" y="774.58" width="95.32" height="228.06"/><rect class="c" x="377.74" y="774.58" width="95.32" height="228.06"/><rect class="c" x="495.94" y="774.58" width="95.32" height="228.06"/><rect class="c" x="614.14" y="774.58" width="95.32" height="228.06"/><rect class="c" x="732.34" y="774.58" width="95.32" height="228.06"/><rect class="c" x="850.54" y="774.58" width="95.32" height="228.06"/><rect class="c" x="968.74" y="774.58" width="95.32" height="228.06"/><rect class="c" x="1086.94" y="774.58" width="95.32" height="228.06"/><rect class="c" x="1205.15" y="774.58" width="95.32" height="228.06"/><rect class="c" x="1323.35" y="774.58" width="95.32" height="228.06"/></g><text class="d" transform="translate(261.34 880)"><tspan xml:space="preserve"> Lo</tspan><tspan class="e" x="40.41" y="0">r</tspan><tspan x="51.56" y="0">em ipsum dolo</tspan><tspan class="e" x="247.31" y="0">r</tspan><tspan x="258.47" y="0">ei sit amet, consec</tspan><tspan class="e" x="502.43" y="0">t</tspan><tspan x="513.65" y="0">etuer adipiscing elit, sedi diam </tspan><tspan x="-1.26" y="38.61">nonum</tspan><tspan class="f" x="92.23" y="38.61">m</tspan><tspan x="117.48" y="38.61">y nibh euismod tincidunt ut lao</tspan><tspan class="e" x="530" y="38.61">r</tspan><tspan x="541.16" y="38.61">eet dolo</tspan><tspan class="e" x="651.26" y="38.61">r</tspan><tspan x="662.41" y="38.61">esen il sit ametinioi</tspan></text><rect class="g" width="1441.98" height="774.82"/></svg>