<svg xmlns="http://www.w3.org/2000/svg" viewBox="0 0 916.73 818.6"><defs><style>.a{fill:#034752;}.b{opacity:0.12;}.c,.d{fill:#fff;}.d{font-size:25.77px;font-family:BBCReithSans-Medium, BBC Reith Sans;font-weight:500;}.e{letter-spacing:-0.01em;}.f{fill:#121212;opacity:0.3;}</style></defs><title>grid-margins-medium</title><rect class="a" x="0.81" y="0.36" width="915.11" height="817.88"/><g class="b"><rect class="c" x="841.28" y="27.07" width="51.47" height="175.87"/><rect class="c" x="766.93" y="27.07" width="51.47" height="175.87"/><rect class="c" x="692.57" y="27.07" width="51.47" height="175.87"/><rect class="c" x="618.22" y="27.07" width="51.47" height="175.87"/><rect class="c" x="543.87" y="27.07" width="51.47" height="175.87"/><rect class="c" x="469.52" y="27.07" width="51.47" height="175.87"/><rect class="c" x="395.16" y="27.07" width="51.47" height="175.87"/><rect class="c" x="320.81" y="27.07" width="51.47" height="175.87"/><rect class="c" x="246.46" y="27.07" width="51.47" height="175.87"/><rect class="c" x="172.11" y="27.07" width="51.47" height="175.87"/><rect class="c" x="97.75" y="27.07" width="51.47" height="175.87"/><rect class="c" x="23.4" y="27.07" width="51.47" height="175.87"/><rect class="c" x="841.28" y="225.82" width="51.47" height="175.87"/><rect class="c" x="766.93" y="225.82" width="51.47" height="175.87"/><rect class="c" x="692.57" y="225.82" width="51.47" height="175.87"/><rect class="c" x="618.22" y="225.82" width="51.47" height="175.87"/><rect class="c" x="543.87" y="225.82" width="51.47" height="175.87"/><rect class="c" x="469.52" y="225.82" width="51.47" height="175.87"/><rect class="c" x="395.16" y="225.82" width="51.47" height="175.87"/><rect class="c" x="320.81" y="225.82" width="51.47" height="175.87"/><rect class="c" x="246.46" y="225.82" width="51.47" height="175.87"/><rect class="c" x="172.11" y="225.82" width="51.47" height="175.87"/><rect class="c" x="97.75" y="225.82" width="51.47" height="175.87"/><rect class="c" x="23.4" y="225.82" width="51.47" height="175.87"/><rect class="c" x="841.28" y="424.57" width="51.47" height="175.87"/><rect class="c" x="766.93" y="424.57" width="51.47" height="175.87"/><rect class="c" x="692.57" y="424.57" width="51.47" height="175.87"/><rect class="c" x="618.22" y="424.57" width="51.47" height="175.87"/><rect class="c" x="543.87" y="424.57" width="51.47" height="175.87"/><rect class="c" x="469.52" y="424.57" width="51.47" height="175.87"/><rect class="c" x="395.16" y="424.57" width="51.47" height="175.87"/><rect class="c" x="320.81" y="424.57" width="51.47" height="175.87"/><rect class="c" x="246.46" y="424.57" width="51.47" height="175.87"/><rect class="c" x="172.11" y="424.57" width="51.47" height="175.87"/><rect class="c" x="97.75" y="424.57" width="51.47" height="175.87"/><rect class="c" x="23.4" y="424.57" width="51.47" height="175.87"/><rect class="c" x="841.28" y="623.32" width="51.47" height="175.87"/><rect class="c" x="766.93" y="623.32" width="51.47" height="175.87"/><rect class="c" x="692.57" y="623.32" width="51.47" height="175.87"/><rect class="c" x="618.22" y="623.32" width="51.47" height="175.87"/><rect class="c" x="543.87" y="623.32" width="51.47" height="175.87"/><rect class="c" x="469.52" y="623.32" width="51.47" height="175.87"/><rect class="c" x="395.16" y="623.32" width="51.47" height="175.87"/><rect class="c" x="320.81" y="623.32" width="51.47" height="175.87"/><rect class="c" x="246.46" y="623.32" width="51.47" height="175.87"/><rect class="c" x="172.11" y="623.32" width="51.47" height="175.87"/><rect class="c" x="97.75" y="623.32" width="51.47" height="175.87"/><rect class="c" x="23.4" y="623.32" width="51.47" height="175.87"/></g><text class="d" transform="translate(173.3 705.7)">Lo<tspan class="e" x="30.28" y="0">r</tspan><tspan x="40.33" y="0">em ipsum dolor sitin mameti, dolo</tspan><tspan class="e" x="449.8" y="0">r</tspan><tspan x="459.85" y="0">es sitinoi </tspan><tspan x="-0.46" y="34.36">sitin ametii, consec</tspan><tspan class="e" x="228.15" y="34.36">t</tspan><tspan x="238.25" y="34.36">etuer adipiscing elit, sedani </tspan></text><rect class="f" width="916.73" height="623.12"/></svg>