<svg xmlns="http://www.w3.org/2000/svg" viewBox="0 0 458.37 802.63"><defs><style>.a{fill:#034752;}.b{opacity:0.12;}.c,.d{fill:#fff;}.d{font-size:22.83px;font-family:BBCReithSans-Medium, BBC Reith Sans;font-weight:500;}.e{letter-spacing:-0.01em;}.f{letter-spacing:-0.02em;}.g{fill:#121212;opacity:0.3;}</style></defs><title>grid-margins-small</title><rect class="a" x="0.82" y="0.67" width="457.55" height="802.15"/><g class="b"><rect class="c" x="10.62" y="15.74" width="25.74" height="186.24"/><rect class="c" x="47.8" y="15.74" width="25.74" height="186.24"/><rect class="c" x="84.98" y="15.74" width="25.74" height="186.24"/><rect class="c" x="122.15" y="15.74" width="25.74" height="186.24"/><rect class="c" x="159.33" y="15.74" width="25.74" height="186.24"/><rect class="c" x="196.5" y="15.74" width="25.74" height="186.24"/><rect class="c" x="233.68" y="15.74" width="25.74" height="186.24"/><rect class="c" x="270.86" y="15.74" width="25.74" height="186.24"/><rect class="c" x="308.03" y="15.74" width="25.74" height="186.24"/><rect class="c" x="345.21" y="15.74" width="25.74" height="186.24"/><rect class="c" x="382.39" y="15.74" width="25.74" height="186.24"/><rect class="c" x="419.56" y="15.74" width="25.74" height="186.24"/><rect class="c" x="10.62" y="213.42" width="25.74" height="186.24"/><rect class="c" x="47.8" y="213.42" width="25.74" height="186.24"/><rect class="c" x="84.98" y="213.42" width="25.74" height="186.24"/><rect class="c" x="122.15" y="213.42" width="25.74" height="186.24"/><rect class="c" x="159.33" y="213.42" width="25.74" height="186.24"/><rect class="c" x="196.5" y="213.42" width="25.74" height="186.24"/><rect class="c" x="233.68" y="213.42" width="25.74" height="186.24"/><rect class="c" x="270.86" y="213.42" width="25.74" height="186.24"/><rect class="c" x="308.03" y="213.42" width="25.74" height="186.24"/><rect class="c" x="345.21" y="213.42" width="25.74" height="186.24"/><rect class="c" x="382.39" y="213.42" width="25.74" height="186.24"/><rect class="c" x="419.56" y="213.42" width="25.74" height="186.24"/><rect class="c" x="10.62" y="411.09" width="25.74" height="186.24"/><rect class="c" x="47.8" y="411.09" width="25.74" height="186.24"/><rect class="c" x="84.98" y="411.09" width="25.74" height="186.24"/><rect class="c" x="122.15" y="411.09" width="25.74" height="186.24"/><rect class="c" x="159.33" y="411.09" width="25.74" height="186.24"/><rect class="c" x="196.5" y="411.09" width="25.74" height="186.24"/><rect class="c" x="233.68" y="411.09" width="25.74" height="186.24"/><rect class="c" x="270.86" y="411.09" width="25.74" height="186.24"/><rect class="c" x="308.03" y="411.09" width="25.74" height="186.24"/><rect class="c" x="345.21" y="411.09" width="25.74" height="186.24"/><rect class="c" x="382.39" y="411.09" width="25.74" height="186.24"/><rect class="c" x="419.56" y="411.09" width="25.74" height="186.24"/><rect class="c" x="10.62" y="608.77" width="25.74" height="186.24"/><rect class="c" x="47.8" y="608.77" width="25.74" height="186.24"/><rect class="c" x="84.98" y="608.77" width="25.74" height="186.24"/><rect class="c" x="122.15" y="608.77" width="25.74" height="186.24"/><rect class="c" x="159.33" y="608.77" width="25.74" height="186.24"/><rect class="c" x="196.5" y="608.77" width="25.74" height="186.24"/><rect class="c" x="233.68" y="608.77" width="25.74" height="186.24"/><rect class="c" x="270.86" y="608.77" width="25.74" height="186.24"/><rect class="c" x="308.03" y="608.77" width="25.74" height="186.24"/><rect class="c" x="345.21" y="608.77" width="25.74" height="186.24"/><rect class="c" x="382.39" y="608.77" width="25.74" height="186.24"/><rect class="c" x="419.56" y="608.77" width="25.74" height="186.24"/></g><text class="d" transform="translate(50.55 695.26)">Lo<tspan class="e" x="26.83" y="0">r</tspan><tspan x="35.73" y="0">em ipsum dolo</tspan><tspan class="f" x="192" y="0">r</tspan><tspan x="200.91" y="0">esi sitam moni </tspan><tspan x="-1.54" y="31.39">dola</tspan><tspan class="e" x="45.35" y="31.39">r</tspan><tspan x="54.26" y="31.39">es an ameti, consec</tspan><tspan class="e" x="259.66" y="31.39">t</tspan><tspan x="268.61" y="31.39">etuer a?</tspan></text><rect class="g" width="458.37" height="608.44"/></svg>