<svg xmlns="http://www.w3.org/2000/svg" viewBox="0 0 605.05 1075.64"><defs><style>.a{fill:#00f0cb;}.b{fill:#490c6e;}</style></defs><title>reduced-motion-user-talking</title><rect class="a" width="605.05" height="1075.64"/><path class="b" d="M421.58,364.66c-9.82-.05-19.65.37-29.46-.26v-.2l-.17.12-.54-.5c.37-1.92-1-2-2.26-2.06-11.12-.81-22.43,1.85-33.38-1.9l-59,.09c-1.26,0-2.59,0-3.34,1.19-1.07,1.76-2.73,1.76-4.45,1.76-8,0-16,0-24.06,0-1.27,0-3-.52-3.51,1.2s-1.79,1.72-3.16,1.72c-8.36,0-16.72-.09-25.07,0-2.67,0-3.55-.88-3.5-3.54.13-8,.17-16,0-24-.07-3.21,1.16-4.06,4.16-4,7.45.15,14.91.06,22.37,0,1.31,0,3,.18,3-1.79s-1.77-1.7-3.05-1.86a20.8,20.8,0,0,0-2.37,0c-7.68,0-15.36-.08-23,0-2.73.05-3.85-.8-3.8-3.67.14-8.36.09-16.72,0-25.07a5.36,5.36,0,0,1,1.74-4.55l26.17-.11c1,.38,1.69-.19,1.67-1-.09-3.2,1.95-3.2,4.27-3.18,7.76.05,15.53,0,23.3,0,1.28,0,2.93.39,3.48-1.3.68-2.07,2.28-1.87,3.84-1.87,8,0,16-.05,24,0,3.37,0,6.82.5,8.67-3.32,10.55.08,21.1.39,31.65-.16,2.8,5,7.61,3.78,12,3.81,6.87,0,13.74,0,20.61,0,1.47,0,3.1-.14,3.48,1.82a44.7,44.7,0,0,1,1.18,7.28c.15,7.32,0,14.64.08,22a3.83,3.83,0,0,1-1.83,3.69l-30.51.06c-2.79-.81-4.55-3.48-8.1-3.29-8.11.44-16.26.16-24.4.13-2.2,0-4.32-.08-5.41,2.45-.47,1.08-1.63,1.09-2.66,1.09h-26q29.29.12,58.59.08c1.25,0,2.49,0,3.73,0s2.1.16,2.33,1.43c.48,2.6,2.4,2.59,4.41,2.58,8.13,0,16.27,0,24.4,0a10.83,10.83,0,0,1,4.94.89l.06,1.31c-.68,1-.68,1.71.71,1.92l27.73.2a5.63,5.63,0,0,1,.93,3.85c0,6.54.07,13.09,0,19.64C422.06,359.75,422.56,362.26,421.58,364.66Z"/><path class="b" d="M391.31,325a3.83,3.83,0,0,0,1.83-3.69c-.06-7.32.07-14.64-.08-22a44.7,44.7,0,0,0-1.18-7.28c-.38-2-2-1.82-3.48-1.82-6.87,0-13.74,0-20.61,0-4.37,0-9.18,1.2-12-3.81-.31-1.89-1.83-1.35-2.94-1.34-11,.09-22-.33-33,.25,1.11-1.68,2.81-1.61,4.53-1.6,9.6,0,19.2,0,28.8,0,1.76,0,3.65,0,3.66-2.41,0-9.14.51-18.3-.24-27.42-.32-3.87-.5-4,3.44-4.06,8.7,0,17.39-.07,26.09,0,2.45,0,3.4-.78,3.38-3.31q-.17-13.2,0-26.42c0-2.57-1-3.31-3.4-3.29-8.47.09-16.95.14-25.41,0-3.08-.06-3.85,1.18-3.8,4,.13,7.67.06,15.35,0,23,0,4.44-.43,4.91-4.86,4.82-21-.46-42,1.24-62.95.76a15.51,15.51,0,0,0-2.36.16,2.1,2.1,0,0,0-1.92,1.2c-.83,2.54-2.88,2.52-5,2.52-7.9,0-15.81,0-23.71,0-1.29,0-3-.44-3.51,1.26-.81,2.75-2.84,2.82-5.08,2.81-7.57,0-15.14.12-22.7-.05-3.19-.08-4.45.91-4.33,4.23.28,7.78-.45,15.56,0,23.36.28,4.68.07,4.72,4.67,4.7,12.35,0,24.67.15,37-1.42,6.11-.78,12.41-.21,18.62-.1,2.82,0,5.55.18,7.3-2.62-.06,2.45,1.73,2.26,3.29,2.19,10.89-.48,21.87,1.19,32.7-1.13-1.85,3.82-5.3,3.35-8.67,3.32-8-.06-16,0-24,0-1.56,0-3.16-.2-3.84,1.87-.55,1.69-2.2,1.3-3.48,1.3-7.77.05-15.54.07-23.3,0-2.32,0-4.36,0-4.27,3.18,0,.85-.67,1.42-1.67,1,1.18-4.93,1.18-4.93,6.42-4.93,7,0,14,0,21,0,1.26,0,3,.43,3-1.68s-1.77-1.68-3-1.69c-8.59,0-17.36-1.1-25.72.27-11.06,1.81-22,.56-33,1.09-5.08.25-5.2-.07-5.21-5q0-12.21,0-24.41c0-4.58.55-5.12,5-5.13,7.8,0,15.6,0,23.39,0,1.82,0,3.24-.1,3.76-2.38s2.51-2.3,4.39-2.3h23.73c1.8,0,3.53.21,4.65-1.88.71-1.33,2.41-1,3.75-1,9.26,0,18.64.88,27.77-.23,12.68-1.54,25.34-.58,38-1.77-8.89,0-17.79.07-26.69,0-3.07,0-6.31.83-9.12-1.51-.57-.47-1.95.11-2.95.06-20.06-1-40,2.21-60.07,1.46-1.58-.05-3.17.05-4.75,0-2.16-.1-4.07-.15-4.11,2.92,0,1.59-1.53,1.74-2.83,1.74-9.49,0-19,0-28.47,0-2.15,0-3-1-3-3.12,0-9.49.06-19,0-28.47,0-3.09,1.88-3.43,4.25-3.43,8.7,0,17.41-.13,26.11.07,3.42.08,4.31-1.49,4.4-4.45,0-1.26-.16-1.88-1.5-2-2.1-.27-2.74-1.76-2.71-3.66.14-10-.39-20.1.32-30.13.06-.86.09-1.18-.77-1.37-2.27-.49-2.14-2.35-2.14-4,0-7.46-.07-14.92,0-22.38,0-4.59.8-5.26,5.35-5.26q10.85,0,21.7,0c4.14,0,5.17,1.07,5.18,5.27,0,7.46,0,14.91,0,22.37,0,2,.22,3.37,2.71,3.81s3.51,2.29,3.45,5c-.15,7.77-.05,15.54-.05,23.44.46-.15.77-.2.77-.26.06-9.26,1.37-18.74-.19-27.72-1.74-10.06-.52-20-1.18-29.9-.09-1.37-.55-3.42,2.11-3.14a6.36,6.36,0,0,0-.92,3.21c0,7.8,0,15.6,0,23.4a4.4,4.4,0,0,0,1.1,3.45c1.16,1.08,1.07,2.36,1.06,3.74,0,9,0,18.08-.06,27.12,0,2.38.62,3.49,3.24,3.46q13-.17,26.1,0c2.69,0,3.56-1.11,3.53-3.66q-.12-11,0-22c.05-3.68.53-7.44-4.73-7.86-.09,0-.16-.39-.25-.59,6.15,1.17,6.15,1.17,6.16,7.38,0,8.25,0,16.49,0,24.73,0,1.26-.43,3.06,1.67,3s1.64-1.8,1.65-3.08c0-8.35,0-16.71.07-25.06,0-1.24-.82-3.18,1.65-3.3a9.14,9.14,0,0,0-.46,2c0,9.48,0,19-.08,28.43,0,2.69,1.7,2.74,3.63,2.74,8.35,0,16.7-.09,25,0,2.8,0,3.77-1,3.73-3.75-.12-8.57-.05-17.15,0-25.73a5.28,5.28,0,0,0-1.17-3.77c2.72-.5,2.27,1.52,2.28,3,0,9.15,0,18.3,0,27.45,0,1.76-.39,3.56,2.1,4.33,1.58.48,1.21,2.27,1.16,3.58-.07,1.78.58,2.19,2.39,2.17,9.71-.13,19.43,0,29.14-.12,2.61,0,4,.69,4,3.63-.12,9.83-.07,19.65-.11,29.48,0,.95-.69,2.28.89,2.4s1.21-1.35,1.22-2.26c0-7,0-14,0-21,0-5.05,1-6,5.87-6q11,0,22,0c4.09,0,4.54.47,4.55,4.42q0,12,0,24.06c0,4.22-.3,4.58-4.36,4.51-8.8-.14-17.6.48-26.39-.36-1-.09-1.2.18-1.24,1-.06,1.35.47,2.19,1.93,2.19l10.47,0c5.54,0,11.07.05,16.61,0,2.76,0,4.4,1,4.21,3.93-.16,2.58,1.26,2.92,3.39,2.9,7.11-.08,14.23,0,21.35-.07,3.16,0,4.5,1.21,4.44,4.43-.12,6.66-.09,13.33,0,20,0,3-1.44,4.52-4.24,4.56-7.12.1-14.58,1.39-21.28-.29-11.13-2.78-22.17-.67-33.2-1.56a12.52,12.52,0,0,0-2,.05,1.43,1.43,0,0,0-1.47,1.52c0,1.06.38,1.78,1.48,1.86s2.26.08,3.39.08H418.6c6.7,0,6.7,0,6.59,6.74-.25-.48-.75-1-.72-1.43.25-3.35-1.42-4.2-4.52-4.14-7.78.17-15.57.1-23.36,0-2.49,0-3.79.84-3.76,3.52.1,8.58.11,17.16.15,25.73C392.26,325.84,391.8,325.38,391.31,325Zm-93.14-81.23c4.85,0,9.71-.1,14.56,0,2.53.07,3.65-.62,3.61-3.41-.14-9.37-.1-18.74,0-28.1,0-2.39-.64-3.48-3.24-3.45-9.14.11-18.28,0-27.43,0-1.35,0-2.95-.12-3.68,1.21-1.11,2-2.82,1.87-4.65,1.87-8.92,0-17.83.08-26.75-.06-3,0-3.94,1-3.89,3.93.15,8.23,0,16.47.06,24.71,0,4.67,0,4.69,4.69,4.68,12,0,24,.45,35.92-1.39C290.88,243.3,294.56,243.76,298.17,243.76Zm38.1,1.47c4.63,0,9.26-.08,13.88,0,2.44.06,3.46-.8,3.44-3.32q-.13-13.89,0-27.78c0-2.45-.82-3.41-3.34-3.38-9.26.1-18.52.08-27.78,0-2.29,0-3.24.75-3.22,3.12.07,9.37.09,18.75,0,28.12,0,2.6,1.12,3.3,3.49,3.24C327.23,245.15,331.75,245.23,336.27,245.23ZM391,269.77c0-4.51-.07-9,0-13.54.05-2.34-.64-3.55-3.24-3.53q-13.54.13-27.08,0c-2.92,0-3.64,1.42-3.62,4,.08,8,0,16,.06,24,0,1.12.29,2.23.39,3.35.18,1.8,1.14,2.43,2.94,2.42,9.13-.06,18.27-.08,27.41,0,2.36,0,3.19-.91,3.14-3.21C390.91,278.79,391,274.28,391,269.77ZM259.17,175.58c-4.29,0-8.57.08-12.86,0-2.37-.07-3.16.89-3.13,3.19.08,8.46.1,16.92,0,25.38,0,2.66,1,3.58,3.6,3.55q12.51-.14,25,0c2.41,0,3.47-.75,3.44-3.3q-.15-12.85,0-25.72c0-2.41-.94-3.15-3.21-3.09C267.74,175.65,263.46,175.57,259.17,175.58Zm-15,58.58c0-4.28-.09-8.57,0-12.85.07-2.46-.94-3.53-3.36-3.52q-12.68,0-25.37,0c-2.08,0-3.14.93-3.14,3.06q0,12.85,0,25.71c0,2.21.9,3.25,3.26,3.23,8.45-.08,16.91-.1,25.37,0,2.61,0,3.3-1.1,3.23-3.47C244.09,242.28,244.18,238.22,244.19,234.16Zm165.07,55.75c4.06,0,8.13-.06,12.19,0,2.21.05,3.32-.62,3.29-3.06q-.14-12.36,0-24.71c0-2.24-1-3-3.06-3q-12.18.07-24.37,0c-2.23,0-2.94.92-2.92,3.05q.11,12.35,0,24.71c0,2.19.88,3,3,3C401.36,289.85,405.31,289.91,409.26,289.91Zm0-36.71c3.72,0,7.44-.08,11.16,0,2.55.08,3.69-.87,3.66-3.53-.09-7.44-.07-14.88,0-22.32,0-2.38-.91-3.62-3.34-3.62q-11.49,0-23,0c-2.19,0-3.26,1-3.24,3.29q.12,11.5,0,23c0,2.36,1,3.21,3.25,3.17C401.62,253.14,405.46,253.2,409.29,253.2Zm-140.1-94.34c0-3.61-.09-7.23,0-10.83.09-2.56-.76-3.7-3.48-3.66-7.22.12-14.44.1-21.66,0-2.67,0-3.55,1.12-3.51,3.69.1,7.22.11,14.44,0,21.66,0,2.75,1,3.9,3.74,3.87q10.83-.1,21.67,0c2.37,0,3.25-1,3.23-3.25C269.16,166.53,269.19,162.7,269.19,158.86Zm171.6,132.51c3.38,0,6.77,0,10.15,0,2,0,2.86-.77,2.84-2.8q-.07-10.14,0-20.29c0-1.87-.78-2.63-2.63-2.62q-10.32.06-20.64,0c-1.83,0-2.68.7-2.67,2.59q.06,10.14,0,20.29c0,2,.81,2.87,2.82,2.83C434,291.33,437.41,291.37,440.79,291.37ZM392.62,288H360.06C363.29,289.46,389.68,289.31,392.62,288ZM278.1,209.79c.91-.18,2.34.26,2.2-1.24A2.36,2.36,0,0,0,278,206.5a2.13,2.13,0,0,0-2.1,2.16C275.83,210.29,277.32,209.53,278.1,209.79Z"/><path class="b" d="M392,366.14c.7,5.63,5,4.41,8.56,4.43,6.31,0,12.63.08,18.94,0,2.57,0,3.62.81,3.57,3.52-.15,7.33-.12,14.66,0,22,0,2.6-.92,3.66-3.55,3.63-7.56-.1-15.34,1.11-22.62-.31-10.66-2.07-21.34.22-31.75-1.47-12.58-2-25.13-.35-37.64-1.35-1.07-1.12-.78-2.53-.78-3.86,0-7.79.23-15.58-.1-23.36-.2-4.49,1.49-5.57,5.76-5.6,7.45,0,14.9-.06,22.35,0,2.38,0,5.26-1.18,6.66,2.17.13.31,1,.45,1.54.45Q377.45,366.28,392,366.14Z"/><path class="b" d="M307.8,171.74c.09.2.16.58.25.59,5.26.42,4.78,4.18,4.73,7.86q-.13,11,0,22c0,2.55-.84,3.69-3.53,3.66q-13-.13-26.1,0c-2.62,0-3.26-1.08-3.24-3.46.09-9,0-18.08.06-27.12,0-1.38.1-2.66-1.06-3.74a4.4,4.4,0,0,1-1.1-3.45c0-7.8,0-15.6,0-23.4a6.36,6.36,0,0,1,.92-3.21l27.91,0a17.93,17.93,0,0,1,.62,3.27c0,8.31,0,16.62,0,24.92,0,.74-.5,1.6.61,2Z"/><path class="b" d="M393,325.66c0-8.57-.05-17.15-.15-25.73,0-2.68,1.27-3.54,3.76-3.52,7.79.06,15.58.13,23.36,0,3.1-.06,4.77.79,4.52,4.14,0,.46.47.95.72,1.43,7.18.75,14.38.17,21.57.31,5.68.1,5.69,0,5.7,5.77,0,6.09-.1,12.19,0,18.28.05,2.53-.9,3.36-3.36,3.32-6.88-.1-14,1-20.6-.27-11-2.13-21.92-.57-32.85-1.32C394.18,327.93,392.56,328,393,325.66Z"/><path class="b" d="M349.68,175.35a5.28,5.28,0,0,1,1.17,3.77c0,8.58-.09,17.16,0,25.73,0,2.77-.93,3.79-3.73,3.75-8.35-.13-16.7-.06-25,0-1.93,0-3.65-.05-3.63-2.74.06-9.47,0-18.95.08-28.43a9.14,9.14,0,0,1,.46-2Z"/><path class="b" d="M317.87,157.78c0-3.84.09-7.68,0-11.52-.08-2.44.78-3.48,3.31-3.46q12,.13,24.05,0c2.54,0,3.3,1.1,3.26,3.52q-.15,11.68,0,23.38c0,2.68-1.05,3.58-3.62,3.55-7.8-.09-15.59-.08-23.38,0-2.58,0-3.7-.95-3.61-3.61C318,165.69,317.87,161.74,317.87,157.78Z"/><path class="b" d="M293.46,417.85c0,3.95,0,7.91,0,11.86,0,2.3-1,3.25-3.26,3.24-7.79-.06-15.58,0-23.38,0-2.26,0-3.32-1-3.31-3.29,0-7.79,0-15.59,0-23.38,0-2.49,1.2-3.4,3.56-3.39,7.68,0,15.36.06,23.05,0,2.48,0,3.44,1,3.39,3.47-.1,3.83,0,7.68,0,11.52Z"/><path class="b" d="M360.39,181.49h27.2a5.56,5.56,0,0,1,1.25,3.75c0,7.89-.07,15.78,0,23.66,0,2.71-1.18,3.53-3.69,3.51q-11.67-.12-23.33,0c-2.67,0-3.84-.95-3.79-3.79.14-7.54.11-15.1,0-22.65A4.67,4.67,0,0,1,360.39,181.49Z"/><path class="b" d="M186.45,278c0-3.73.09-7.47,0-11.19-.08-2.41.69-3.48,3.28-3.44,7.68.11,15.37.09,23.05,0,2.41,0,3.5.7,3.46,3.28-.11,7.91-.08,15.82,0,23.74,0,2.12-.75,3.09-3,3.08q-12-.09-24.07,0c-2.12,0-2.75-1-2.72-2.92C186.49,286.32,186.45,282.14,186.45,278Z"/><path class="b" d="M192.31,225.41c3.84,0,7.67.07,11.5,0,2.24-.06,3.32.63,3.29,3.06-.09,7.78-.06,15.56,0,23.34,0,2.17-.88,3-3.05,2.94q-11.5-.12-23,0c-2.23,0-3.34-.7-3.32-3.1.06-7.78.07-15.56,0-23.34,0-2.32,1.09-2.91,3.11-2.89C184.65,225.44,188.48,225.41,192.31,225.41Z"/><path class="b" d="M235.1,212.12l-28-.06a5.13,5.13,0,0,1-.34-1.29q-.06-13.31-.07-26.61a3.87,3.87,0,0,1,1.08-2.74h27.31a6.94,6.94,0,0,1,.66,3.59q0,11.92,0,23.85A6.06,6.06,0,0,1,235.1,212.12Z"/><path class="b" d="M381.3,402.61c3.84,0,7.68.05,11.52,0,2.17,0,3,.84,2.95,3q-.13,11.17,0,22.36c0,2.31-.95,3.35-3.18,3.36H369.89c-2.31,0-3.13-1.27-3.12-3.46,0-7.46.06-14.91,0-22.37,0-2.24.91-3,3-2.93C373.62,402.67,377.46,402.61,381.3,402.61Z"/><path class="b" d="M196.21,334.07a7.67,7.67,0,0,1-.77-4.26c0-7,.1-14-.05-21-.07-3,.85-4.32,4-4.26,7.22.14,14.44.1,21.66,0,2.61,0,3.61,1,3.57,3.6-.12,6.88-.21,13.77,0,20.64.11,3.32-.42,5.5-4.26,5.38H205.48a3.88,3.88,0,0,0-3.42,0Z"/><path class="b" d="M360.78,401.1l1.72.21c.84,7.09.24,14.2.35,21.3s0,7.2-7.12,7.82a169.88,169.88,0,0,1-18.61.12c-1.61,0-3.6,0-3.55-2.58.17-8.91-.48-17.83.36-26.73l9.2-.13A86,86,0,0,0,360.78,401.1Z"/><path class="b" d="M423.68,202.62c0,3.73,0,7.46,0,11.19,0,2-.77,2.88-2.81,2.86-7.46-.06-14.92,0-22.38,0-2,0-2.84-.88-2.83-2.88q.07-11.19,0-22.38c0-2.15,1-3.1,3.07-3.1,7.34,0,14.69,0,22,0,2.27,0,2.93,1.16,2.9,3.18,0,3.73,0,7.46,0,11.19Z"/><path class="b" d="M374.33,147.56c3.72,0,7.45.07,11.17,0,2.18-.05,3,.81,3,3-.08,7.45-.07,14.89,0,22.33,0,1.86-.63,2.67-2.54,2.66q-11.51-.07-23,0c-2,0-2.5-1-2.49-2.73,0-7.44.07-14.89,0-22.33,0-2.28,1-2.95,3.09-2.91,3.61.07,7.22,0,10.83,0Z"/><path class="b" d="M241.42,431.84c-3.49,0-7-.08-10.48,0-2.24.06-3.25-.63-3.2-3.08.13-6.76.12-13.52,0-20.28,0-2.78,1.07-3.81,3.82-3.76,6.54.12,13.07.1,19.61,0,3,0,4.21,1.14,4.13,4.24-.17,6.42-.19,12.85,0,19.27.09,2.94-1.09,3.73-3.77,3.61C248.19,431.73,244.8,431.84,241.42,431.84Z"/><path class="b" d="M304.2,123.39c0,3.16-.11,6.33,0,9.48.11,2.47-.92,3.58-3.32,3.58-6.66,0-13.33,0-20,0-2.17,0-3-1.08-3-3.17q.06-10,0-20c0-2.37,1-3.46,3.47-3.42q9.65.13,19.3,0c2.66,0,3.6,1.13,3.49,3.7C304.1,116.84,304.2,120.12,304.2,123.39Z"/><path class="b" d="M220.79,389.69c0,3.26,0,6.53,0,9.8.05,2.25-.8,3.25-3.18,3.21-6.54-.11-13.08-.09-19.61,0-2.49,0-3.4-1-3.37-3.44q.12-10,0-19.95c0-2.39,1.07-3.21,3.27-3.19,6.65,0,13.3.06,19.95,0,2.22,0,3,1,3,3.09C220.74,382.7,220.78,386.19,220.79,389.69Z"/><path class="b" d="M412.84,431.84c-3.38,0-6.76-.07-10.14,0-2.05.06-2.79-.78-2.77-2.8q.12-9.81,0-19.61c0-2.5.81-3.64,3.55-3.57,6.31.17,12.63.12,18.94,0,2.57,0,3.71.87,3.68,3.51q-.12,9.81,0,19.61c0,2.08-.87,2.84-2.82,2.82C419.83,431.81,416.34,431.83,412.84,431.84Z"/><path class="b" d="M172.19,189.31l.73-.23c8.14.32,16.28.4,24.42-.05l1.2.37q0,13-.08,26.06l-.11.1-25.9.08-.13-.12Q172.26,202.43,172.19,189.31Z"/><path class="b" d="M429,242.09c0-3.15,0-6.31,0-9.47,0-2.07.67-3.16,2.91-3.14q10,.08,20,0c2.35,0,3.14,1.1,3.12,3.34-.07,6.42-.09,12.85,0,19.27,0,2.3-.85,3.29-3.17,3.27q-10-.09-19.95,0c-2.28,0-2.93-1.06-2.88-3.12C429,248.86,429,245.47,429,242.09Z"/><path class="b" d="M320.93,122c0-3.16.06-6.33,0-9.49-.06-2,.74-2.84,2.77-2.82q10,.07,20,0c2.11,0,3.08.85,3.07,3q-.08,9.66,0,19.31c0,2.25-1,3.32-3.27,3.31-6.55,0-13.1-.06-19.64,0-2.28,0-2.93-1.15-2.91-3.17C321,128.77,320.93,125.38,320.93,122Z"/><path class="b" d="M316.05,465.37c-3.39,0-6.78,0-10.16,0-2,0-2.82-.85-2.8-2.87.07-6.67.06-13.33,0-20,0-2.17.94-3.07,3-3.07q10.17,0,20.33-.1c1.91,0,2.65.93,2.66,2.69,0,6.89,0,13.78,0,20.67,0,2.11-1,2.74-2.94,2.69C322.83,465.32,319.44,465.37,316.05,465.37Z"/><path class="b" d="M363.74,452.43c0,3.39-.05,6.78,0,10.17,0,1.86-.76,2.7-2.6,2.7H340.47c-1.63,0-2.46-.76-2.45-2.5,0-6.78,0-13.56,0-20.33,0-2,1-2.86,3-2.85q10,0,20,0c2,0,2.8,1,2.78,3C363.71,445.88,363.74,449.16,363.74,452.43Z"/><path class="b" d="M266.31,126.23c0,3.17-.06,6.33,0,9.49.05,2.09-.66,3.1-2.92,3.08q-9.66-.13-19.31,0c-2.27,0-3-1-2.95-3.05.06-6.33,0-12.65,0-19,0-2.5.92-3.7,3.62-3.64,6,.12,12,.1,18,0,2.6,0,3.7,1,3.6,3.61C266.22,119.9,266.31,123.07,266.31,126.23Z"/><path class="b" d="M267.34,452.12c0-3.27,0-6.54,0-9.81,0-1.94.83-2.87,2.86-2.86q9.63.07,19.27,0c2.25,0,2.94,1.08,2.93,3.13q-.06,9.46,0,18.93c0,2.36-.93,3.48-3.44,3.44-6.19-.09-12.39-.07-18.59,0-2.18,0-3.07-.93-3.05-3C267.37,458.65,267.34,455.38,267.34,452.12Z"/><path class="b" d="M412,153.74c3,0,6.09,0,9.14,0,2.35-.06,3.53.76,3.48,3.34-.11,6-.1,12,0,17.93,0,2.42-.82,3.55-3.32,3.52q-9.3-.09-18.62,0c-2.52,0-3.35-1.16-3.32-3.53q.11-9,0-17.94c0-2.55,1.13-3.4,3.51-3.32,3,.09,6.09,0,9.14,0Z"/><path class="b" d="M166.64,297.55c-3.28,0-6.55,0-9.83,0-1.7,0-2.46-.68-2.45-2.41,0-6.55,0-13.11,0-19.66,0-1.68.73-2.47,2.45-2.46,6.55,0,13.11,0,19.66,0,2.16,0,2.66,1.19,2.65,3,0,6.32,0,12.65,0,19,0,2-.93,2.57-2.69,2.55C173.19,297.53,169.91,297.55,166.64,297.55Z"/><path class="b" d="M174.21,313.6c2.94,0,5.87.07,8.8,0,2.38-.07,3.49.81,3.44,3.36-.11,5.86-.1,11.72,0,17.58,0,2.59-1,3.72-3.6,3.7-5.87-.05-11.73-.07-17.59,0-2.42,0-3.55-.92-3.53-3.36q0-9.13,0-18.26c0-2.15.88-3.09,3-3C167.9,313.65,171.06,313.6,174.21,313.6Z"/><path class="b" d="M145.63,245.36c0-2.94,0-5.87,0-8.81,0-1.9.64-3,2.72-3,6.32,0,12.64,0,19,0,1.62,0,2.58.73,2.58,2.42,0,6.44,0,12.88,0,19.31,0,1.77-.95,2.38-2.55,2.39l-19,.08c-2,0-2.84-.94-2.79-2.94C145.68,251.69,145.62,248.52,145.63,245.36Z"/><path class="b" d="M384.89,441c2.93,0,5.86.06,8.79,0,2.26-.07,3.32.8,3.29,3.16-.06,5.86,0,11.72,0,17.58,0,2.28-1.13,3.26-3.35,3.25q-9-.06-17.93,0c-2.15,0-3-1-3-3.1q.07-9,0-17.93c0-2.2,1-3,3.1-2.93C378.8,441.06,381.85,441,384.89,441Z"/><path class="b" d="M179.9,176.92c-2.93,0-5.87-.07-8.8,0-1.94.06-2.93-.56-2.9-2.68.06-6.09,0-12.18,0-18.27,0-2.1.85-3.08,3-3.06,5.87.07,11.74,0,17.6,0,2,0,2.9.91,2.9,2.84,0,6.21,0,12.41,0,18.62,0,1.89-.87,2.59-2.7,2.54C186,176.86,183,176.92,179.9,176.92Z"/><path class="b" d="M442.54,218.2c-2.93,0-5.87,0-8.8,0-1.89,0-2.93-.5-2.89-2.68.09-6,.07-12,0-17.93,0-1.93.84-2.61,2.64-2.61q9.13,0,18.28,0c1.92,0,2.59.95,2.59,2.72,0,6,0,12,0,17.93,0,1.93-.88,2.6-2.69,2.56C448.63,218.16,445.59,218.2,442.54,218.2Z"/><path class="b" d="M203.94,411.5c2.94,0,5.87,0,8.81,0,1.93,0,2.87.77,2.85,2.84-.08,5.75-.07,11.51,0,17.27,0,2.08-.69,3.15-2.92,3.13q-8.81-.09-17.61,0c-2.09,0-2.81-1-2.8-2.91,0-5.87,0-11.74,0-17.61,0-2.07.94-2.8,2.9-2.76,2.93.07,5.87,0,8.8,0Z"/><path class="b" d="M227.83,128.48c0,2.71-.07,5.42,0,8.12.07,2.27-.9,3.35-3.19,3.34-5.41,0-10.82,0-16.24,0-2.39,0-3.42-1.1-3.37-3.55.1-5.42.09-10.83,0-16.25,0-2,.62-3,2.68-3q8.63,0,17.26,0c2.2,0,3,1,2.87,3.15C227.74,123.06,227.83,125.77,227.83,128.48Z"/><path class="b" d="M468.13,308.14h8.81c1.78,0,2.66.78,2.64,2.68-.05,5.53,0,11.06,0,16.59,0,1.93-1,3-2.85,3-5.64.07-11.28.06-16.93,0-2.1,0-2.94-1.23-2.92-3.3.05-5.41.07-10.83,0-16.25,0-2.06.83-2.85,2.81-2.81,2.82.05,5.64,0,8.46,0Z"/><path class="b" d="M187.09,361.78c0,2.82,0,5.65,0,8.47,0,2-.78,2.9-2.82,2.89-5.76-.05-11.53,0-17.29,0-2.14,0-3-1-3-3.1q.09-8.47,0-16.95c0-2.09,1-2.79,2.91-2.79,5.88,0,11.75,0,17.63,0,1.9,0,2.63.87,2.61,2.68,0,2.94,0,5.88,0,8.82Z"/><path class="b" d="M388,124.37c0,2.82-.07,5.63,0,8.45.06,1.93-.59,3-2.66,3-6,0-11.94,0-17.91,0-1.89,0-2.6-.82-2.59-2.65.05-5.86.06-11.71,0-17.57,0-2,.72-2.84,2.77-2.81,5.86.08,11.71.06,17.57,0,1.94,0,2.89.73,2.82,2.8C387.94,118.51,388,121.44,388,124.37Z"/><path class="b" d="M230.72,451.88c0-2.7.08-5.42,0-8.12-.1-2.24.86-3,3-2.93,5.42.09,10.84.07,16.25,0,2,0,2.89.68,2.87,2.76-.07,5.53-.06,11.06,0,16.59,0,2.14-.85,3.06-3,3-5.41-.07-10.83-.06-16.25,0-2,0-2.85-.91-2.82-2.87C230.75,457.53,230.72,454.71,230.72,451.88Z"/><path class="b" d="M470.59,291.33c-2.71,0-5.41,0-8.12,0-1.84,0-2.74-.81-2.74-2.61,0-5.53,0-11.05,0-16.58,0-1.65.69-2.52,2.42-2.51,5.63,0,11.27,0,16.91,0,1.73,0,2.4.82,2.39,2.49q-.06,8.29,0,16.58c0,1.85-.85,2.64-2.68,2.6C476,291.29,473.29,291.33,470.59,291.33Z"/><path class="b" d="M453.66,421.77c0,2.59-.05,5.19,0,7.77.07,2.24-.85,3.38-3.15,3.37q-7.77,0-15.54,0c-2.21,0-2.94-1.16-2.93-3.2q.06-7.94,0-15.88c0-2.27.92-3.23,3.26-3.18,4.95.11,9.91.12,14.86,0,2.69-.06,3.61,1.15,3.5,3.68S453.66,419.3,453.66,421.77Z"/><path class="b" d="M159.75,206.13c0,2.49-.08,5,0,7.46s-.67,3.54-3.27,3.47c-5.08-.13-10.16-.09-15.24,0-2.25,0-3.31-.81-3.27-3.18.09-5.19.07-10.38,0-15.58,0-2.16.91-3.1,3-3.09q8.13,0,16.26,0c1.71,0,2.46.82,2.46,2.49,0,2.82,0,5.64,0,8.46Z"/><path class="b" d="M417.38,442c10.53,0,10.54,0,10.51,10.39,0,2.59-.17,5.19-.12,7.78,0,2.27-.87,3.31-3.2,3.28-5-.07-9.93-.08-14.89,0-2.28,0-3.31-.81-3.28-3.15.07-5.19.08-10.38,0-15.56,0-2.09.91-2.81,2.86-2.77C412,442.05,414.68,442,417.38,442Z"/><path class="b" d="M477.15,356.79c0,2.48,0,5,0,7.44,0,2.11-.94,3.07-3.08,3-5.07,0-10.14,0-15.21,0-2.08,0-3.09-1-3.08-3.12,0-5.18,0-10.36,0-15.54,0-2,.89-2.89,2.84-2.88,5.29,0,10.59,0,15.88,0,1.85,0,2.68.82,2.66,2.65,0,2.81,0,5.63,0,8.44Z"/><path class="b" d="M444.22,181.2c-1.81,0-3.61,0-5.41,0-4.18,0-4.59-.37-4.69-4.65s0-8.34-.05-12.51c-.05-2.18,1-3.12,3-3.14,4.84,0,9.68,0,14.53,0a2.39,2.39,0,0,1,2.71,2.69c0,5,0,9.92,0,14.87,0,1.9-1,2.85-3,2.79C449,181.14,446.58,181.2,444.22,181.2Z"/><path class="b" d="M354.88,474.42h4.4c5.79,0,5.79,0,5.79,5.94,0,3.72-.07,7.44,0,11.16.06,2.27-.81,3.33-3.14,3.31-4.85-.06-9.7-.05-14.54,0-2.21,0-3.33-.75-3.27-3.16.11-4.73.13-9.47,0-14.2-.06-2.46,1.1-3.14,3.3-3.07C349.92,474.48,352.4,474.42,354.88,474.42Z"/><path class="b" d="M308.68,483.15c0-2.59,0-5.19,0-7.79,0-1.71.77-2.43,2.47-2.42,5.2,0,10.39,0,15.59,0,1.74,0,2.43.84,2.42,2.49q0,7.8,0,15.59c0,2.15-1.1,3-3.2,3-4.74-.07-9.48-.08-14.23,0-2.17,0-3.1-.9-3.06-3,0-2.6,0-5.2,0-7.8Z"/><path class="b" d="M481.76,244.24c0,10.21,0,10.21-10.15,10.21l-6.78,0c-2.17,0-3.34-.93-3.3-3.28.07-4.74.05-9.49,0-14.23,0-2.29,1-3.24,3.32-3.2,4.63.08,9.26.1,13.89,0,2.23,0,3.05,1,3,3.06C481.74,239.27,481.77,241.76,481.76,244.24Z"/><path class="b" d="M467.74,401.33c-10,0-10,0-10.05-10.09,0-2.37.06-4.74,0-7.1-.06-2.05.88-2.82,2.86-2.79,5,.06,9.93,0,14.89,0,2,0,2.81.83,2.77,2.86-.08,4.74-.11,9.48,0,14.21.06,2.31-1,3-3.05,2.91C472.7,401.27,470.22,401.32,467.74,401.33Z"/><path class="b" d="M327.34,90.34c0-2.14.07-4.28,0-6.42s.73-3.2,2.9-3.19c4.73,0,9.46.07,14.18,0,1.92,0,2.91.71,2.88,2.79-.08,4.61-.06,9.23,0,13.84,0,2.22-.8,3.3-3.19,3.24-4.5-.11-9-.07-13.5,0-2.27,0-3.33-.9-3.26-3.21S327.34,92.7,327.34,90.34Z"/><path class="b" d="M171.9,405.92c-2.48,0-5,0-7.43,0-1.71,0-2.45-.74-2.44-2.43q0-7.77,0-15.54c0-1.83.82-2.66,2.66-2.64,5.07,0,10.14,0,15.2,0,1.88,0,2.63.91,2.63,2.7,0,5.18,0,10.36,0,15.54,0,1.73-.85,2.4-2.51,2.38C177.31,405.9,174.6,405.93,171.9,405.92Z"/><path class="b" d="M281.3,492.88c-2.62-.48-6.71,1.5-8.82-.91-1.9-2.16-.55-6.07-.57-9.21-.08-9.76,0-9.76,9.8-9.77,2.48,0,5,.07,7.45,0,2-.05,2.87.76,2.84,2.8-.06,4.86-.07,9.72,0,14.58,0,2-1,2.54-2.7,2.51C286.83,492.85,284.35,492.88,281.3,492.88Z"/><path class="b" d="M294.64,103.76c-10.09,0-10.09,0-10.09-10.05s0-9.9,9.76-9.87H296c8.77,0,8.77,0,8.77,9,0,2.14,0,4.28,0,6.42,0,4.55,0,4.55-4.4,4.55Z"/><path class="b" d="M425.16,129.2c-.31,2.69,1.34,6.66-.66,8.75-2.16,2.25-6.21.76-9.42.8-9.83.11-9.83,0-9.83-9.78,0-2.37.09-4.74,0-7.1s1-3.27,3.21-3.26c4.74,0,9.47,0,14.21,0,1.92,0,2.57.92,2.53,2.72C425.11,123.81,425.16,126.29,425.16,129.2Z"/><path class="b" d="M178.88,121.72c9.71,0,9.71,0,9.71,9.73,0,9.89,0,9.89-9.78,9.89-2,0-4.06-.1-6.08,0-2.82.16-4.19-.87-4.08-3.89.15-4.16.13-8.34,0-12.5-.07-2.31.8-3.34,3.13-3.26S176.52,121.72,178.88,121.72Z"/><path class="b" d="M256.73,108c-11-.11-9.9,1.58-9.93-9.86,0-2.25,0-4.5.08-6.75a2.61,2.61,0,0,1,3-2.83q6.93.1,13.86,0c1.93,0,2.57.94,2.56,2.7q0,6.93,0,13.86c0,2.17-1,3-3.15,2.9S258.87,108,256.73,108Z"/><path class="b" d="M397.69,485.78c0,2.26,0,4.52,0,6.77,0,2-.89,2.9-2.88,2.88q-6.6,0-13.2,0c-2,0-2.9-.93-2.89-2.88,0-4.63,0-9.25,0-13.88,0-1.82.81-2.67,2.67-2.65,4.51,0,9,.05,13.54,0,1.86,0,2.7.86,2.71,2.65,0,2.37,0,4.73,0,7.1Z"/><path class="b" d="M141.91,177c-9.3,0-9.3,0-9.3-9.19,0-9.34,0-9.34,9.21-9.34,9.79,0,9.79,0,9.79,9.76,0,8.77,0,8.77-8.68,8.77Z"/><path class="b" d="M140.89,292.46c-.14,10.45,1.39,9-9.15,9.12-2,0-4.06-.07-6.08,0-2.36.12-3.21-1-3.17-3.23.08-4.05.06-8.11,0-12.16,0-1.88.52-3.1,2.58-3.13,4.38-.06,8.76-.14,13.15-.11,1.88,0,2.81,1.05,2.71,3.05S140.89,290.32,140.89,292.46Z"/><path class="b" d="M177.52,429.42a35.52,35.52,0,0,0,0,4.73c.44,3.43-1.14,4.73-4.37,4.66-3.49-.08-7-.06-10.46-.09-2.41,0-3.72-.93-3.59-3.67.19-3.82.11-7.66,0-11.49-.05-2.27.8-3.32,3.15-3.26q5.92.12,11.84,0c2.43-.06,3.55.89,3.4,3.39C177.43,425.58,177.52,427.5,177.52,429.42Z"/><path class="b" d="M131.81,251.28c0,9.25,0,9.24-9.29,9.25-10,0-8.62.5-8.67-8.71s0-9.34,9.1-9.36C131.81,242.44,131.81,242.44,131.81,251.28Z"/><path class="b" d="M369.86,90.09c0-8.94,0-9,9-9,10.55,0,9.16-1.19,9.14,9.19,0,10,1.53,8.77-8.73,8.87h-.34C369.86,99.19,369.86,99.19,369.86,90.09Z"/><path class="b" d="M136.12,323.27c9.28,0,9.33,0,9.25,9.2-.08,9.37,1.58,8.92-8.84,8.91-9.5,0-9.5,0-9.5-9.46,0-8.64,0-8.64,8.75-8.65Z"/><path class="b" d="M448.4,462.77c-11.06-.09-9.33,1.07-9.33-9.28,0-10.13-1.45-8.85,9-8.94,1.92,0,3.84.11,5.74,0,2.71-.21,3.61,1.07,3.55,3.6-.09,3.83-.1,7.66,0,11.49.06,2.33-.89,3.29-3.2,3.18C452.23,462.7,450.31,462.77,448.4,462.77Z"/><path class="b" d="M234.86,483.62c0-9.1,0-9.1,9.16-9.1,8.71,0,8.71,0,8.71,8.82,0,9.42,0,9.48-9.45,9.4s-8.31,1.56-8.43-8.44C234.85,484.07,234.85,483.85,234.86,483.62Z"/><path class="b" d="M471.75,416.58h3c5.46,0,5.46,0,5.47,5.65,0,2.93,0,5.85,0,8.78,0,2.33-.87,3.53-3.42,3.44-3.59-.13-7.2-.11-10.8,0-2.31.06-3.27-.91-3.23-3.2.07-3.71.12-7.43,0-11.14-.09-2.62.93-3.73,3.56-3.54C468.14,416.69,469.94,416.59,471.75,416.58Z"/><path class="b" d="M209.76,101.48c0-8.8,0-8.86,8.72-8.79,9.85.08,8.59-1.43,8.64,8.59,0,8.56,0,8.56-8.61,8.56h-.34C209.76,109.84,209.76,109.84,209.76,101.48Z"/><path class="b" d="M428.18,485.4c-.06,9.38,1.17,8.48-8.52,8.44s-8.42,1.14-8.42-8.47c0-9.95-1.31-8.72,8.5-8.7S428,475.31,428.18,485.4Z"/><path class="b" d="M481.91,217.55l-1.05.42-1,.18c-4,0-8.07-.12-12.1-.06-2.46,0-3.38-1-3.32-3.43.1-4.14,0-8.29,0-12.44a3.08,3.08,0,0,1,3.21-1.91c3.69.07,7.4.11,11.09,0,2.55-.09,3.35,1.11,3.3,3.47C481.91,208.36,481.94,213,481.91,217.55Z"/><path class="b" d="M128.57,368.65c0-8.72,0-8.72,8.65-8.72,8.29,0,8.29,0,8.29,8.43s0,8.54-8.51,8.53h-.33C128.57,376.89,128.57,376.89,128.57,368.65Z"/><path class="b" d="M104.34,210.23c.12-9.45-1.21-8.17,8.25-8.24s8.33-.69,8.28,8.32,1.41,7.79-7.82,7.89h-.68C104.34,218.2,104.34,218.2,104.34,210.23Z"/><path class="b" d="M489.94,322.94c.09-9.23-1.05-8,8.2-8,9,0,7.92-1,8,7.93,0,8.22,0,8.22-8.23,8.23C489.94,331.09,489.94,331.09,489.94,322.94Z"/><path class="b" d="M147.46,135.07c-.07,8.71.88,7.49-7.54,7.55-9.17.06-7.88.4-7.9-8,0-7.58-1.21-7.75,7.66-7.66C148.19,127,147.44,125.92,147.46,135.07Z"/><path class="b" d="M206.05,494.41c-8.72,0-7.25.45-7.27-7.11,0-9.76-.93-8.06,8.26-8.15,8-.08,7.22-.76,7.14,7.28C214.1,495.11,215.87,494.34,206.05,494.41Z"/><path class="b" d="M455.3,134c-.15,8.86,1.29,7.83-8,7.81-8.67,0-7.64,1.39-7.68-7.7,0-8.22,0-8.24,8.23-8.21C456.57,125.87,455.18,125.2,455.3,134Z"/><path class="b" d="M494.85,369.32c-7.71,0-7.71,0-7.71-7.68,0-7.88,0-7.88,7.85-7.88,8,0,8,0,8,8C503,369.32,503,369.32,494.85,369.32Z"/><path class="b" d="M313.08,509.44c.19-8.75-1.35-7.57,7.76-7.6,9.27,0,7.64-.78,7.75,7.65.1,7.75,0,7.75-7.61,7.75C313.06,517.24,313.06,517.24,313.08,509.44Z"/><path class="b" d="M501.12,290c-9.17-.1-7.7,1-7.72-7.68s-1.2-7.81,7.75-7.76,7.84-1.27,7.83,7.91C509,291.06,510.39,289.85,501.12,290Z"/><path class="b" d="M474.51,181.55c-8.57-.13-7.25,1.09-7.28-7.41,0-9.11-1-7.75,8-7.83,6.83-.06,6.83,0,6.81,6.93v.68C482,182.61,483,181.45,474.51,181.55Z"/><path class="b" d="M496.59,388.62c8.94.05,7.44-.68,7.51,7.58.07,7.91.9,7.56-7.39,7.53-8.77,0-7.55.67-7.73-7.58C488.79,387.19,488.52,388.75,496.59,388.62Z"/><path class="b" d="M363.74,511.29c-.12,8.42,1.28,7.42-7.58,7.43-9.15,0-7.53.95-7.62-7.7s-.5-7.4,7.42-7.39C364.77,503.63,363.66,502.55,363.74,511.29Z"/><path class="b" d="M136.26,395c7.7,0,7.7,0,7.72,7.72,0,7.33,0,7.35-7.35,7.32-8.76,0-8.06,1-8-8C128.68,394,127.31,395,136.26,395Z"/><path class="b" d="M477.92,466.88c-8.37-.05-7.34.84-7.37-7.46,0-7.94-.76-7.35,7.22-7.36,8.52,0,7.84-.55,7.82,7.91C485.58,467.69,486.15,466.84,477.92,466.88Z"/><path class="b" d="M275.57,510.49c.18-7.46-1.62-7.24,7.23-7.24,7.7,0,7.71,0,7.7,7.71,0,7.48,1,7.28-7.35,7.28C274.43,518.24,275.64,518.46,275.57,510.49Z"/><path class="b" d="M168.46,468.47c-7.58,0-7.6,0-7.57-7.43,0-7.87-1-7.24,7.25-7.25,9,0,7.76-.39,7.79,7.83C176,468.47,175.94,468.47,168.46,468.47Z"/><path class="b" d="M179.88,109.79c-8.07-.12-7,.94-7.06-7,0-8.53-1-7.86,7.72-7.84,6.55,0,6.84-1.08,6.75,6.82v.68C187.18,111,188.23,109.64,179.88,109.79Z"/><path class="b" d="M307.92,70.94c-.05,7.69.84,6.77-6.93,6.79-8,0-7.14.62-7.12-7s-1.15-7.19,7-7.17C308.73,63.57,307.87,62.59,307.92,70.94Z"/><path class="b" d="M341.87,72.3c-7.89,0-6.93.32-7-6.83s0-7.17,7.17-7.18c7.4,0,6.86-.54,6.83,7C348.87,73.16,349.76,72.23,341.87,72.3Z"/><path class="b" d="M389.09,520.4c-8.23,0-6.78.37-6.86-6.84-.08-6.91,0-6.95,7-6.9s7-1.08,6.94,6.87C396.12,521.31,397.34,520.31,389.09,520.4Z"/><path class="b" d="M421.58,364.66c1-2.4.48-4.91.5-7.37.07-6.55,0-13.1,0-19.64a5.63,5.63,0,0,0-.93-3.85c1.22-.09,2.11.52,2.07,1.68-.12,3.1,1.86,3,4,2.95,6.3-.06,12.61-.05,18.92,0,3.92,0,4.82.91,4.85,4.77q.08,9.3,0,18.59c0,3.86-.82,4.63-4.51,4.65-6.54,0-13.07-.07-19.6,0A10.07,10.07,0,0,1,421.58,364.66Zm15.27-24.56c-3.16,0-6.31.06-9.47,0-2.25-.06-3.29.85-3.27,3.18.06,6.2,0,12.39,0,18.59,0,2.4,1.09,3.49,3.49,3.48,6.19,0,12.39,0,18.59,0,2.36,0,3.17-1.07,3.15-3.3q-.09-9.46,0-18.93c0-2.14-.88-3.08-3-3C443.16,340.15,440,340.11,436.85,340.1Z"/><path class="b" d="M444.57,485.71c.16-7.36-1.36-6.76,6.87-6.78,7.23,0,7.27,0,7.23,7.07-.05,7.84.83,6.79-6.85,6.8C443.43,492.8,444.7,493.76,444.57,485.71Z"/><path class="b" d="M392.65,330.37a10.83,10.83,0,0,0-4.94-.89c-8.13,0-16.27,0-24.4,0-2,0-3.93,0-4.41-2.58-.23-1.27-1.23-1.45-2.33-1.43s-2.48,0-3.73,0q-29.29,0-58.59-.08h26c1,0,2.19,0,2.66-1.09,1.09-2.53,3.21-2.46,5.41-2.45,8.14,0,16.29.31,24.4-.13,3.55-.19,5.31,2.48,8.1,3.29-2.19,3.37.78,3.07,2.43,3.1,7.78.12,15.56.05,23.34.06a18.85,18.85,0,0,1,3.37.17C391.11,328.59,392.52,328.67,392.65,330.37Z"/><path class="b" d="M244.46,506.26c7.62,0,6.36-.39,6.42,6.55.06,6.69,0,6.69-6.83,6.67-6.68,0-6.72,0-6.68-6.57C237.42,506,236.11,506.22,244.46,506.26Z"/><path class="b" d="M110.91,171c.06,8.12.29,7-7.09,7h-3.36c-2,0-3-1-2.91-2.89.24-3.41-1.65-7.82.9-10s6.91-.53,10.48-.68c1.41-.06,2,.82,2,2.15Z"/><path class="b" d="M261.41,68.64c7,.12,6.73-1.16,6.7,6.72,0,8.08.52,6.94-7.14,7-6.42,0-6.42,0-6.42-6.39v-.34C254.58,67.83,254,68.68,261.41,68.64Z"/><path class="b" d="M501.4,424.19c6.19.12,6.59-1.27,6.5,6.37,0,.34,0,.68,0,1,0,6,0,6-6,6-7.68,0-7.23,1.05-7.21-7C494.74,423.16,494.22,424.31,501.4,424.19Z"/><path class="b" d="M231.35,161.83c0,3.5-.09,7,0,10.51.08,2.4-.71,3.51-3.28,3.47-7.34-.1-14.69-.06-22,0-2.23,0-3.36-.82-3.35-3.17.05-7.45,0-14.91,0-22.36,0-2.19,1.08-3,3.16-3q11.18,0,22.37,0c2.37,0,3.16,1.16,3.11,3.38C231.29,154.37,231.35,158.1,231.35,161.83Zm-27.41-1c0,3.38,0,6.76,0,10.14,0,2.26,1,3.28,3.27,3.27,6.42,0,12.84,0,19.26,0,2.27,0,3.28-.92,3.27-3.22q-.07-9.8,0-19.6c0-2.08-.72-3.14-2.93-3.12q-10,.08-20,0c-2.19,0-3,.93-2.94,3.06C204,154.49,203.93,157.64,203.94,160.8Z"/><path class="b" d="M228,77.26C228,83,228,83,221,83c-5.34,0-5.34,0-5.33-6.48,0-5.74.09-5.82,5.83-5.81C228,70.75,228,70.75,228,77.26Z"/><path class="b" d="M139.74,435.33c0,6.65,0,6.65-6.59,6.65-1,0-2,0-3.05,0-2.16,0-3.11-1-3-3.13,0-.45,0-.91,0-1.36.05-9.58-1-8.32,8.51-8.55,3.09-.08,4.45.93,4.14,4A23.42,23.42,0,0,0,139.74,435.33Z"/><path class="b" d="M90.58,255.65c0,6.19,0,6.19-5.63,6.19-6.46,0-6.46,0-6.45-7.15,0-5,0-5,6.71-5C90.58,249.66,90.58,249.66,90.58,255.65Z"/><path class="b" d="M379.81,68.72c-.9,0-1.8,0-2.7,0-2.11.15-3.21-.68-3-2.92,0-.33,0-.67,0-1,.27-2.63-1.26-6.23.81-7.69,2.67-1.89,6.51-.61,9.85-.6,1.2,0,1.79.78,1.81,2s.06,2.25,0,3.37C386.52,69,388,68.74,379.81,68.72Z"/><path class="b" d="M475.28,131.05c7.21,0,5.82,0,5.91,6.85.07,5.23,0,5.23-6.26,5.22-5.7,0-5.7,0-5.69-6.94C469.26,131,469.26,131,475.28,131.05Z"/><path class="b" d="M426.83,514.31c0,6.63.52,6-5.93,6-5.86,0-5.86,0-5.88-6.14s0-6.18,6-6.19C426.84,508,426.84,508,426.83,514.31Z"/><path class="b" d="M98.72,296.06c0,6.91.25,6-6,6H91.35c-4.93,0-5,0-4.93-4.86.11-8.16-1.46-7.44,7.28-7.47C99.53,289.76,98.62,289.53,98.72,296.06Z"/><path class="b" d="M96.48,341.74c-6.78-.1-6,.72-6-6.28,0-6,0-6,6.09-6a23.41,23.41,0,0,0,2.37,0c2.68-.24,4.12.75,3.79,3.64a23.4,23.4,0,0,0,0,2.37C102.59,341.86,103.63,341.76,96.48,341.74Z"/><path class="b" d="M507.67,210.07c.07,7.35-.31,6-7.06,6.06-5.08.05-5.12,0-5.1-6.16s0-6.18,7.37-6.15C507.68,203.83,507.68,203.83,507.67,210.07Z"/><path class="b" d="M490.3,491.13c0,6,0,6-5.24,6-6.37,0-6.37,0-6.37-6.59,0-5.06,0-5.06,6.1-5.07C490.29,485.47,490.29,485.47,490.3,491.13Z"/><path class="b" d="M171,486.81c5.87,0,5.89,0,5.88,5.34,0,6.06-.29,6.44-4.92,6.44-6.7,0-6.7,0-6.7-5.82S165.24,486.82,171,486.81Z"/><path class="b" d="M452.22,98.61c-.22,6-.22,6-6.14,6-5.51,0-5.59,0-5.55-5.36,0-6.67-1.09-6.44,6.25-6.44C452.43,92.79,452.43,92.78,452.22,98.61Z"/><path class="b" d="M146.8,105.58c0,5.75,0,5.75-5.8,5.75s-5.71,0-5.7-6.87c0-4.38.35-4.68,5.3-4.67C146.8,99.8,146.8,99.8,146.8,105.58Z"/><path class="b" d="M96.14,139.35c0-5.24,0-5.24,4.69-5.25,6.42,0,6.42,0,6.42,5.6,0,5.25,0,5.25-5.77,5.25C96.14,145,96.14,145,96.14,139.35Z"/><path class="b" d="M523.6,329.83c.25-6,.25-6,7.15-5.75,3.82.13,4.07.62,3.78,7.45-.15,3.56-1,3.87-7.67,3.74C522.16,335.18,523.83,331.86,523.6,329.83Z"/><path class="b" d="M206.71,510.7c5.71,0,5.71,0,5.71,5.08,0,5.54,0,5.54-6.09,5.55-5.12,0-5.13,0-5.13-5.75C201.19,510.7,201.19,510.7,206.71,510.7Z"/><path class="b" d="M532.14,294.43c-5.2,0-5.2,0-5.2-5.24s0-5.31,4.84-5.31c5.71,0,5.71,0,5.7,5.4C537.48,294.44,537.48,294.44,532.14,294.43Z"/><path class="b" d="M520.74,401c0-4.55,0-4.55,5.43-4.53,4.67,0,4.72.06,4.7,5.1s-.39,5.33-5.45,5.31C520.73,406.85,520.72,406.84,520.74,401Z"/><path class="b" d="M127.4,467.09c0-4.92,0-4.92,5-4.92,5.48,0,5.48,0,5.48,5.15s0,5.11-5.33,5.11C127.47,472.43,127.4,472.36,127.4,467.09Z"/><path class="b" d="M412.57,59.35c5.22,0,5.22,0,5.21,4.74,0,5.57,0,5.57-4.57,5.57-5.71,0-5.71,0-5.71-5.44C407.5,59.35,407.5,59.35,412.57,59.35Z"/><path class="b" d="M502.22,178.52c-4.63,0-4.63,0-4.64-5.36,0-4.92.08-5,4.8-5,5.1,0,5.13,0,5.13,5C507.5,178.53,507.5,178.53,502.22,178.52Z"/><path class="b" d="M513.77,465.93c0,5.45,0,5.45-4.85,5.45-5.37,0-5.37,0-5.37-5.31s0-5.38,5.57-5.38C513.76,460.68,513.76,460.68,513.77,465.93Z"/><path class="b" d="M529.54,361.76l.73,1.86a33.81,33.81,0,0,0-.09,8h0a1.29,1.29,0,0,0-1.21.71l-8.14.12a1,1,0,0,0-.63-.09l-.64-.66,0-8.76.72-1.15Z"/><path class="b" d="M450.41,377.08a3.28,3.28,0,0,1,.65,2.54c0,6,0,11.95,0,17.92,0,2.63-1,4-3.78,4-6.2,0-12.4,0-18.6,0-2.76,0-4.14-1.48-4.14-4.22q0-9,0-17.92c0-2.73,1.39-4.23,4.14-4.25,6.2,0,12.4,0,18.6,0,1.39,0,2.79.08,3.07,1.9-7.18-1-14.39-.28-21.59-.45-2.27-.06-2.82,1.4-2.81,3.33,0,5.53.07,11.05,0,16.57-.05,2.84,1.26,3.76,3.92,3.71,5.41-.09,10.82-.13,16.23,0,3.05.07,4.22-1.11,4.17-4.19C450.16,389.7,450.34,383.39,450.41,377.08Z"/><path class="b" d="M188.12,76c0,4.92,0,4.92-4.67,4.93-5.77,0-5.77,0-5.77-4.57,0-4.93,0-4.93,4.72-4.93C188.11,71.44,188.11,71.44,188.12,76Z"/><path class="b" d="M289,537c0,4.69,0,4.69-4.9,4.69-4.74,0-4.74,0-4.74-4.51,0-5.35,0-5.35,5.05-5.34C289,531.87,289,531.87,289,537Z"/><path class="b" d="M360.39,181.49a4.67,4.67,0,0,0-2.34,4.48c.11,7.55.14,15.11,0,22.65-.05,2.84,1.12,3.81,3.79,3.79q11.67-.1,23.33,0c2.51,0,3.73-.8,3.69-3.51-.09-7.88,0-15.77,0-23.66a5.56,5.56,0,0,0-1.25-3.75c1.94-.54,2.42.61,2.42,2.18,0,9,0,18,0,27.07,0,2.15-1.11,3-3.17,3q-13.2,0-26.4,0c-2.35,0-3.17-1.18-3.16-3.37q0-13.2,0-26.39C357.28,181.85,358.06,180.73,360.39,181.49Z"/><path class="b" d="M212.8,455.64v-1c-.11-9.62,1.16-8.17-8.29-8.24s-9.56,0-9.5,9.44c.07,10.36-1.32,8.82,8.67,8.9C212.8,464.81,212.8,464.75,212.8,455.64Z"/><path class="b" d="M423.82,93.86c-.07,9.73,1,8.49-8.48,8.52-8.42,0-7.81,1-7.77-7.86.05-10.45-1.16-9.58,7.46-9.54C424.92,85,423.73,83.64,423.82,93.86Zm-8.26,6.74c7.73,0,7,.63,7.06-7.17V91.74c0-4.73-.18-4.89-5-4.92h-1.69c-7.89,0-7.19-.56-7.2,7C408.73,100.61,408.74,100.61,415.56,100.6Z"/><path class="b" d="M453.77,520.21c-4.73,0-4.73,0-4.72-5.19,0-4.67,0-4.67,5-4.66,4.78,0,4.78,0,4.76,5.25C458.76,520.22,458.76,520.22,453.77,520.21Z"/><path class="b" d="M531.39,245.33c3.09-.75,4,.94,3.85,4.3-.24,4.74-.16,4.83-4.73,4.82-4.09,0-4.41-.35-4.4-4.85C526.11,245.33,526.11,245.33,531.39,245.33Z"/><path class="b" d="M340.8,42.34c0-4.4,0-4.28,4.47-4.44,3-.11,4.9.36,4.67,4.12-.29,4.55-.38,4.91-4.7,4.91S340.81,46.83,340.8,42.34Z"/><path class="b" d="M537.48,436.69c0,4.37,0,4.17-5,4.42-3.47.18-4.53-1-4.33-4.42.27-4.68.24-4.86,5-4.83C537.32,431.89,537.49,432.08,537.48,436.69Z"/><path class="b" d="M249.63,539.44c0,4.37-.28,4.65-4.58,4.62-3.82,0-4.33-.58-4.32-4.68s.06-4,4.7-4C249.64,535.4,249.64,535.4,249.63,539.44Z"/><path class="b" d="M81.35,215.26c0,6.33-.15,6.49-6,6.49-6.09,0-6.18-.09-6.17-6.71,0-5.82.17-6,6.22-6C81.14,209.06,81.35,209.28,81.35,215.26Zm-1.64-.15c0-4.3-.06-4.25-4.26-4.42-3-.13-4.91.29-4.66,4.1.29,4.61.16,4.75,4.32,4.77C79.56,219.58,79.7,219.45,79.71,215.11Z"/><path class="b" d="M501.26,253.66c-9.11,0-8.15.91-8.15-8.1s-1-8.06,8.17-8.06c8.85,0,7.93-.94,8,7.92v.33C509.25,254.71,510,253.58,501.26,253.66Zm.08-14.85c-7.13,0-6.76-.73-6.75,6.72s-.55,6.7,6.73,6.7,6.73.62,6.72-6.69S508.78,238.82,501.34,238.81Z"/><path class="b" d="M105.85,111.42c.62,3.26-1.41,3.77-4,3.81-2.85,0-3.84-1.2-3.81-4.1S99,107,102.16,107C105.55,107,106.22,108.62,105.85,111.42Z"/><path class="b" d="M422.19,537.1c3.38-.79,4.14.84,4.18,4s-1,3.84-3.9,3.81-4.39-.39-4.18-3.82C418.46,538.3,418.69,536.32,422.19,537.1Z"/><path class="b" d="M96.56,439.85c.71,3.23-.52,4.34-3.71,4.28-2.85-.05-4.34-.46-4.22-3.88.11-2.92.6-4.39,3.93-4.15C95.23,436.29,97.59,436.21,96.56,439.85Z"/><path class="b" d="M95.8,413.75c-5.6,0-5.6,0-5.59-5.91,0-5.25.31-5.54,5.88-5.53,5.37,0,5.6.26,5.59,6.15C101.68,413.75,101.68,413.75,95.8,413.75ZM99.89,408c.54-2.89-.81-3.93-3.73-4s-4.4.7-4.32,4c.07,2.8.87,4.1,3.89,4.07C98.6,412,100.44,411.43,99.89,408Z"/><path class="b" d="M529.18,215.14c-2.86.53-3.94-.57-3.89-3.6s.69-4.22,4-4.17,3.92,1.3,4,4.23C533.31,214.77,532,215.57,529.18,215.14Z"/><path class="b" d="M103.62,373.43c0,6.44-.47,7-6.42,7-6.15,0-6.88-.7-6.89-6.65,0-6.69,0-6.71,6.07-6.71C103.61,367,103.61,367,103.62,373.43Zm-1.27.09c0-5.24,0-5.24-5.44-5.24-4.72,0-4.72,0-4.72,4.91,0,5.26,0,5.26,5.07,5.26S102.35,378.46,102.35,373.52Z"/><path class="b" d="M143.47,74.64c2.73-.44,3.76.73,3.72,3.55s-1,4-4,4c-3.12,0-3.63-1.56-3.75-4.23C139.31,74.73,141,74.36,143.47,74.64Z"/><path class="b" d="M224.75,55c-2.66.27-4.22-.29-4.08-3.38.12-2.63.51-4.15,3.7-4.2s4,1.29,4.13,4.17C228.64,54.63,227.14,55.27,224.75,55Z"/><path class="b" d="M175.82,522.32c.8,3.86-1.5,3.95-4.29,4.12-3.37.2-3.75-1.42-3.87-4.22-.14-3.42,1.51-3.83,4.3-3.79S176.71,519,175.82,522.32Z"/><path class="b" d="M502.36,132.63c2.56-.43,4,.21,3.83,3.3-.12,2.63-.47,4.2-3.69,4.11-2.85-.08-4.3-.62-4.3-3.92S499.7,132.28,502.36,132.63Z"/><path class="b" d="M355.85,541.92c-4.93,0-5.23-.37-5.21-6.22,0-5,.33-5.25,6.22-5.23,4.89,0,5.27.44,5.26,5.89S361.81,541.94,355.85,541.92Zm.31-1.8c2.89.45,4.5-.28,4.39-3.69-.09-2.83-.51-4.53-3.91-4.28-2.66.2-4.86.11-4.84,3.88C351.82,539.32,352.93,540.69,356.16,540.12Z"/><path class="b" d="M545.65,469.92c.47,2.79-.74,3.78-3.53,3.73s-3.76-.87-3.86-3.68c-.12-3.25,1.53-3.58,4.13-3.65S546.07,467.36,545.65,469.92Z"/><path class="b" d="M207.74,181.42a3.87,3.87,0,0,0-1.08,2.74q0,13.31.07,26.61a5.13,5.13,0,0,0,.34,1.29c-2,.21-2.19-1.17-2.19-2.6q0-12.72,0-25.43C204.88,182.14,205.54,180.93,207.74,181.42Z"/><path class="b" d="M235.1,212.12a6.06,6.06,0,0,0,.62-3.25q0-11.93,0-23.85a6.94,6.94,0,0,0-.66-3.59c2-.44,2.34.76,2.35,2.3v26C237.4,211.29,237.08,212.52,235.1,212.12Z"/><path class="b" d="M385.12,535.86c2.42-.83,4.92-.43,7.39-.47,2.47,5.62.93,8.37-4.42,8-2-.11-2.9-.84-2.85-2.85C385.27,539,385.16,537.43,385.12,535.86Z"/><path class="b" d="M473.59,97.06c5,0,5.12.12,5.13,4.72s-.69,5.34-5.21,5.36c-4.34,0-4.89-.58-4.9-5.22S468.73,97.06,473.59,97.06Zm.06,7.85c2.3.39,3.41-.59,3.35-3.15-.05-2.25-.59-3.67-3.21-3.66-2.39,0-3.52.9-3.54,3.37S470.85,105.25,473.65,104.91Z"/><path class="b" d="M327.57,534.8c0,5.79,0,5.79-5.71,5.79s-5.85,0-5.85-6.32c0-5.24,0-5.24,6.62-5.23C327.57,529.05,327.57,529.05,327.57,534.8Zm-1.16,0c0-3.83-.72-4.57-4.52-4.59s-4.65.67-4.68,4.41c0,4.07.7,4.81,4.68,4.78C325.67,539.42,326.41,538.67,326.41,534.84Z"/><path class="b" d="M413.81,37.43c.14,2.57-1.16,3.42-3.52,3.43s-3.44-1.06-3.4-3.47c.05-2.59,1.59-3.25,3.76-3.2S414.12,35.11,413.81,37.43Z"/><path class="b" d="M43.7,253c2.4-.11,4,.09,4,3,0,2.67-.89,3.7-3.53,3.55-2-.11-3.79,0-3.75-3C40.5,253.93,41.24,252.57,43.7,253Z"/><path class="b" d="M380.87,42.81c-3.89,0-5.14-1.24-5.06-5s1.3-4.6,5.43-4.57,4.54.53,4.54,4.78S385.29,42.83,380.87,42.81ZM380.4,41c2,.13,3.69,0,3.71-2.66,0-2.12-.49-3.45-3-3.38-1.93.06-3.6.06-3.56,2.73C377.61,39.79,377.91,41.35,380.4,41Z"/><path class="b" d="M455.7,546.6c-2.91.45-4.15-.86-4-4,.16-3.45,1.06-4.58,4.25-4.6,3,0,4.33,1.5,4.39,4.65S458.69,546.83,455.7,546.6Zm2.37-4.13c0-1.57-.83-2.17-2.31-2.16s-2.26.73-2.19,2.27a2.08,2.08,0,0,0,2.36,2.2C457.5,544.79,458.12,544,458.07,542.47Z"/><path class="b" d="M515.65,492.83l.86,0c1.35.73,2.8.43,4.22.45h0c0,1.69.11,3.37.13,5.06,0,1.1-.26,2.13-1.57,2.16-2.07,0-4.33.74-6-1.27,0-1.33,0-2.67,0-4A5.72,5.72,0,0,1,515.65,492.83Z"/><path class="b" d="M558.3,340.43c-3.3.57-4.29-1-4.26-4.17,0-3,1.19-4.38,4.13-4.37,3.51,0,4.44,1.09,4.63,4.58S561.38,340.89,558.3,340.43Zm.29-1.72a2,2,0,0,0,2.26-2.32c0-1.76-1.09-2.29-2.67-2.27s-2.28.72-2.23,2.27C556,338.12,557,338.77,558.59,338.71Z"/><path class="b" d="M71.65,181.6l-6.32,0a25.3,25.3,0,0,1-.42-3c-.15-4.44.45-5,4.09-5.16,4-.15,3,2.69,3.14,4.89A6.46,6.46,0,0,1,71.65,181.6Z"/><path class="b" d="M259.66,50.55c0-5,0-5,5-5,4.77,0,5.12.37,5.1,5.22,0,4.29-.83,5-5.55,5C259.8,55.78,259.65,55.61,259.66,50.55Zm4.68,3.91c2.83.53,3.82-.71,3.76-3.51-.05-2.41-.52-3.8-3.36-3.73-2.51.06-4.07.46-4,3.5C260.85,53.25,261.26,55,264.34,54.46Z"/><path class="b" d="M71.65,181.6a6.46,6.46,0,0,0,.49-3.3c-.14-2.2.87-5-3.14-4.89-3.64.13-4.24.72-4.09,5.16a25.3,25.3,0,0,0,.42,3c-1.45.15-2.09-.64-2.14-1.95-.06-1.67-.08-3.36,0-5A2.73,2.73,0,0,1,66,171.8c1-.08,2-.06,3-.05,1.66,0,3.76-.35,4.37,1.6a10.29,10.29,0,0,1-.23,7.8C73,181.47,72.17,181.46,71.65,181.6Z"/><path class="b" d="M556.46,402.44c2.23-.32,3.22.55,3.17,2.77s-.55,3.43-3,3.34c-2.06-.07-3.4-.44-3.5-2.93C553,403,554.29,402.28,556.46,402.44Z"/><path class="b" d="M55.3,371.78c2.25-.1,2.44,1.5,2.34,3.35-.11,2.09-1.14,3-3.24,2.88-2.54-.1-2.77-1.83-2.78-3.72C51.6,371.88,53.3,371.74,55.3,371.78Z"/><path class="b" d="M486.93,525c-3.74,0-4.7-1.07-4.64-4.93s1-4.65,5.34-4.58c3.4.06,4.58,1.29,4.58,4.76C492.21,523.91,491,525,486.93,525Zm-2.73-5c-.26,2.21.27,3.65,3,3.61,2.19,0,3.29-.68,3.25-3.08,0-2.17-.3-3.69-3-3.64C485.2,516.9,483.93,517.55,484.2,520Z"/><path class="b" d="M304.87,42.13c5.57,0,5.64,0,5.63,4.92s-.49,5.19-5.62,5.19-5.67-.59-5.68-5.57C299.19,42.25,299.35,42.13,304.87,42.13Zm-3.65,4.62c-.48,2.85.38,4.22,3.54,4.14,2.8-.06,4.45-.42,4.32-3.85-.12-2.84-.56-4.32-3.93-4.23C302.17,42.9,300.54,43.52,301.22,46.75Z"/><path class="b" d="M358.48,564.23c-2.33.24-2.74-1.28-2.79-3s.66-2.94,2.78-2.93,3,1.1,2.92,3.17S360.42,564.43,358.48,564.23Z"/><path class="b" d="M66.55,149.9c-3.51,0-4.71-1-4.7-4.12,0-3.51,1.1-4.48,4.62-4.6,3-.1,4.72.79,4.63,4.15C71,149.05,70.31,149.88,66.55,149.9Zm2.66-4.43c.13-1.86-.33-3.07-2.52-3.08s-3.13.65-3.13,2.89c0,2,.79,2.84,2.79,2.85S69.41,147.56,69.21,145.47Z"/><path class="b" d="M136.37,531c.13,2-.73,2.89-2.77,2.79s-2.5-1.5-2.48-3.21.88-2.64,2.71-2.6C135.9,528,136.57,529.1,136.37,531Z"/><path class="b" d="M133.74,503.9c-4.23,0-4.92-.7-4.87-4.9,0-3.5,1.06-4.46,4.76-4.44,4,0,4.68.76,4.67,4.73C138.29,503.65,138,503.91,133.74,503.9Zm-.21-1.83c2.28.34,3.42-.6,3.45-3.13,0-2.37-1-3.08-3.26-3.1s-3.59.48-3.5,3.14C130.3,501.24,131.07,502.38,133.53,502.07Z"/><path class="b" d="M188.71,50.81c.27,1.95-.74,2.77-2.75,2.61-1.64-.13-3.62.28-3.43-2.45.13-2.06.81-3.43,3.22-3.44C188,47.52,188.79,48.61,188.71,50.81Z"/><path class="b" d="M520.73,522.32c2.29-.21,3.17.77,3.24,2.93s-.83,2.85-2.81,2.75c-1.69-.08-3.15-.18-3.13-2.51C518.05,523.48,518.52,522.12,520.73,522.32Z"/><path class="b" d="M202.86,543.05c-.54-3.21,1.32-3.88,4.19-3.76,3.64.16,4.41.81,4.4,4.35s-.9,4.23-4.77,4.37C203,548.15,202.69,546,202.86,543.05Zm4-2.59c-2.06-.21-2.8.74-2.84,2.74,0,2.19.83,3,3,3s2.59-1.14,2.6-3S209,540.18,206.89,540.46Z"/><path class="b" d="M552.69,371.55c-.45-2.86.65-4.13,3.69-4,2.64.1,4.38.81,4.36,3.8,0,2.76-.93,4.39-4.12,4.44S552.26,374.58,552.69,371.55Zm6.24,0c.11-1.74-.92-2.29-2.53-2.24-1.37,0-2.47.4-2.51,2,0,1.91,1.1,2.53,2.81,2.53C558.24,373.91,559,373.21,558.93,371.59Z"/><path class="b" d="M50.43,299.75c-2.6.23-4.31-.72-4.22-3.93.08-3.42,1.42-4.73,5.08-4.69s4.31,1,4.23,4.87C55.46,299.26,54.77,299.8,50.43,299.75ZM54,296c.3-2.34-.8-3.14-3.08-3.13s-2.88.91-2.91,3,1,2.94,3,2.95S54.37,298.41,54,296Z"/><path class="b" d="M559.35,300.5c-2.8.08-4-1.31-3.85-4s1.43-4,4-4c2.82,0,4,1.74,4,4.41S561.82,300.66,559.35,300.5Zm2.39-3.86c.09-1.4-.78-2.08-2.24-2.17s-2.07.66-2.14,2c-.08,1.54.63,2.31,2.2,2.28C560.86,298.74,561.75,298.29,561.74,296.64Z"/><path class="b" d="M528.92,170.33c2.25-.14,4.1.12,4,3.1-.05,2.73-1.26,3.77-4,3.75s-4-.9-4-3.69C524.89,170.51,526.67,170.19,528.92,170.33Zm.25,1.1a1.79,1.79,0,0,0-1.88,2.17c.07,1.25.85,1.72,2,1.7a1.66,1.66,0,0,0,1.88-1.81A1.77,1.77,0,0,0,529.17,171.43Z"/><path class="b" d="M385.12,535.86c0,1.57.15,3.14.12,4.72-.05,2,.89,2.74,2.85,2.85,5.35.33,6.89-2.42,4.42-8,.33,0,.8-.18,1,0,2.41,2.19,1,5,1,7.5,0,1.76-1.72,2.31-3.21,2.28-2.35,0-5.4,1.17-6.69-1.62C383.47,541.15,382.82,538.25,385.12,535.86Z"/><path class="b" d="M325,562.55c-2.15.19-2.58-1.16-2.56-3s.55-2.71,2.53-2.74,2.88,1.06,2.92,2.85S327.11,562.74,325,562.55Z"/><path class="b" d="M552.05,499.76c.06,2.11-.91,3-2.88,2.93-2.16-.07-2.48-1.44-2.52-3.19-.06-2.15,1.3-2.27,2.88-2.3C551.43,497.15,552.21,498.05,552.05,499.76Z"/><path class="b" d="M481.91,217.55c0-4.6,0-9.19.1-13.78.05-2.36-.75-3.56-3.3-3.47-3.69.12-7.4.08-11.09,0a3.08,3.08,0,0,0-3.21,1.91c-1-1.7-.29-2.67,1.49-2.7,5.06-.07,10.12,0,15.18,0a2,2,0,0,1,2.25,2c0,5,0,9.9,0,14.84C483.28,217.17,482.72,217.59,481.91,217.55Z"/><path class="b" d="M565.56,440.25c.11,2-.63,3-2.71,3s-2.88-.7-2.93-2.74.79-2.83,2.79-2.8C564.55,437.74,565.87,438.09,565.56,440.25Z"/><path class="b" d="M90.91,473.46c-2.3.21-4.12-.21-4.06-3.52s2.09-3.66,4.45-3.76c2.78-.12,4.07,1.4,4.19,4.14C95.63,473.61,93.39,473.5,90.91,473.46Zm2.69-2.88c.07-1.65-.54-2.63-2.26-2.67s-2.53.63-2.61,2.31.61,2.49,2.32,2.52S93.67,472.32,93.6,470.58Z"/><path class="b" d="M53.8,410.91c.23,1.86-.75,2.57-2.54,2.54s-3.14-.17-3.12-2.45c0-2.12,1.22-2.66,3-2.68S54,408.91,53.8,410.91Z"/><path class="b" d="M170,552.28c-1.82.08-2.48-.92-2.46-2.69s1.21-2.17,2.67-2.16c1.62,0,2.78.42,2.7,2.47S171.64,552.29,170,552.28Z"/><path class="b" d="M468.79,67.72c1.1-.08,2,.76,2.08,2.79,0,1.82-.54,2.76-2.47,2.73-1.7,0-3.24-.1-3.19-2.4C465.25,69,465.89,67.78,468.79,67.72Z"/><path class="b" d="M34.51,179.87c1.21.08,2.56.23,2.66,2.29s-.92,2.5-2.61,2.54-2.76-.43-2.76-2.42C31.81,180.56,32.59,179.85,34.51,179.87Z"/><path class="b" d="M37.52,221.79c-2.52.27-3.73-.73-3.66-3.42s1.14-3.9,3.85-3.9,3.61,1.56,3.67,4.08C41.44,221.36,39.92,222,37.52,221.79Zm2.53-2.95c.05-1.5-.5-2.44-2.07-2.47a2,2,0,0,0-2.28,2.23c0,1.35.56,2.1,1.93,2.15S40.08,220.46,40.05,218.84Z"/><path class="b" d="M172.19,189.31q.06,13.11.13,26.21c-1.3,0-1.36-1-1.36-1.89,0-7.41,0-14.82,0-22.23C171,190.49,171,189.55,172.19,189.31Z"/><path class="b" d="M172.45,215.64l25.9-.08c.1,1.62-1.14,1.44-2.09,1.45q-10.78,0-21.59,0C173.71,217,172.51,217.19,172.45,215.64Z"/><path class="b" d="M249,561.88a2.21,2.21,0,0,1,2.52,2.25c.12,1.55-.45,2.71-2.16,2.77a2.18,2.18,0,0,1-2.45-2.21A2.36,2.36,0,0,1,249,561.88Z"/><path class="b" d="M54.88,339.15c-2.65.35-4.18-.29-4.16-3.51s1.77-3.79,4.46-3.88c2.94-.1,3.84,1.1,3.91,4C59.17,339,57.46,339.46,54.88,339.15Zm-.16-.72c1.76,0,3-.45,3-2.4,0-1.76-.55-3-2.65-3.09-1.94-.06-2.57.89-2.55,2.66C52.55,337.2,52.71,338.59,54.72,338.43Z"/><path class="b" d="M93.65,501.23c0,2.21-.66,3.16-2.33,3.19s-2.38-1-2.36-2.56c0-1.38.61-2.36,2.16-2.41S93.61,500.2,93.65,501.23Z"/><path class="b" d="M439,39.15c0,1.72-.53,2.9-2.27,2.85-1.49,0-2.6-.73-2.6-2.45a2.36,2.36,0,0,1,2.36-2.69C438.23,36.71,438.8,37.82,439,39.15Z"/><path class="b" d="M291,561.4c-.07,1.41-.42,2.59-2.26,2.64s-2.88-.44-2.93-2.38c0-1.64.36-2.85,2.37-2.91S290.86,559.6,291,561.4Z"/><path class="b" d="M573.49,469.93c1.67,0,2.29.85,2.21,2.52-.1,2-1.46,2-2.83,2-1.6,0-2.16-1-2.14-2.39C570.76,470.32,571.85,469.77,573.49,469.93Z"/><path class="b" d="M104.69,85.48c-1.52.07-2.27-.6-2.24-2.17,0-1.83.89-2.55,2.71-2.51s2.18,1.1,2.23,2.61C107.44,85.41,106.05,85.4,104.69,85.48Z"/><path class="b" d="M308.78,17c-.06,1.61-.62,2.59-2.42,2.55s-2-1.07-2.16-2.41c-.15-1.66.77-2.18,2.25-2.16S308.92,15.34,308.78,17Z"/><path class="b" d="M500.26,103.71c-1.56.09-2.49-.45-2.48-2.29,0-2,1.14-2.4,2.84-2.41s2.31.91,2.33,2.54C503,103.46,501.86,103.81,500.26,103.71Z"/><path class="b" d="M527.31,139.13c-1.64,0-2.94-.43-2.94-2.35s.92-3,2.83-3a2.64,2.64,0,0,1,2.94,2.88C530.2,138.59,528.94,139.1,527.31,139.13Z"/><path class="b" d="M558.23,251c2.22,0,3.75.67,3.78,3s-1.5,3-3.57,3-3.56-.68-3.56-3S556.2,250.82,558.23,251Zm2,3a1.63,1.63,0,0,0-1.89-1.83,1.68,1.68,0,0,0-1.82,1.93c0,1.27.71,1.8,1.92,1.79A1.59,1.59,0,0,0,560.26,254Z"/><path class="b" d="M557,210.3c1.91-.11,2.47,1,2.45,2.73s-.92,2.63-2.71,2.63c-2.07,0-2.7-1.13-2.68-3S555.33,210.22,557,210.3Z"/><path class="b" d="M492.34,547.5c.14,2.14-.74,3.33-3.09,3.28s-3-1.37-2.88-3.28.91-3.42,3.27-3.4S492.39,545.57,492.34,547.5Zm-2.92-1.44c-1.07,0-1.72.51-1.73,1.59s.6,1.39,1.47,1.48,1.78-.25,1.86-1.36S490.39,546.2,489.42,546.06Z"/><path class="b" d="M513.28,499.19c1.66,2,3.92,1.3,6,1.27,1.31,0,1.59-1.06,1.57-2.16,0-1.69-.09-3.37-.13-5.06,3.07,1.28,2,3.82,1.62,6s-2,3.33-4.45,3c-1.1-.17-2.24-.1-3.32-.33C513.14,501.52,512.36,500.73,513.28,499.19Z"/><path class="b" d="M227,24.47c-1.62-.09-2.54-.89-2.42-2.56a2.56,2.56,0,0,1,2.89-2.62c1.93.08,2.29,1.54,2.3,3.11C229.8,24.29,228.51,24.53,227,24.47Z"/><path class="b" d="M48.65,442.36c-.21,1.33-.67,2.36-2.08,2.32a1.87,1.87,0,0,1-1.91-1.95c-.09-1.41.59-2.09,2-2.07A1.78,1.78,0,0,1,48.65,442.36Z"/><path class="b" d="M550.94,528.7c.18-1.35.6-2.71,2.29-2.79s2.66,1.06,2.71,2.76a2.14,2.14,0,0,1-2.26,2.39A2.32,2.32,0,0,1,550.94,528.7Z"/><path class="b" d="M35.68,149.56c-.3,1.36-.89,2.68-2.4,2.86s-2.45-.94-2.61-2.47.43-2.43,2-2.54A2.62,2.62,0,0,1,35.68,149.56Z"/><path class="b" d="M360.78,401.1a86,86,0,0,1-17.65,0A44.63,44.63,0,0,1,360.78,401.1Z"/><path class="b" d="M394.64,565.06c.25,2.29-.82,3.32-3.09,3.23-1.92-.08-3.57-.36-3.63-2.88s1.12-3.17,3.28-3.16C393.15,562.26,394.92,562.38,394.64,565.06Zm-3.31-1.92c-1.4,0-1.93.82-1.92,2.13s.55,1.86,1.79,1.89,2.11-.49,2.12-1.91A1.85,1.85,0,0,0,391.33,563.14Z"/><path class="b" d="M307.81,171.73c-1.11-.39-.62-1.25-.61-2,0-8.3.07-16.61,0-24.92a17.93,17.93,0,0,0-.62-3.27c1.45-.27,1.42.85,1.41,1.67C308,152.72,308.4,162.23,307.81,171.73Z"/><path class="b" d="M380.58,9.61c-.89,0-2.21-.29-2.08-2.38a2.7,2.7,0,0,1,2.67-2.9c2-.15,2.87,1.14,3,2.87C384.43,9.28,382.92,9.53,380.58,9.61Zm2.1-2a1.26,1.26,0,0,0-1.2-1.35c-.92-.12-1.58.25-1.6,1.26,0,.83.55,1.2,1.32,1.22A1.33,1.33,0,0,0,382.68,7.61Z"/><path class="b" d="M493.09,69.48c.16-1.41.77-2.52,2.2-2.59s2.14,1.23,2.19,2.47a2.19,2.19,0,0,1-2.55,2.41C493.5,71.71,493.15,70.65,493.09,69.48Z"/><path class="b" d="M437.27,64.39c2.35-1.49,6.63-1.51,8.06,0s1.07,5.71-.48,7.62l-.46-.47c.89-6.84.44-7.31-6.31-6.68l-.32.05Z"/><path class="b" d="M444.85,72c-2.21,2.43-5,1.51-7.37.77-1.77-.55-1.72-5.54-.21-8.35.16.16.32.32.49.47-1,7-.37,7.64,6.63,6.64Z"/><path class="b" d="M5.92,259.69c-1.4,0-2.28-.6-2.37-2-.1-1.8,1.17-2,2.48-1.91,1.15,0,2.45.23,2.36,1.74S7.17,259.57,5.92,259.69Z"/><path class="b" d="M526.09,552.51c-.09,1.52-.71,2.62-2.14,2.67s-2-1.23-2.15-2.5a2,2,0,0,1,1.91-2.28C525.22,550.27,525.82,551.33,526.09,552.51Z"/><path class="b" d="M10.62,293.84c1.47.19,2.71.52,2.65,2.15-.06,1.45-1.19,1.78-2.4,1.78s-2.56-.37-2.49-2C8.44,294.31,9.67,294.1,10.62,293.84Z"/><path class="b" d="M461.53,570.84c-.41,1.59-1.66,1.68-2.94,1.61s-2.15-.79-2-2.19,1.2-1.82,2.45-1.72A2.45,2.45,0,0,1,461.53,570.84Z"/><path class="b" d="M347.6,10.48l.74.54c.07,2.91-1.61,3.4-4,2.91-.39-1.22-.76-2.43.4-3.47Z"/><path class="b" d="M583.85,501.08c-.22,1.5-1,2.28-2.3,2.07s-2.36-1-2.09-2.53a2.22,2.22,0,0,1,2.73-1.88C583.61,499,583.82,500.07,583.85,501.08Z"/><path class="b" d="M212.52,569.15c0,1.19-.79,1.49-1.75,1.49s-1.75-.43-1.71-1.56.78-1.51,1.78-1.5S212.54,568,212.52,569.15Z"/><path class="b" d="M589.39,410.24a2.05,2.05,0,0,1-2-2.35,2,2,0,0,1,2.35-2.18c1.51.1,1.72,1.21,1.64,2.41A2,2,0,0,1,589.39,410.24Z"/><path class="b" d="M198.46,215.46q0-13,.08-26.06c1,.57.84,1.53.84,2.41q0,10.66,0,21.32C199.38,214,199.53,215,198.46,215.46Z"/><path class="b" d="M13.45,336.3c-1.45,0-2.4-.47-2.47-1.91a1.67,1.67,0,0,1,1.79-2c1.24-.07,2.37.2,2.5,1.64A1.91,1.91,0,0,1,13.45,336.3Z"/><path class="b" d="M265.48,22.66c-2.89-.44-1.73-2.69-1.15-3.73,1.05-1.87,3.27-1.65,4.61-.5s1.73,2.88-.47,4c-.2-1.3.44-3.36-1.81-3.14S265.29,21.3,265.48,22.66Z"/><path class="b" d="M91.52,537.65c-1.31-.15-2.35-.44-2.45-1.7-.1-1.41.86-2,2.15-2s2.38.52,2.46,1.82C93.77,537.21,92.28,537.23,91.52,537.65Z"/><path class="b" d="M594.09,444.18c-1.42.1-2.07-.73-2.24-2-.22-1.61.92-1.83,2.12-1.87s2,.39,2,1.68S595.54,444.18,594.09,444.18Z"/><path class="b" d="M462.48,42.76c-1.26-.17-2.35-.85-2.33-2.26,0-1.19,1.22-1.52,2.25-1.54,1.21,0,2.3.45,2.36,1.82S463.9,42.73,462.48,42.76Z"/><path class="b" d="M589.83,336.64a1.93,1.93,0,0,1,2.09,2.16c0,1.3-.86,1.74-2,1.73s-2.37-.27-2.31-1.81C587.65,337.38,588.6,336.79,589.83,336.64Z"/><path class="b" d="M412,4.47a2.2,2.2,0,0,1-2.16,2.17,1.8,1.8,0,0,1-2.21-1.91,1.67,1.67,0,0,1,1.83-1.91C410.73,2.77,411.76,3,412,4.47Z"/><path class="b" d="M197.34,189c-8.14.45-16.28.37-24.42.05,3.75-1.08,7.58-.46,11.36-.46C188.63,188.63,193,188,197.34,189Z"/><path class="b" d="M68.32,118.57l-1.17.43-2.06-.07-.57-.37L64.7,115a1.55,1.55,0,0,0,.39-.28C67.67,114.75,68.61,116.15,68.32,118.57Z"/><path class="b" d="M42.88,471.59a1.86,1.86,0,0,1,1.89-2c1.49-.09,2,.77,1.95,2.09s-.74,1.79-1.95,1.72A1.77,1.77,0,0,1,42.88,471.59Z"/><path class="b" d="M587.51,300.66c.08-1.37.73-2,1.91-2,1.46-.07,2,.77,1.92,2.1a1.63,1.63,0,0,1-2,1.7A1.77,1.77,0,0,1,587.51,300.66Z"/><path class="b" d="M69,90.14c-1.27,0-1.78-.68-1.82-1.84s.44-1.93,1.69-1.93,2.17.55,2.1,2C70.93,89.53,70.15,90.06,69,90.14Z"/><path class="b" d="M326.58,588.55c-.19,1-.54,2-1.79,2a1.91,1.91,0,0,1-2.15-1.68c-.1-1.36,1-1.93,2.19-2A1.57,1.57,0,0,1,326.58,588.55Z"/><path class="b" d="M190.36,22.44c-.19,1.36-.87,2-2.05,1.95s-1.79-.75-1.72-1.93a1.73,1.73,0,0,1,2-1.77A1.66,1.66,0,0,1,190.36,22.44Z"/><path class="b" d="M555.9,173.76a1.85,1.85,0,0,1,2.05,1.8,1.67,1.67,0,0,1-1.8,2,1.74,1.74,0,0,1-2-1.8C554.08,174.53,554.6,173.78,555.9,173.76Z"/><path class="b" d="M144.61,51.07c.84-2.2,2.57-1.69,3.73-.75a3.17,3.17,0,0,1,.29,4.32c-.95,1.3-2.46,1.59-3.51-.24,1.21-.26,3,0,2.85-1.9C147.8,50.28,145.87,51.25,144.61,51.07Z"/><path class="b" d="M4,221c-.15,1.12-.57,2-1.89,1.84A2,2,0,0,1,.25,220.8c0-1.11.82-1.51,1.82-1.55C3.3,219.19,4,219.75,4,221Z"/><path class="b" d="M110.93,55.13c-.14,1.48-1,1.8-2.12,1.78a1.43,1.43,0,0,1-1.6-1.67c.08-1.09.5-2,1.79-1.92A2.24,2.24,0,0,1,110.93,55.13Z"/><path class="b" d="M605.35,473.81c-.19,1.08-.54,2-1.77,2.1a1.62,1.62,0,0,1-1.83-1.51c-.18-1.27.68-1.78,1.75-1.95A1.49,1.49,0,0,1,605.35,473.81Z"/><path class="b" d="M425.88,566.34a1.52,1.52,0,0,0,.4.32c0,1.16,0,2.32.05,3.48a2.49,2.49,0,0,0-.47.33l-2,0a2.61,2.61,0,0,0-.53-.26c0-1.23,0-2.46.05-3.69a2.09,2.09,0,0,0,.46-.26Z"/><path class="b" d="M12.62,372.21c-.36,1-.87,1.9-1.91,1.74-1.2-.18-1.57-1.25-1.45-2.32s.9-1.23,1.77-1.12A1.63,1.63,0,0,1,12.62,372.21Z"/><path class="b" d="M265.48,22.66c-.19-1.36-1.05-3.19,1.18-3.41s1.61,1.84,1.81,3.14l-1.24.37-1,0Z"/><path class="b" d="M144.61,51.07c1.26.18,3.19-.79,3.36,1.43.15,1.86-1.64,1.64-2.85,1.9a1.2,1.2,0,0,0-.45-.23c0-1,0-2.07-.08-3.1Z"/><path class="b" d="M34.28,121.68a1.57,1.57,0,0,1-1.7,1.69,1.52,1.52,0,0,1-1.77-1.57,1.43,1.43,0,0,1,1.51-1.49C33.31,120.25,34.09,120.57,34.28,121.68Z"/><path class="b" d="M524.78,102.43c-.87-.11-1.63-.42-1.56-1.42a1.66,1.66,0,0,1,1.68-1.75,1.53,1.53,0,0,1,1.73,1.64C526.6,102,525.76,102.37,524.78,102.43Z"/><path class="b" d="M530.18,371.6a33.81,33.81,0,0,1,.09-8A6.31,6.31,0,0,1,530.18,371.6Z"/><path class="b" d="M170.63,575.42A1.54,1.54,0,0,1,172,577a1.15,1.15,0,0,1-1.16,1.34c-.89.06-1.59-.3-1.59-1.29A1.59,1.59,0,0,1,170.63,575.42Z"/><path class="b" d="M344.33,13.93c2.4.49,4.08,0,4-2.91,1.33,1.7,1.35,3.42-.7,4.3C346.6,15.77,344.45,16.68,344.33,13.93Z"/><path class="b" d="M590.55,373.77c0,.84-.45,1.19-1.23,1.21s-1.38-.17-1.43-1,.46-1.43,1.42-1.41C590.11,372.58,590.57,372.92,590.55,373.77Z"/><path class="b" d="M68.32,118.57c.29-2.42-.65-3.82-3.23-3.84,1.57-1.09,3.26-1.17,4.26.5C70,116.27,70.61,118.07,68.32,118.57Z"/><path class="b" d="M423.35,566.56c0,1.23,0,2.46-.05,3.69-1.47.11-2-.77-1.91-2A1.59,1.59,0,0,1,423.35,566.56Z"/><path class="b" d="M529.54,361.76l-9.3,0A11.11,11.11,0,0,1,529.54,361.76Z"/><path class="b" d="M519.52,362.93l0,8.76A11.28,11.28,0,0,1,519.52,362.93Z"/><path class="b" d="M64.7,115l-.18,3.55C62.51,117.13,62.56,116.12,64.7,115Z"/><path class="b" d="M426.33,570.14c0-1.16,0-2.32-.05-3.48C428.36,568,428.37,568.79,426.33,570.14Z"/><path class="b" d="M202.06,334.2a3.88,3.88,0,0,1,3.42,0A2.37,2.37,0,0,1,202.06,334.2Z"/><path class="b" d="M347.6,10.48l-2.87,0C345.7,8.38,346.66,8.27,347.6,10.48Z"/><path class="b" d="M515.65,492.83a5.72,5.72,0,0,0-2.35,2.35C512.12,492.43,513.54,492.29,515.65,492.83Z"/><path class="b" d="M520.73,493.25c-1.42,0-2.87.28-4.22-.45C518,492.43,519.45,491.86,520.73,493.25Z"/><path class="b" d="M393.42,333.6c-1.39-.21-1.39-.94-.71-1.92A2.11,2.11,0,0,1,393.42,333.6Z"/><path class="b" d="M144.59,51.07c0,1,0,2.07.08,3.1C143.34,53.17,143.4,52.14,144.59,51.07Z"/><path class="b" d="M529,372.32a1.29,1.29,0,0,1,1.21-.71C530.19,372.56,529.86,372.92,529,372.32Z"/><path class="b" d="M65.09,118.93l2.06.07A1.41,1.41,0,0,1,65.09,118.93Z"/><path class="b" d="M425.88,566.34l-2.07,0A1.21,1.21,0,0,1,425.88,566.34Z"/><path class="b" d="M423.83,570.51l2,0A1.22,1.22,0,0,1,423.83,570.51Z"/><path class="b" d="M266.28,22.81l1,0Z"/><path class="b" d="M479.88,218.15l1-.18Z"/><polygon class="b" points="391.95 364.32 392.12 364.2 392.12 364.4 391.95 364.32"/><path class="b" d="M520.19,372.35a1,1,0,0,1,.63.09Z"/><path class="b" d="M319.88,285.32c11-.58,22-.16,33-.25,1.11,0,2.63-.55,2.94,1.34-10.55.55-21.1.24-31.65.16-10.83,2.32-21.81.65-32.7,1.13-1.56.07-3.35.26-3.29-2.19Z"/><path class="b" d="M319.88,285.32l-31.71.19c-1.75,2.8-4.48,2.66-7.3,2.62-6.21-.11-12.51-.68-18.62.1-12.32,1.57-24.64,1.37-37,1.42-4.6,0-4.39,0-4.67-4.7-.45-7.8.28-15.58,0-23.36-.12-3.32,1.14-4.31,4.33-4.23,7.56.17,15.13,0,22.7.05,2.24,0,4.27-.06,5.08-2.81.51-1.7,2.22-1.25,3.51-1.26,7.9,0,15.81,0,23.71,0,2.08,0,4.13,0,5-2.52a2.1,2.1,0,0,1,1.92-1.2,15.51,15.51,0,0,1,2.36-.16c21,.48,42-1.22,62.95-.76,4.43.09,4.84-.38,4.86-4.82,0-7.68.1-15.36,0-23-.05-2.84.72-4.08,3.8-4,8.46.17,16.94.12,25.41,0,2.42,0,3.43.72,3.4,3.29q-.18,13.22,0,26.42c0,2.53-.93,3.33-3.38,3.31-8.7-.1-17.39-.05-26.09,0-3.94,0-3.76.19-3.44,4.06.75,9.12.27,18.28.24,27.42,0,2.42-1.9,2.41-3.66,2.41-9.6,0-19.2,0-28.8,0C322.69,283.71,321,283.64,319.88,285.32Z"/><path class="b" d="M298.17,243.76c-3.61,0-7.29-.46-10.82.08-11.94,1.84-23.93,1.35-35.92,1.39-4.68,0-4.69,0-4.69-4.68,0-8.24.09-16.48-.06-24.71-.05-2.94.93-4,3.89-3.93,8.92.14,17.83,0,26.75.06,1.83,0,3.54.15,4.65-1.87.73-1.33,2.33-1.21,3.68-1.21,9.15,0,18.29.06,27.43,0,2.6,0,3.27,1.06,3.24,3.45-.08,9.36-.12,18.73,0,28.1,0,2.79-1.08,3.48-3.61,3.41C307.88,243.66,303,243.76,298.17,243.76Z"/><path class="b" d="M336.27,245.23c-4.52,0-9-.08-13.55,0-2.37.06-3.52-.64-3.49-3.24.1-9.37.08-18.75,0-28.12,0-2.37.93-3.14,3.22-3.12,9.26.08,18.52.1,27.78,0,2.52,0,3.36.93,3.34,3.38q-.12,13.89,0,27.78c0,2.52-1,3.38-3.44,3.32C345.53,245.15,340.9,245.23,336.27,245.23Z"/><path class="b" d="M391,269.77c0,4.51-.07,9,0,13.53.05,2.3-.78,3.23-3.14,3.21-9.14-.09-18.28-.07-27.41,0-1.8,0-2.76-.62-2.94-2.42-.1-1.12-.39-2.23-.39-3.35,0-8,0-16-.06-24,0-2.58.7-4,3.62-4q13.55.13,27.08,0c2.6,0,3.29,1.19,3.24,3.53C390.91,260.74,391,265.26,391,269.77Z"/><path class="b" d="M259.17,175.58c4.29,0,8.57.07,12.86,0,2.27-.06,3.24.68,3.21,3.09q-.15,12.85,0,25.72c0,2.55-1,3.32-3.44,3.3q-12.51-.12-25,0c-2.59,0-3.63-.89-3.6-3.55.11-8.46.09-16.92,0-25.38,0-2.3.76-3.26,3.13-3.19C250.6,175.66,254.88,175.58,259.17,175.58Z"/><path class="b" d="M244.18,234.16c0,4.06-.09,8.12,0,12.18.07,2.37-.62,3.5-3.23,3.47-8.46-.11-16.92-.09-25.37,0-2.36,0-3.27-1-3.26-3.23q0-12.85,0-25.71c0-2.13,1.06-3.06,3.14-3.06q12.69,0,25.37,0c2.42,0,3.43,1.06,3.36,3.52C244.1,225.59,244.19,229.88,244.18,234.16Z"/><path class="b" d="M409.26,289.91c-3.95,0-7.9-.06-11.85,0-2.14.05-3-.78-3-3q.09-12.36,0-24.71c0-2.13.69-3.07,2.92-3.05q12.18.1,24.37,0c2.09,0,3.08.72,3.06,3q-.11,12.36,0,24.71c0,2.44-1.08,3.11-3.29,3.06C417.39,289.85,413.32,289.91,409.26,289.91Z"/><path class="b" d="M409.29,253.2c-3.83,0-7.67-.06-11.5,0-2.25,0-3.27-.81-3.25-3.17q.12-11.51,0-23c0-2.34,1-3.29,3.24-3.29q11.49,0,23,0c2.43,0,3.36,1.24,3.34,3.62-.07,7.44-.09,14.88,0,22.32,0,2.66-1.11,3.61-3.66,3.53C416.73,253.12,413,253.2,409.29,253.2Z"/><path class="b" d="M269.19,158.86c0,3.84,0,7.67,0,11.51,0,2.22-.86,3.27-3.23,3.25q-10.83-.13-21.67,0c-2.76,0-3.78-1.12-3.74-3.87.12-7.22.11-14.44,0-21.66,0-2.57.84-3.72,3.51-3.69,7.22.09,14.44.11,21.66,0,2.72,0,3.57,1.1,3.48,3.66C269.1,151.63,269.19,155.25,269.19,158.86Z"/><path class="b" d="M440.79,291.37c-3.38,0-6.77,0-10.15,0-2,0-2.83-.83-2.82-2.83q.07-10.14,0-20.29c0-1.89.84-2.6,2.67-2.59q10.32.06,20.64,0c1.85,0,2.64.75,2.63,2.62q-.06,10.14,0,20.29c0,2-.85,2.84-2.84,2.8C447.56,291.33,444.17,291.37,440.79,291.37Z"/><path class="b" d="M392.62,288c-2.94,1.29-29.33,1.44-32.56,0Z"/><path class="b" d="M278.1,209.79c-.78-.26-2.27.5-2.17-1.13a2.13,2.13,0,0,1,2.1-2.16,2.36,2.36,0,0,1,2.27,2.05C280.44,210.05,279,209.61,278.1,209.79Z"/><path class="b" d="M309.12,396.51c-4.63,0-9.44-.81-13.86.16-9.77,2.15-19.54.64-29.29,1.11-4.58.22-4.62,0-4.62-4.41,0-7.91.07-15.83-.05-23.73,0-2.63.86-3.59,3.53-3.54,8.7.14,17.56,1.1,26.05-.21a160.89,160.89,0,0,1,19.9-1.32c4-.11,7.91.07,11.86,0,2.5-.07,3.39,1,3.37,3.44-.08,8.36-.1,16.72,0,25.08,0,2.72-1.14,3.56-3.68,3.49C317.94,396.43,313.53,396.52,309.12,396.51Z"/><path class="b" d="M258.27,369.78c0,8.23-.21,16.46-.09,24.68.05,3.22-1,4.4-4.3,4.31-7.21-.19-14.44-.15-21.65,0-2.7.05-3.86-.72-3.8-3.63.16-7.55.06-15.11,0-22.67,0-1.53,0-3.15,2.1-3.11,9.23.15,18.48-.63,27.7.45Z"/><path class="b" d="M225.6,341.67c.94,1.85.24,3.79.25,5.68.05,6.22-.08,12.43.05,18.65.06,2.58-.75,3.67-3.47,3.62q-10.5-.19-21,0c-2.52,0-3.37-.92-3.33-3.4.11-7.11.12-14.23,0-21.35,0-2.6,1.06-3.31,3.45-3.29,7.91.07,15.82,0,23.72,0Z"/><path class="b" d="M292,364.51H263.37v-.62H292Z"/><path class="b" d="M314.17,402.8c3.94,0,7.89.06,11.83,0,2.06,0,2.8.82,2.78,2.81q-.07,11.84,0,23.67c0,2-.8,2.87-2.82,2.86-8,0-16,0-24,0-2,0-2.85-.92-2.84-2.89q0-11.84,0-23.67c0-2.06.95-2.79,2.9-2.76C306.05,402.84,310.11,402.8,314.17,402.8Z"/><path class="b" d="M436.85,340.11c3.15,0,6.31,0,9.46,0,2.15,0,3.05.9,3,3q-.07,9.47,0,18.93c0,2.23-.79,3.33-3.15,3.3-6.2-.07-12.4-.05-18.59,0-2.4,0-3.5-1.08-3.49-3.48,0-6.2.06-12.39,0-18.59,0-2.33,1-3.24,3.27-3.18C430.54,340.16,433.69,340.1,436.85,340.11Z"/><path class="b" d="M203.94,160.8c0-3.16.06-6.31,0-9.46-.06-2.13.75-3.08,2.94-3.06q10,.09,20,0c2.21,0,2.95,1,2.93,3.12q-.07,9.79,0,19.6c0,2.3-1,3.24-3.27,3.22-6.42-.06-12.84,0-19.26,0-2.26,0-3.3-1-3.27-3.27C204,167.56,203.94,164.18,203.94,160.8Z"/><path class="b" d="M450.41,377.08c-.07,6.31-.25,12.62-.16,18.92.05,3.08-1.12,4.26-4.17,4.19-5.41-.14-10.82-.1-16.23,0-2.66.05-4-.87-3.92-3.71.1-5.52,0-11,0-16.57,0-1.93.54-3.39,2.81-3.33,7.2.17,14.41-.57,21.59.45Z"/><path class="b" d="M212.8,455.64c0,9.11,0,9.17-9.12,9.09-10-.08-8.6,1.46-8.67-8.9-.06-9.45,0-9.51,9.5-9.44s8.18-1.38,8.29,8.24Z"/><path class="b" d="M415.56,100.6c-6.82,0-6.83,0-6.82-6.76,0-7.59-.69-7,7.2-7h1.69c4.81,0,5,.19,5,4.92v1.69C422.59,101.23,423.29,100.56,415.56,100.6Z"/><path class="b" d="M79.71,215.11c0,4.34-.15,4.47-4.6,4.45-4.16,0-4-.16-4.32-4.77-.25-3.81,1.63-4.23,4.66-4.1C79.65,210.86,79.72,210.81,79.71,215.11Z"/><path class="b" d="M501.34,238.81c7.44,0,6.68-.5,6.7,6.73s.7,6.69-6.72,6.69-6.71.68-6.73-6.7S494.21,238.84,501.34,238.81Z"/><path class="b" d="M99.89,408c.55,3.44-1.29,4.05-4.16,4.09-3,0-3.82-1.27-3.89-4.07-.08-3.28,1.42-4,4.32-4S100.43,405.1,99.89,408Z"/><path class="b" d="M102.35,373.52c0,4.94,0,4.94-5.09,4.93s-5.07,0-5.07-5.26c0-4.92,0-4.92,4.72-4.91C102.35,368.28,102.35,368.28,102.35,373.52Z"/><path class="b" d="M356.16,540.12c-3.23.57-4.34-.8-4.36-4.09,0-3.77,2.18-3.68,4.84-3.88,3.4-.25,3.82,1.45,3.91,4.28C360.66,539.84,359.05,540.57,356.16,540.12Z"/><path class="b" d="M473.65,104.91c-2.8.34-3.42-1.12-3.4-3.44s1.15-3.36,3.54-3.37c2.62,0,3.16,1.41,3.21,3.66C477.06,104.32,476,105.3,473.65,104.91Z"/><path class="b" d="M326.41,534.84c0,3.83-.74,4.58-4.52,4.6-4,0-4.7-.71-4.68-4.78,0-3.74.77-4.43,4.68-4.41S326.42,531,326.41,534.84Z"/><path class="b" d="M380.4,41c-2.49.31-2.79-1.25-2.81-3.31,0-2.67,1.63-2.67,3.56-2.73,2.47-.07,3,1.26,3,3.38C384.09,41,382.44,41.17,380.4,41Z"/><path class="b" d="M458.07,542.47c.05,1.48-.57,2.32-2.14,2.31a2.08,2.08,0,0,1-2.36-2.2c-.07-1.54.67-2.25,2.19-2.27S458.09,540.9,458.07,542.47Z"/><path class="b" d="M558.59,338.7c-1.61.07-2.58-.58-2.64-2.31-.05-1.55.7-2.25,2.23-2.27s2.65.51,2.67,2.27A2,2,0,0,1,558.59,338.7Z"/><path class="b" d="M264.34,54.46c-3.08.55-3.49-1.21-3.57-3.74-.1-3,1.46-3.44,4-3.5,2.84-.07,3.31,1.32,3.36,3.73C268.16,53.75,267.17,55,264.34,54.46Z"/><path class="b" d="M484.2,520c-.27-2.42,1-3.07,3.19-3.11,2.73-.05,3,1.47,3,3.64,0,2.4-1.06,3-3.25,3.08C484.47,523.62,483.94,522.18,484.2,520Z"/><path class="b" d="M301.22,46.75c-.68-3.23.95-3.85,3.93-3.94,3.37-.09,3.81,1.39,3.93,4.23.13,3.43-1.52,3.79-4.32,3.85C301.6,51,300.74,49.6,301.22,46.75Z"/><path class="b" d="M69.21,145.47c.2,2.09-.95,2.67-2.86,2.66s-2.79-.85-2.79-2.85c0-2.24,1.06-2.9,3.13-2.89S69.34,143.61,69.21,145.47Z"/><path class="b" d="M133.53,502.07c-2.46.31-3.23-.83-3.31-3.09-.09-2.66,1.21-3.16,3.5-3.14s3.28.73,3.26,3.1C137,501.47,135.81,502.41,133.53,502.07Z"/><path class="b" d="M206.89,540.46c2.08-.28,2.75.77,2.75,2.74s-.43,3-2.6,3-3-.81-3-3C204.09,541.2,204.83,540.25,206.89,540.46Z"/><path class="b" d="M558.93,371.59c.07,1.62-.69,2.32-2.23,2.33-1.71,0-2.85-.62-2.81-2.53,0-1.64,1.14-2,2.51-2C558,369.3,559,369.85,558.93,371.59Z"/><path class="b" d="M54,296c.36,2.38-1,2.83-3,2.83s-3-.71-3-2.95.72-3,2.91-3S54.31,293.69,54,296Z"/><path class="b" d="M561.74,296.64c0,1.65-.88,2.1-2.18,2.12-1.57,0-2.28-.74-2.2-2.28.07-1.35.73-2.1,2.14-2S561.83,295.24,561.74,296.64Z"/><path class="b" d="M529.17,171.43a1.77,1.77,0,0,1,2,2.06,1.66,1.66,0,0,1-1.88,1.81c-1.15,0-1.93-.45-2-1.7A1.79,1.79,0,0,1,529.17,171.43Z"/><path class="b" d="M93.6,470.58c.07,1.74-1,2.19-2.55,2.16s-2.39-.9-2.32-2.52,1-2.34,2.61-2.31S93.67,468.93,93.6,470.58Z"/><path class="b" d="M40.05,218.84c0,1.62-1,2-2.42,1.91s-2-.8-1.93-2.15A2,2,0,0,1,38,216.37C39.55,216.4,40.1,217.34,40.05,218.84Z"/><path class="b" d="M54.72,338.43c-2,.16-2.17-1.23-2.19-2.83,0-1.77.61-2.72,2.55-2.66,2.1.06,2.64,1.33,2.65,3.09C57.74,338,56.48,338.45,54.72,338.43Z"/><path class="b" d="M560.26,254a1.6,1.6,0,0,1-1.79,1.9c-1.21,0-1.91-.52-1.92-1.79a1.68,1.68,0,0,1,1.82-1.93A1.63,1.63,0,0,1,560.26,254Z"/><path class="b" d="M489.42,546.06c1,.14,1.67.64,1.6,1.71s-.85,1.47-1.86,1.36-1.48-.55-1.47-1.48S488.35,546.08,489.42,546.06Z"/><path class="b" d="M391.34,563.14a1.84,1.84,0,0,1,2,2.11c0,1.42-.81,1.94-2.12,1.91s-1.77-.71-1.79-1.89S389.93,563.16,391.34,563.14Z"/><path class="b" d="M382.68,7.61a1.33,1.33,0,0,1-1.48,1.13c-.77,0-1.33-.39-1.32-1.22,0-1,.68-1.38,1.6-1.26A1.26,1.26,0,0,1,382.68,7.61Z"/><path class="b" d="M444.39,71.5c-7,1-7.62.38-6.63-6.64l.32,0C444.83,64.19,445.28,64.66,444.39,71.5Z"/></svg>