<svg xmlns="http://www.w3.org/2000/svg" xmlns:xlink="http://www.w3.org/1999/xlink" viewBox="0 0 605.05 1075.64"><defs><style>.a{fill:none;}.b{fill:#00f0cb;}.c{clip-path:url(#a);}.d{fill:#b849ff;}</style><clipPath id="a"><rect class="a" width="605.05" height="1075.64"/></clipPath></defs><title>reduced-motion-negative</title><rect class="b" width="605.05" height="1075.64"/><g class="c"><path class="d" d="M396.27,376.36c0,5.89,0,11.79,0,17.68,0,1.91.66,2.7,2.66,2.69q17.55-.09,35.1,0c2.09,0,2.8-.72,2.78-2.8q-.1-17.55,0-35.1c0-2.06-.64-2.81-2.75-2.79q-17.43.12-34.85,0c-2.17,0-3,.65-3,2.89C396.34,364.74,396.27,370.55,396.27,376.36Zm-51-89.67c0,5.8,0,11.6,0,17.41,0,1.73.62,2.37,2.37,2.36q17.15-.07,34.31,0c1.64,0,2.45-.41,2.44-2.26q-.09-17.15,0-34.31c0-1.74-.58-2.38-2.34-2.37q-17.14.08-34.31,0c-1.88,0-2.49.7-2.47,2.53C345.29,275.59,345.24,281.14,345.25,286.69Zm55.89-100.12c0,5.3.07,10.6,0,15.89,0,2,.56,2.82,2.7,2.8,10.51-.09,21-.07,31.53,0,1.83,0,2.56-.54,2.55-2.44q-.09-16.14,0-32.28c0-1.85-.7-2.5-2.55-2.49-10.51.06-21,.08-31.53,0-2.19,0-2.71.93-2.68,2.89C401.19,176.14,401.14,181.36,401.14,186.57ZM382.2,237.76c0-5.22-.05-10.43,0-15.65,0-2.08-.56-3-2.86-3q-15.27.15-30.53,0c-2.42,0-3.24.78-3.22,3.21q.15,15.27,0,30.53c0,2.41.8,3.29,3.21,3.27q15.27-.12,30.53,0c2.29,0,2.91-.9,2.88-3C382.15,248,382.21,242.89,382.2,237.76ZM448.83,434.2c0,5.05.1,10.1,0,15.14-.07,2.45.86,3.22,3.24,3.2q15-.14,30,0c2.4,0,3.24-.8,3.22-3.22q-.15-15,0-30c0-2.17-.71-3-2.88-3q-15.39.06-30.79,0c-2.24,0-2.88.93-2.83,3.06C448.91,424.27,448.83,429.24,448.83,434.2ZM322.66,285.4c0-4.37-.06-8.74,0-13.11,0-1.72-.57-2.44-2.31-2.43q-13.62,0-27.23,0c-1.75,0-2.34.69-2.33,2.41q.07,13.23,0,26.47c0,2,.73,2.88,2.82,2.86q13.11-.1,26.22,0c2,0,2.89-.71,2.85-2.82C322.6,294.31,322.67,289.85,322.66,285.4ZM358.3,391.69c4.46,0,8.92-.06,13.37,0,1.86,0,2.51-.62,2.49-2.49q-.11-13.25,0-26.5c0-2.11-.82-2.76-2.86-2.74-8.67.07-17.34.09-26,0-2.36,0-3.09.92-3.07,3.15.07,8.58.1,17.16,0,25.74,0,2.3.84,2.91,2.95,2.86C349.54,391.62,353.92,391.7,358.3,391.69ZM558,508.79c4.38,0,8.76-.05,13.14,0,1.82,0,2.75-.4,2.72-2.54-.1-8.66-.07-17.34,0-26,0-1.74-.62-2.43-2.35-2.42q-13.38.06-26.77,0c-1.86,0-2.47.73-2.46,2.57q.12,12.87,0,25.76c0,2,.66,2.68,2.6,2.64C549.23,508.73,553.61,508.79,558,508.79ZM303,314.28c-4.28,0-8.57.06-12.86,0-1.9,0-2.69.52-2.67,2.57.09,8.4.07,16.81,0,25.22,0,1.92.68,2.79,2.62,2.78q12.62,0,25.22,0c2,0,2.86-.78,2.84-2.89q-.12-12.62,0-25.22c0-1.93-.76-2.48-2.54-2.45C311.39,314.33,307.19,314.28,303,314.28Zm45.79-119.53c0,4.21.08,8.42,0,12.63-.05,1.89.65,2.49,2.49,2.48q12.63-.09,25.25,0c1.79,0,2.32-.67,2.31-2.39q-.09-12.61,0-25.25c0-1.79-.54-2.59-2.46-2.58q-12.49.1-25,0c-2,0-2.63.83-2.59,2.73C348.83,186.5,348.77,190.63,348.77,194.75Zm-24.58,47.54c0-4.2,0-8.41,0-12.61,0-1.77-.56-2.59-2.48-2.57q-12.36.1-24.72,0c-1.92,0-2.73.67-2.72,2.64q.07,12.36,0,24.72c0,1.94.75,2.73,2.68,2.72q12.36-.06,24.72,0c1.89,0,2.54-.78,2.52-2.56C324.16,250.53,324.2,246.41,324.19,242.29ZM469.88,112c-4,0-8.07,0-12.11,0-1.68,0-2.45.5-2.44,2.29q.07,12.12,0,24.23c0,1.76.76,2.38,2.44,2.37q11.87-.06,23.73,0c1.74,0,2.62-.58,2.6-2.49-.06-8-.08-16,0-24,0-1.94-.84-2.44-2.6-2.41C477.62,112.07,473.75,112,469.88,112ZM403.32,431.2c0,3.62.06,7.23,0,10.85-.05,2,.72,2.67,2.67,2.65q10.73-.1,21.44,0c1.69,0,2.48-.53,2.47-2.3q-.06-11.22,0-22.45c0-1.63-.65-2.21-2.26-2.19-7.32.05-14.63.06-21.95,0-1.74,0-2.4.62-2.36,2.35C403.37,423.8,403.32,427.5,403.32,431.2ZM315.81,380c0-3.62,0-7.24,0-10.86,0-1.68-.63-2.45-2.38-2.44-7.06,0-14.13,0-21.2,0-1.88,0-2.54.83-2.53,2.6,0,7.07,0,14.13,0,21.2,0,1.58.5,2.32,2.16,2.31q10.84-.06,21.71,0c1.79,0,2.31-.78,2.27-2.47C315.75,386.93,315.81,383.48,315.81,380Zm-6.29-166.76c3.53,0,7.06-.06,10.58,0,1.83,0,2.51-.64,2.49-2.51q-.13-10.08,0-20.17c0-1.93-.6-2.73-2.59-2.71q-10.46.09-20.92,0c-1.87,0-2.46.75-2.44,2.57.08,6.72.11,13.45,0,20.16,0,2.19.82,2.74,2.81,2.67C302.8,213.18,306.16,213.26,309.52,213.27ZM246.08,321.14c-3.28,0-6.56.08-9.84,0-1.91-.06-2.74.54-2.71,2.57.08,6.48.06,13,0,19.44,0,2,.8,2.67,2.73,2.65,6.48-.07,13-.08,19.43,0,2,0,2.67-.81,2.66-2.7q-.08-9.84,0-19.68c0-1.82-.74-2.33-2.43-2.29C252.64,321.2,249.36,321.14,246.08,321.14Zm23.56-77.39c0-3.28-.05-6.56,0-9.83,0-1.75-.45-2.61-2.41-2.58q-9.84.12-19.68,0c-1.77,0-2.36.67-2.34,2.38q.09,9.84,0,19.68c0,1.85.71,2.54,2.54,2.53,6.47-.06,13-.07,19.42,0,1.94,0,2.48-.84,2.44-2.6C269.58,250.14,269.63,247,269.64,243.75Zm-31,42.94c0,3.53.07,7.06,0,10.58,0,1.78.65,2.34,2.36,2.33q10.22-.09,20.42,0c1.67,0,2.44-.5,2.42-2.29-.07-6.89,0-13.78,0-20.67,0-1.69-.61-2.46-2.35-2.45q-10.22.06-20.42,0c-1.7,0-2.44.68-2.41,2.41C238.64,280,238.6,283.33,238.59,286.69ZM414.76,124c-2.95,0-5.89,0-8.84,0-1.75,0-2.64.51-2.62,2.45.07,6,.06,12,0,17.92,0,1.71.66,2.44,2.39,2.43q9-.06,17.92,0c1.82,0,2.56-.78,2.54-2.6q-.07-8.84,0-17.67c0-1.85-.76-2.58-2.57-2.54C420.65,124.05,417.7,124,414.76,124ZM246,393.9c2.77,0,5.55,0,8.32,0,1.62,0,2.51-.53,2.49-2.33q-.07-8.7,0-17.4c0-1.43-.62-2-2-2q-9,0-17.91,0c-1.24,0-1.84.48-1.83,1.8q0,8.82,0,17.65c0,1.62.72,2.26,2.3,2.23C240.29,393.86,243.15,393.9,246,393.9Zm13.74-199c-2.94,0-5.88,0-8.81,0-1.49,0-2.07.61-2.06,2.12.06,5.54.05,11.09,0,16.63,0,1.78.72,2.61,2.56,2.6q8.31-.08,16.62,0c1.75,0,2.39-.79,2.38-2.46,0-5.54-.07-11.08,0-16.62,0-1.85-.78-2.32-2.42-2.28C265.3,195,262.52,194.94,259.75,194.94ZM199,299.65c2.6,0,5.21-.09,7.81,0,1.89.08,2.73-.45,2.69-2.53-.12-5.37-.08-10.75,0-16.12,0-1.93-.71-2.72-2.68-2.7q-7.93.12-15.87,0c-1.89,0-2.52.77-2.5,2.56.05,5.54.07,11.08,0,16.63,0,1.68.65,2.2,2.24,2.15C193.42,299.59,196.19,299.65,199,299.65ZM363,419.76c-2.61,0-5.22,0-7.82,0-1.76,0-2.62.55-2.59,2.48.09,5.3.07,10.6,0,15.9,0,1.67.52,2.47,2.31,2.46,5.46-.06,10.93-.05,16.4,0,1.72,0,2.37-.71,2.35-2.43-.06-5.3-.07-10.6,0-15.9,0-1.92-.86-2.52-2.6-2.5C368.34,419.78,365.65,419.75,363,419.76ZM215.56,245.28c0-2.61,0-5.22,0-7.83,0-1.83-.72-2.57-2.56-2.55-5.13.06-10.27.09-15.4,0-2,0-2.47.84-2.46,2.59.05,5.22.07,10.44,0,15.65,0,1.68.65,2.2,2.25,2.18q7.82-.09,15.65,0c1.8,0,2.62-.54,2.53-2.47C215.47,250.33,215.56,247.8,215.56,245.28Zm-22.92,83.5c-2.6,0-5.21,0-7.82,0-1.56,0-2.33.54-2.32,2.2,0,5.3,0,10.6,0,15.89,0,1.72.78,2.38,2.48,2.36q7.7-.08,15.39,0c1.63,0,2.29-.69,2.28-2.25,0-5.3,0-10.6,0-15.9,0-1.77-.76-2.36-2.45-2.31C197.69,328.84,195.17,328.78,192.64,328.78ZM511.22,479.29c-2.52,0-5,.08-7.56,0-1.84-.08-2.61.65-2.59,2.47q0,7.56,0,15.12c0,1.78.68,2.59,2.54,2.56q7.44-.1,14.87,0c1.76,0,2.44-.76,2.43-2.4,0-5.13,0-10.25,0-15.38,0-1.65-.61-2.46-2.39-2.38C516.09,479.37,513.65,479.29,511.22,479.29ZM349.76,146.51h0c0,2.52,0,5,0,7.56,0,1.56.48,2.3,2.17,2.28,4.95-.07,9.91-.06,14.86,0,1.67,0,2.46-.53,2.43-2.32q-.11-7.44,0-14.87c0-1.64-.66-2.25-2.24-2.24-5,0-10.08.06-15.11,0-1.71,0-2.18.76-2.14,2.31C349.81,141.64,349.76,144.08,349.76,146.51Zm-210,144c0,2.11.06,4.21,0,6.31-.07,1.86.79,2.58,2.56,2.57,4.21,0,8.41,0,12.61,0,1.65,0,2.3-.76,2.31-2.28q0-6.69,0-13.37c0-1.56-.78-2.22-2.37-2.19q-6.31.09-12.62,0c-1.89,0-2.52.86-2.47,2.63C139.77,286.27,139.72,288.37,139.72,290.47ZM194.51,397.3c2.18,0,4.36,0,6.54,0,1.52,0,2.35-.47,2.33-2.16-.06-4.44,0-8.89,0-13.34,0-1.66-.66-2.46-2.39-2.45-4.28.05-8.56,0-12.84,0-1.77,0-2.62.7-2.6,2.54.05,4.36.07,8.73,0,13.09,0,1.8.78,2.36,2.43,2.32C190.14,397.26,192.33,397.3,194.51,397.3Zm7.54-191.43c0,2.26,0,4.53,0,6.79,0,1.48.56,2.14,2.08,2.13,4.45,0,8.9,0,13.34,0,1.46,0,2.18-.55,2.17-2.07,0-4.53,0-9.06,0-13.59,0-1.51-.61-2.1-2.11-2.09-4.44.05-8.89.06-13.34,0-1.68,0-2.21.73-2.16,2.29C202.1,201.5,202.05,203.69,202.05,205.87Zm97.59-51.26h0c0,2.27,0,4.54,0,6.8,0,1.45.52,2.2,2.05,2.19,4.37,0,8.74,0,13.11,0,1.54,0,2.3-.61,2.27-2.26q-.09-6.56,0-13.11c0-1.51-.58-2.15-2.06-2.15-4.46,0-8.91,0-13.37,0-1.37,0-2,.61-2,2C299.66,150.24,299.64,152.42,299.64,154.61Zm9.66,272.1h-6.81c-1.15,0-2,.4-2,1.73,0,4.46,0,8.91,0,13.36a1.93,1.93,0,0,0,2.21,2.14c4.37,0,8.75,0,13.12,0,1.42,0,2.18-.57,2.16-2.1,0-4.37,0-8.74,0-13.11,0-1.41-.59-2-1.94-2ZM154.56,237c-2.11,0-4.21,0-6.31,0-1.63,0-2.51.55-2.48,2.34,0,4.12,0,8.24,0,12.36,0,1.7.72,2.43,2.44,2.41,4.12-.05,8.24-.06,12.35,0,1.65,0,2.28-.69,2.27-2.25q0-6.31,0-12.61c0-1.57-.56-2.33-2.22-2.27C158.59,237.08,156.57,237,154.56,237Zm-11.1,111.46H150c1.43,0,2.14-.64,2.12-2.15,0-4.11,0-8.23,0-12.34,0-1.65-.71-2.5-2.42-2.49-4.11,0-8.23,0-12.34,0-1.62,0-2.27.73-2.26,2.29,0,4.2,0,8.4,0,12.6,0,1.48.54,2.16,2.07,2.12C139.26,348.44,141.36,348.49,143.46,348.48ZM267.28,165.23h0c0-1.93,0-3.87,0-5.8,0-1.38-.52-2-1.92-2-3.95,0-7.91,0-11.86,0-1.48,0-2.1.67-2.07,2.16,0,3.62,0,7.23,0,10.85,0,1.73.7,2.69,2.53,2.69,3.7,0,7.4,0,11.09,0a1.89,1.89,0,0,0,2.19-2.13C267.3,169.1,267.28,167.16,267.28,165.23Zm93.15,183h15.64c3.11,0,3.36-.24,3.36-3.26,0-10.6,0-21.19.05-31.79,0-2.39-.76-3.27-3.2-3.25q-15.9.14-31.79,0c-2.27,0-3.17.72-3.15,3q.11,16.15,0,32.3c0,2.13.72,3,2.94,3C349.66,348.18,355.05,348.25,360.43,348.25ZM162.64,199.1h0c-1.76,0-3.53,0-5.3,0-1.34,0-2.05.51-2,1.92,0,3.62,0,7.24,0,10.86,0,1.41.62,2.22,2.13,2.21,3.53,0,7.07,0,10.61,0a2.09,2.09,0,0,0,2.27-2.41c0-3.45,0-6.9,0-10.35a1.88,1.88,0,0,0-2.12-2.19Zm99.82,241.83c0-1.68-.06-3.37,0-5,.06-1.45-.42-2.22-2-2.2-3.61,0-7.22,0-10.83,0-1.35,0-2,.49-2,1.92,0,3.45,0,6.89,0,10.33,0,1.43.55,2.2,2.08,2.19,3.52,0,7,0,10.58,0,1.48,0,2.14-.71,2.11-2.17C262.43,444.29,262.45,442.61,262.46,440.93ZM144.15,382.32c-1.76,0-3.53,0-5.29,0-1.44,0-2.16.59-2.13,2.11,0,3.28.05,6.55,0,9.83,0,1.74.8,2.42,2.47,2.37s3.19,0,4.78,0c7.34,0,7.34,0,7.34-7.21S151.32,382.31,144.15,382.32Zm-51-94.65h0c0,1.85,0,3.7,0,5.54,0,1.28.59,1.83,1.84,1.82,3.44,0,6.89,0,10.33,0,1.29,0,1.86-.57,1.86-1.81,0-3.61,0-7.22,0-10.83a1.8,1.8,0,0,0-2.09-2c-3.27,0-6.55,0-9.82,0-1.52,0-2.13.72-2.11,2.16C93.13,284.31,93.12,286,93.12,287.67Zm11.56-39.15c7,0,7,0,7-6.93,0-6.76,0-6.76-6.74-6.76-7.1,0-7.1,0-7.1,7C97.87,248.52,97.87,248.52,104.68,248.52Zm-6,81.65c-1.59,0-3.19,0-4.78,0-1.31,0-2,.44-2,1.9.06,3.11,0,6.22,0,9.32a1.9,1.9,0,0,0,2.16,2.17c1.76,0,3.53,0,5.29,0,7,0,6.28.71,6.3-6.4S105.65,330.16,98.66,330.17ZM564.85,68.52a38.68,38.68,0,0,1,0-4c.21-2-.73-2.71-2.61-2.67-2.36.06-4.71,0-7.06,0-3.71,0-3.71,0-3.72,3.59,0,1,0,2,0,3,.13,7.15-1.15,6.71,6.79,6.7C565.94,75.13,564.75,75.68,564.85,68.52ZM219.62,169.14v-.5c-.08-7.38.85-6.39-6.47-6.38-7.57,0-6.72-1.19-6.75,6.87,0,6.64,0,6.64,6.61,6.64S219.63,175.77,219.62,169.14ZM466.46,496.27c6.56,0,6.56,0,6.56-6.63,0-6,0-6-6.21-6-6.55,0-6.55,0-6.55,6.43C460.25,496.27,460.25,496.27,466.46,496.27ZM114.27,207.58H117c3.37,0,3.37,0,3.38-3.28,0-1.09,0-2.18,0-3.27,0-6.57.71-5.88-6-5.88-6.89,0-6.43-.71-6.38,6.31C108.14,208.32,107.1,207.53,114.27,207.58Zm86,243.21c6.44,0,6.41,0,6.44-6.36,0-6.72.1-5.9-6.11-5.88-7.26,0-6.25-.9-6.31,6.27C194.2,450.8,194.24,450.8,200.23,450.79ZM57.57,282.07c-5.92,0-5.89,0-5.93,5.25-.08,7.78.25,6.34,6.38,6.38,5.68,0,5.66.73,5.58-5.59C63.51,281.43,64.67,282.14,57.57,282.07Zm.28-35.21c6.38,0,5.74.6,5.78-5.88v-.25c0-5.43,0-5.43-5.58-5.44-5.84,0-5.86,0-5.83,5.88C52.26,247.48,51.43,246.82,57.85,246.86ZM91.72,387.13c.11,6.65-.88,5.62,5.73,5.73h.25c6.77,0,5.49.37,5.57-5.67.08-5.83,0-5.83-5.88-5.83C91.72,381.36,91.72,381.36,91.72,387.13Zm77.22-226.57c-6.41.07-5.82-.86-5.86,5.74,0,6-.13,5.34,5.33,5.31,6.5,0,5.73.89,5.74-5.78C174.16,159.84,174.82,160.61,168.94,160.56ZM63.49,333.11c-.12-5.74,1.09-5.54-5.52-5.53h-.75c-4.76,0-4.81,0-4.77,4.83,0,6.57-1.12,5.9,5.8,5.91C64.41,338.33,63.39,338.84,63.49,333.11ZM20.23,288.38c0-4.62,0-4.62-5.56-4.62-4,0-4,0-4,5.75,0,3.78,0,3.78,5.84,3.77C20.24,293.28,20.24,293.28,20.23,288.38Zm45.39-94.5c-5.75,0-5.13-.46-5.17,5.13,0,.67,0,1.34,0,2-.1,1.83.79,2.63,2.58,2.56.75,0,1.51,0,2.27,0,5.52,0,5.14.35,5.1-5C70.37,193.55,71,193.89,65.62,193.88ZM517.49,68.48c0-5.33.26-4.82-4.69-4.82-5.33,0-4.86-.32-4.85,4.93s-.53,4.78,4.7,4.76S517.46,74.11,517.49,68.48ZM149.22,445.07a9.38,9.38,0,0,1,0-1.5c.42-2.65-.8-3.46-3.28-3.17a25.81,25.81,0,0,1-4,0c-1.59-.06-2.35.59-2.19,2.23.07.67,0,1.35,0,2,.11,5.46-.89,5,4.92,5C149.74,449.69,149.18,450.23,149.22,445.07Zm274.69,43.28a12.65,12.65,0,0,1,0-1.51c.3-2.36-.6-3.52-3.07-3.19a8.83,8.83,0,0,1-1.26,0c-5.23,0-4.72-.46-4.72,4.75,0,4.71-.71,4.49,4.42,4.49C424.8,492.9,423.83,493.05,423.91,488.35ZM49.46,380.41c-4.39,0-4.39,0-4.4,4.44s0,4.34,4.81,4.35c3.8,0,3.8,0,3.8-4.52C53.68,380.41,53.68,380.41,49.46,380.41ZM17.59,239a17.59,17.59,0,0,1-1.94,0c-2.22-.24-2.93.76-2.86,2.93.19,6-.91,5.46,5.55,5.48.59,0,1.18,0,1.76-.06s1.14-.18,1.22-.72a15.37,15.37,0,0,0-.06-6.72C20.74,238.25,18.73,239.29,17.59,239Zm107.65-77.36c0-4.39,0-4.39-4.36-4.39h-.76c-3.33,0-3.35,0-3.33,3.4,0,6.31-.6,5.49,5.76,5.62,1.94,0,2.84-.65,2.7-2.62C125.2,163,125.24,162.31,125.24,161.64ZM463.12,68.7C459,68.7,459,68.7,459,72c0,4.57,0,4.57,4.21,4.57,3.73,0,3.73,0,3.73-3.79C467,68.71,467,68.71,463.12,68.7ZM8,333.54c0,4.2,0,4.2,3.62,4.22,4.44,0,4.44,0,4.45-3.62,0-4.12,0-4.12-3.58-4.13C8,330,8,330,8,333.54ZM22.62,197.73c0-3.75,0-3.75-3.76-3.74-3.31,0-3.31,0-3.31,3.7s0,3.66,3.64,3.66C22.56,201.34,22.62,201.28,22.62,197.73ZM407.91,86.36c3.44,0,3.48,0,3.48-3.26,0-3.47-.19-3.68-3.46-3.68s-3.36.24-3.36,3.53S404.61,86.36,407.91,86.36Zm-46.53,6c0-3.19,0-3.19-2.89-3.22-3.49,0-3.69.13-3.69,3.08s.44,3.35,3.32,3.37C361.21,95.65,361.36,95.49,361.38,92.39Zm-53.45,10.16c-.58,2.35.81,2.78,3.21,2.83s3.1-.92,3.1-3.23-.57-3.4-3.1-3.26C308,99.05,307.93,99,307.93,102.55Zm-87.52,18.2c0-3.21-.34-3.53-3.32-3.62-2.14-.07-3,.77-3,3s.39,3.52,3,3.38C219.28,123.39,221,123.22,220.41,120.75Zm45.65-9c0-3.17,0-3.08-3.14-3.21-2.19-.09-3.47.28-3.3,2.94.21,3.07.38,3.46,3.19,3.47C265.93,115,266.05,114.83,266.06,111.73Zm52.23,380.93c-2-.32-3,.44-2.92,2.6s.71,3.08,3,3.05,2.73-1.06,2.79-3S320.42,492.3,318.29,492.66ZM91.43,449.39c3.71,0,3.89-.16,3.91-3.49s-.1-3.61-3.45-3.62c-3.91,0-4,.08-4,3.3C87.83,449.23,88,449.38,91.43,449.39ZM1.33,383.06c.47-2-.25-3-2.57-2.92-1.9.07-3.18.2-3.09,2.68.07,2.11.43,3.23,2.89,3.2C.71,386,1.75,385.41,1.33,383.06Zm370.33,107c0-3-.13-3.14-3.34-3.15s-3.36.17-3.36,3.16.31,3.35,3.53,3.33C371.51,493.39,371.67,493.22,371.66,490.07ZM70.13,156.18c-3.38,0-3.41.19-3.57,3.31-.12,2.56,1.07,3,3.32,3.08,2.54.05,3.07-1,3.08-3.31S72.34,155.7,70.13,156.18Zm-49.6-1.68c.2-1.79-.55-2.47-2.42-2.51-2.16,0-2.45,1.1-2.49,2.81,0,1.9.89,2.37,2.63,2.39C20.26,157.21,20.69,156.19,20.53,154.5ZM265.45,504.22c1.53,0,2.8.07,2.78-2,0-1.79-.54-2.54-2.43-2.6s-2.42.85-2.51,2.54S264,504.38,265.45,504.22ZM38.51,440.56c.26-1.64-.35-2.45-2.16-2.42-1.55,0-2.59.25-2.52,2.17.05,1.55.32,2.58,2.21,2.51C37.59,442.76,38.74,442.5,38.51,440.56Zm84.85-326.15c1.38.06,2.25-.35,2.23-1.82s-.85-1.86-2.16-1.81-1.89.35-1.91,1.73S122.06,114.54,123.36,114.41Zm82.85,392.11c1.22.09,2.14-.1,2.27-1.44.11-1.12-.2-2-1.52-2.07-1.08,0-2.22,0-2.31,1.57C204.58,505.81,205.09,506.47,206.21,506.52ZM72.56,108.91c-.06-1.1-.76-1.42-1.68-1.43s-1.62.38-1.56,1.46.41,1.83,1.6,1.75A1.65,1.65,0,0,0,72.56,108.91Zm101,10c.25-1.79-.73-2.3-2.36-2.3s-2.39.38-2.4,2.1.45,2.54,2.27,2.5C172.68,121.14,173.79,120.79,173.6,118.87ZM147.46,502.43a1.46,1.46,0,0,0-1.62-1.24c-1,0-1.39.71-1.41,1.66s.64,1.24,1.46,1.23S147.52,503.79,147.46,502.43Zm-130-400.5a1.14,1.14,0,0,0-1.33-1.18c-.74,0-1.33.29-1.31,1.18s.58,1,1.19,1C16.79,103,17.34,102.77,17.47,101.93Z"/><path class="d" d="M577.56,463.15c-5.3.06-10.59.14-15.88.15q-14.38,0-28.77,0a5.91,5.91,0,0,1-3-.31c0-.42,0-.84,0-1.26,0-4.79,0-4.8-5-4.8-10.94,0-21.89-.06-32.83.05-2.4,0-3.19-.66-3.17-3.12.11-13,.05-25.93.05-38.9,0-1.67.35-3.48-2.09-3.87-.61-.1-.87-.74-.94-1.37-.3-2.65-1.89-3.36-4.39-3.34-11.28.08-22.57,0-33.85,0-3.64,0-3.7-.06-3.7-3.65q0-20.59,0-41.17c0-1.26.25-2.78-1.17-3.34-1.85-.73-1.87-2.09-1.87-3.67,0-4-.26-4.25-4.33-4.25H399.53c-3.47,0-3.58,0-3.46-3.48.53-15.18-.53-30.36.77-45.58,1.06-12.54.27-25.24.17-37.87,0-2.32.68-3.05,3-3,11,.1,22.06.05,33.09,0a10.42,10.42,0,0,0,2.74-.29A1.91,1.91,0,0,0,437.3,258a2.06,2.06,0,0,0-1.86-2.07,21.44,21.44,0,0,0-2.27-.06c-10.61,0-21.22-.07-31.82.05-2.49,0-3.37-.59-3.34-3.23.13-12.37.11-24.75,0-37.13,0-2.38.63-3.21,3.11-3.18,11.28.11,22.56.08,33.85,0,6.73,0,6.57,1.1,6.54-6.49,0-3.58,0-3.58,3.6-3.61s4-.36,4-4.12q0-17.31,0-34.61c0-1,.13-2,.19-3,.13-2,1.07-2.78,3.24-2.75,9.76.12,19.53,0,29.29,0,6.12,0,6.22,0,6.13-6.1,0-2.3.64-3.07,3-3,10.6.11,21.21.05,31.82.05,5.14,0,5.14,0,5.12-5,0-3.55-.51-4.07-4.1-4.08-6.14,0-12.29-.07-18.44,0-2.1,0-2.76-.69-2.74-2.77q.12-15.41,0-30.82c0-2.25.74-2.87,2.92-2.85,10,.09,20,0,30.06.07,2,0,3.45-.66,3.34-2.77-.12-2.52,1.08-2.87,3.2-2.86,11.2.08,22.4,0,33.6.08,2.38,0,3.53-.75,3.19-3.19s.79-3,3-3c7.74.11,15.49,0,23.23,0V350.85h-15.6v1h15.6v57.59c-1,.7-2.09.49-3.16.5-4.27,0-8.55,0-12.82.13-.73,0-2-.08-2,1s1.27.83,2,.83c4.36,0,8.72,0,13.07,0a4.26,4.26,0,0,1,2.9.54v57.08H583.46c-3.92,0-3.9,0-4.05-3.93C579.36,464.42,579.64,462.88,577.56,463.15Z"/><path class="d" d="M605.18,91.7c-7.74,0-15.49.07-23.23,0-2.25,0-3.38.55-3,3s-.81,3.21-3.19,3.19c-11.2-.09-22.4,0-33.6-.08-2.12,0-3.32.34-3.2,2.86.11,2.11-1.31,2.78-3.34,2.77-10-.06-20,0-30.06-.07-2.18,0-2.94.6-2.92,2.85q.15,15.4,0,30.82c0,2.08.64,2.8,2.74,2.77,6.15-.11,12.3-.06,18.44,0,3.59,0,4.09.53,4.1,4.08,0,5,0,5-5.12,5-10.61,0-21.22.06-31.82-.05-2.36,0-3,.74-3,3,.09,6.1,0,6.1-6.13,6.1-9.76,0-19.53.07-29.29,0-2.17,0-3.11.71-3.24,2.75-.06,1-.19,2-.19,3q0,17.31,0,34.61c0,3.76-.34,4.1-4,4.12s-3.62,0-3.6,3.61c0,7.59.19,6.46-6.54,6.49-11.29,0-22.57.07-33.85,0-2.48,0-3.13.8-3.11,3.18.1,12.38.12,24.76,0,37.13,0,2.64.85,3.26,3.34,3.23,10.6-.12,21.21-.06,31.82-.05a21.44,21.44,0,0,1,2.27.06A2.06,2.06,0,0,1,437.3,258a1.91,1.91,0,0,1-1.45,2.11,10.42,10.42,0,0,1-2.74.29c-11,0-22.06.07-33.09,0-2.33,0-3,.71-3,3,.1,12.63.89,25.33-.17,37.87-1.3,15.22-.24,30.4-.77,45.58-.12,3.47,0,3.48,3.46,3.48h37.13c4.07,0,4.34.24,4.33,4.25,0,1.58,0,2.94,1.87,3.67,1.42.56,1.17,2.08,1.17,3.34q0,20.58,0,41.17c0,3.59.06,3.64,3.7,3.65,11.28,0,22.57,0,33.85,0,2.5,0,4.09.69,4.39,3.34.07.63.33,1.27.94,1.37,2.44.39,2.09,2.2,2.09,3.87,0,13,.06,25.93-.05,38.9,0,2.46.77,3.15,3.17,3.12,10.94-.11,21.89-.05,32.83-.05,4.94,0,4.94,0,5,4.8,0,.42,0,.84,0,1.26-1.21,0-1.07-.94-1-1.62.26-2.5-1.08-2.93-3.21-2.92-11,.07-22.05,0-33.08,0-4.24,0-4.24,0-4.24-4.3,0-12.87,0-25.75,0-38.63,0-1.9.09-3.62-2.61-3.47-1,.05-1.52-.73-1.4-1.7.33-2.59-1.16-2.83-3.21-2.82-11.69.06-23.4,0-35.09.08-2.39,0-3.19-.62-3.17-3.1.11-14.05.05-28.11.05-42.17,0-1.73.41-3.64-2.34-3.82-1.13-.07-.89-1.27-.89-2.07,0-5.28.47-5.09-5.33-5.1H398.57c-3.27,0-3.43-.16-3.43-3.42,0-13.55-.36-27.12.09-40.65.5-15.07.12-30.12.34-45.18,0-3,.29-3.26,3.38-3.26q16.92,0,33.84,0c1,0,2.19.3,3.07-.68-.83-1.22-2-.8-3-.8q-16.43,0-32.83,0c-3.39,0-3.49-.09-3.49-3.33,0-13.3,0-26.6,0-39.9,0-2.38.67-3.23,3.15-3.21,12.62.1,25.25.05,37.88,0,3.16,0,3.29-.16,3.27-3.26,0-.51,0-1-.05-1.52-.25-5.14-.26-5.25,4.73-5.3,2.32,0,2.54-1.21,2.54-3,0-12.37,0-24.74,0-37.12,0-3.3,0-3.31,3.42-3.31h32.07c3.52,0,3.58-.08,3.62-3.47.07-6.26-.92-5.63,5.64-5.64,10.19,0,20.37-.06,30.56,0,2.29,0,3.12-.65,3.05-3-.18-5.62.44-4.79-4.9-4.84-5.64,0-11.28-.1-16.91,0-2.36.06-3-.78-3-3.08q.15-15.9,0-31.81c0-2.24.72-2.93,2.9-2.92,9.85.08,19.69,0,29.54,0,3.36,0,3.5,0,3.44-3.31,0-2.21,1-2.45,2.8-2.45q16.91.06,33.83,0c3.35,0,3.57-.07,3.37-3.37-.15-2.64.87-3.3,3.34-3.25,7.07.13,14.14,0,21.21,0,1.08,0,2.17-.16,3.25-.25Z"/><path class="d" d="M605.18,520.08c-5.55,0-11.11-.05-16.66,0-1.93,0-2.75-.63-2.74-2.61,0-12.37,0-24.74.05-37.11,0-3.28.32-3.39,3.73-3.48,5.21-.13,10.43.38,15.62-.27Z"/><path class="d" d="M605.18,72.5c-2.95-1-6-.43-9-.41-2.34,0-3.13-.77-3.06-3.06.13-4,.08-7.9,0-11.85,0-1.62.58-2.25,2.21-2.23,3.27,0,6.55-.08,9.82-.13Z"/><path class="d" d="M605.18,412.48a4.26,4.26,0,0,0-2.9-.54c-4.35,0-8.71,0-13.07,0-.75,0-2,.33-2-.83s1.28-1,2-1c4.27-.11,8.55-.09,12.82-.13,1.07,0,2.19.2,3.16-.5Z"/><path class="d" d="M577.56,463.15c2.08-.27,1.8,1.27,1.85,2.48.15,3.93.13,3.93,4.05,3.93h21.72v1.52a6.15,6.15,0,0,0-3.2-.43H581.62c-3.27,0-3.27,0-3.33-3.42C578.26,465.85,578.66,464.36,577.56,463.15Z"/><path class="d" d="M605.18,554.43a3,3,0,0,1-2-3.35,29.66,29.66,0,0,0,0-4c-.11-1.5.6-2.14,2-2.25Z"/><path class="d" d="M605.18,351.86h-15.6v-1h15.6Z"/><path class="d" d="M396.27,376.36c0-5.81.07-11.62,0-17.42,0-2.24.79-2.9,3-2.89q17.42.12,34.85,0c2.11,0,2.76.73,2.75,2.79q-.1,17.55,0,35.1c0,2.08-.69,2.81-2.78,2.8q-17.55-.11-35.1,0c-2,0-2.68-.78-2.66-2.69C396.31,388.15,396.27,382.25,396.27,376.36Z"/><path class="d" d="M345.24,286.69c0-5.55.05-11.1,0-16.65,0-1.83.59-2.54,2.47-2.53q17.16.09,34.31,0c1.76,0,2.35.63,2.34,2.37q-.07,17.16,0,34.31c0,1.85-.8,2.26-2.44,2.26q-17.16-.06-34.31,0c-1.75,0-2.39-.63-2.37-2.36C345.29,298.29,345.25,292.49,345.24,286.69Z"/><path class="d" d="M401.14,186.57c0-5.21.05-10.43,0-15.64,0-2,.49-2.91,2.68-2.89,10.51.08,21,.06,31.53,0,1.85,0,2.56.64,2.55,2.49q-.06,16.14,0,32.28c0,1.9-.72,2.45-2.55,2.44-10.51-.06-21-.08-31.53,0-2.14,0-2.74-.77-2.7-2.8C401.21,197.17,401.14,191.87,401.14,186.57Z"/><path class="d" d="M382.21,237.76c0,5.13-.06,10.26,0,15.39,0,2.09-.59,3-2.88,3q-15.25-.15-30.53,0c-2.41,0-3.23-.86-3.21-3.27q.15-15.26,0-30.53c0-2.43.8-3.24,3.22-3.21q15.26.13,30.53,0c2.3,0,2.89.92,2.86,3C382.15,227.33,382.2,232.54,382.21,237.76Z"/><path class="d" d="M448.83,434.2c0-5,.08-9.93,0-14.89-.05-2.13.59-3.08,2.83-3.06q15.39.09,30.79,0c2.17,0,2.9.85,2.88,3q-.14,15,0,30c0,2.42-.82,3.24-3.22,3.22q-15-.14-30,0c-2.38,0-3.31-.75-3.24-3.2C448.93,444.3,448.83,439.25,448.83,434.2Z"/><path class="d" d="M322.66,285.4c0,4.45-.06,8.91,0,13.36,0,2.11-.84,2.83-2.85,2.82q-13.11-.07-26.22,0c-2.09,0-2.83-.84-2.82-2.86q.09-13.23,0-26.47c0-1.72.58-2.42,2.33-2.41q13.62.06,27.23,0c1.74,0,2.34.71,2.31,2.43C322.6,276.66,322.66,281,322.66,285.4Z"/><path class="d" d="M358.3,391.69c-4.38,0-8.76-.07-13.13,0-2.11,0-3-.56-2.95-2.86.11-8.58.08-17.16,0-25.74,0-2.23.71-3.18,3.07-3.15,8.66.1,17.33.08,26,0,2,0,2.87.63,2.86,2.74q-.11,13.25,0,26.5c0,1.87-.63,2.53-2.49,2.49C367.22,391.63,362.76,391.69,358.3,391.69Z"/><path class="d" d="M558,508.79c-4.37,0-8.75-.06-13.13,0-1.94,0-2.63-.63-2.6-2.64q.13-12.89,0-25.76c0-1.84.6-2.58,2.46-2.57q13.38.07,26.77,0c1.73,0,2.36.68,2.35,2.42-.06,8.66-.09,17.34,0,26,0,2.14-.9,2.56-2.72,2.54C566.74,508.74,562.36,508.79,558,508.79Z"/><path class="d" d="M303,314.28c4.21,0,8.41.05,12.61,0,1.78,0,2.56.52,2.54,2.45q-.12,12.62,0,25.22c0,2.11-.88,2.89-2.84,2.89q-12.6,0-25.22,0c-1.94,0-2.63-.86-2.62-2.78.07-8.41.09-16.82,0-25.22,0-2.05.77-2.61,2.67-2.57C294.41,314.34,298.7,314.28,303,314.28Z"/><path class="d" d="M348.77,194.75c0-4.12.06-8.25,0-12.37,0-1.9.56-2.74,2.59-2.73q12.5.1,25,0c1.92,0,2.47.79,2.46,2.58q-.07,12.63,0,25.25c0,1.72-.52,2.4-2.31,2.39q-12.63-.1-25.25,0c-1.84,0-2.54-.59-2.49-2.48C348.85,203.17,348.77,199,348.77,194.75Z"/><path class="d" d="M324.2,242.29c0,4.12,0,8.24,0,12.36,0,1.78-.63,2.58-2.52,2.56q-12.36-.09-24.72,0c-1.93,0-2.69-.78-2.68-2.72q.07-12.36,0-24.72c0-2,.8-2.66,2.72-2.64q12.36.07,24.72,0c1.92,0,2.51.8,2.48,2.57C324.16,233.88,324.19,238.09,324.2,242.29Z"/><path class="d" d="M469.88,112c3.87,0,7.74,0,11.61,0,1.76,0,2.61.47,2.6,2.41-.07,8,0,16,0,24,0,1.91-.86,2.5-2.6,2.49q-11.87,0-23.73,0c-1.68,0-2.45-.61-2.44-2.37q.06-12.12,0-24.23c0-1.79.76-2.32,2.44-2.29C461.81,112.07,465.85,112,469.88,112Z"/><path class="d" d="M403.32,431.2c0-3.7.05-7.4,0-11.1,0-1.73.62-2.36,2.36-2.35,7.32.07,14.63.06,21.95,0,1.61,0,2.26.56,2.26,2.19q-.06,11.22,0,22.45c0,1.77-.78,2.31-2.47,2.3q-10.71-.09-21.44,0c-1.95,0-2.72-.69-2.67-2.65C403.38,438.43,403.32,434.82,403.32,431.2Z"/><path class="d" d="M315.81,380c0,3.45-.06,6.9,0,10.34,0,1.69-.48,2.48-2.27,2.47q-10.86-.07-21.71,0c-1.66,0-2.18-.73-2.16-2.31.05-7.07,0-14.13,0-21.2,0-1.77.65-2.61,2.53-2.6,7.07.06,14.14,0,21.2,0,1.75,0,2.41.76,2.38,2.44C315.78,372.79,315.81,376.41,315.81,380Z"/><path class="d" d="M309.52,213.27c-3.36,0-6.72-.09-10.08,0-2,.07-2.85-.48-2.81-2.67.12-6.71.09-13.44,0-20.16,0-1.82.57-2.58,2.44-2.57q10.47.09,20.92,0c2,0,2.61.78,2.59,2.71q-.13,10.08,0,20.17c0,1.87-.66,2.55-2.49,2.51C316.58,213.21,313.05,213.27,309.52,213.27Z"/><path class="d" d="M246.08,321.14c3.28,0,6.56.06,9.84,0,1.69,0,2.45.47,2.43,2.29q-.09,9.84,0,19.68c0,1.89-.64,2.73-2.66,2.7-6.47-.09-12.95-.08-19.43,0-1.93,0-2.75-.68-2.73-2.65.06-6.48.08-13,0-19.44,0-2,.8-2.63,2.71-2.57C239.52,321.22,242.8,321.14,246.08,321.14Z"/><path class="d" d="M269.64,243.75c0,3.2-.06,6.39,0,9.59,0,1.76-.5,2.62-2.44,2.6-6.47-.08-12.95-.07-19.42,0-1.83,0-2.56-.68-2.54-2.53q.08-9.84,0-19.68c0-1.71.57-2.4,2.34-2.38q9.84.1,19.68,0c2,0,2.45.83,2.41,2.58C269.59,237.19,269.64,240.47,269.64,243.75Z"/><path class="d" d="M238.6,286.69c0-3.36,0-6.72,0-10.08,0-1.73.71-2.42,2.41-2.41q10.2,0,20.42,0c1.74,0,2.36.76,2.35,2.45,0,6.89-.06,13.78,0,20.67,0,1.79-.75,2.3-2.42,2.29q-10.2-.08-20.42,0c-1.71,0-2.41-.55-2.36-2.33C238.66,293.75,238.59,290.22,238.6,286.69Z"/><path class="d" d="M414.76,124c2.94,0,5.89,0,8.83,0,1.81,0,2.59.69,2.57,2.54q-.07,8.83,0,17.67c0,1.82-.72,2.61-2.54,2.6q-9-.06-17.92,0c-1.73,0-2.4-.72-2.39-2.43.05-6,.06-12,0-17.92,0-1.94.87-2.49,2.62-2.45C408.87,124.06,411.81,124,414.76,124Z"/><path class="d" d="M246,393.9c-2.86,0-5.72,0-8.58,0-1.58,0-2.31-.61-2.3-2.23q0-8.82,0-17.65c0-1.32.59-1.81,1.83-1.8q9,0,17.91,0c1.34,0,2,.53,2,2q-.07,8.7,0,17.4c0,1.8-.87,2.35-2.49,2.33C251.56,393.87,248.78,393.9,246,393.9Z"/><path class="d" d="M259.75,194.94c2.77,0,5.55.05,8.31,0,1.64,0,2.45.43,2.42,2.28-.09,5.54-.05,11.08,0,16.62,0,1.67-.63,2.47-2.38,2.46q-8.31-.08-16.62,0c-1.84,0-2.57-.82-2.56-2.6,0-5.54,0-11.09,0-16.63,0-1.51.57-2.14,2.06-2.12C253.87,195,256.81,194.94,259.75,194.94Z"/><path class="d" d="M199,299.65c-2.78,0-5.55-.06-8.32,0-1.59.05-2.27-.47-2.24-2.15.07-5.55.05-11.09,0-16.63,0-1.79.61-2.58,2.5-2.56q7.93.12,15.87,0c2,0,2.7.77,2.68,2.7-.07,5.37-.11,10.75,0,16.12,0,2.08-.8,2.61-2.69,2.53C204.18,299.56,201.57,299.65,199,299.65Z"/><path class="d" d="M363,419.75c2.69,0,5.38,0,8.07,0,1.74,0,2.63.58,2.6,2.5-.08,5.3-.07,10.6,0,15.9,0,1.72-.63,2.45-2.35,2.43-5.47,0-10.94-.05-16.4,0-1.79,0-2.33-.79-2.31-2.46.06-5.3.08-10.6,0-15.9,0-1.93.83-2.52,2.59-2.48C357.74,419.8,360.35,419.76,363,419.75Z"/><path class="d" d="M215.56,245.28c0,2.52-.09,5.05,0,7.57.09,1.93-.73,2.5-2.53,2.47q-7.83-.09-15.65,0c-1.6,0-2.27-.5-2.25-2.18.07-5.21.05-10.43,0-15.65,0-1.75.5-2.63,2.46-2.59,5.13.09,10.27.06,15.4,0,1.84,0,2.6.72,2.56,2.55C215.52,240.06,215.56,242.67,215.56,245.28Z"/><path class="d" d="M192.64,328.78c2.53,0,5.05.06,7.57,0,1.69-.05,2.47.54,2.45,2.31,0,5.3,0,10.6,0,15.9,0,1.56-.65,2.27-2.28,2.25q-7.69-.08-15.39,0c-1.7,0-2.49-.64-2.48-2.36,0-5.29,0-10.59,0-15.89,0-1.66.76-2.23,2.32-2.2C187.43,328.82,190,328.78,192.64,328.78Z"/><path class="d" d="M511.22,479.29c2.43,0,4.87.08,7.31,0,1.78-.08,2.4.73,2.39,2.38,0,5.13,0,10.25,0,15.38,0,1.64-.67,2.42-2.43,2.4q-7.44-.1-14.87,0c-1.86,0-2.55-.78-2.54-2.56q.06-7.56,0-15.12c0-1.82.75-2.55,2.59-2.47C506.18,479.37,508.7,479.29,511.22,479.29Z"/><path class="d" d="M349.76,146.51c0-2.43.05-4.87,0-7.3,0-1.55.43-2.33,2.14-2.31,5,.07,10.07,0,15.11,0,1.58,0,2.26.6,2.24,2.24q-.11,7.44,0,14.87c0,1.79-.76,2.34-2.43,2.32-5-.05-9.91-.06-14.86,0-1.69,0-2.21-.72-2.17-2.28.05-2.52,0-5,0-7.56Z"/><path class="d" d="M139.72,290.47c0-2.1.05-4.2,0-6.3-.05-1.77.58-2.66,2.47-2.63q6.31.07,12.62,0c1.59,0,2.37.63,2.37,2.19q0,6.69,0,13.37c0,1.52-.66,2.3-2.31,2.28-4.2-.06-8.4,0-12.61,0-1.77,0-2.63-.71-2.56-2.57C139.78,294.68,139.72,292.58,139.72,290.47Z"/><path class="d" d="M194.51,397.3c-2.18,0-4.37,0-6.55,0-1.65,0-2.46-.52-2.43-2.32.08-4.36.06-8.73,0-13.09,0-1.84.83-2.56,2.6-2.54,4.28,0,8.56,0,12.84,0,1.73,0,2.4.79,2.39,2.45,0,4.45-.05,8.9,0,13.34,0,1.69-.81,2.19-2.33,2.16C198.87,397.27,196.69,397.3,194.51,397.3Z"/><path class="d" d="M202.05,205.87c0-2.18,0-4.37,0-6.55-.05-1.56.48-2.31,2.16-2.29,4.45.06,8.9.05,13.34,0,1.5,0,2.12.58,2.11,2.09,0,4.53,0,9.06,0,13.59,0,1.52-.71,2.08-2.17,2.07-4.44,0-8.89,0-13.34,0-1.52,0-2.11-.65-2.08-2.13C202.08,210.4,202.05,208.13,202.05,205.87Z"/><path class="d" d="M299.64,154.61c0-2.19,0-4.37,0-6.56,0-1.37.61-2,2-2,4.46,0,8.91,0,13.37,0,1.48,0,2.08.64,2.06,2.15q-.09,6.56,0,13.11c0,1.65-.73,2.26-2.27,2.26-4.37,0-8.74,0-13.11,0-1.53,0-2.07-.74-2.05-2.19.05-2.26,0-4.53,0-6.8Z"/><path class="d" d="M309.3,426.71h6.81c1.35,0,1.95.6,1.94,2-.06,4.37-.05,8.74,0,13.11,0,1.53-.74,2.1-2.16,2.1-4.37,0-8.75,0-13.12,0a1.93,1.93,0,0,1-2.21-2.14c0-4.45,0-8.9,0-13.36,0-1.33.81-1.73,2-1.73h6.81Z"/><path class="d" d="M154.56,237c2,0,4,.06,6.05,0,1.66-.06,2.24.7,2.22,2.27q0,6.3,0,12.61c0,1.56-.62,2.27-2.27,2.25-4.11-.07-8.23-.06-12.35,0-1.72,0-2.45-.71-2.44-2.41,0-4.12,0-8.24,0-12.36,0-1.79.85-2.37,2.48-2.34C150.35,237.05,152.45,237,154.56,237Z"/><path class="d" d="M143.46,348.49c-2.1,0-4.2-.05-6.29,0-1.53,0-2.09-.64-2.07-2.12.05-4.2,0-8.4,0-12.6,0-1.56.64-2.31,2.26-2.29,4.11,0,8.23,0,12.34,0,1.71,0,2.43.84,2.42,2.49,0,4.11,0,8.23,0,12.34,0,1.51-.69,2.16-2.12,2.15Z"/><path class="d" d="M267.28,165.23c0,1.93,0,3.87,0,5.8a1.89,1.89,0,0,1-2.19,2.13c-3.69,0-7.39,0-11.09,0-1.83,0-2.55-1-2.53-2.69,0-3.62,0-7.23,0-10.85,0-1.49.59-2.17,2.07-2.16,4,0,7.91,0,11.86,0,1.4,0,2,.6,1.92,2-.05,1.93,0,3.87,0,5.8Z"/><path class="d" d="M360.43,348.25c-5.38,0-10.77-.07-16.15,0-2.22,0-2.95-.86-2.94-3q.09-16.16,0-32.3c0-2.32.88-3.06,3.15-3q15.88.12,31.79,0c2.44,0,3.22.86,3.2,3.25-.09,10.6,0,21.19-.05,31.79,0,3-.25,3.25-3.36,3.26Zm-.21-1.45c5.13,0,10.27-.07,15.4,0,2.08.05,2.79-.63,2.77-2.74q-.13-15,0-30c0-1.95-.6-2.66-2.6-2.64q-15.4.1-30.8,0c-1.84,0-2.52.61-2.51,2.48q.11,15.15,0,30.29c0,2,.6,2.69,2.61,2.65C350.12,346.73,355.17,346.8,360.22,346.8Z"/><path class="d" d="M162.64,199.1h5.56a1.88,1.88,0,0,1,2.12,2.19c0,3.45,0,6.9,0,10.35a2.09,2.09,0,0,1-2.27,2.41c-3.54,0-7.08,0-10.61,0-1.51,0-2.13-.8-2.13-2.21,0-3.62,0-7.24,0-10.86,0-1.41.7-1.94,2-1.92,1.77,0,3.54,0,5.3,0Z"/><path class="d" d="M262.45,440.93c0,1.68,0,3.36,0,5,0,1.46-.63,2.17-2.11,2.17-3.53,0-7.06,0-10.58,0-1.53,0-2.09-.76-2.08-2.19,0-3.44,0-6.88,0-10.33,0-1.43.63-1.94,2-1.92,3.61,0,7.22,0,10.83,0,1.56,0,2,.75,2,2.2C262.4,437.56,262.46,439.25,262.45,440.93Z"/><path class="d" d="M144.15,382.31c7.17,0,7.17,0,7.17,7.09s0,7.21-7.34,7.21c-1.59,0-3.19,0-4.78,0s-2.49-.63-2.47-2.37c.05-3.28,0-6.55,0-9.83,0-1.52.69-2.12,2.13-2.11C140.62,382.33,142.39,382.32,144.15,382.31Z"/><path class="d" d="M93.12,287.67c0-1.68,0-3.36,0-5,0-1.44.59-2.18,2.11-2.16,3.27,0,6.55,0,9.82,0a1.8,1.8,0,0,1,2.09,2c0,3.61,0,7.22,0,10.83,0,1.24-.57,1.82-1.86,1.81-3.44,0-6.89,0-10.33,0-1.25,0-1.86-.54-1.84-1.82,0-1.84,0-3.69,0-5.54Z"/><path class="d" d="M104.68,248.52c-6.81,0-6.81,0-6.8-6.7,0-7,0-7,7.1-7,6.73,0,6.73,0,6.74,6.76C111.73,248.52,111.73,248.52,104.68,248.52Z"/><path class="d" d="M98.66,330.17c7,0,7,0,7,7s.69,6.36-6.3,6.4c-1.76,0-3.53,0-5.29,0a1.9,1.9,0,0,1-2.16-2.17c0-3.1,0-6.21,0-9.32,0-1.46.71-1.92,2-1.9C95.47,330.19,97.07,330.17,98.66,330.17Z"/><path class="d" d="M564.85,68.52c-.1,7.16,1.09,6.61-6.58,6.62-7.94,0-6.66.45-6.79-6.7,0-1,0-2,0-3,0-3.58,0-3.59,3.72-3.59,2.35,0,4.7.05,7.06,0,1.88,0,2.82.64,2.61,2.67A38.68,38.68,0,0,0,564.85,68.52Z"/><path class="d" d="M219.62,169.14c0,6.63,0,6.63-6.61,6.63s-6.64,0-6.61-6.64c0-8.06-.82-6.86,6.75-6.87,7.32,0,6.39-1,6.47,6.38Z"/><path class="d" d="M466.46,496.27c-6.21,0-6.21,0-6.2-6.23,0-6.44,0-6.44,6.55-6.43,6.21,0,6.21,0,6.21,6C473,496.27,473,496.27,466.46,496.27Z"/><path class="d" d="M114.27,207.58c-7.17-.05-6.13.74-6.18-6.12,0-7-.51-6.32,6.38-6.31,6.66,0,5.91-.69,6,5.88,0,1.09,0,2.18,0,3.27,0,3.26,0,3.26-3.38,3.28Z"/><path class="d" d="M200.23,450.79c-6,0-6,0-6-6,.06-7.17-.95-6.25,6.31-6.27,6.21,0,6.14-.84,6.11,5.88C206.64,450.78,206.67,450.78,200.23,450.79Z"/><path class="d" d="M57.57,282.07c7.1.07,5.94-.64,6,6,.08,6.32.1,5.62-5.58,5.59-6.13,0-6.46,1.4-6.38-6.38C51.68,282.05,51.65,282.05,57.57,282.07Z"/><path class="d" d="M57.85,246.86c-6.42,0-5.59.62-5.63-5.69,0-5.88,0-5.88,5.83-5.88,5.58,0,5.58,0,5.58,5.44V241C63.59,247.46,64.23,246.84,57.85,246.86Z"/><path class="d" d="M91.72,387.13c0-5.77,0-5.77,5.67-5.77,5.9,0,6,0,5.88,5.83-.08,6,1.2,5.64-5.57,5.67h-.25C90.84,392.75,91.83,393.78,91.72,387.13Z"/><path class="d" d="M168.94,160.56c5.88.05,5.22-.72,5.21,5.27,0,6.67.76,5.75-5.74,5.78-5.46,0-5.36.71-5.33-5.31C163.12,159.7,162.53,160.63,168.94,160.56Z"/><path class="d" d="M63.49,333.11c-.1,5.73.92,5.22-5.24,5.21-6.92,0-5.75.66-5.8-5.91,0-4.82,0-4.82,4.77-4.83H58C64.58,327.57,63.37,327.37,63.49,333.11Z"/><path class="d" d="M20.23,288.38c0,4.9,0,4.9-3.7,4.9-5.84,0-5.84,0-5.84-3.77,0-5.74,0-5.74,4-5.75C20.22,283.76,20.22,283.76,20.23,288.38Z"/><path class="d" d="M65.62,193.88c5.42,0,4.75-.33,4.78,4.71,0,5.34.42,5-5.1,5-.76,0-1.52,0-2.27,0-1.79.07-2.68-.73-2.58-2.56,0-.68,0-1.35,0-2C60.49,193.42,59.87,193.89,65.62,193.88Z"/><path class="d" d="M517.49,68.48c0,5.63.34,4.85-4.84,4.87s-4.69.46-4.7-4.76-.48-4.94,4.85-4.93C517.75,63.66,517.51,63.15,517.49,68.48Z"/><path class="d" d="M149.22,445.07c0,5.16.52,4.62-4.56,4.61-5.81,0-4.81.45-4.92-5,0-.67.06-1.35,0-2-.16-1.64.6-2.29,2.19-2.23a25.81,25.81,0,0,0,4,0c2.48-.29,3.7.52,3.28,3.17A9.38,9.38,0,0,0,149.22,445.07Z"/><path class="d" d="M423.91,488.35c-.08,4.7.89,4.55-4.62,4.55-5.13,0-4.42.22-4.42-4.49,0-5.21-.51-4.72,4.72-4.75a8.83,8.83,0,0,0,1.26,0c2.47-.33,3.37.83,3.07,3.19A12.65,12.65,0,0,0,423.91,488.35Z"/><path class="d" d="M49.46,380.41c4.22,0,4.22,0,4.21,4.27,0,4.52,0,4.52-3.8,4.52-4.82,0-4.82,0-4.81-4.35S45.07,380.4,49.46,380.41Z"/><path class="d" d="M17.59,239c1.14.29,3.15-.75,3.67.9a15.37,15.37,0,0,1,.06,6.72c-.08.54-.71.67-1.22.72s-1.17.06-1.76.06c-6.46,0-5.36.49-5.55-5.48-.07-2.17.64-3.17,2.86-2.93A17.59,17.59,0,0,0,17.59,239Z"/><path class="d" d="M125.24,161.64c0,.67,0,1.35,0,2,.14,2-.76,2.66-2.7,2.62-6.36-.13-5.73.69-5.76-5.62,0-3.37,0-3.37,3.33-3.4h.76C125.24,157.25,125.24,157.25,125.24,161.64Z"/><path class="d" d="M463.12,68.7c3.87,0,3.87,0,3.86,4.09,0,3.79,0,3.79-3.73,3.79-4.22,0-4.22,0-4.21-4.57C459,68.7,459,68.7,463.12,68.7Z"/><path class="d" d="M8,333.54C8,330,8,330,12.48,330c3.6,0,3.6,0,3.58,4.13,0,3.63,0,3.63-4.45,3.62C8,337.74,8,337.74,8,333.54Z"/><path class="d" d="M22.62,197.73c0,3.55-.06,3.61-3.43,3.62-3.61,0-3.64,0-3.64-3.66s0-3.69,3.31-3.7C22.61,194,22.61,194,22.62,197.73Z"/><path class="d" d="M407.91,86.36c-3.3,0-3.35,0-3.34-3.41s.24-3.54,3.36-3.53,3.47.21,3.46,3.68C411.39,86.32,411.35,86.36,407.91,86.36Z"/><path class="d" d="M361.38,92.39c0,3.1-.17,3.26-3.26,3.23-2.88,0-3.32-.47-3.32-3.37s.2-3.11,3.69-3.08C361.39,89.2,361.39,89.2,361.38,92.39Z"/><path class="d" d="M307.93,102.55c0-3.54.1-3.5,3.21-3.66,2.53-.14,3.1,1,3.1,3.26s-.56,3.29-3.1,3.23S307.35,104.9,307.93,102.55Z"/><path class="d" d="M220.41,120.75c.54,2.47-1.13,2.64-3.26,2.75-2.65.14-3-1.17-3-3.38s.84-3.06,3-3C220.07,117.22,220.44,117.54,220.41,120.75Z"/><path class="d" d="M266.06,111.73c0,3.1-.13,3.22-3.25,3.2-2.81,0-3-.4-3.19-3.47-.17-2.66,1.11-3,3.3-2.94C266.07,108.65,266.07,108.56,266.06,111.73Z"/><path class="d" d="M318.29,492.66c2.13-.36,2.9.62,2.83,2.68s-.64,3-2.79,3-2.92-1-3-3.05S316.28,492.34,318.29,492.66Z"/><path class="d" d="M91.43,449.39c-3.45,0-3.6-.16-3.59-3.81,0-3.22.14-3.32,4-3.3,3.35,0,3.47.14,3.45,3.62S95.14,449.4,91.43,449.39Zm.07-1.09c2,.31,2.45-.65,2.49-2.45.05-2-.71-2.61-2.65-2.6s-2.46.71-2.47,2.53C88.85,447.76,89.52,448.64,91.5,448.3Z"/><path class="d" d="M1.33,383.06c.42,2.35-.62,2.93-2.77,3-2.46,0-2.82-1.09-2.89-3.2-.09-2.48,1.19-2.61,3.09-2.68C1.08,380.05,1.8,381,1.33,383.06Z"/><path class="d" d="M371.66,490.07c0,3.15-.15,3.32-3.17,3.34-3.22,0-3.53-.27-3.53-3.33s.18-3.16,3.36-3.16S371.65,487.05,371.66,490.07Z"/><path class="d" d="M70.13,156.18c2.21-.48,2.85.71,2.83,3.08s-.54,3.36-3.08,3.31c-2.25,0-3.44-.52-3.32-3.08C66.72,156.37,66.75,156.19,70.13,156.18Z"/><path class="d" d="M20.53,154.5c.16,1.69-.27,2.71-2.28,2.69-1.74,0-2.67-.49-2.63-2.39,0-1.71.33-2.85,2.49-2.81C20,152,20.73,152.71,20.53,154.5Z"/><path class="d" d="M265.45,504.22c-1.41.16-2.26-.32-2.16-2.08s.53-2.6,2.51-2.54,2.41.81,2.43,2.6C268.25,504.29,267,504.24,265.45,504.22Z"/><path class="d" d="M38.51,440.56c.23,1.94-.92,2.2-2.47,2.26-1.89.07-2.16-1-2.21-2.51-.07-1.92,1-2.14,2.52-2.17C38.16,438.11,38.77,438.92,38.51,440.56Z"/><path class="d" d="M123.36,114.41c-1.3.13-1.87-.46-1.84-1.9s.73-1.7,1.91-1.73,2.13.38,2.16,1.81S124.74,114.47,123.36,114.41Z"/><path class="d" d="M206.21,506.52c-1.12,0-1.63-.71-1.56-1.94.09-1.56,1.23-1.59,2.31-1.57,1.32,0,1.63.95,1.52,2.07C208.35,506.42,207.43,506.61,206.21,506.52Z"/><path class="d" d="M72.56,108.91a1.65,1.65,0,0,1-1.64,1.78c-1.19.08-1.55-.75-1.6-1.75s.6-1.47,1.56-1.46S72.5,107.81,72.56,108.91Z"/><path class="d" d="M173.6,118.87c.19,1.92-.92,2.27-2.49,2.3-1.82,0-2.28-.87-2.27-2.5s.9-2.11,2.4-2.1S173.85,117.08,173.6,118.87Z"/><path class="d" d="M147.46,502.43c.06,1.36-.65,1.65-1.57,1.65s-1.48-.22-1.46-1.23.41-1.66,1.41-1.66A1.46,1.46,0,0,1,147.46,502.43Z"/><path class="d" d="M17.47,101.93c-.13.84-.68,1.1-1.45,1-.61-.06-1.18-.24-1.19-1s.57-1.15,1.31-1.18A1.14,1.14,0,0,1,17.47,101.93Z"/><path class="d" d="M360.22,346.8c-5.05,0-10.1-.07-15.14,0-2,0-2.62-.69-2.61-2.65q.11-15.13,0-30.29c0-1.87.67-2.49,2.51-2.48q15.4.09,30.8,0c2,0,2.62.69,2.6,2.64q-.11,15,0,30c0,2.11-.69,2.79-2.77,2.74C370.49,346.73,365.35,346.8,360.22,346.8Z"/><path class="d" d="M91.5,448.3c-2,.34-2.65-.54-2.63-2.52,0-1.82.59-2.52,2.47-2.53s2.7.6,2.65,2.6C94,447.65,93.46,448.61,91.5,448.3Z"/></g></svg>